<?xml version="1.0" encoding="utf-8"?>
<!-- Generator: Adobe Illustrator 21.0.0, SVG Export Plug-In . SVG Version: 6.00 Build 0)  -->
<svg version="1.1"  xmlns="http://www.w3.org/2000/svg" xmlns:xlink="http://www.w3.org/1999/xlink" x="0px" y="0px"
	 viewBox="0 0 1440 810" enable-background="new 0 0 1440 810" xml:space="preserve">
<rect id="XMLID_1_" fill="#D0D1D3" width="1440" height="810"/>
<path id="XMLID_161_" fill="#CDE9E1" d="M250.846,364.418c12.306-57.96,46.487-111.2,89.624-149.452
	C479.285,91.862,679.923,88.716,843.61,141.738c137.553,44.552,335.616,167.897,346.439,324.627
	c1.123,16.238-0.287,32.497-4.595,48.159c-15.711,57.075-65.789,103.513-129.565,131.208
	c-168.36,73.101-351.857,98.76-537.022,51.059c-75.207-19.374-145.025-58.148-200.594-110.157
	c-25.116-23.506-50.552-50.182-62.583-84.033c-10.013-28.174-10.259-65.67-9.747-95.637
	C246.189,392.605,247.883,378.375,250.846,364.418"/>
<path id="XMLID_160_" fill="#B4D1CF" d="M335.647,697.677c-0.003,0.375,0.008,0.755,0.031,1.138
	c1.669,27.876,139.172,21.661,172.917,22.645c89.407,2.616,178.829,3.467,268.251,3.467c130.965,0,263.677,3.449,386.222-37.111
	c14.324-4.74,30.492-12.125,31.134-23.92c1.193-21.871-169.885-22.567-229.467-25.219c-62.405-2.776-125.48-1.268-187.89,0.644
	c-111.309,3.415-222.651,10.523-333.67,24.189C430.058,665.125,335.916,665.697,335.647,697.677"/>
<path id="XMLID_159_" fill="#98C13D" d="M783.084,315.02H675.892c-5.102,0-9.258-4.153-9.258-9.258v-3.759
	c0-5.105,4.155-9.258,9.258-9.258h107.192v2.587H675.892c-3.679,0-6.67,2.991-6.67,6.67v3.759c0,3.679,2.991,6.67,6.67,6.67h107.192
	V315.02z"/>
<path id="XMLID_158_" fill="#FFFFFF" d="M675.892,295.33c-3.679,0-6.67,2.991-6.67,6.67v3.759c0,3.679,2.991,6.67,6.67,6.67h103.063
	c0,0-2.652-0.717-2.652-8.549c0-6.794,2.652-8.551,2.652-8.551H675.892z"/>
<rect id="XMLID_157_" x="688.037" y="303.558" fill="#44606A" width="81.66" height="0.647"/>
<rect id="XMLID_156_" x="718.607" y="299.62" fill="#44606A" width="39.688" height="0.647"/>
<rect id="XMLID_155_" x="699.838" y="309.861" fill="#44606A" width="18.769" height="0.647"/>
<path id="XMLID_154_" fill="#EB495C" d="M656.807,341.292c-6.582,0-11.938,5.353-11.938,11.936c0,6.582,5.356,11.938,11.938,11.938
	h68.938v-23.874H656.807z"/>
<path id="XMLID_153_" fill="#FFFFFF" d="M713.367,342.589c-2.999,0-6.714,2.722-6.714,6.07v8.127c0,3.348,3.716,6.07,6.714,6.07
	h67.23c0,0-2.217-3.007-2.217-10.132c0-6.186,2.217-10.135,2.217-10.135H713.367z"/>
<path id="XMLID_152_" fill="#EB495C" d="M783.961,365.166h-67.647c-6.58,0-11.935-5.353-11.935-11.935
	c0-6.58,5.356-11.936,11.935-11.936h67.647v2.587h-67.647c-5.154,0-9.348,4.194-9.348,9.348c0,5.154,4.194,9.348,9.348,9.348h67.647
	V365.166z"/>
<rect id="XMLID_151_" x="730.537" y="352.397" fill="#44606A" width="47.843" height="0.647"/>
<rect id="XMLID_150_" x="741.821" y="355.613" fill="#44606A" width="36.56" height="0.647"/>
<rect id="XMLID_149_" x="723.618" y="347.916" fill="#44606A" width="34.72" height="0.647"/>
<path id="XMLID_148_" fill="#DA1C4D" d="M662.368,353.228c0-6.546,5.307-11.853,11.853-11.853h-9.778
	c-6.549,0-11.855,5.307-11.855,11.853c0,6.549,5.307,11.855,11.855,11.855h9.778C667.674,365.083,662.368,359.776,662.368,353.228"
	/>
<path id="XMLID_147_" fill="#DA1C4D" d="M693.416,353.228c0-6.546,5.307-11.853,11.853-11.853h-9.778
	c-6.549,0-11.856,5.307-11.856,11.853c0,6.549,5.307,11.855,11.856,11.855h9.778C698.723,365.083,693.416,359.776,693.416,353.228"
	/>
<path id="XMLID_146_" fill="#FFFFFF" d="M762.002,315.99c3.438,0,7.698,3.123,7.698,6.958v9.322c0,3.837-4.259,6.957-7.698,6.957
	h-85.976c0,0,2.546-3.449,2.546-11.617c0-7.089-2.546-11.62-2.546-11.62H762.002z"/>
<path id="XMLID_145_" fill="#80471E" d="M758.623,341.686h-86.454v-2.587h86.454c6.013,0,10.906-4.895,10.906-10.908
	c0-6.013-4.893-10.906-10.906-10.906h-86.454v-2.587h86.454c7.439,0,13.493,6.052,13.493,13.493
	C772.116,335.631,766.062,341.686,758.623,341.686"/>
<rect id="XMLID_144_" x="678.57" y="327.287" fill="#44606A" width="63.75" height="0.647"/>
<rect id="XMLID_143_" x="678.57" y="333.165" fill="#44606A" width="50.813" height="0.647"/>
<rect id="XMLID_142_" x="710.446" y="322.146" fill="#44606A" width="39.804" height="0.647"/>
<polygon id="XMLID_141_" fill="#98C13D" points="734.822,351.872 728.159,348.097 721.499,351.872 721.499,329.91 734.822,329.91 
	"/>
<path id="XMLID_140_" fill="#FFFFFF" d="M781.891,366.449c4.29,0,9.607,3.894,9.607,8.683v11.633c0,4.789-5.317,8.683-9.607,8.683
	H666.828c0,0,3.175-4.303,3.175-14.5c0-8.846-3.175-14.5-3.175-14.5H781.891z"/>
<path id="XMLID_139_" fill="#FDD479" d="M777.674,398.194H662.013v-2.587h115.661c7.682,0,13.933-6.251,13.933-13.933
	c0-7.682-6.251-13.936-13.933-13.936H662.013v-2.587h115.661c9.11,0,16.52,7.413,16.52,16.523
	C794.194,390.784,786.784,398.194,777.674,398.194"/>
<rect id="XMLID_138_" x="670.003" y="380.623" fill="#44606A" width="87.324" height="0.647"/>
<rect id="XMLID_137_" x="685.527" y="385.223" fill="#44606A" width="55.654" height="0.647"/>
<rect id="XMLID_136_" x="717.546" y="374.209" fill="#44606A" width="49.678" height="0.647"/>
<path id="XMLID_135_" fill="#648887" d="M986.397,684.461h12.352l-19.304-148.947c-1.395-10.647-10.543-18.676-21.279-18.676v12.456
	c4.505,0,8.342,3.369,8.926,7.84L986.397,684.461z"/>
<path id="XMLID_134_" fill="#676F7D" d="M907.563,529.293h47.776c16.228,0,29.436-13.154,29.524-29.362l6.223-124.305l-12.443-0.618
	l-6.238,124.761c0,9.41-7.656,17.069-17.066,17.069h-47.776V529.293z"/>
<path id="XMLID_133_" fill="#88B3B3" d="M969.859,529.293h91.383c16.228,0,29.437-13.154,29.527-29.362l6.223-124.305l-12.445-0.618
	l-6.236,124.761c0,9.41-7.656,17.069-17.069,17.069h-91.383V529.293z"/>
<path id="XMLID_132_" fill="#A94B24" d="M962.12,323.921c0.417-4.254,3.992-7.493,8.264-7.493h125.518
	c1.783,0,3.413,0.559,4.75,1.508c1.583,1.123,8.011,5.276,9.351,6.215c2.363,1.656,3.814,4.505,3.509,7.617l-4.606,46.969
	c-0.414,4.251-3.99,7.493-8.262,7.493H975.124c-1.948,0-3.715-0.673-5.115-1.785c-1.397-1.115-7.912-5.094-9.312-6.181
	c-2.168-1.682-3.472-4.409-3.18-7.377L962.12,323.921z"/>
<path id="XMLID_131_" fill="#D48743" d="M965.784,379.999H1091.3c4.272,0,7.85-3.242,8.267-7.493l4.603-46.966
	c0.479-4.885-3.356-9.113-8.267-9.113H970.387c-4.272,0-7.85,3.242-8.267,7.493l-4.603,46.969
	C957.038,375.769,960.875,379.999,965.784,379.999"/>
<path id="XMLID_130_" fill="#88B3B3" d="M1073.612,684.461h12.352l-19.305-148.947c-1.395-10.647-10.544-18.676-21.279-18.676
	h-76.768c-6.179,0-12.057,2.66-16.132,7.304c-2.717,3.094-4.456,6.872-5.076,10.859c-0.274,1.76-12.466,149.46-12.466,149.46h12.414
	c0,0,12.246-147.247,12.505-148.313c0.339-1.382,1.009-2.67,1.987-3.785c1.736-1.979,4.137-3.069,6.768-3.069h76.768
	c4.502,0,8.342,3.369,8.926,7.84L1073.612,684.461z"/>
<path id="XMLID_129_" fill="#88B3B3" d="M860.139,684.461c0,0,12.264-147.537,12.616-148.725c0.365-1.226,0.996-2.37,1.876-3.374
	c1.734-1.979,4.137-3.069,6.768-3.069h102.988v-12.456H881.399c-6.179,0-12.057,2.66-16.135,7.304
	c-2.862,3.265-4.642,7.286-5.167,11.514c-0.192,1.55-12.373,148.805-12.373,148.805H860.139z"/>
<rect id="XMLID_128_" x="858.014" y="497.068" fill="#A94B24" width="121.011" height="19.77"/>
<rect id="XMLID_127_" x="964.143" y="497.068" fill="#A94B24" width="99.008" height="19.77"/>
<path id="XMLID_126_" fill="#CFA356" d="M868.18,336.286c-7.296,16.096-23.76,49.212-9.977,65.9
	c18.942,22.945,50.521-58.886,59.222-81.833c2.181-5.744,21.923-53.509,0.662-47.263c-1.791,0.525-11.576,2.758-13.038,3.917
	C896.789,283.539,873.554,324.425,868.18,336.286"/>
<path id="XMLID_125_" fill="#E9977F" d="M878.869,653.27c0,0,34.389,9.41,33.931,1.695c-0.665-11.188,3.144-35.098,3.144-35.098
	l-31.31-0.73L878.869,653.27z"/>
<path id="XMLID_124_" fill="#E9977F" d="M760.507,653.862c0,0,33.745,8.818,33.287,1.105c-0.662-11.188,5.079-35.1,5.079-35.1
	l-29.62-2L760.507,653.862z"/>
<path id="XMLID_123_" fill="#CFA356" d="M906.248,288.466c0.6-1.503,1.224-2.991,1.848-4.469
	c6.398-15.1,16.029-20.984,32.164-23.082c16.386-2.137,35.343,1.268,49.108,10.81c6.691,4.639,8.603,10,11.369,17.628
	c0.274,0.766,4.067,12.973,3.992,13.17c-0.986,2.574,7.788,16.953,9.043,20.094c3.131,7.858,5.863,15.874,8.194,24.006
	c4.505,15.71,7.498,31.85,8.957,48.128c1.462,16.334,1.379,32.8-0.251,49.121c-0.918,9.206-1.066,18.456-2.122,27.651
	c-0.163,1.418-1.601,3.289-2.504,2.189c-19.574-23.827-42.72-20.846-71.691-20.678c-17.545,0.101-32.003-2.903-49.548-2.81
	c-0.748,0.005-2.404-20.836-3.058-45.269c-0.564-21.059-0.551-42.138-0.347-63.202C901.49,332.707,902.835,296.97,906.248,288.466"
	/>
<path id="XMLID_122_" fill="#053547" d="M806.07,472.718c4.055-13.359,17.418-22.489,42.143-22.841
	c29.972-0.424,66.413-1.216,81.642-0.523c13.788,0.623-16.15,1.764-2.994,6.101c7.04,2.321,14.438,5.897,18.738,12.228
	c4.981,7.328-2.186,16.37-7.972,20.784c-6.75,5.149-15.41,7.258-23.677,8.383c-9.656,1.314-19.462,1.257-29.188,1.071
	c-2.647-0.049-26.101-2.023-27.012-0.259c-9.04,17.444-47.952,123.483-51.359,135.728c0,0-11.097,0.029-25.007-2.101
	c-10.065-1.542-22.313-6.924-22.313-6.924C756.915,608.62,801.516,487.714,806.07,472.718"/>
<path id="XMLID_121_" fill="#FDD479" d="M901.146,281.625c2.841-4.054,6.621-7.361,10.556-10.365
	c8.445-6.44,19.514-14.74,30.445-14.779c11.524-0.036,23.349,1.431,34.495,4.37c18.055,4.766,34.296,23.773,44.544,38.676
	c14.389,20.932,28.73,41.913,42.868,63.016c3.829,5.715,7.628,12.476,8.088,19.485c0.212,3.247-0.494,6.52-2.709,8.994
	c-3.185,3.558-6.981,3.99-11.452,2.994c-3.1-0.696-6.036-2.023-8.763-3.633c-6.386-3.775-11.703-9.066-16.326-14.815
	c-15.734-19.563-31.494-39.835-48.076-58.462c-0.261,8.28-15.46,84.711-25.473,94.483c-7.883,7.7-18.538,11.775-28.989,15.266
	c-3.672,1.226-7.423,2.414-11.291,2.479c-28.107,0.474-19.325-60.136-19.68-79.086C899.099,334.997,891.868,294.95,901.146,281.625"
	/>
<path id="XMLID_120_" fill="#416584" d="M884.936,474.64c9.848-32.44,53.696-24.927,79.585-23.752
	c13.788,0.626,28.05,2.153,41.207,6.489c7.04,2.324,14.437,5.897,18.738,12.228c4.981,7.327-2.186,16.37-7.969,20.784
	c-6.753,5.152-15.413,7.26-23.68,8.383c-9.656,1.314-19.462,1.258-29.188,1.071c-2.644-0.049-26.102-2.023-27.012-0.259
	c-9.04,17.444-10.246,120.615-13.656,132.859c0,0-13.022,2.13-26.929,0c-10.068-1.539-21.219-3.462-21.219-3.462
	C872.656,613.236,880.382,489.637,884.936,474.64"/>
<path id="XMLID_119_" fill="#D51D4D" d="M916.934,643.836c-0.973-1.301-2.14-1.609-3.537-0.292
	c-4.65,4.375-10.564,5.697-14.854,0.119c-0.675-0.88-1.557-1.741-2.662-1.822c-1.177-0.083-2.212,0.74-3.356,1.038
	c0.243-0.065,2.016-2.469,2.23-2.825c0.683-1.141,0.763-2.541,0.212-3.783c-0.893-2.008-3.206-4.054-5.009-5.18
	c-2.295-1.431-4.8-2.523-7.413-3.221c-2.14-0.574-4.523-0.856-6.492,0.163c-2.003,1.038-3.133,3.18-4.251,5.141
	c-6.161,10.784-14.539,17.589-26.565,20.802c-2.378,0.636-4.841,1.118-6.981,2.326c-2.846,1.612-4.88,4.411-6.083,7.452
	c-1.449,3.671-2.939,9.477-1.097,13.242c2.639,5.397,15.721,2.709,20.533,2.668c9.923-0.086,19.845-0.212,29.765-0.385
	c4.885,0,9.84-0.844,14.657-1.542c6.895-1.004,15.661,0.505,21.913-3.027c2.546-1.441,3.138-4.807,3.252-7.731
	C921.289,664.768,920.295,648.344,916.934,643.836"/>
<rect id="XMLID_118_" x="829.243" y="673.283" fill="#831B3E" width="92.737" height="10.813"/>
<path id="XMLID_117_" fill="#FFFFFF" d="M856.281,665.93c-0.561,0-1.079-0.372-1.239-0.942c-1.169-4.217-4.171-7.969-8.031-10.029
	c-0.411-0.228-0.859-0.388-1.229-0.404c-0.707,0.093-1.348-0.386-1.449-1.087c-0.101-0.704,0.385-1.348,1.089-1.449
	c1.056-0.181,2.008,0.251,2.797,0.673c4.471,2.385,7.946,6.727,9.301,11.612c0.184,0.683-0.212,1.387-0.898,1.578
	C856.511,665.914,856.389,665.93,856.281,665.93"/>
<path id="XMLID_116_" fill="#FFFFFF" d="M866.602,661.33c-0.396,0-0.784-0.181-1.037-0.525c-0.657-0.901-1.198-1.837-1.731-2.763
	c-0.846-1.48-1.651-2.88-2.95-4.021c-2.018-1.778-4.487-2.761-7.128-2.851c-0.706-0.023-1.263-0.616-1.237-1.325
	c0.021-0.709,0.668-1.281,1.325-1.242c3.198,0.111,6.3,1.351,8.735,3.493c1.62,1.418,2.569,3.071,3.485,4.67
	c0.484,0.844,0.968,1.703,1.576,2.523c0.417,0.572,0.292,1.374-0.282,1.795C867.132,661.249,866.868,661.33,866.602,661.33"/>
<path id="XMLID_115_" fill="#FFFFFF" d="M877.585,655.927c-0.447,0-0.885-0.238-1.12-0.652c-1.558-2.753-3.263-4.818-5.203-6.308
	c-2.251-1.723-4.699-2.668-7.271-2.538c-0.295,0.01-0.595,0.036-0.898,0.062c-0.551,0.044-1.084,0.08-1.648,0.07
	c-0.709-0.021-1.265-0.611-1.245-1.325c0.021-0.706,0.621-1.263,1.325-1.242c0.425,0.029,0.908-0.026,1.361-0.062
	c0.336-0.029,0.673-0.054,1.014-0.07c2.924-0.088,6.197,0.983,8.924,3.069c2.218,1.705,4.143,4.016,5.879,7.082
	c0.344,0.616,0.129,1.397-0.487,1.746C878.015,655.873,877.8,655.927,877.585,655.927"/>
<path id="XMLID_114_" fill="#FFFFFF" d="M887.058,649.938c-0.38,0-0.758-0.168-1.009-0.489c-0.401-0.515-0.779-1.014-1.157-1.509
	c-1.935-2.554-3.602-4.761-6.59-6.096c-3.387-1.519-7.203-1.703-10.512-1.643h-0.016c-0.704,0-1.273-0.567-1.283-1.268
	c-0.01-0.706,0.561-1.289,1.268-1.299c3.315-0.085,7.716,0.13,11.591,1.866c3.591,1.609,5.532,4.171,7.589,6.888
	c0.365,0.481,0.735,0.978,1.128,1.475c0.442,0.556,0.339,1.366-0.215,1.801C887.614,649.849,887.332,649.938,887.058,649.938"/>
<path id="XMLID_113_" fill="#D51D4D" d="M798.274,642.993c-0.354-0.859-0.905-1.578-1.785-1.703
	c-0.665-0.093-1.322,0.207-1.891,0.564c-5.775,3.597-10.681,9.312-16.453,1.804c-0.675-0.877-1.558-1.739-2.662-1.816
	c-1.177-0.085-2.212,0.737-3.353,1.035c0.241-0.062,2.013-2.468,2.228-2.825c0.685-1.141,0.763-2.541,0.212-3.783
	c-0.89-2.008-3.203-4.054-5.009-5.18c-2.29-1.431-4.8-2.523-7.41-3.221c-2.143-0.572-4.525-0.857-6.492,0.163
	c-2.005,1.038-3.136,3.18-4.253,5.141c-6.161,10.784-14.539,17.589-26.565,20.802c-2.378,0.637-4.838,1.118-6.981,2.329
	c-2.844,1.612-4.88,4.411-6.08,7.449c-1.452,3.672-2.937,9.48-1.097,13.245c2.637,5.397,15.721,2.706,20.531,2.665
	c9.923-0.083,19.845-0.212,29.768-0.385c5.886-0.101,11.612-1.604,17.454-1.956c6.717-0.409,13.307,0.005,20.026-0.96
	c0.569-0.083,1.175-0.186,1.591-0.582c0.505-0.481,0.582-1.242,0.626-1.933c0.611-9.822-0.054-19.724-1.977-29.377
	C798.606,643.986,798.471,643.469,798.274,642.993"/>
<rect id="XMLID_112_" x="708.847" y="673.283" fill="#831B3E" width="92.737" height="10.813"/>
<path id="XMLID_111_" fill="#FFFFFF" d="M735.885,665.93c-0.561,0-1.079-0.372-1.239-0.942c-1.167-4.217-4.171-7.969-8.031-10.029
	c-0.411-0.228-0.856-0.388-1.229-0.404c-0.706,0.093-1.348-0.386-1.449-1.087c-0.098-0.704,0.385-1.348,1.089-1.449
	c1.058-0.181,2.01,0.251,2.797,0.673c4.471,2.385,7.948,6.727,9.302,11.612c0.186,0.683-0.212,1.387-0.898,1.578
	C736.115,665.914,735.996,665.93,735.885,665.93"/>
<path id="XMLID_110_" fill="#FFFFFF" d="M746.206,661.33c-0.396,0-0.784-0.181-1.038-0.525c-0.657-0.901-1.198-1.837-1.728-2.763
	c-0.849-1.48-1.651-2.88-2.95-4.021c-2.021-1.778-4.486-2.761-7.131-2.851c-0.706-0.023-1.262-0.616-1.237-1.325
	c0.023-0.709,0.67-1.281,1.327-1.242c3.195,0.111,6.298,1.351,8.735,3.493c1.62,1.418,2.567,3.071,3.485,4.67
	c0.481,0.844,0.968,1.703,1.573,2.523c0.417,0.572,0.292,1.374-0.279,1.795C746.737,661.249,746.473,661.33,746.206,661.33"/>
<path id="XMLID_109_" fill="#FFFFFF" d="M757.19,655.927c-0.448,0-0.882-0.238-1.121-0.652c-1.557-2.753-3.26-4.818-5.201-6.308
	c-2.251-1.723-4.701-2.668-7.273-2.538c-0.295,0.01-0.595,0.036-0.898,0.062c-0.548,0.044-1.084,0.08-1.648,0.07
	c-0.709-0.021-1.265-0.611-1.245-1.325c0.021-0.706,0.621-1.263,1.325-1.242c0.424,0.029,0.908-0.026,1.364-0.062
	c0.336-0.029,0.673-0.054,1.014-0.07c2.921-0.088,6.194,0.983,8.924,3.069c2.217,1.705,4.142,4.016,5.876,7.082
	c0.344,0.616,0.129,1.397-0.487,1.746C757.622,655.873,757.405,655.927,757.19,655.927"/>
<path id="XMLID_108_" fill="#FFFFFF" d="M766.659,649.938c-0.378,0-0.755-0.168-1.006-0.489c-0.401-0.515-0.781-1.014-1.159-1.509
	c-1.935-2.554-3.602-4.761-6.587-6.096c-3.389-1.519-7.206-1.703-10.515-1.643h-0.016c-0.701,0-1.273-0.567-1.283-1.268
	c-0.01-0.706,0.564-1.289,1.268-1.299c3.315-0.085,7.716,0.13,11.591,1.866c3.591,1.609,5.532,4.171,7.589,6.888
	c0.367,0.481,0.735,0.978,1.128,1.475c0.443,0.556,0.339,1.366-0.215,1.801C767.218,649.849,766.936,649.938,766.659,649.938"/>
<path id="XMLID_107_" fill="#C5E9FA" d="M913.545,269.643c-0.16,0.916-0.251,1.832-0.254,2.73
	c-0.018,4.841,1.087,8.593,3.671,12.629c2.355,3.677,7.485,6.091,11.824,5.925c4.919-0.189,10.316-0.437,14.743-2.844
	c3.935-2.14,6.321-5.912,7.565-10.13c0.745-2.523,1.221-5.255,1.079-7.894c-0.124-2.308-0.626-4.675-1.638-6.763
	c-0.737-1.532-1.431-2.846-2.636-4.119c-2.323-2.455-5.428-4.189-8.766-4.784c-3.309-0.587-6.707-0.111-10.005,0.536
	c-3.014,0.595-6.086,1.374-8.582,3.167C916.96,260.677,914.344,265.172,913.545,269.643"/>
<path id="XMLID_106_" fill="#E9977F" d="M946.883,261.658c-0.603-4.093-3.765-7.102-6.699-10.388
	c-0.686-0.769-7.623-9.478-8.712-8.686c0,0-26.06,19.1-26.169,19.178c3.056-2.241,15.809,16.927,17.633,19.017
	c1.291,1.477,3.542,1.495,5.501,1.397c9.291-0.473,15.993-7.402,18.218-16.482C947.015,264.225,947.064,262.895,946.883,261.658"/>
<path id="XMLID_105_" fill="#EAF7FE" d="M927.475,281.847c-9.977-6.199-10.582-9.736-11.076-9.762
	c-0.23-0.016-0.448,0.106-0.644,0.225c-1.744,1.069-3.291,2.453-4.541,4.067c-0.385,0.494-0.745,1.022-0.916,1.622
	c-0.202,0.711,1.374,14.394,3.26,16.735c2.08-1.498,3.289-4.078,4.849-6.117c0.461-0.6,3.022-4.344,4.106-3.356
	c0.155,0.14,6.127,5.379,6.517,5.408C928.58,287.193,927.625,281.938,927.475,281.847"/>
<path id="XMLID_104_" fill="#EAF7FE" d="M931.969,290.776c0.383-0.078,2.251-5.361,3.638-7.84c1.048-1.868,8.419,9.232,8.849,9.369
	c2.445,0.771,10.034-18.414,10.489-22.161c0.631-5.216-3.516-13.633-9.724-13.077c2.099,0.965,2.903,3.071,2.554,4.574
	c-0.344,1.501-1.501,3.79-2.489,4.95c-4.008,4.717-8.737,8.813-13.084,13.219C932.081,279.935,931.943,287.273,931.969,290.776"/>
<path id="XMLID_103_" fill="#56270E" d="M793.832,144.546c1.581,14.168,22.694,12.559,32.591,10.205
	c1.014-0.241,1.708-1.519,0.197-1.185c-9.669,2.137-28.803,3.214-31.411-9.547C795.118,143.568,793.778,144.049,793.832,144.546"/>
<path id="XMLID_102_" fill="#5F3612" d="M933.221,130.165c-0.253-1.138-0.621-2.292-1.229-3.524
	c-7.02-14.28-23.405-24.13-40.899-23.853c-9.747,0.155-19.359,3.097-28.717,6.189c-9.361,3.092-18.795,6.391-28.544,7.312
	c-9.749,0.919-20.063-0.843-26.922-6.833c-3.796,6.73-4.091,14.89-0.773,21.416c-6.295,0.171-12.207-3.648-14.068-9.079
	c-5.814,12.368-3.612,27.387,2.611,38.474c4.973,8.857,14.624,14.039,20.081,22.36c5.922,9.04,9.961,18.901,16.758,27.602
	c-1.524-5.938-3.053-11.876-4.58-17.811c-2.419-9.41-4.983-22.308,3.669-30.521c13.861-5.741,26.999-13.079,41.085-18.311
	c14.2-5.278,23.599-3.744,34.534,5.289c10.658,8.805,19.11,19.571,26.872,30.632c2.453,3.498,5.522,10.914,10.828,11.465
	c3.884,0.401,12.143-5.327,9.941-9.294c-5.439-9.814-10.158-19.985-14.314-30.378c-1.878-4.701-4.579-9.816-5.418-14.833
	C933.752,134.171,933.672,132.191,933.221,130.165"/>
<path id="XMLID_101_" fill="#EFB79D" d="M932.081,165.796c-4.13-7.253-8.751-14.267-14.924-20.055
	c-4.256-3.99-14.926-14.251-21.778-13.17c-16.471,2.6-55.548,7.276-73.352,29.424c-5.557,6.913-4.929,16.357-2.326,23.799
	c6.624,18.911,15.221,37.111,23.206,55.489c4.031,9.273,7.609,16.691,15.312,22.575c6.642,5.071,18.081,7.02,25.913,9.31
	c5.527,1.617,11.134,3.185,16.818,4.137c7.7,1.288,14.606-1.389,21.579-4.347c7.263-3.081,29.946-38.536,30.947-42.591
	c5.219-21.131-9.353-42.487-18.831-59.944C933.804,168.875,932.952,167.33,932.081,165.796"/>
<path fill="#5F3612" d="M894.983,174.43c0.005-0.023,0.008-0.049,0.013-0.07c0.028-0.021,0.057-0.044,0.088-0.067
	C895.05,174.339,895.016,174.383,894.983,174.43 M907.622,161.946c-6.551,3.265-12.66,8.324-18.244,13.149
	c-2.784,2.406-5.006,5.017-7.594,7.584c0.117-0.116,3.392,3.99,4.093,4.204c1.728,0.531,3.048-0.937,4.22-2.212
	c5.581-6.07,10.189-13.146,16.919-18.021C908.303,165.721,909.78,160.87,907.622,161.946"/>
<path id="XMLID_98_" fill="#945122" d="M872.416,197.962c7.933,11.361,8.365,29.023,9.811,42.41
	c0.849,7.923,14.326-0.724,16.792-2.724c1.286-1.048-0.882-1.074-1.57-0.505c-14.58,12-13.023,0.916-14.008-5.757
	c-0.639-4.336-1.514-8.647-2.277-12.963c-1.348-7.628-2.566-14.859-7.565-21.004C873.355,197.121,872.201,197.657,872.416,197.962"
	/>
<path id="XMLID_97_" fill="#80471E" d="M906.416,96.609c-1.557-4.298-5.651-7.596-10.295-9.043
	c-5.379-1.674-11.366-1.201-17.014,0.075c-21.98,4.968-50.648,33.745-72.878,19.126c-0.906,4.725-1.796,9.682-0.215,14.137
	c0.59,1.659,1.506,3.19,2.582,4.603c4.393,5.767,11.62,9.392,19.229,10.031c5.516,0.466,11.7,0.572,17.201-0.81
	c17.369-4.352,34.306-10.544,50.376-18.414c3.423-1.674,7.198-3.485,10.854-2.714c5.265,1.12,7.954,6.921,11.258,10.375
	c4.414,4.613,17.268,40.715,24.489,51.807c3.462-1.563,3.765-5.123,7.7-6.67c0.968-0.38-4.357-36.128-4.962-39.194
	c-1.19-6.008-1.276-13.607-3.247-19.258c-2.013-5.765-9.333-10.075-15.082-11.985c-1.529-0.507-19.892-2.789-19.455,0.034
	C906.846,97.989,906.662,97.287,906.416,96.609"/>
<path id="XMLID_96_" fill="#56270E" d="M803.496,121.86c2.179,11.459,13.141,16.45,23.604,18.29
	c16.127,2.836,33.108-2.75,48.865-5.444c0.841-0.145,2.52-1.702,0.843-1.451c-21.002,3.182-62.462,17.007-72.061-11.879
	C804.611,120.959,803.41,121.417,803.496,121.86"/>
<path id="XMLID_95_" fill="#56270E" d="M793.948,136.378c16.28,17.307,40.511,12.541,60.317,4.965
	c1.33-0.507,0.934-1.511-0.401-1.04c-20.161,7.089-41.442,11.193-58.617-4.626C794.903,135.358,793.566,135.969,793.948,136.378"/>
<path id="XMLID_94_" fill="#EFB79D" d="M956.423,165.488c-1.788-1.415-4.797-2.106-7.803-1.25c-2.95,0.844-5.263,2.939-6.885,5.02
	c-2.086,2.673-3.441,5.547-3.925,8.342l6.331,23.02c3.552-0.093,7.583-0.336,10.577-2.36c3.121-2.111,3.793-5.263,4.194-8.023
	c0.952-6.546,1.902-13.177,0.531-19.258C958.976,168.929,958.213,166.903,956.423,165.488"/>
<path fill="#5F3612" d="M849.455,198.286c0.029-0.015,0.06-0.031,0.093-0.047c0.021,0.01,0.041,0.018,0.065,0.026
	C849.559,198.27,849.507,198.28,849.455,198.286 M837.528,204.808c7.454-3.343,15.32-3.876,23.02-5.687
	c2.66-0.626,4.531-1.302,3.54-4.091c-0.21-0.59-1.677-4.204-2.098-4.155c-3.211,0.365-6.274,1.783-9.265,2.88
	c-6.644,2.43-13.724,5.201-19.478,9.242C831.349,204.33,836.133,205.434,837.528,204.808"/>
<path id="XMLID_91_" fill="#CB2128" d="M956.107,165.193c-0.049,0.021-0.096,0.034-0.145,0.036c-0.787,0.07-1.552-0.489-2.236-0.737
	c-0.784-0.282-1.687-0.225-2.461,0.158l-12.588,7.744l-1.244-4.474l12.67-5.483c1.506-0.743,3.245-0.854,4.761-0.305
	c0.644,0.233,1.664,0.38,2.109,0.903C957.364,163.498,956.738,164.939,956.107,165.193"/>
<path fill="#ED222A" d="M934.567,185.664c2.026,8.758-11.793,13.736-18.497,17.004c-5.291,2.582-10.414,3.374-16.003,1.78
	c-4.476-1.275-11.219-8.681-9.423-10.621c1.527-1.646,38.979-20.479,40.311-17.172C931.881,178.94,934.01,183.258,934.567,185.664
	 M869.87,216.695c-2.533,4.97-6.507,7.964-11.902,9.832c-6.844,2.365-19.646,8.463-24.725,0.978
	c-1.395-2.057-3.149-6.531-4.212-8.758c-1.54-3.219,37.08-16.037,39.297-15.949C870.941,202.904,871.898,212.71,869.87,216.695
	 M937.68,167.949c-0.233-0.414-0.233-0.414-1.493-0.016c-11.48,3.622-48.102,22.373-49.152,23.462
	c-0.585,0.608-1.019,1.151-1.33,1.669c-6.093-0.696-12.06,0.844-15.91,5.602c-0.277-0.021-0.546-0.046-0.856-0.054
	c-1.496-0.031-39.504,12.272-49.766,17.695c-1.125,0.592-1.125,0.592-0.978,1.043c0.204,0.608,1.128,3.317,2.238,3.871
	c0.916,0.458,2.636-0.101,2.981,0.422c3.082,4.652,7.271,12.541,13.814,13.284c5.219,0.595,10.616-1.666,15.555-3.131
	c5.612-1.664,11.465-3.511,15.998-7.25c6.062-4.996,7.501-14.373,5.576-21.625c-0.264-0.991-0.559-1.757-0.936-2.37
	c3.852-2.367,8.085-3.392,12.639-2.396c0.098,0.023,0.196-0.021,0.295-0.021c0.021,0.031,0.034,0.057,0.054,0.091
	c4.112,6.342,12.249,11.736,20.391,10.823c6.088-0.68,11.692-3.599,16.986-6.474c4.655-2.528,10.246-4.841,13.542-8.978
	c4.14-5.185,1.169-13.584-0.142-18.976c-0.15-0.603,1.511-1.449,1.822-2.419C939.385,171.028,937.995,168.51,937.68,167.949"/>
<path id="XMLID_87_" fill="#E9977F" d="M950.803,169.907c-4.259,0.267-6.758,3.278-7.278,7.377c-0.336,2.637,0.445,5.04,2.008,7.133
	c1.514,2.034,0.538,4.626,1.641,6.82c0.36,0.719,1.55,0.595,2.176,0.411c2.857-0.836,5.138-2.318,5.723-5.413
	c0.634-3.34-2.903-5.648-5.734-5.687c-0.923-0.013-5.188,2.243-3.076,2.668c1.418,0.285,2.411,0.688,3.314,1.891
	c0.411,0.546,1.286,3.565,0.21,3.878c0.729,0.14,1.454,0.274,2.178,0.411c-1.123-2.238-0.359-4.59-1.752-6.779
	c-1.397-2.197-4.603-9.943,0.031-11.253C951.03,171.146,952.485,169.804,950.803,169.907"/>
<path id="XMLID_86_" fill="#583634" d="M891.055,255.2c0,0,2.124-0.867,5.273-1.997c1.573-0.572,3.384-1.27,5.276-2.054
	c1.868-0.841,3.821-1.759,5.594-2.926c0.864-0.608,1.749-1.19,2.499-1.902c0.8-0.66,1.483-1.41,2.132-2.147
	c0.608-0.776,1.214-1.519,1.667-2.318c0.525-0.756,0.854-1.568,1.242-2.285c0.38-0.725,0.587-1.454,0.864-2.07
	c0.277-0.621,0.417-1.195,0.572-1.661c0.315-0.944,0.494-1.482,0.494-1.482s0.005,0.572,0.013,1.568
	c-0.015,0.499,0.021,1.12-0.116,1.809c-0.119,0.688-0.158,1.501-0.427,2.334c-0.254,0.836-0.456,1.783-0.932,2.683
	c-0.383,0.95-0.924,1.884-1.565,2.805c-0.673,0.88-1.356,1.855-2.259,2.608c-0.841,0.836-1.809,1.521-2.769,2.223
	c-1.02,0.595-2.034,1.203-3.084,1.664c-1.027,0.533-2.114,0.841-3.123,1.226c-2.062,0.652-4.016,1.102-5.7,1.356
	C893.335,255.187,891.055,255.2,891.055,255.2"/>
<path id="XMLID_85_" fill="#583634" d="M849.841,213.119c-2.223,1.444-3.967,4.189-4.652,6.577
	c-0.186,0.652,1.423,1.664,1.744,1.081c2.864-5.198,9.237-8.192,15.149-7.113c0.67,0.124,0.991-2.331,0.323-2.455
	C858.118,210.428,853.37,210.827,849.841,213.119"/>
<path id="XMLID_84_" fill="#583634" d="M906.543,191.468c-2.23,1.433-3.987,4.168-4.686,6.554c-0.192,0.652,1.413,1.671,1.739,1.089
	c2.893-5.182,9.278-8.142,15.188-7.035c0.665,0.127,1.001-2.326,0.334-2.453C914.836,188.821,910.085,189.194,906.543,191.468"/>
<path id="XMLID_83_" fill="#583634" d="M848.283,220.317c0.965,1.423,2.901,1.793,4.324,0.828c1.423-0.965,1.793-2.9,0.828-4.324
	c-0.965-1.421-2.901-1.793-4.324-0.828C847.691,216.959,847.318,218.894,848.283,220.317"/>
<path id="XMLID_82_" fill="#583634" d="M904.201,198.43c0.965,1.423,2.901,1.793,4.324,0.828c1.423-0.968,1.791-2.903,0.825-4.324
	c-0.965-1.421-2.9-1.793-4.323-0.828C903.606,195.072,903.236,197.007,904.201,198.43"/>
<path id="XMLID_81_" fill="#E9977F" d="M799.695,301.351c-4.45-4.766-10.036-8.417-16.826-10.298
	c-3.154-0.874-6.422,0.621-9.351,2.078c-2.393,1.19-2.727,26.513,3.211,31.866c4.163,3.752,15.39,9.356,17.863,11.444
	c8.109,6.841,19.962,22.989,23.178,24.601c2.241,1.123,16.205-9.064,15.721-9.716C820.87,334.335,808.101,310.355,799.695,301.351"
	/>
<path id="XMLID_80_" fill="#CFA356" d="M829.271,339.367l-19.392,20.42c0.851,2.23,31.592,51.512,55.918,47.553
	c13.793-2.249,9.498-15.253-0.336-31.752C863.696,372.625,838.28,350.446,829.271,339.367"/>
<path id="XMLID_79_" fill="#04313B" d="M820.886,245.158l-36.976,2.541c-1.079,0.078-2.023,0.52-2.748,1.198
	c-0.724,0.678-2.849,3.376-3.364,3.982c-0.732,0.864-1.143,1.99-1.058,3.219l5.227,76.022c0.176,2.556,2.391,4.487,4.947,4.308
	l36.976-2.541c1.335-0.091,2.466-0.748,3.224-1.718c0.468-0.598,2.321-2.815,2.823-3.387c0.771-0.872,1.211-2.026,1.123-3.288
	l-5.227-76.025C825.657,246.913,823.442,244.985,820.886,245.158"/>
<path id="XMLID_78_" fill="#44606A" d="M823.892,333.887l-36.976,2.541c-2.556,0.179-4.771-1.752-4.947-4.308l-5.226-76.022
	c-0.176-2.559,1.754-4.771,4.308-4.95l36.979-2.541c2.556-0.173,4.771,1.754,4.947,4.31l5.224,76.025
	C828.376,331.496,826.446,333.714,823.892,333.887"/>
<path id="XMLID_77_" fill="#AFAFB0" d="M803.959,269.133c0.194,2.846-1.951,5.309-4.797,5.503c-2.841,0.197-5.304-1.951-5.498-4.794
	c-0.199-2.843,1.949-5.307,4.792-5.503C801.302,264.145,803.765,266.289,803.959,269.133"/>
<path id="XMLID_76_" fill="#04313B" d="M803.056,269.198c0.16,2.334-1.602,4.357-3.935,4.518c-2.334,0.16-4.357-1.602-4.518-3.935
	c-0.16-2.336,1.604-4.357,3.935-4.518C800.872,265.102,802.896,266.864,803.056,269.198"/>
<path id="XMLID_75_" fill="#FFFFFF" d="M800.774,268.098c-0.143,0.01-0.287-0.036-0.406-0.14c-0.43-0.383-0.947-0.662-1.503-0.799
	c-0.295-0.075-0.476-0.373-0.401-0.665c0.08-0.295,0.354-0.479,0.67-0.398c0.724,0.179,1.405,0.541,1.969,1.045
	c0.225,0.199,0.246,0.549,0.041,0.776C801.046,268.028,800.911,268.088,800.774,268.098"/>
<path id="XMLID_74_" fill="#EFB89E" d="M768.592,301.077c-1.146-1.612-2.624-5.992-1.33-7.49
	c0.305-0.349,9.454-11.392,11.113-13.711c0.008-0.026,0.46,6.691,0.46,6.691l-1.847,2.463c0,0-0.867,1.387,0.091,0.877
	c6.735-3.586,5.402-2.665,10.256-5.058c2.147-1.061,4.295-2.119,6.44-3.177c2.246-1.107,4.533-1.842,6.805-2.877
	c1.721-0.784,3.633-1.594,5.534-1.105c0.385,0.098,0.774,0.246,1.076,0.505c1.263,1.097-0.437,2.864-1.32,3.568
	c-3.32,2.655-7.038,4.499-10.673,6.652c-3.94,2.336-14.696,7.848-18.539,10.3c-0.326,0.207-0.668,0.432-0.831,0.781
	c-0.163,0.349-0.057,0.854,0.31,0.975c0.189,0.062,0.396,0.01,0.59-0.044c3.071-0.841,21.589-8.973,24.492-10.471
	c2.875-1.457,6.497-2.605,7.767,1.255c0.383,1.162-1.495,2.5-2.287,2.926c-3.312,1.788-27.949,12.347-28.756,13.545
	c-0.101,0.15-0.186,0.331-0.152,0.51c0.041,0.236,0.279,0.393,0.517,0.422c0.235,0.029,0.471-0.044,0.696-0.116
	c4.854-1.527,18.774-7.299,23.54-9.146c0.494-0.192,1.027-0.388,1.547-0.279c2.745,0.559,1.245,3.86-0.062,5.006
	c-5.102,4.484-22.391,9.723-22.65,11.229c5.669-0.505,10.673-3.809,16.158-5.327c0.833-0.228,1.71-0.419,2.559-0.248
	c0.846,0.168,1.659,0.786,1.806,1.64c0.207,1.208-0.911,2.199-1.915,2.908c-5.488,3.866-11.837,6.199-17.855,9.39
	c-2.22,1.18-6.088,2.225-7.977,0.114c-1.444-1.617-0.044-4.65-1.495-6.375c-0.329-0.393-0.781-0.665-1.094-1.071
	c-1.071-1.389,0.023-3.444-0.424-5.141c-0.406-1.547-2.052-2.611-2.228-4.202c-0.16-1.423,0.934-2.81,0.621-4.21
	C769.394,302.145,768.97,301.61,768.592,301.077"/>
<rect id="XMLID_73_" x="817.349" y="384.281" fill="#FFFFFF" width="15.12" height="9.899"/>
<rect id="XMLID_72_" x="756.08" y="393.912" fill="#98C13D" width="183.292" height="4.14"/>
<path id="XMLID_71_" fill="#D9DBDB" d="M888.421,385.821l-53.67-1.832c-5.454,0-9.873,4.419-9.873,9.871v0.321h63.543V385.821z"/>
<path id="XMLID_70_" fill="#D9DBDB" d="M756.082,385.821l58.925-1.832c5.454,0,9.873,4.419,9.873,9.871v0.321h-68.798V385.821z"/>
<polygon id="XMLID_69_" fill="#FFFFFF" points="936.461,394.181 888.421,394.181 888.421,385.821 936.461,387.899 "/>
<path id="XMLID_68_" fill="#EFB79D" d="M965.688,360.912c0.098-0.202,0.217-0.396,0.354-0.574c2.091-2.727,6.236-2.631,9.268-2.01
	c3.86,0.792,7.271,3.164,10.034,5.92c2.556,2.551,3.493,5.721,6.468,7.925c3.014,2.236,7.86,3.126,8.6,7.472
	c0.386,2.274-0.799,4.489-1.943,6.492c-5.571-0.748-10.94-2.962-15.416-6.362c-2.616-1.985-4.994-4.468-6.075-7.568
	c-0.825-2.373-1.516-4.981-3.115-6.975c-1.589-1.987-4.13-1.946-6.499-1.374c-0.437,0.106-0.924,0.238-1.315,0.018
	c-0.227-0.127-0.383-0.357-0.489-0.595C965.23,362.529,965.323,361.652,965.688,360.912"/>
<path id="XMLID_67_" fill="#ED222A" d="M994.498,343.924c0.634,0.841,0.8,1.764,0.448,2.191l0.031,0.039l-55.015,41.46l-1.506-1.997
	l55.748-42.011C994.304,343.709,994.405,343.799,994.498,343.924"/>
<path id="XMLID_66_" fill="#EB495C" d="M994.203,343.605l-55.748,42.011l-0.988-1.309l55.015-41.46l0.034,0.041
	C992.948,342.697,993.619,342.995,994.203,343.605"/>
<path id="XMLID_65_" fill="#EB495C" d="M932.047,391.182c0,0,7.878-3.545,7.915-3.571c0.481-0.365,0.316-1.397-0.373-2.31
	c-0.691-0.913-1.64-1.358-2.122-0.994C937.333,384.408,932.047,391.182,932.047,391.182"/>
<path id="XMLID_64_" fill="#010101" d="M933.361,389.549l-1.314,1.633l1.925-0.828c-0.119-0.119-0.241-0.23-0.352-0.375
	C933.514,389.836,933.441,389.694,933.361,389.549"/>
<path id="XMLID_63_" fill="#EFB79D" d="M948.179,366.369c0.01-0.396,0.106-0.789,0.295-1.138c1.25-2.334,5.118-2.479,7.436-2.774
	c2.642-0.334,5.279-0.096,7.91,0.22c5.825,0.701,10.006,5.301,15.905,4.975c1.506-0.083,3.006-0.393,4.517-0.321
	c4.044,0.189,7.105,4.885,10.784,6.481c2.983,1.291,6.15,2.285,9.056,3.715c6.267,3.094,4.999,13.861-0.036,17.612
	c-5.118,3.811-12.262,3.32-18.357,3.583c-4.794,0-9.511,0.08-14.29-0.481c-4.595-0.541-9.092-1.617-13.651-2.419
	c-0.481-0.083-1.77-1.172-1.899-1.539c-0.282-0.794-0.564-1.651-0.326-2.455c0.763-2.603,4.587-1.594,6.505-2.06
	c0.142-0.233,0.07-0.551-0.111-0.756c-0.181-0.204-0.448-0.31-0.714-0.378c-0.862-0.215-4.264-0.812-4.95-1.33
	c-1.503-1.146-2.331-2.435-2.093-4.308c0.07-0.559,0.238-1.131,0.618-1.55c1.279-1.395,4.536-0.937,6.099-0.624
	c0.414,0.083,0.797-0.336,0.383-1.04c-0.365-0.626-2.802-0.756-3.475-0.926c-1.695-0.424-3.446-0.745-5.196-0.484
	c-1.281,0.189-2.719,0.649-3.767-0.109c-0.277-0.199-0.497-0.471-0.706-0.74c-0.31-0.396-0.621-0.846-0.6-1.345
	c0.018-0.43,0.282-0.81,0.554-1.138c1.64-1.982,4.16-3.211,6.735-3.281c1.625-0.044,3.374-0.132,4.965-0.062
	c1.917,0.083,3.7,0.766,5.659,0.574c0.127-0.013,0.264-0.031,0.347-0.127c0.062-0.067,0.083-0.163,0.088-0.254
	c0.047-0.867-6.781-2.512-9.286-2.59c-2.197-0.07-4.988,0.743-7.009-0.375C948.668,368.431,948.148,367.386,948.179,366.369"/>
<path id="XMLID_62_" fill="#FDD479" d="M995.878,372.861c0.16-0.629,51.861-10.406,59.465-8.282
	c11.902,3.325,27.592,22.306,9.773,29.809c-17.375,7.315-46.13,6.745-64.302,4.342c-0.582-0.078,0.939-8.181-0.603-15.421
	C998.354,374.599,995.756,373.339,995.878,372.861"/>
<path id="XMLID_61_" fill="#88B3B3" d="M627.751,684.096l17.297-241.523c0.546-7.672,7.004-13.682,14.694-13.682H843.61
	c2.994,0,5.785,1.195,7.853,3.364c2.07,2.168,3.131,5.014,2.986,8.008l7.085,243.834h12.445l-7.084-243.239
	c0.308-6.43-1.969-12.538-6.414-17.198c-4.442-4.66-10.432-7.227-16.87-7.227H659.741c-14.197,0-26.109,11.092-27.123,25.253
	l-17.294,242.411H627.751z"/>
<path id="XMLID_60_" fill="#88B3B3" d="M1017.451,684.096h12.43l-17.408-243.971c-0.952-13.289-12.127-23.693-25.447-23.693h-209.58
	v12.458h209.58c6.813,0,12.531,5.328,13.017,12.122L1017.451,684.096z"/>
<rect id="XMLID_59_" x="630.649" y="397.568" fill="#D48743" width="230.043" height="19.972"/>
<rect id="XMLID_58_" x="860.692" y="397.568" fill="#A94B24" width="164.435" height="19.972"/>
<path id="XMLID_57_" fill="#FFFFFF" d="M455.005,197.776l-3.583,12.487l-4.642,16.169c-0.924-1.516-2.38-2.717-4.225-3.245
	c-3.899-1.12-7.972,1.136-9.089,5.038c-1.12,3.899,1.133,7.972,5.035,9.089c3.902,1.12,7.972-1.133,9.092-5.035l6.313-21.998
	l19.165,0.135l-4.849,16.896c-0.926-1.516-2.383-2.717-4.223-3.245c-3.902-1.118-7.972,1.136-9.094,5.035
	c-1.12,3.902,1.136,7.972,5.038,9.092c3.449,0.991,7.025-0.665,8.582-3.759l0.132,0.039l6.898-24.039l2.815-9.801l0.768-2.686
	L455.005,197.776z"/>
<path id="XMLID_56_" fill="#98C13D" d="M562.749,161.861l3.174,8.849l4.109,11.459c-1.185-0.502-2.546-0.59-3.853-0.119
	c-2.763,0.991-4.202,4.034-3.208,6.8c0.991,2.766,4.036,4.202,6.8,3.211c2.766-0.994,4.202-4.039,3.211-6.802l-5.594-15.589
	l11.315-8.023l4.295,11.974c-1.185-0.499-2.549-0.59-3.853-0.122c-2.766,0.993-4.202,4.039-3.211,6.802
	c0.991,2.763,4.036,4.202,6.802,3.211c2.445-0.877,3.845-3.364,3.449-5.837l0.096-0.034l-6.114-17.035l-2.489-6.947l-0.683-1.899
	L562.749,161.861z"/>
<path id="XMLID_55_" fill="#54BCC2" d="M1031.865,138.923l3.172,8.849l4.109,11.46c-1.185-0.502-2.549-0.59-3.853-0.122
	c-2.766,0.994-4.202,4.036-3.211,6.802c0.994,2.763,4.039,4.202,6.802,3.208c2.763-0.991,4.202-4.036,3.208-6.8l-5.591-15.589
	l11.312-8.023l4.295,11.974c-1.185-0.499-2.546-0.59-3.852-0.122c-2.764,0.994-4.202,4.039-3.208,6.802
	c0.991,2.763,4.034,4.202,6.802,3.208c2.443-0.877,3.842-3.361,3.449-5.837l0.093-0.031l-6.114-17.035l-2.489-6.947l-0.683-1.902
	L1031.865,138.923z"/>
<path id="XMLID_54_" fill="#FFFFFF" d="M1067.462,240.729l-7.692-8.738l-3.783,10.745l-8.021,22.797
	c-0.999-1.871-2.647-3.402-4.805-4.16c-4.567-1.609-9.573,0.792-11.18,5.358s0.794,9.571,5.358,11.18
	c4.57,1.607,9.574-0.794,11.183-5.358l9.625-27.356l5.529,6.279L1067.462,240.729z"/>
<rect id="XMLID_53_" x="567.932" y="289.622" transform="matrix(0.3675 -0.93 0.93 0.3675 73.2187 748.4732)" fill="#54BCC2" width="37.92" height="61.568"/>
<polygon id="XMLID_52_" fill="#6FCAD0" points="583.67,328.56 565.23,291.459 622.491,314.086 "/>
<path id="XMLID_51_" fill="#EB495C" d="M628.16,318.622c-1.842,4.662-7.113,6.947-11.775,5.105
	c-4.66-1.842-6.944-7.113-5.102-11.772c1.839-4.663,7.113-6.947,11.773-5.105C627.717,308.691,630.002,313.962,628.16,318.622"/>
<path id="XMLID_50_" fill="#FFFFFF" d="M614.493,319.131l0.331-0.833l1.475-0.618c3.532-1.426,5.221-2.261,5.819-3.777
	c0.404-1.017,0.298-2.15-1.203-2.743c-0.911-0.362-1.85-0.197-2.468,0.008l-0.055-1.131c0.906-0.303,2.088-0.354,3.234,0.096
	c2.163,0.859,2.489,2.701,1.92,4.14c-0.732,1.855-2.67,2.823-5.594,4.026l-1.081,0.432l-0.013,0.029l4.497,1.777l-0.447,1.128
	L614.493,319.131z"/>
<rect id="XMLID_49_" x="346.626" y="102.276" transform="matrix(0.9822 -0.188 0.188 0.9822 -15.587 72.1499)" fill="#CFA356" width="51.857" height="31.936"/>
<polygon id="XMLID_48_" fill="#FDD479" points="373.943,125.495 344.087,107.435 395.02,97.686 "/>
<path id="XMLID_47_" fill="#EB495C" d="M401.095,98.348c0.794,4.148-1.923,8.15-6.07,8.945c-4.145,0.794-8.148-1.925-8.942-6.07
	c-0.792-4.145,1.922-8.15,6.07-8.945C396.298,91.487,400.3,94.203,401.095,98.348"/>
<path id="XMLID_46_" fill="#FFFFFF" d="M391.607,104.879l-0.142-0.743l0.771-1.105c1.868-2.608,2.691-3.964,2.435-5.312
	c-0.176-0.906-0.761-1.664-2.096-1.41c-0.81,0.158-1.405,0.699-1.752,1.12l-0.549-0.779c0.507-0.624,1.325-1.195,2.344-1.389
	c1.923-0.367,2.988,0.797,3.234,2.075c0.316,1.653-0.628,3.214-2.163,5.389l-0.577,0.794l0.005,0.026l4.003-0.766l0.191,1.007
	L391.607,104.879z"/>
<path id="XMLID_45_" fill="#FFFFFF" d="M720.138,218.646l-59.323,0.003c-3.599,0-6.518,2.919-6.518,6.52l0.003,29.486
	c0,3.454,2.693,6.251,6.088,6.476l0.003,13.788l13.894-13.744l45.856-0.003c3.602,0,6.52-2.918,6.52-6.52v-29.486
	C726.661,221.564,723.74,218.646,720.138,218.646"/>
<path id="XMLID_44_" fill="#54BCC2" d="M678.686,243.233c0,2.51-2.034,4.543-4.546,4.543c-2.512,0-4.543-2.034-4.543-4.543
	c0-2.512,2.031-4.546,4.543-4.546C676.652,238.687,678.686,240.721,678.686,243.233"/>
<path id="XMLID_43_" fill="#54BCC2" d="M694.19,243.231c0,2.512-2.034,4.546-4.544,4.546c-2.512,0-4.546-2.034-4.546-4.543
	c0-2.512,2.034-4.546,4.546-4.546C692.156,238.687,694.19,240.721,694.19,243.231"/>
<path id="XMLID_42_" fill="#54BCC2" d="M709.693,243.231c0,2.51-2.034,4.546-4.543,4.546c-2.513,0-4.546-2.034-4.546-4.546
	c0-2.51,2.034-4.544,4.546-4.544C707.66,238.687,709.693,240.721,709.693,243.231"/>
<path id="XMLID_41_" fill="#54BCC2" d="M721.044,172.068l51.512,0.008c3.126,0.003,5.661,2.536,5.661,5.661l-0.005,25.607
	c0,2.999-2.342,5.428-5.289,5.625l-0.003,11.969L760.856,209l-39.817-0.005c-3.128,0-5.661-2.536-5.661-5.661l0.005-25.605
	C715.383,174.601,717.918,172.068,721.044,172.068"/>
<path id="XMLID_40_" fill="#FFFFFF" d="M757.037,193.424c0,2.179,1.767,3.946,3.943,3.946c2.181,0,3.948-1.765,3.951-3.946
	c0-2.179-1.767-3.946-3.948-3.946C758.804,189.478,757.037,191.243,757.037,193.424"/>
<path id="XMLID_39_" fill="#FFFFFF" d="M743.575,193.421c0,2.179,1.767,3.946,3.943,3.946c2.181,0,3.948-1.765,3.948-3.946
	c0.003-2.179-1.767-3.946-3.946-3.946C745.342,189.476,743.575,191.24,743.575,193.421"/>
<path id="XMLID_38_" fill="#FFFFFF" d="M730.113,193.419c0,2.178,1.765,3.946,3.941,3.946c2.181,0,3.948-1.764,3.948-3.946
	c0-2.178-1.767-3.946-3.946-3.946C731.877,189.473,730.113,191.238,730.113,193.419"/>
<path id="XMLID_37_" fill="#FFFFFF" d="M697.16,134.662l-59.323,0.003c-3.599,0-6.518,2.921-6.518,6.52v29.488
	c0,3.454,2.696,6.251,6.091,6.476v13.785l13.897-13.744h45.856c3.602,0,6.52-2.919,6.52-6.52l-0.003-29.488
	C703.68,137.581,700.762,134.662,697.16,134.662"/>
<path id="XMLID_36_" fill="#54BCC2" d="M655.708,159.25c0,2.512-2.034,4.546-4.546,4.546c-2.51,0-4.543-2.034-4.543-4.546
	c0-2.51,2.034-4.543,4.543-4.543C653.674,154.706,655.708,156.74,655.708,159.25"/>
<path id="XMLID_35_" fill="#54BCC2" d="M671.211,159.25c0,2.51-2.034,4.546-4.546,4.546c-2.51,0-4.544-2.036-4.544-4.546
	c0-2.51,2.034-4.546,4.544-4.546C669.178,154.704,671.211,156.74,671.211,159.25"/>
<path id="XMLID_34_" fill="#54BCC2" d="M686.715,159.25c0,2.51-2.034,4.543-4.546,4.543c-2.51,0-4.543-2.034-4.543-4.543
	c0-2.512,2.034-4.546,4.543-4.546C684.681,154.704,686.715,156.738,686.715,159.25"/>
<path id="XMLID_33_" fill="#54BCC2" d="M698.066,85l51.512,0.01c3.125,0,5.661,2.533,5.661,5.661l-0.005,25.607
	c0,2.999-2.341,5.428-5.291,5.622v11.972l-12.065-11.938l-39.82-0.008c-3.125,0-5.659-2.533-5.659-5.661l0.005-25.605
	C692.404,87.533,694.938,85,698.066,85"/>
<path id="XMLID_32_" fill="#FFFFFF" d="M734.059,106.356c-0.003,2.181,1.767,3.946,3.943,3.946c2.181,0,3.948-1.765,3.948-3.943
	c0-2.181-1.767-3.946-3.946-3.948C735.826,102.41,734.059,104.175,734.059,106.356"/>
<path id="XMLID_31_" fill="#FFFFFF" d="M720.594,106.354c0,2.181,1.767,3.946,3.946,3.946c2.181,0,3.948-1.765,3.948-3.943
	c0-2.181-1.767-3.946-3.948-3.946C722.364,102.408,720.596,104.175,720.594,106.354"/>
<path id="XMLID_30_" fill="#FFFFFF" d="M707.132,106.351c0,2.181,1.767,3.946,3.946,3.946c2.178,0,3.948-1.765,3.948-3.943
	c0-2.181-1.767-3.946-3.948-3.946C708.901,102.405,707.132,104.172,707.132,106.351"/>
<path id="XMLID_29_" fill="#54BCC2" d="M536.639,104.625l-45.6-17.103c-2.766-1.037-5.853,0.362-6.89,3.133l-8.502,22.665
	c-0.996,2.655,0.267,5.584,2.815,6.735l-3.974,10.598l14.645-6.559l35.248,13.221c2.766,1.038,5.85-0.365,6.89-3.131l8.502-22.668
	C540.81,108.749,539.408,105.663,536.639,104.625"/>
<path id="XMLID_28_" fill="#FFFFFF" d="M497.686,111.575c-0.724,1.928-2.875,2.906-4.805,2.184c-1.93-0.727-2.906-2.877-2.184-4.805
	c0.724-1.93,2.875-2.908,4.805-2.181C497.43,107.495,498.408,109.645,497.686,111.575"/>
<path id="XMLID_27_" fill="#FFFFFF" d="M509.604,116.043c-0.722,1.928-2.872,2.906-4.802,2.184
	c-1.933-0.727-2.906-2.877-2.184-4.805c0.722-1.93,2.874-2.908,4.802-2.181C509.35,111.963,510.328,114.113,509.604,116.043"/>
<path id="XMLID_26_" fill="#FFFFFF" d="M521.521,120.514c-0.724,1.928-2.875,2.906-4.802,2.184
	c-1.933-0.724-2.908-2.877-2.184-4.805c0.722-1.93,2.872-2.908,4.802-2.181C521.265,116.434,522.243,118.584,521.521,120.514"/>
<path id="XMLID_25_" fill="#FFFFFF" d="M441.24,329.884l32.849-16.337c1.995-0.991,4.411-0.181,5.405,1.814l8.122,16.329
	c0.952,1.912,0.23,4.202-1.589,5.263l3.796,7.635l-11.48-3.783l-25.392,12.629c-1.992,0.991-4.414,0.179-5.402-1.816l-8.124-16.326
	C438.433,333.295,439.245,330.878,441.24,329.884"/>
<path id="XMLID_24_" fill="#54BCC2" d="M470.964,332.081c0.693,1.389,2.38,1.956,3.77,1.263c1.389-0.688,1.956-2.378,1.263-3.767
	c-0.688-1.389-2.378-1.956-3.767-1.265C470.84,329.005,470.273,330.692,470.964,332.081"/>
<path id="XMLID_23_" fill="#54BCC2" d="M462.382,336.353c0.691,1.389,2.378,1.956,3.767,1.263c1.389-0.688,1.956-2.378,1.265-3.767
	c-0.691-1.389-2.38-1.956-3.77-1.265C462.255,333.277,461.688,334.964,462.382,336.353"/>
<path id="XMLID_22_" fill="#54BCC2" d="M453.797,340.622c0.691,1.389,2.378,1.956,3.767,1.263c1.39-0.688,1.956-2.378,1.265-3.767
	c-0.691-1.389-2.378-1.956-3.77-1.265C453.67,337.546,453.103,339.233,453.797,340.622"/>
<path fill="#EB495C" d="M580.788,218.009l-6.774,1.571l-0.955-4.124l6.774-1.573L580.788,218.009z M582.268,224.39l-6.776,1.568
	l-0.955-4.124l6.774-1.571L582.268,224.39z M583.748,230.767l-6.779,1.571l-0.955-4.127l6.774-1.571L583.748,230.767z
	 M585.225,237.145l-6.774,1.571l-0.957-4.127l6.776-1.568L585.225,237.145z M528.963,250.188l-0.955-4.127l6.774-1.57l0.957,4.124
	L528.963,250.188z M526.528,239.684l6.774-1.57l0.96,4.124l-6.779,1.57L526.528,239.684z M525.05,233.303l6.774-1.568l0.955,4.122
	l-6.774,1.573L525.05,233.303z M523.571,226.925l6.776-1.57l0.955,4.127l-6.774,1.568L523.571,226.925z M578.387,207.644
	l0.924,3.984l-6.774,1.573l-0.106-0.455l-0.018,0.003l-0.82-3.527l-1.855,0.43l0.82,3.529l-38.966,9.03l-0.818-3.529l-1.855,0.432
	l0.818,3.527l-0.018,0.005l0.106,0.455l-6.774,1.57l-0.926-3.985l-1.855,0.43l8.388,36.184l1.853-0.43l-1.025-4.43l6.774-1.573
	l0.209,0.903l0.018-0.005l0.817,3.529l1.855-0.432l-0.815-3.527l38.961-9.033l0.82,3.529l1.855-0.429l-0.817-3.529l0.018-0.005
	l-0.21-0.9l6.776-1.571l1.025,4.43l1.855-0.429l-8.386-36.185L578.387,207.644z"/>
<polygon id="XMLID_12_" fill="#FFFFFF" points="551.628,238.222 549.292,228.141 562.096,230.294 "/>
<path fill="#EB495C" d="M392.266,251.862l-5.126-1.255l0.763-3.12l5.126,1.255L392.266,251.862z M391.081,256.688l-5.123-1.257
	l0.763-3.12l5.125,1.257L391.081,256.688z M389.899,261.511l-5.125-1.255l0.763-3.12l5.128,1.255L389.899,261.511z M388.717,266.339
	l-5.128-1.258l0.766-3.12l5.128,1.258L388.717,266.339z M346.157,255.904l0.766-3.123l5.123,1.257l-0.766,3.12L346.157,255.904z
	 M348.105,247.955l5.123,1.257l-0.766,3.12l-5.123-1.258L348.105,247.955z M349.288,243.13l5.126,1.257l-0.766,3.12l-5.126-1.258
	L349.288,243.13z M350.473,238.307l5.123,1.255l-0.766,3.12l-5.123-1.255L350.473,238.307z M394.186,244.023l-0.737,3.014
	l-5.126-1.257l0.085-0.342l-0.013-0.005l0.655-2.67l-1.405-0.344l-0.654,2.67l-29.475-7.229l0.655-2.668l-1.405-0.344l-0.655,2.668
	l-0.013-0.003l-0.085,0.344l-5.123-1.255l0.74-3.014l-1.405-0.344l-6.712,27.369l1.402,0.347l0.823-3.353l5.126,1.257l-0.166,0.68
	l0.01,0.005l-0.652,2.667l1.402,0.347l0.652-2.67l29.478,7.227l-0.655,2.67l1.402,0.344l0.655-2.67l0.016,0.003l0.166-0.681
	l5.126,1.257l-0.823,3.351l1.402,0.344l6.714-27.369L394.186,244.023z"/>
<polygon id="XMLID_2_" fill="#FFFFFF" points="365.601,255.56 367.472,247.937 375.405,253.779 "/>
</svg>
