<?xml version="1.0" encoding="utf-8"?>
<!-- Generator: Adobe Illustrator 21.0.0, SVG Export Plug-In . SVG Version: 6.00 Build 0)  -->
<svg version="1.1"  xmlns="http://www.w3.org/2000/svg" xmlns:xlink="http://www.w3.org/1999/xlink" x="0px" y="0px"
	 viewBox="0 0 1440 810" enable-background="new 0 0 1440 810" xml:space="preserve">
<rect id="XMLID_1_" fill="#D0D1D3" width="1440" height="810"/>
<path id="XMLID_303_" fill="#CFEBEC" d="M1198.527,364.104c11.904,160.949-188.86,306.988-448.422,326.186
	c-49.083,3.63-96.335,1.187-144.948,6.446c-62.964,6.811-130.261-0.557-193.52-3.724c-70.95-3.553-110.045-44.155-145.233-114.106
	c-48.859-97.124-21.696-215.227,33.824-297.924c50.491-75.207,133.682-113.437,210.366-143.258
	c112.863-43.89,234.726-65.305,354.522-45.019c109.478,18.538,235.706,74.84,302.913,181.494
	C1184.798,300.809,1196.12,331.569,1198.527,364.104"/>
<path fill="#FFFFFF" d="M861.29,548.386h26.169v47.319H861.29V548.386z M861.29,480.045h26.169v47.319H861.29V480.045z
	 M903.598,548.386h26.169v47.319h-26.169V548.386z M903.598,480.045h26.169v47.319h-26.169V480.045z M945.903,548.386h26.169v47.319
	h-26.169V548.386z M945.903,480.045h26.169v47.319h-26.169V480.045z M988.211,548.386h26.169v47.319h-26.169V548.386z
	 M988.211,480.045h26.169v47.319h-26.169V480.045z M839.583,519.556h5.875v16.02h-1.397v77.051h199.514V459.497H839.583V519.556z"/>
<polygon id="XMLID_293_" fill="#FFFFFF" points="844.262,454.815 1043.574,454.815 1052.762,454.815 1042.608,424.618 
	844.262,424.618 "/>
<path fill="#FFFFFF" d="M627.218,527.364H601.05v-47.319h26.169V527.364z M627.218,595.705H601.05v-47.319h26.169V595.705z
	 M584.91,527.364h-26.169v-47.319h26.169V527.364z M584.91,595.705h-26.169v-47.319h26.169V595.705z M542.605,527.364h-26.169
	v-47.319h26.169V527.364z M542.605,595.705h-26.169v-47.319h26.169V595.705z M500.298,527.364h-26.169v-47.319h26.169V527.364z
	 M500.298,595.705h-26.169v-47.319h26.169V595.705z M646.789,607.91v-68.06v-4.273h-3.738v-16.02h5.875v-60.059H444.932v153.131
	h201.857V607.91z"/>
<polygon id="XMLID_283_" fill="#FFFFFF" points="644.246,424.621 445.898,424.621 435.744,454.818 444.932,454.818 644.246,454.818 
	"/>
<path fill="#FFFFFF" d="M818.218,497.125h-26.169v-67.825h26.169V497.125z M779.168,497.125h-26.169v-67.825h26.169V497.125z
	 M735.51,497.125h-26.169v-67.825h26.169V497.125z M696.457,497.125h-25.109h-1.06v-67.825h1.06h25.109V497.125z M744.256,362.71
	l-29.515,15.452l-65.815,34.826v16.313v30.197v60.059h22.423h168.235v-60.059v-30.197v-14.408L744.256,362.71z"/>
<polygon id="XMLID_277_" fill="#FFFFFF" points="844.061,617.31 844.061,667.842 1049.634,667.842 1049.634,617.31 1043.577,617.31 
	"/>
<rect id="XMLID_276_" x="792.052" y="429.301" fill="#CFEBEC" width="26.169" height="67.825"/>
<rect id="XMLID_275_" x="752.999" y="429.301" fill="#CFEBEC" width="26.169" height="67.825"/>
<rect id="XMLID_274_" x="861.29" y="480.045" fill="#CFEBEC" width="26.169" height="47.319"/>
<rect id="XMLID_256_" x="903.598" y="480.045" fill="#CFEBEC" width="26.169" height="47.319"/>
<rect id="XMLID_255_" x="861.29" y="548.386" fill="#CFEBEC" width="26.169" height="47.319"/>
<rect id="XMLID_254_" x="903.598" y="548.386" fill="#CFEBEC" width="26.169" height="47.319"/>
<rect id="XMLID_253_" x="945.903" y="480.045" fill="#CFEBEC" width="26.169" height="47.319"/>
<rect id="XMLID_252_" x="988.211" y="480.045" fill="#CFEBEC" width="26.169" height="47.319"/>
<rect id="XMLID_251_" x="945.903" y="548.386" fill="#CFEBEC" width="26.169" height="47.319"/>
<rect id="XMLID_250_" x="988.211" y="548.386" fill="#CFEBEC" width="26.169" height="47.319"/>
<path id="XMLID_249_" fill="#FFFFFF" d="M812.476,540.259H675.627v127.583h29.932v-79.21c0-17.685,14.339-32.024,32.027-32.024
	h4.205h4.928c17.685,0,32.024,14.339,32.024,32.024v79.21h4.205h29.529V540.259z"/>
<polygon id="XMLID_248_" fill="#FFFFFF" points="646.789,617.31 444.932,617.31 438.875,617.31 438.875,667.842 646.789,667.842 "/>
<rect id="XMLID_247_" x="651.626" y="543.679" fill="#FFFFFF" width="19.165" height="68.717"/>
<polygon id="XMLID_246_" fill="#CFEBEC" points="696.457,429.301 671.348,429.301 670.288,429.301 670.288,497.125 671.348,497.125 
	696.457,497.125 "/>
<rect id="XMLID_245_" x="709.341" y="429.301" fill="#CFEBEC" width="26.169" height="67.825"/>
<polygon id="XMLID_244_" fill="#FFFFFF" points="650.392,535.577 648.509,535.577 648.509,539.85 650.392,539.85 672.025,539.85 
	673.908,539.85 673.908,535.577 "/>
<polygon id="XMLID_243_" fill="#FFFFFF" points="836.695,522.168 674.239,522.168 652.586,522.168 646.913,522.168 646.913,532.968 
	650.521,532.968 652.586,532.968 678.369,532.968 815.04,532.968 836.695,532.968 838.758,532.968 842.369,532.968 842.369,522.168 
	"/>
<polygon id="XMLID_242_" fill="#FFFFFF" points="651.018,617.31 649.246,617.31 649.246,621.222 649.246,667.842 651.018,667.842 
	652.092,667.842 669.62,667.842 673.167,667.842 673.167,617.31 "/>
<path id="XMLID_241_" fill="#CFEBEC" d="M746.718,556.608h-4.928h-4.205c-17.688,0-32.024,14.339-32.024,32.024v79.21h4.202h68.982
	v-79.21C778.745,570.947,764.403,556.608,746.718,556.608"/>
<polygon id="XMLID_240_" fill="#FFFFFF" points="744.256,345.311 633.651,406.342 648.926,406.342 651.982,406.342 714.744,373.482 
	744.256,358.027 836.524,406.342 839.58,406.342 854.855,406.342 "/>
<rect id="XMLID_236_" x="601.047" y="480.045" fill="#CFEBEC" width="26.169" height="47.319"/>
<rect id="XMLID_235_" x="558.742" y="480.045" fill="#CFEBEC" width="26.169" height="47.319"/>
<rect id="XMLID_234_" x="601.047" y="548.386" fill="#CFEBEC" width="26.169" height="47.319"/>
<rect id="XMLID_232_" x="558.742" y="548.386" fill="#CFEBEC" width="26.169" height="47.319"/>
<rect id="XMLID_231_" x="516.434" y="480.045" fill="#CFEBEC" width="26.169" height="47.319"/>
<rect id="XMLID_230_" x="474.129" y="480.045" fill="#CFEBEC" width="26.169" height="47.319"/>
<rect id="XMLID_229_" x="516.434" y="548.386" fill="#CFEBEC" width="26.169" height="47.319"/>
<rect id="XMLID_228_" x="474.129" y="548.386" fill="#CFEBEC" width="26.169" height="47.319"/>
<rect id="XMLID_227_" x="818.491" y="543.679" fill="#FFFFFF" width="19.165" height="68.717"/>
<polygon id="XMLID_226_" fill="#FFFFFF" points="838.89,535.577 840.773,535.577 840.773,539.85 838.89,539.85 817.254,539.85 
	815.371,539.85 815.371,535.577 "/>
<polygon id="XMLID_225_" fill="#FFFFFF" points="838.261,617.31 840.033,617.31 840.033,621.222 840.033,667.842 838.261,667.842 
	837.187,667.842 819.659,667.842 816.112,667.842 816.112,617.31 "/>
<path id="XMLID_224_" fill="#DCDDDF" d="M261.748,699.021c-0.003,0.359,0.008,0.718,0.03,1.085
	c1.587,26.5,132.307,20.589,164.386,21.531c84.994,2.482,170.007,3.293,255.015,3.293c124.502,0,250.667,3.28,367.169-35.279
	c13.618-4.505,28.987-11.526,29.598-22.74c1.134-20.791-161.507-21.459-218.146-23.974c-59.325-2.642-119.29-1.206-178.621,0.613
	c-105.815,3.244-211.663,9.996-317.208,22.994C351.504,668.077,262.004,668.618,261.748,699.021"/>
<rect id="XMLID_223_" x="486.966" y="473.417" fill="#1E9080" width="34.909" height="25.385"/>
<path id="XMLID_222_" fill="#814723" d="M549.921,242.978c-0.006-1.792-0.03-3.531-0.176-5.129
	c-0.967-10.493-11.104-19.06-20.556-22.163c-6.17-2.026-13.056-3.023-19.035-5.552c-1.496-0.632-2.844-1.568-4.282-2.322
	c-6.04-3.161-13.086-2.794-19.598-1.643c-5.855,1.035-10.184,3.479-15.435,6.217c-2.54,1.325-5.102,2.664-7.338,4.459
	c-4.351,3.492-7.197,8.478-9.911,13.359c-0.839,1.513-1.698,3.092-1.817,4.823c-0.094,1.369,0.29,2.73,0.351,4.102
	c0.179,3.989-2.28,7.534-3.832,11.211c-6.965,16.501-10.358,33.788,1.207,49.406c1.474,1.993,3.153,3.89,4.086,6.184
	c1.8,4.403,0.574,9.395-0.671,13.983c2.178,0.53,4.605-0.105,6.245-1.634c1.3,4.801,1.113,9.991-0.53,14.684
	c5.593,1.416,11.981-1.642,14.389-6.885c0.45,3.986-0.185,8.092-1.817,11.758c17.009,2.159,34.503,0.337,50.703-5.281
	c4.652-1.615,9.715-4.069,11.209-8.762c0.005-0.017,3.558,6.316,3.702,6.35c1.786,0.425,4.188-2.363,5.394-3.5
	c3.305-3.111,6.347-7.092,5.96-11.89c-0.135-1.695-0.69-3.492,0.03-5.033c0.883-1.894,3.216-2.487,5.099-3.396
	c6.639-3.2,8.801-11.664,8.597-19.029c-0.243-8.696-2.736-17.318-7.178-24.797c-1.212-2.043-2.573-4.017-3.437-6.231
	C549.822,252.508,549.938,247.572,549.921,242.978"/>
<path id="XMLID_221_" fill="#6FCACF" d="M530.69,419.881c-17.945,0.284-36.464,4.873-54.22,7.68
	c0.284-1.375-3.131-0.132-3.536,0.387c-0.867,1.118-1.093,1.234-0.95,2.021c-0.408,0.53-0.547,1.008-0.174,1.242
	c-4.939,17.249-3.951,34.76-1.408,52.227c0.765,5.273,3.619,5.778,3.884,46.446c0.367,55.537,0.119,119.221,0.199,124.455
	l21.696-0.293c0.102-18.867,9.98-167.152,10.877-170.777c1.427,4.881,4.619,157.087,4.715,163.309l21.697-0.293
	c0.091-16.777,4.71-122.098,5.43-154.793C540.148,487.927,543.133,419.682,530.69,419.881"/>
<path id="XMLID_220_" fill="#E9977F" d="M531.229,669.639c0,0-17.346,5.613-17.053,0.826c0.431-6.949,1.394-28.59,1.394-28.59
	l15.728-0.243L531.229,669.639z"/>
<path id="XMLID_219_" fill="#416584" d="M511.401,663.508c0.616-0.8,1.342-0.983,2.2-0.152c2.852,2.758,6.515,3.628,9.229,0.196
	c0.425-0.538,0.98-1.068,1.668-1.107c0.734-0.042,1.369,0.477,2.076,0.671c-0.152-0.042-1.229-1.549-1.361-1.772
	c-0.414-0.715-0.453-1.587-0.099-2.352c0.571-1.24,2.023-2.493,3.153-3.178c1.438-0.872,3.004-1.527,4.635-1.938
	c1.333-0.34,2.819-0.497,4.03,0.154c1.237,0.663,1.922,2.002,2.601,3.23c3.738,6.753,8.887,11.051,16.33,13.149
	c1.474,0.414,2.998,0.732,4.32,1.505c1.753,1.024,2.996,2.78,3.716,4.679c0.869,2.294,1.745,5.914,0.571,8.238
	c-1.687,3.332-9.792,1.549-12.779,1.485c-6.167-0.138-12.329-0.298-18.491-0.489c-3.036-0.041-6.107-0.607-9.094-1.082
	c-4.276-0.682-9.737,0.182-13.591-2.065c-1.574-0.917-1.913-3.012-1.957-4.828C508.519,676.477,509.273,666.279,511.401,663.508"/>
<rect id="XMLID_218_" x="533.424" y="656.697" transform="matrix(0.0135 -0.9999 0.9999 0.0135 -155.8911 1213.0156)" fill="#FFFFFF" width="6.719" height="57.627"/>
<path id="XMLID_217_" fill="#FFFFFF" d="M548.902,677.745c0.348,0.003,0.671-0.221,0.776-0.574c0.762-2.614,2.659-4.917,5.074-6.167
	c0.26-0.135,0.536-0.229,0.768-0.237c0.439,0.064,0.842-0.229,0.911-0.663c0.066-0.436-0.229-0.842-0.665-0.911
	c-0.657-0.122-1.251,0.141-1.745,0.395c-2.797,1.446-4.994,4.113-5.875,7.139c-0.121,0.417,0.119,0.864,0.544,0.986
	C548.756,677.734,548.834,677.745,548.902,677.745"/>
<path id="XMLID_216_" fill="#FFFFFF" d="M542.525,674.799c0.246,0.003,0.489-0.105,0.649-0.317c0.417-0.552,0.762-1.132,1.099-1.703
	c0.538-0.911,1.049-1.775,1.866-2.474c1.27-1.085,2.81-1.676,4.453-1.709c0.439-0.011,0.79-0.373,0.781-0.817
	c-0.011-0.439-0.406-0.8-0.817-0.779c-1.985,0.039-3.923,0.784-5.455,2.093c-1.019,0.87-1.62,1.888-2.203,2.877
	c-0.309,0.519-0.616,1.046-1.002,1.552c-0.262,0.353-0.19,0.853,0.16,1.118C542.197,674.744,542.36,674.796,542.525,674.799"/>
<path id="XMLID_215_" fill="#FFFFFF" d="M535.745,671.348c0.279,0.003,0.552-0.138,0.701-0.395c0.991-1.698,2.068-2.968,3.285-3.876
	c1.413-1.052,2.943-1.618,4.541-1.516c0.182,0.008,0.37,0.028,0.555,0.044c0.342,0.033,0.674,0.058,1.024,0.058
	c0.439-0.005,0.79-0.37,0.784-0.812c-0.005-0.439-0.373-0.789-0.812-0.784c-0.262,0.014-0.563-0.025-0.845-0.05
	c-0.21-0.019-0.42-0.039-0.63-0.052c-1.816-0.08-3.859,0.56-5.571,1.833c-1.391,1.041-2.609,2.46-3.71,4.351
	c-0.221,0.378-0.094,0.867,0.284,1.091C535.477,671.31,535.613,671.348,535.745,671.348"/>
<path id="XMLID_214_" fill="#FFFFFF" d="M529.912,667.549c0.237,0.003,0.472-0.099,0.632-0.298c0.251-0.312,0.491-0.621,0.732-0.927
	c1.223-1.568,2.275-2.926,4.144-3.73c2.12-0.917,4.492-1,6.546-0.933h0.011c0.436,0.005,0.795-0.342,0.809-0.779
	c0.011-0.439-0.34-0.806-0.779-0.817c-2.057-0.08-4.795,0.017-7.216,1.063c-2.247,0.969-3.473,2.545-4.773,4.216
	c-0.232,0.298-0.467,0.602-0.715,0.908c-0.276,0.343-0.221,0.845,0.119,1.121C529.567,667.489,529.74,667.547,529.912,667.549"/>
<path id="XMLID_213_" fill="#A4D8CB" d="M509.571,638.891c-0.017,2.683-0.558,10.941,3.335,10.742
	c7.711-0.395,12.832-0.789,20.542-1.184c0.461-0.025,1.041-0.342,1.126-0.925c0.472-3.236,1.864-11.435,1.165-12.001
	c-0.166-0.135-0.379-0.218-0.641-0.218c-0.061-0.003-0.13-0.005-0.19-0.005c-0.411-0.328-17.111-1.855-24.744,2.487
	C509.814,637.988,509.574,638.452,509.571,638.891"/>
<path id="XMLID_212_" fill="#E9977F" d="M493.942,674.813c0,0-17.346,5.613-17.053,0.823c0.428-6.946,1.391-28.587,1.391-28.587
	l15.73-0.243L493.942,674.813z"/>
<path id="XMLID_211_" fill="#416584" d="M474.109,668.681c0.616-0.801,1.345-0.98,2.203-0.152c2.852,2.758,6.512,3.627,9.229,0.196
	c0.425-0.538,0.98-1.066,1.667-1.107c0.732-0.041,1.367,0.478,2.076,0.671c-0.152-0.041-1.231-1.549-1.361-1.772
	c-0.414-0.715-0.453-1.588-0.102-2.352c0.572-1.24,2.024-2.493,3.155-3.178c1.438-0.872,3.004-1.527,4.633-1.941
	c1.333-0.337,2.819-0.494,4.033,0.157c1.237,0.663,1.919,2.002,2.598,3.23c3.738,6.753,8.887,11.051,16.333,13.149
	c1.474,0.414,2.998,0.732,4.317,1.505c1.756,1.024,2.995,2.78,3.719,4.679c0.87,2.294,1.742,5.913,0.571,8.238
	c-1.687,3.329-9.792,1.551-12.782,1.485c-6.164-0.135-12.329-0.298-18.491-0.489c-3.034-0.042-6.104-0.607-9.094-1.082
	c-4.276-0.682-9.737,0.182-13.591-2.065c-1.571-0.917-1.911-3.012-1.957-4.828C471.23,681.651,471.981,671.453,474.109,668.681"/>
<rect id="XMLID_210_" x="496.133" y="661.869" transform="matrix(0.0135 -0.9999 0.9999 0.0135 -197.8518 1180.832)" fill="#FFFFFF" width="6.72" height="57.627"/>
<path id="XMLID_209_" fill="#FFFFFF" d="M511.611,682.916c0.351,0.008,0.674-0.218,0.776-0.574c0.765-2.609,2.661-4.917,5.077-6.162
	c0.257-0.138,0.536-0.232,0.765-0.243c0.442,0.063,0.842-0.224,0.914-0.663c0.066-0.433-0.229-0.842-0.668-0.908
	c-0.654-0.122-1.251,0.138-1.745,0.395c-2.797,1.447-4.991,4.114-5.872,7.139c-0.121,0.42,0.119,0.864,0.544,0.989
	C511.467,682.907,511.545,682.916,511.611,682.916"/>
<path id="XMLID_208_" fill="#FFFFFF" d="M505.236,679.973c0.246,0.003,0.486-0.105,0.646-0.318c0.419-0.552,0.762-1.132,1.102-1.703
	c0.538-0.911,1.049-1.775,1.866-2.474c1.27-1.085,2.808-1.676,4.453-1.712c0.439-0.008,0.79-0.37,0.779-0.814
	c-0.008-0.439-0.406-0.801-0.814-0.779c-1.985,0.042-3.926,0.784-5.455,2.093c-1.021,0.87-1.62,1.888-2.206,2.877
	c-0.306,0.519-0.616,1.046-0.999,1.554c-0.262,0.351-0.193,0.85,0.16,1.115C504.905,679.917,505.068,679.97,505.236,679.973"/>
<path id="XMLID_207_" fill="#FFFFFF" d="M498.456,676.524c0.279,0.003,0.549-0.141,0.701-0.395c0.991-1.698,2.068-2.968,3.285-3.876
	c1.414-1.055,2.943-1.621,4.539-1.516c0.185,0.008,0.373,0.025,0.558,0.044c0.342,0.033,0.671,0.058,1.024,0.058
	c0.439-0.008,0.79-0.37,0.784-0.815c-0.009-0.436-0.376-0.789-0.811-0.781c-0.265,0.014-0.566-0.025-0.848-0.05
	c-0.207-0.022-0.417-0.039-0.63-0.052c-1.814-0.08-3.856,0.56-5.568,1.833c-1.392,1.041-2.609,2.46-3.713,4.348
	c-0.218,0.381-0.091,0.87,0.287,1.093C498.188,676.486,498.321,676.522,498.456,676.524"/>
<path id="XMLID_206_" fill="#FFFFFF" d="M492.623,672.723c0.237,0.003,0.472-0.099,0.632-0.298c0.251-0.312,0.491-0.621,0.729-0.928
	c1.226-1.568,2.277-2.926,4.147-3.73c2.117-0.914,4.489-0.999,6.546-0.933c0.003,0,0.006,0,0.008,0
	c0.436,0.006,0.798-0.343,0.809-0.778c0.014-0.439-0.337-0.806-0.776-0.817c-2.06-0.08-4.795,0.017-7.219,1.063
	c-2.244,0.969-3.47,2.545-4.773,4.216c-0.229,0.298-0.464,0.602-0.712,0.908c-0.279,0.342-0.224,0.845,0.119,1.121
	C492.278,672.662,492.452,672.72,492.623,672.723"/>
<path id="XMLID_205_" fill="#A4D8CB" d="M472.282,644.064c-0.017,2.683-0.561,10.941,3.335,10.742
	c7.711-0.395,12.832-0.79,20.54-1.184c0.461-0.025,1.041-0.342,1.129-0.925c0.472-3.236,1.863-11.435,1.165-12.001
	c-0.166-0.135-0.378-0.218-0.641-0.218c-0.064-0.003-0.13-0.006-0.19-0.006c-0.411-0.329-17.111-1.855-24.744,2.487
	C472.522,643.161,472.285,643.625,472.282,644.064"/>
<path id="XMLID_204_" fill="#A4D8CB" d="M489.763,524.509c1.643-1.085,6.256-0.748,7.852-0.795c0.723-0.022,1.491-0.036,2.117,0.32
	c3.608,2.04-4.356,3.191-5.541,2.774c1.557,0.547,3.316,0.944,4.31,1.309c1.121,0.409,1.179,1.701,0.392,2.269
	c1.008,0.293,1.201,1.601,0.536,2.203c0.298,0.665,0.102,1.546-0.787,1.759c-2.899,0.69-5.811,1.215-8.762,1.607
	c-1.657,0.218-1.665-2.374-0.033-2.59c0.359-0.047,0.712-0.119,1.071-0.171c-0.707-0.309-0.886-0.988-0.66-1.565
	c-0.243-0.063-0.489-0.091-0.732-0.16c-1.474-0.406-1.099-2.399,0.309-2.542c0,0,2.247-0.232,2.242-0.235
	c-1.61-0.726-4.083-2.258-2.631-3.909C489.534,524.683,489.638,524.592,489.763,524.509"/>
<path id="XMLID_203_" fill="#A4D8CB" d="M486.966,563.885c2.852-1.911,10.67,0.094,13.723,1.154c1.135,0.395,0.392,1.764-0.787,1.91
	c-2.145,0.268-4.29,0.536-6.435,0.801c1.488,0.315,3.18,0.5,4.127,0.712c1.066,0.237,1.035,1.231,0.224,1.728
	c0.964,0.155,1.063,1.154,0.367,1.665c0.246,0.494-0.006,1.19-0.892,1.416c-2.882,0.737-5.77,1.347-8.683,1.855
	c-1.634,0.287-1.463-1.717,0.146-1.999c0.356-0.061,0.707-0.141,1.06-0.207c-0.668-0.19-0.795-0.704-0.533-1.165
	c-0.235-0.03-0.472-0.036-0.707-0.072c-1.414-0.21-0.905-1.781,0.483-1.99l2.217-0.334c-1.151-0.34-2.153-0.806-2.747-1.543
	c-0.5-0.621,0.323-1.471,1.215-1.582c1.521-0.191,3.039-0.378,4.558-0.569C492.628,565.875,487.841,565.472,486.966,563.885"/>
<path id="XMLID_202_" fill="#26A4B0" d="M508.72,451.635c0.95,7.272,1.59,14.505,2.12,21.818c0.326,4.522-8.771,10.645-7.432,9.723
	c4.845-3.34,2.96-10.576,2.711-15.601c-0.279-5.566-0.342-11.068-0.284-16.639C505.849,449.777,508.602,450.721,508.72,451.635"/>
<path id="XMLID_201_" fill="#26A4B0" d="M489.575,454.514c-2.037,7.269-7.791,13.469-14.952,15.987
	c-1.325,0.464-5.737-1.714-3.641-2.683c6.866-3.178,11.995-7.771,15.747-14.397C487.228,452.534,489.856,453.523,489.575,454.514"/>
<path id="XMLID_200_" fill="#26A4B0" d="M524.299,450.966c2.037,7.269,7.791,13.469,14.952,15.987
	c1.325,0.464,5.737-1.714,3.641-2.683c-6.866-3.177-11.995-7.771-15.747-14.397C526.646,448.987,524.018,449.975,524.299,450.966"/>
<path id="XMLID_199_" fill="#A4D8CB" d="M524.592,549.863c2.938-1.662,5.949-2.636,9.292-3.086c1.654-0.224,1.662,2.369,0.033,2.587
	c-1.452,0.196-2.832,0.525-4.169,0.986c3.299,0.616,6.493,1.557,9.552,3.131c1.206,0.618,0.569,2.333-0.632,2.413
	c-2.181,0.146-4.362,0.296-6.543,0.442c1.557,0.549,3.316,0.947,4.312,1.309c1.118,0.411,1.179,1.701,0.389,2.272
	c1.008,0.29,1.204,1.599,0.536,2.2c0.298,0.665,0.105,1.546-0.784,1.759c-2.899,0.69-5.811,1.215-8.763,1.607
	c-1.656,0.218-1.664-2.372-0.036-2.587c0.362-0.05,0.713-0.119,1.071-0.171c-0.707-0.312-0.883-0.991-0.657-1.568
	c-0.246-0.063-0.489-0.091-0.734-0.157c-1.471-0.409-1.096-2.402,0.312-2.545l2.247-0.229c-1.215-0.549-2.289-1.251-2.965-2.264
	c-0.574-0.856,0.191-1.883,1.099-1.946c1.546-0.102,3.092-0.207,4.641-0.312c-2.44-0.71-4.945-1.165-7.531-1.427
	C524.059,552.152,523.366,550.556,524.592,549.863"/>
<path id="XMLID_198_" fill="#FFFFFF" d="M532.418,349.193c-2.239-5.538-6.074-10.126-12.799-12.699
	c-12.591-4.82-25.067-3.548-37.673,0.836c-2.054,0.715-4.13,1.543-5.739,3.006c-5.855,5.323-4.677,16.683-4.967,23.996
	c-0.422,10.568-0.778,21.139-1.126,31.71c-0.417,12.603-0.809,25.205-1.193,37.811c-0.039,1.245-1.474,16.998-0.519,17.398
	c0,0,4.481,1.869,8.669,2.904c6.46,1.596,21.202,3.346,27.856,3.343c5.56,0,11.12,0.224,16.647-0.56
	c6.659-0.941,12.638-2.211,17.415-6.805c0.836-0.801-0.32-8.083-0.356-9.218c-0.221-7.034-0.433-14.069-0.671-21.1
	c-0.489-14.284-1.035-28.571-1.886-42.838C535.541,367.98,535.784,357.514,532.418,349.193"/>
<path id="XMLID_197_" fill="#AE663C" d="M474.758,232.429c2.156-1.532,4.754-2.44,7.863-2.465c5.715-0.05,11.404-1.852,16.114-5.099
	c1.767-1.223,3.434-2.686,4.45-4.577c1.016-1.894,1.295-4.285,0.298-6.189c-1.201-2.3-3.887-3.385-6.43-3.895
	c-7.785-1.554-16.255,0.82-22.099,6.195c-0.414,0.381-0.837,0.787-1.378,0.947c-0.605,0.177-1.251,0.011-1.872-0.111
	c-9.395-1.83-23.463,8.818-23.775,18.235c-0.16,4.848,0.795,9.944-1.135,14.394c-2.084,4.801-4.365,9.455-6.325,14.334
	c-2.393,5.96-4.82,12.525-2.877,18.649c1.356,4.282,4.655,7.622,7.04,11.429c2.385,3.807,3.796,8.964,1.223,12.647
	c2.819-0.157,4.724-2.672,4.975-5.317c3.415,2.816,5.574,20.956-1.251,20.023c5.267,0.72,10.728-3.346,11.545-8.6
	c1.19-7.661-6.258-15.311-3.492-22.549c1.344-3.52,4.793-5.795,6.642-9.074c3.078-5.461,1.14-12.219,0.861-18.48
	C464.698,253.104,466.556,238.251,474.758,232.429"/>
<path id="XMLID_196_" fill="#EFB89E" d="M493.777,349.29c-4.58-2.874-7.747-6.935-10.413-11.405c3.608-2.225,6.48-4.925,6.248-7.802
	c-0.122-1.505-1.745-21.652-2.151-21.578c8.1-1.494,24.791-0.82,24.758-0.348c-0.381,5.386,0.475,18.845,0.561,20.324
	c0.119,2.755,6.176,5.919,9.096,7.421C520.329,347.567,504.124,355.777,493.777,349.29"/>
<path id="XMLID_195_" fill="#EFB89E" d="M535.138,271.728c-0.119,0.108-0.251,0.171-0.378,0.254
	c-0.006,0.268-0.028,0.533-0.025,0.803L535.138,271.728z"/>
<path id="XMLID_194_" fill="#EFB89E" d="M534.356,238.483c-0.93-2.167-2.023-4.296-3.556-6.131
	c-4.632-5.538-12.429-7.573-19.736-8.956c-6.742-1.278-13.632-2.283-20.473-1.648c-5.488,0.511-10.861,2.087-15.692,4.599
	c-2.504,1.303-4.895,2.882-6.736,4.95c-1.927,2.164-3.191,4.793-4.116,7.484c-2.821,8.224-2.568,17.37,0.71,25.448
	c0.72,1.77,1.781,3.666,3.686,4.24c1.311,0.395,2.725,0.064,4.061-0.257c9.193-2.206,18.61-3.846,28.093-3.76
	c9.489,0.086,19.09,1.963,27.337,6.416c2.126,1.151,4.939,2.38,6.827,1.115c0.097-6.052,2.446-11.932,2.761-17.994
	C537.791,248.692,536.466,243.4,534.356,238.483"/>
<path id="XMLID_193_" fill="#EA9880" d="M488.918,323.772c-0.378-3.956-0.734-7.167-0.895-7.136
	c8.012-1.488,24.523-0.803,24.49-0.329c-0.185,2.667-0.069,7.321,0.108,11.515C506.446,335.401,496.383,329.048,488.918,323.772"/>
<path id="XMLID_192_" fill="#EFB89E" d="M548.245,270.212c-0.179-0.823-0.569-1.632-1.245-2.176
	c-1.049-0.848-2.592-0.903-3.929-0.599c-2.576,0.582-4.809,2.38-5.831,4.696l-3.942,15.639c0.19,1.982,2.134,3.672,4.232,3.68
	c1.753,0.005,3.362-1.03,4.42-2.358c1.057-1.325,1.651-2.921,2.233-4.489c1.005-2.711,2.01-5.419,3.015-8.13
	C547.95,274.455,548.707,272.31,548.245,270.212"/>
<path id="XMLID_191_" fill="#EFB89E" d="M448.714,268.006c0.199-0.861,0.616-1.706,1.328-2.269c1.113-0.875,2.73-0.917,4.136-0.58
	c2.694,0.641,5.019,2.556,6.068,5l3.964,16.465c-0.221,2.079-2.278,3.829-4.481,3.813c-1.841-0.017-3.517-1.124-4.613-2.529
	c-1.093-1.405-1.703-3.087-2.297-4.74c-1.027-2.857-2.051-5.715-3.076-8.572C448.979,272.465,448.203,270.204,448.714,268.006"/>
<path id="XMLID_190_" fill="#EFB89E" d="M536.082,268.034c-0.966-8.638-5.626-17.925-11.156-24.78
	c-3.71-4.597-8.782-8.448-14.739-9.685c-1.941-0.403-3.934-0.522-5.913-0.641c-7.719-0.461-15.841-0.853-22.784,2.36
	c-11.579,5.358-18.177,18.784-19.64,30.351c-1.008,7.967-2.647,19.839,0.45,27.591c2.788,6.976,7.346,12.349,12.539,17.953
	c6.112,6.59,14.369,11.322,24.236,10.977c10.416-0.365,18.157-5.254,24.54-12.039c4.208-4.472,8.826-10.46,11.214-16.067
	C537.879,286.895,536.916,275.507,536.082,268.034"/>
<path id="XMLID_189_" fill="#583634" d="M489.318,275.739c-5.267-3.161-13.856-3.752-18.298,0.26
	c-0.372,0.334-0.983,1.204-0.983,1.204s0.315-0.16,1.761,0.094c1.574,0.276,2.192,0.845,2.385,0.549
	c1.83-2.785,7.517-3.321,10.322-2.819c1.173,0.213,3.04,0.828,4.528,1.358C490.34,276.849,490.069,276.192,489.318,275.739"/>
<path id="XMLID_188_" fill="#955023" d="M501.347,271.396c-0.246,3.288-0.221,6.242,0.704,9.419
	c0.986,3.387,7.352,9.972-1.474,10.565c-0.386,0.025-1.082,0.665-0.362,0.618c2.852-0.193,5.618-0.657,6.17-3.848
	c0.362-2.073-2.043-4.671-2.927-6.38c-1.637-3.169-1.62-7.07-1.493-10.524C501.973,271.007,501.36,271.192,501.347,271.396"/>
<path id="XMLID_187_" fill="#EA9880" d="M463.39,266.968c1.621-3.183,2.86-6.606,4.254-9.894c0.95-2.244,1.902-4.503,2.46-6.863
	c0.767-3.274,0.715-6.642,1.228-9.95c0.077-0.497,1.643-5.671,2.89-4.696c1.8,1.806,3.249,3.929,4.238,6.231
	c0.47,1.085,0.837,2.206,1.17,3.335c0.864,2.924,0.621,8.075,2.095,10.579c1.176,1.999,4.053,1.367,5.969,1.066
	c2.681-0.425,4.525-0.398,7.263-0.105c4.354,0.469,8.674,1.157,13.022,1.679c6.623,0.795,13.696,1.284,19.526,4.627
	c2.402,1.38,4.793,2.854,6.659,4.848c0.828,0.883,1.634,1.919,2.841,2.217c-0.243-1.982-1.124-4.351-1.099-6.316
	c0.682-3.227,1.441-6.454,1.612-9.734c0.271-5.3-1.055-10.59-3.164-15.507c-0.93-2.17-2.023-4.298-3.556-6.131
	c-4.632-5.541-12.429-7.573-19.733-8.956c-6.745-1.278-13.635-2.283-20.474-1.648c-5.491,0.511-10.863,2.084-15.695,4.599
	c-2.504,1.303-4.895,2.879-6.736,4.95c-1.927,2.164-3.191,4.79-4.116,7.484c-2.385,6.952-2.548,14.555-0.569,21.622
	C464.033,262.385,460.968,265.516,463.39,266.968"/>
<path id="XMLID_186_" fill="#814723" d="M506.899,260.464c4.017-0.011,8.064,0.014,12.07,0.309c3.876,0.284,8.47,2.777,11.584,4.746
	c0.74,0.466,2.261,0.348,1.485-0.21c-2.971-2.137-7.495-5.8-9.077-6.416c-1.968-0.765-10.75-2.142-15.09-1.75
	C507.174,257.203,505.452,260.467,506.899,260.464"/>
<path id="XMLID_185_" fill="#814723" d="M492.377,260.657c-4.011-0.218-8.053-0.4-12.07-0.312
	c-3.887,0.086-8.608,2.338-11.827,4.144c-0.764,0.428-2.275,0.229-1.471-0.287c3.084-1.979,7.802-5.405,9.414-5.938
	c2.007-0.663,10.852-1.587,15.167-0.975C492.281,257.388,493.821,260.734,492.377,260.657"/>
<path id="XMLID_184_" fill="#583634" d="M510.297,275.493c5.055-2.915,13.279-3.1,17.525,1.132c0.356,0.356,0.936,1.256,0.936,1.256
	s-0.298-0.174-1.687,0.011c-1.507,0.201-2.101,0.74-2.286,0.436c-1.745-2.879-7.189-3.688-9.878-3.318
	c-1.124,0.155-2.915,0.685-4.343,1.143C509.317,276.556,509.574,275.91,510.297,275.493"/>
<path id="XMLID_183_" fill="#FFFFFF" d="M485.517,299.208c0,0,0.284,0.56,0.814,1.477c0.536,0.917,1.325,2.186,2.418,3.528
	c1.08,1.345,2.507,2.752,4.232,3.727c0.856,0.505,1.786,0.842,2.73,1.079c0.961,0.257,1.899,0.304,2.901,0.32
	c0.867-0.022,1.897-0.116,2.808-0.326c0.933-0.193,1.842-0.53,2.703-0.922c1.723-0.831,3.238-2.013,4.378-3.318
	c1.16-1.267,1.966-2.581,2.476-3.545c0.505-0.972,0.748-1.571,0.748-1.571s-5.345,1.118-12.098,1.118
	C490.268,300.776,485.517,299.208,485.517,299.208"/>
<path id="XMLID_182_" fill="#EA9880" d="M542.523,271.595c-2.189,0.536-3.622,2.162-4.08,4.348c-0.37,1.759,1.182,3.034,0.113,4.704
	c-0.798,1.24-1.118,2.211-0.977,3.691c0.05,0.102,0.133,0.168,0.246,0.199c3.451,1.563,4.478-4.108,3.898-6.272
	c-0.185-0.687-2.308,0.055-2.128,0.817c0.201,0.643,0.276,1.303,0.229,1.979c-0.03,0.237-0.063,0.475-0.096,0.71
	c-0.56,1.441-0.552,1.59,0.022,0.444c0.105-1.126,1.148-2.073,1.488-3.156c0.232-0.74-0.489-1.885-0.665-2.565
	c-0.483-1.85,0.983-3.423,2.344-4.373C543.431,271.758,542.961,271.487,542.523,271.595"/>
<path id="XMLID_181_" fill="#EA9880" d="M452.096,271.231c4.547-0.152,3.987,4.837,6.59,7.15c0.074-0.204,0.146-0.411,0.223-0.618
	c-0.657,0.566-1.358,1.328-1.143,2.297c0.646,2.896,0.204-1.295,0.13-1.275c0.861-0.24,1.469-1.378,0.168-1.024
	c-0.776,0.21-1.717,0.585-1.897,1.496c-0.185,0.928-0.05,3.067,1.195,3.302c0.858,0.163,1.761,0.121,2.449-0.502
	c1.535-1.394-1.308-2.449,0.4-4.053c0.124-0.116,0.243-0.35,0.072-0.486c-1.681-1.317-1.954-3.603-3.111-5.312
	c-1.049-1.549-2.915-1.932-4.643-1.717C452.096,270.54,451.21,271.258,452.096,271.231"/>
<path id="XMLID_180_" fill="#AE663C" d="M538.854,235.339c-6.256-7.556-16.153-10.571-22.806-17.368
	c-4.475-4.572-11.327-6.223-17.69-5.568c-5.809,0.594-10.289,3.41-15.67,5.165c-4.321,1.411-7.6,1.869-10.825,5.64
	c-2.487-0.665-5.248-0.367-7.509,0.814c-3.934,2.051-6.057,7.597-7.446,11.44c-1.957,5.425-1.654,11.438,0.135,16.92
	c0.116-2.057,0.574-4.091,1.356-6.01c0.361,3.255,1.728,5.673,1.728,9.077c0,3.937-3.175,5.726-2.86,9.66
	c0.301,3.768,0.621,7.614,2.176,11.092c1.041,2.327,2.625,4.434,4.599,6.126c-5.326-13.599,9.657-19.422,8.547-31.632
	c-0.624-6.869-1.251-11.451,2.324-17.677c1.143,2.062,2.573,3.975,4.078,6.06c2.656,3.68,3.812,8.213,6.427,11.783
	c2.65,3.622,7.07,3.536,11.115,3.804c4.009,0.268,8.246,0.483,12.158,1.452c1.596,0.392,8.671,1.022,9.317,1.993
	c-1.391-3.18-0.952-7.087,1.115-9.875c0.08,2.095,0.204,4.262,1.154,6.134c1.342,2.648,4.075,4.243,6.664,5.693
	c3.47,1.944,5.823,4.685,9.168,6.744c1.353,0.834,4.748,1.64,5.673,2.758c-2.413-2.913-2.018-7.172-1.295-10.885
	c0.723-3.71,1.607-7.755-0.127-11.115c1.286,1.447,2.311,3.128,3.009,4.936C544.416,245.371,542.592,239.852,538.854,235.339"/>
<path id="XMLID_179_" fill="#814723" d="M518.64,228.294c3.164,3.089,6.035,6.223,7.724,10.364c1.991,4.87,0.086,9.058,0.047,13.889
	c-0.003,0.293,0.732,0.063,0.746-0.179c0.265-4.461,1.507-8.081,0.489-12.583c-1.102-4.872-4.892-8.594-8.481-11.774
	C519.023,227.882,518.48,228.139,518.64,228.294"/>
<path id="XMLID_178_" fill="#814723" d="M504.756,223.603c9.856,0.831,7.793,18.864,4.1,24.338
	c-0.221,0.329,0.684,0.133,0.839-0.083c4.141-5.726,5.759-24.3-4.594-24.614C504.927,223.241,504.4,223.572,504.756,223.603"/>
<path id="XMLID_177_" fill="#814723" d="M506.501,233.79c1.551,1.021,0.389,6.154,0.157,7.622c-0.464,2.937-1.51,5.729-2.733,8.426
	c-0.154,0.345,0.654,0.149,0.765-0.075c1.345-2.728,2.239-5.557,2.785-8.55c0.323-1.775,1.402-6.554-0.428-7.719
	C506.874,233.384,506.33,233.677,506.501,233.79"/>
<path id="XMLID_176_" fill="#E9977F" d="M665.697,669.002c0,0,15.598,9.439,16.409,4.707c1.176-6.86-1.452-29.473-1.452-29.473
	l-15.253-3.838L665.697,669.002z"/>
<path id="XMLID_175_" fill="#EB495C" d="M685.966,666.818c-0.602-0.809-1.325-1.005-2.197-0.19
	c-2.899,2.711-6.576,3.523-9.232,0.047c-0.417-0.547-0.961-1.085-1.648-1.135c-0.732-0.055-1.375,0.453-2.087,0.638
	c0.152-0.039,1.256-1.53,1.391-1.753c0.425-0.707,0.477-1.576,0.138-2.349c-0.552-1.248-1.982-2.523-3.1-3.227
	c-1.424-0.894-2.982-1.576-4.602-2.015c-1.331-0.359-2.81-0.541-4.033,0.088c-1.251,0.64-1.955,1.971-2.653,3.189
	c-3.848,6.687-9.069,10.902-16.548,12.876c-1.477,0.392-3.007,0.685-4.343,1.433c-1.767,0.997-3.04,2.733-3.79,4.619
	c-0.908,2.28-1.844,5.883-0.707,8.227c1.629,3.36,9.762,1.712,12.752,1.698c6.168-0.036,12.332-0.097,18.5-0.185
	c3.034,0.008,6.115-0.505,9.108-0.933c4.287-0.61,9.734,0.342,13.624-1.841c1.585-0.889,1.96-2.979,2.038-4.795
	C688.633,679.832,688.048,669.625,685.966,666.818"/>
<rect id="XMLID_174_" x="656.867" y="659.585" transform="matrix(0.003 -1 1 0.003 -30.1299 1346.5769)" fill="#FFFFFF" width="6.72" height="57.627"/>
<path id="XMLID_173_" fill="#FFFFFF" d="M648.235,680.434c-0.348,0-0.668-0.232-0.765-0.588c-0.721-2.623-2.581-4.958-4.975-6.247
	c-0.257-0.141-0.53-0.24-0.762-0.251c-0.442,0.055-0.837-0.243-0.9-0.679c-0.061-0.436,0.243-0.836,0.679-0.897
	c0.66-0.111,1.251,0.16,1.737,0.422c2.774,1.491,4.928,4.196,5.759,7.233c0.113,0.425-0.135,0.864-0.56,0.98
	C648.382,680.425,648.305,680.434,648.235,680.434"/>
<path id="XMLID_172_" fill="#FFFFFF" d="M654.66,677.596c-0.248,0-0.489-0.113-0.643-0.329c-0.409-0.56-0.743-1.143-1.071-1.72
	c-0.525-0.922-1.019-1.792-1.825-2.504c-1.25-1.107-2.783-1.723-4.425-1.783c-0.439-0.017-0.784-0.386-0.767-0.828
	c0.016-0.439,0.42-0.792,0.828-0.767c1.982,0.074,3.912,0.85,5.422,2.184c1.002,0.886,1.59,1.916,2.156,2.913
	c0.296,0.525,0.599,1.057,0.972,1.571c0.26,0.353,0.18,0.853-0.177,1.113C654.988,677.546,654.825,677.596,654.66,677.596"/>
<path id="XMLID_171_" fill="#FFFFFF" d="M661.495,674.258c-0.279,0-0.547-0.147-0.693-0.406c-0.966-1.714-2.021-3.001-3.224-3.931
	c-1.394-1.074-2.915-1.665-4.514-1.587c-0.182,0.003-0.37,0.019-0.558,0.033c-0.342,0.028-0.671,0.05-1.024,0.042
	c-0.439-0.014-0.784-0.384-0.77-0.826c0.014-0.439,0.389-0.784,0.825-0.77c0.265,0.019,0.566-0.014,0.848-0.033
	c0.207-0.019,0.42-0.033,0.63-0.044c1.817-0.05,3.848,0.624,5.541,1.924c1.375,1.063,2.565,2.504,3.639,4.412
	c0.213,0.384,0.077,0.87-0.304,1.085C661.763,674.225,661.63,674.258,661.495,674.258"/>
<path id="XMLID_170_" fill="#FFFFFF" d="M667.392,670.556c-0.238,0-0.47-0.107-0.627-0.306c-0.246-0.323-0.483-0.632-0.715-0.941
	c-1.198-1.59-2.228-2.962-4.083-3.796c-2.104-0.952-4.475-1.074-6.532-1.044h-0.009c-0.436,0-0.789-0.353-0.795-0.789
	c-0.006-0.439,0.351-0.8,0.789-0.806c2.06-0.05,4.795,0.094,7.2,1.179c2.228,1.008,3.432,2.603,4.704,4.298
	c0.226,0.295,0.456,0.605,0.698,0.914c0.27,0.351,0.207,0.853-0.138,1.121C667.737,670.501,667.563,670.556,667.392,670.556"/>
<path id="XMLID_169_" fill="#E9977F" d="M701.917,671.588c0,0,15.595,9.439,16.407,4.707c1.176-6.86-1.452-29.474-1.452-29.474
	l-15.253-3.84L701.917,671.588z"/>
<path id="XMLID_168_" fill="#EB495C" d="M722.181,669.405c-0.602-0.812-1.325-1.005-2.198-0.188
	c-2.899,2.708-6.576,3.52-9.232,0.044c-0.417-0.547-0.961-1.082-1.648-1.135c-0.732-0.055-1.375,0.453-2.087,0.638
	c0.152-0.039,1.256-1.53,1.392-1.753c0.425-0.707,0.477-1.577,0.138-2.349c-0.552-1.248-1.982-2.523-3.1-3.227
	c-1.424-0.894-2.982-1.576-4.602-2.015c-1.331-0.359-2.81-0.541-4.033,0.088c-1.251,0.641-1.955,1.971-2.653,3.189
	c-3.849,6.689-9.069,10.902-16.548,12.876c-1.477,0.392-3.006,0.685-4.343,1.433c-1.767,0.997-3.037,2.733-3.79,4.619
	c-0.908,2.28-1.844,5.883-0.707,8.227c1.629,3.36,9.762,1.712,12.752,1.698c6.167-0.036,12.332-0.097,18.5-0.185
	c3.034,0.008,6.115-0.508,9.108-0.933c4.287-0.61,9.734,0.342,13.624-1.841c1.585-0.889,1.96-2.979,2.037-4.795
	C724.848,682.419,724.263,672.212,722.181,669.405"/>
<rect id="XMLID_167_" x="693.082" y="662.171" transform="matrix(0.003 -1 1 0.003 3.3918 1385.3721)" fill="#FFFFFF" width="6.72" height="57.627"/>
<path id="XMLID_166_" fill="#FFFFFF" d="M684.451,683.02c-0.348,0-0.668-0.232-0.765-0.588c-0.721-2.623-2.579-4.958-4.975-6.247
	c-0.254-0.141-0.53-0.24-0.762-0.251c-0.442,0.055-0.836-0.243-0.9-0.679c-0.061-0.436,0.243-0.836,0.679-0.897
	c0.66-0.11,1.251,0.16,1.737,0.423c2.775,1.491,4.928,4.196,5.759,7.233c0.113,0.425-0.132,0.864-0.56,0.98
	C684.597,683.012,684.519,683.02,684.451,683.02"/>
<path id="XMLID_165_" fill="#FFFFFF" d="M690.875,680.182c-0.249,0-0.489-0.113-0.643-0.329c-0.409-0.56-0.743-1.143-1.071-1.72
	c-0.525-0.922-1.019-1.792-1.825-2.504c-1.251-1.107-2.783-1.723-4.426-1.784c-0.439-0.019-0.784-0.386-0.768-0.828
	c0.017-0.439,0.42-0.795,0.828-0.767c1.982,0.074,3.912,0.85,5.422,2.184c1.002,0.886,1.59,1.916,2.156,2.91
	c0.295,0.525,0.599,1.06,0.972,1.571c0.26,0.356,0.18,0.856-0.177,1.115C691.203,680.133,691.04,680.182,690.875,680.182"/>
<path id="XMLID_164_" fill="#FFFFFF" d="M697.71,676.844c-0.279,0-0.547-0.146-0.693-0.406c-0.966-1.714-2.021-3.001-3.224-3.931
	c-1.394-1.074-2.915-1.665-4.514-1.59c-0.182,0.005-0.37,0.022-0.558,0.036c-0.342,0.028-0.671,0.05-1.024,0.041
	c-0.439-0.014-0.784-0.384-0.77-0.825c0.016-0.439,0.389-0.784,0.826-0.77c0.265,0.019,0.566-0.014,0.847-0.033
	c0.207-0.019,0.42-0.033,0.629-0.044c1.817-0.05,3.848,0.624,5.541,1.924c1.375,1.063,2.565,2.504,3.639,4.411
	c0.213,0.384,0.077,0.87-0.304,1.085C697.978,676.812,697.845,676.844,697.71,676.844"/>
<path id="XMLID_163_" fill="#FFFFFF" d="M703.607,673.14c-0.237,0-0.469-0.105-0.627-0.304c-0.246-0.323-0.48-0.632-0.715-0.941
	c-1.198-1.59-2.228-2.962-4.083-3.796c-2.104-0.955-4.475-1.074-6.532-1.044c-0.003,0-0.006,0-0.008,0
	c-0.436,0-0.79-0.353-0.795-0.789c-0.005-0.439,0.351-0.801,0.79-0.806c2.059-0.05,4.795,0.094,7.2,1.179
	c2.228,1.008,3.432,2.603,4.704,4.298c0.226,0.298,0.456,0.604,0.698,0.914c0.271,0.351,0.207,0.85-0.138,1.121
	C703.952,673.087,703.778,673.14,703.607,673.14"/>
<path id="XMLID_162_" fill="#D48743" d="M724.111,465.554c-0.03-4.942,0.422-10.554-0.908-15.377
	c-0.025-0.069-0.053-0.141-0.077-0.21c-2.256-5.508-31.478-13.737-35.649-8.989c-0.058,0.069-0.11,0.168-0.132,0.257
	c-1.367,5.047-2.984,11.313-2.805,16.448c0.386,10.963,1.055,21.917,1.753,32.866c0.593,9.276,14.449,151.563,14.204,160.61
	l18.094,0.37c1.822-5.375,5.35-123,5.599-123.044C724.163,524.28,724.155,473.29,724.111,465.554"/>
<path id="XMLID_161_" fill="#D48743" d="M687.896,462.967c-0.033-4.942,0.419-10.554-0.911-15.377
	c-0.022-0.069-0.05-0.141-0.077-0.21c-2.253-5.508-31.477-13.737-35.646-8.989c-0.058,0.069-0.113,0.168-0.135,0.257
	c-1.367,5.047-0.398,11.313-0.218,16.448c0.384,10.963,1.057,21.917,1.756,32.866c0.588,9.276,11.863,151.563,11.617,160.61
	c0,0.003,18.094,0.37,18.094,0.37c1.822-5.375,5.35-123.001,5.596-123.045C687.948,521.693,687.94,470.703,687.896,462.967"/>
<path id="XMLID_160_" fill="#A94B24" d="M677.4,461.198c-0.456,7.319-0.607,14.579-0.635,21.912
	c-0.022,4.533,9.467,10.027,8.067,9.196c-5.057-3.001-3.669-10.35-3.757-15.38c-0.099-5.574-0.406-11.065-0.845-16.619
	C680.138,459.149,677.458,460.278,677.4,461.198"/>
<path id="XMLID_159_" fill="#A94B24" d="M706.266,464.798c2.526,7.114,8.685,12.912,16.001,14.938
	c1.35,0.375,5.607-2.098,3.451-2.924c-7.065-2.706-12.495-6.94-16.683-13.298C708.474,462.664,705.921,463.826,706.266,464.798"/>
<path id="XMLID_158_" fill="#A94B24" d="M651.04,472.05c5.602-3.746,12.431-7.838,12.661-15.358c0.053-1.77-4.536-0.127-4.61,1.452
	c-0.304,6.333-5.408,9.243-9.574,13.251C648.263,472.605,650.27,472.564,651.04,472.05"/>
<path id="XMLID_157_" fill="#EFB89E" d="M712.814,480.876c-0.295,0.458-0.478,0.964-0.353,1.436c0.24,0.922,1.598,1.499,2.435,1.662
	c0.9,0.177,1.825,0.11,2.739,0.044c2.04-0.149,3.97-0.378,5.974-0.751c1.629-0.304,3.539-0.679,5.104,0.077
	c2.678,1.295,0.199,4.483-0.682,6.209c-1.107,2.173-7.249,13.743-7.324,17.257c-0.069,3.329,3.211,3.208,4.434,0.29
	c0.837-1.999,5.475-12.249,6.758-12.691c0.516,0.969-3.683,13.017-4.37,15.51c-0.886,3.202,3.222,4.71,4.111,1.488
	c0.842-3.04,5.127-14.764,6.488-16.401c0.408,2.324-1.612,13.042-1.836,15.833c-0.27,3.332,3.512,3.291,3.967-0.011
	c0.392-2.824,2.396-13.726,2.634-14.441c0.403-1.226,1.242,0.453,1.32,0.944c0.312,1.977-0.03,9.003,0.201,10.366
	c0.102,0.602,0.215,1.607,0.71,2.046c0.618,0.547,1.159,0.116,1.844-0.163c0.541-0.221,2.689-22.723,3.31-25.313
	c1.002-4.16-1.607-7.164-4.693-9.649c-3.89-3.125-7.015-4.003-11.824-2.302C730.107,473.607,713.104,480.426,712.814,480.876"/>
<path id="XMLID_156_" fill="#EFB89E" d="M737.321,476.497c0,0,11.794-40.375,9.017-83.473c-0.569-8.831,24.656-19.344,24.385-9.063
	c-1.165,43.898-21.889,97.149-21.484,99.551C749.686,486.179,737.627,476.473,737.321,476.497"/>
<rect id="XMLID_155_" x="581.071" y="137.463" transform="matrix(0.1973 -0.9804 0.9804 0.1973 315.1227 740.4158)" fill="#44606A" width="57.215" height="80.644"/>
<rect id="XMLID_154_" x="584.517" y="140.447" transform="matrix(0.1972 -0.9804 0.9804 0.1972 315.9597 741.9904)" fill="#FFFFFF" width="53.074" height="75.233"/>
<rect id="XMLID_153_" x="619.29" y="180.617" transform="matrix(0.1972 -0.9804 0.9804 0.1972 329.6602 767.8192)" fill="#CFD1D3" width="28.765" height="3.995"/>
<rect id="XMLID_152_" x="609.832" y="179.406" transform="matrix(0.1972 -0.9804 0.9804 0.1972 322.8035 754.8752)" fill="#CFD1D3" width="24.999" height="1.853"/>
<rect id="XMLID_151_" x="601.154" y="178.386" transform="matrix(0.1973 -0.9803 0.9803 0.1973 319.6972 749.067)" fill="#CFD1D3" width="32.213" height="1.853"/>
<rect id="XMLID_150_" x="598.218" y="176.991" transform="matrix(0.1972 -0.9804 0.9804 0.1972 314.6043 739.3619)" fill="#CFD1D3" width="21.019" height="1.209"/>
<rect id="XMLID_149_" x="597.417" y="177.633" transform="matrix(0.1973 -0.9803 0.9803 0.1973 317.4315 744.7988)" fill="#CFD1D3" width="32.214" height="1.856"/>
<polygon id="XMLID_148_" fill="#DA1C4D" points="579.544,156.071 581.275,160.123 577.241,161.898 590.277,167.047 592.577,161.217 
	"/>
<polygon id="XMLID_147_" fill="#EB495C" points="576.617,170.62 579.781,167.552 576.75,164.353 590.758,164.648 590.628,170.915 
	"/>
<path id="XMLID_146_" fill="#D48743" d="M599.026,158.492c-4.549-0.917-8.983,2.032-9.9,6.584c-0.916,4.55,2.029,8.983,6.584,9.9
	c4.55,0.917,8.984-2.032,9.9-6.584C606.527,163.839,603.576,159.408,599.026,158.492"/>
<path id="XMLID_145_" fill="#EFB79D" d="M604.768,205.979c-0.557-6.17,6.535-4.779,6.399-6.808
	c-0.174-2.653-2.606-5.555-3.975-7.785c-0.005-0.011-0.003-0.019-0.008-0.03c-2.305-2.344,1.438-5.831,3.799-3.501
	c4.144,4.086,7.653,8.288,7.758,14.367c0.058,3.52-2.018,5.571-4.174,7.664c-3.363,3.266-7.669,4.881-12.305,4.533
	c-5.582-0.42-9.676-3.106-11.001-11.156C591.26,203.262,604.688,205.94,604.768,205.979"/>
<path id="XMLID_144_" fill="#EFB89E" d="M623.704,308.68c5.254-9.279,16.719-9.861,24.286-16.99
	c-10.877-8.657-30.641-69.252-33.427-81.802c-0.734-3.318-14.651,1.93-14.651,1.93S608.007,295.003,623.704,308.68"/>
<path id="XMLID_143_" fill="#FFFFFF" d="M735.548,335.279c-10.256-11.319-35.006-17.732-47.285-22.21
	c-2.623-0.955-11.783,11.189-12.939,12.818c-3.288,4.619-5.234,9.864-8.533,14.439c-3.777,5.234-7.131,10.778-10.033,16.548
	c-6.706,13.337-10.852,27.577-12.017,42.418c-0.828,10.557-2.046,21.097-2.402,31.729c-0.105,3.145-0.182,6.294-0.135,9.442
	c0.011,0.72-0.309,3.208,0.276,3.793c10.289,11.164,27.3,14.897,41.598,17.958c17.213,3.686,47.564,6.325,47.222,4.431
	c-4.367-24.062,1.772-52.752,7.136-76.309c1.223-5.372,2.863-10.667,3.531-16.136c0.734-6.018,0.276-12.114-0.185-18.16
	c-0.375-4.939-0.768-9.947-2.416-14.615C738.591,339.227,737.274,337.184,735.548,335.279"/>
<path id="XMLID_142_" fill="#CFD1D3" d="M642.48,444.252c3.274,3.55,7.227,6.344,11.556,8.611
	c5.414,1.756,12.824,0.635,12.824,0.635s1.422-46.993,3.291-61.415c3.528-27.193,5.618-54.273,18.591-78.827
	c-0.193-0.08-0.356-0.146-0.478-0.188c-0.047-0.044-0.11-0.069-0.174-0.069c-1.488-0.016-3.738,3.28-4.652,4.202
	c-2.446,2.471-30.07,39.462-30.972,42.355c-3.663,11.747-5.745,23.991-7.294,36.179c-1.408,11.059-2.319,22.193-2.761,33.335
	c-0.144,3.603-0.246,7.214-0.215,10.819C642.206,440.749,641.82,443.535,642.48,444.252"/>
<path id="XMLID_141_" fill="#CFD1D3" d="M705.567,461.518c8.641-0.9,16.269-1.607,24.573-4.232
	c-1.538,0.489,4.892-46.281,6.093-50.502c4.301-15.098,8.481-33.761,8.039-49.568c-0.094-3.324-0.787-7.062-3.556-8.901
	c-1.717-1.14-3.887-1.295-5.949-1.366c-4.881-0.166-9.936-0.017-14.386,2.001c-8.351,3.788-7.592,11.667-9.903,19.154
	c-4.003,12.984-9.715,26.031-9.246,39.58C701.777,423.354,698.351,445.387,705.567,461.518"/>
<path id="XMLID_140_" fill="#D51D4D" d="M660.957,401.329c0.086-31.693,9.836-61.729,27.309-88.26
	c-8.873-3.197-34.721-9.395-43.012-27.88c-6.965,6.333-18.994,14.499-26.428,20.253c11.623,25.647,38.719,38.319,39.6,39.616
	c-15.786,28.308-21.164,94.943-20.095,96.103c6.471,7.026,17.006,8.025,26.539,6.907
	C659.085,429.792,660.907,419.014,660.957,401.329"/>
<path id="XMLID_139_" fill="#D51D4D" d="M758.117,340.182c-0.594-0.61-1.212-1.19-1.858-1.737
	c-6.046-5.107-13.359-6.706-20.697-9.077c-3.109-1.005-9.055-2.711-9.055-2.711s-4.939,6.347-6.661,8.343
	c-4.02,4.66-7.537,9.751-10.402,15.198c-5.422,10.311-8.365,21.746-9.016,33.355c-0.668,11.866,3.732,69.117,5.806,69.352
	c10.993,1.248,32.676-3.777,32.101-4.45c-7.63-8.969,3.738-56.495,3.738-67.687c2.454,9.853,6.653,20.222,3.49,38.368
	c4.075,1.444,21.672,4.312,21.834,3.468c3.326-17.097,6.322-52.572,0.29-66.696C765.328,350.394,762.355,344.536,758.117,340.182"/>
<path id="XMLID_138_" fill="#E9977F" d="M726.849,305.035c0,0-23.634-8.837-23.725-8.87c1.449,0.544-5.162,16.984-5.549,17.533
	c-0.334,0.467-0.491,1.077-0.607,1.662c-1.184,5.952-0.083,12.114,4.003,14.541c2.819,1.676,6.245,3.567,9.646,3.321
	c3.553-0.254,6.7-2.623,9.422-4.71C722.924,326.304,727.725,305.364,726.849,305.035"/>
<path id="XMLID_137_" fill="#E0B164" d="M780.128,229.726c0.312-0.776,0.56-1.61,0.701-2.584
	c1.637-11.294-4.066-23.767-14.527-30.696c-5.828-3.862-12.708-6.016-19.499-7.984c-6.794-1.966-13.712-3.838-19.855-7.247
	c-4.497-2.496-9.665-8.859-15.107-8.774c-3.233,0.053-6.176,2.902-6.325,6.132c-1.228-2.866-3.97-5.486-6.728-6.891
	c-1.35-0.687-2.854-1.148-4.368-1.041c-2.672,0.191-4.914,2.104-6.565,4.216c-4.765,6.112-6.057,14.759-3.28,21.995
	c-1.113-1.173-2.272-2.383-3.774-2.987c-1.314-0.527-4.111-0.511-5.171,0.646c-0.572,0.621-0.806,1.48-0.964,2.311
	c-0.9,4.657,0.392,10.264,4.613,12.429c-2.512,2.733-2.38,7.247-0.293,10.32c2.09,3.073,5.731,4.812,9.403,5.381
	c-0.08,3.616,0.353,7.451-0.905,10.91l4.514-12.398c2.382-6.546,6.096-15.217,14.549-16.57c10.527,2.222,21.277,3.211,31.732,5.825
	c10.54,2.637,15.479,7.355,18.287,17.133c2.736,9.53,3.374,19.328,3.481,29.021c0.03,3.064-1.159,8.696,1.756,11.173
	c2.137,1.814,9.345,1.775,9.651-1.466c0.762-8.012,2.093-15.946,3.848-23.778c0.795-3.545,1.273-7.666,2.81-10.977
	C778.817,232.31,779.574,231.107,780.128,229.726"/>
<path id="XMLID_136_" fill="#EFB79D" d="M765.384,251.701c0.516-6.09,0.632-12.241-0.696-18.29
	c-0.917-4.171-3.109-14.786-7.7-16.964c-11.043-5.237-36.618-18.569-56.581-12.542c-6.231,1.88-9.773,7.849-11.289,13.423
	c-3.851,14.168-6.206,28.725-9.008,43.133c-2.871,14.764,3.095,29.99,13.823,40.21c5.256,5.008,11.921,9.221,19.01,11.062
	c8.787,2.28,17.663-1.714,25.63-5.248c8.365-3.713,16.835-10.135,20.661-18.582c4.549-10.032,4.652-21.586,5.778-32.344
	C765.149,254.277,765.276,252.991,765.384,251.701"/>
<path id="XMLID_135_" fill="#583634" d="M742.069,256.488c1.797,0.516,3.542,2.015,4.497,3.49c0.262,0.403-0.618,1.416-0.958,1.088
	c-3.004-2.921-7.929-3.633-11.705-1.687c-0.425,0.221-1.148-1.372-0.723-1.596C735.916,256.375,739.212,255.666,742.069,256.488"/>
<path id="XMLID_134_" fill="#583634" d="M700.394,245.639c1.83,0.398,3.669,1.775,4.721,3.18c0.284,0.386-0.522,1.455-0.883,1.151
	c-3.194-2.717-8.152-3.098-11.794-0.903c-0.409,0.248-1.237-1.295-0.828-1.543C694.245,245.934,697.487,245.01,700.394,245.639"/>
<path fill="#D0974C" d="M743.265,242.067c0.017-0.006,0.033-0.011,0.05-0.014c0.019,0.011,0.044,0.022,0.069,0.036
	C743.342,242.083,743.303,242.072,743.265,242.067 M755.276,246.321c-4.158-3.211-9.331-5.568-14.196-7.664
	c-2.424-1.044-4.804-1.662-7.269-2.529c0.11,0.039-1.519,3.437-1.433,3.956c0.199,1.281,1.557,1.676,2.747,2.032
	c5.662,1.703,11.669,2.465,16.923,5.287C753.051,247.941,756.646,247.378,755.276,246.321"/>
<path id="XMLID_131_" fill="#945122" d="M716.527,245.435c-0.113,9.428-6.253,19.844-10.819,27.966
	c-3.415,6.074,5.776,6.584,9.842,6.258c0.845-0.066,2.361-1.496,0.792-1.355c-4.798,1.391-7.677-0.309-8.646-5.099
	c0.768-1.319,1.469-2.675,2.104-4.064c1.378-2.816,2.606-5.717,3.901-8.572c2.305-5.082,4.481-9.712,4.017-15.421
	C717.678,244.67,716.533,245.051,716.527,245.435"/>
<path id="XMLID_130_" fill="#FFFFFF" d="M699.574,283.03c0,0-0.243,11.269,12.531,13.326c14.389,2.319,19.195-10.709,19.195-10.709
	s-8.923,1.046-16.542,0.53C707.066,285.655,699.574,283.03,699.574,283.03"/>
<path id="XMLID_129_" fill="#FECF8A" d="M777.873,199.002c0.823-3.175-0.265-6.786-2.424-9.524
	c-2.504-3.172-6.239-5.32-10.096-6.855c-7.197-2.863-17.166-4.812-24.753-2.623c-0.425-3.169-2.753-6.01-5.781-7.051
	c-6.402-2.195-11.708,3.178-11.007,9.541c0.287,2.634,2.032,5.008,4.345,6.303c2.313,1.298,5.132,1.563,7.719,0.986
	c-1.563,0.348,0.505,5.353,0.903,5.966c1.659,2.537,4.276,3.164,6.88,4.279c4.771,2.046,7.893,2.639,13.21,2.369
	c0.182,3.255,3.373,4.953,6.302,5.464c3.606,0.627,6.071,0.293,9.469-0.826l-2.013,12.801c-0.406,2.584-0.707,5.56,1.049,7.501
	c1.127,0.318,2.888,0.166,2.791-1.002c0.174,2.101-8.6,33.772-7.636,33.948c2.678,0.472,4.301-1.505,7.252-0.826
	c2.076,0.475,5.491-12.578,7.045-13.671c1.104-0.776,2.432-1.176,3.558-1.922c1.124-0.745,2.079-2.043,1.778-3.36
	c-0.317-1.4-1.836-2.123-3.172-2.648c1.215,0.715,2.797,0.599,4.053-0.041c1.256-0.64,2.22-1.736,2.987-2.921
	c1.03-1.593,1.75-3.578,1.148-5.375c-0.607-1.795-3.034-2.965-4.514-1.781c2.316-1.126,4.599-2.562,5.96-4.746
	c2.774-4.442-1.317-11.04-4.067-14.657c-0.696-0.922-10.634-9.718-11.523-7.868C777.569,199.991,777.743,199.502,777.873,199.002"/>
<path id="XMLID_128_" fill="#EFB79D" d="M779.532,260.033c-0.486-1.563-1.982-3.191-4.108-3.904c-2.09-0.699-4.31-0.395-6.112,0.179
	c-2.319,0.734-4.284,1.886-5.706,3.343l-5.588,16.186c2.14,1.386,4.624,2.877,7.216,2.893c2.703,0.017,4.379-1.577,5.734-3.045
	c3.216-3.487,6.471-7.026,8.122-11.181C779.648,263.106,780.018,261.596,779.532,260.033"/>
<path fill="#D0974C" d="M705.418,233.326c0.025,0,0.05,0,0.074-0.003c0.011,0.011,0.022,0.022,0.036,0.033
	C705.49,233.346,705.454,233.337,705.418,233.326 M695.72,234.35c5.861-0.152,11.214,1.667,16.813,2.592
	c1.932,0.32,3.357,0.392,3.473-1.728c0.025-0.45,0.05-3.247-0.243-3.332c-2.228-0.646-4.649-0.552-6.929-0.654
	c-5.071-0.223-10.521-0.345-15.443,0.743C691.764,232.329,694.624,234.381,695.72,234.35"/>
<path id="XMLID_125_" fill="#E9977F" d="M774.946,260.044c-2.603-2.129-6.201,0.061-8.042,2.2c-1.151,1.339-1.877,2.888-2.026,4.646
	c-0.113,1.267,0.019,1.957-0.71,3.078c-0.544,0.823-0.955,1.543-1.066,2.534c-0.047,0.398,0.201,0.607,0.544,0.737
	c2.402,0.914,5.433-0.207,7.023-2.139c1.576-1.919,1.226-4.942-1.104-5.98c-0.798-0.356-4.638,0.817-3.832,2.059
	c0.381,0.582,0.839,1.085,1.115,1.725c0.262,0.61-0.18,1.554,0.32,1.745c0.18,0.246,0.362,0.491,0.547,0.734
	c0.196-1.745,1.64-2.832,1.698-4.696c0.061-1.839,0.588-6.187,3.504-5.367C773.4,261.461,775.739,260.693,774.946,260.044"/>
<path id="XMLID_124_" fill="#70A341" d="M495.869,416.706c-0.033-0.414-0.066-0.825-0.099-1.237
	c-1.389-17.608,0.387-34.746-2.948-52.18c-1.303-6.833-4.086-17.655-10.651-21.332c-0.616-0.345-1.427-0.218-2.081,0.094
	c-0.102-0.008-0.179-0.028-0.317-0.019c-2.25,0.111-4.514,0.456-6.681,1.082c-18.632,5.394-20.156,28.465-20.437,44.541
	c-0.497,28.063-0.544,110.036,3.523,122.164c16.07,2.94,42.529-4.87,46.667-4.713C500.518,475.639,498.194,446.174,495.869,416.706"
	/>
<path id="XMLID_123_" fill="#98C13D" d="M499.022,416.458c-8.514-2.062-12.912-7.603-15.062-14.436
	c-1.877-5.958-2.043-12.898-1.747-19.366c1.22,2.349,2.719,5.441,2.992,5.938c2.01,3.68,4.022,7.363,6.14,10.982
	c0.798,1.361,3.997,0.196,4.552-0.952c1.339-2.761,1.803-5.516,0.041-8.227c-0.751-9.08-1.402-18.143-3.117-27.107
	c-1.883-9.839-5.982-20.134-14.472-26.116c-3.089,1.342-5.759,3.473-8.387,5.577c-1.231,0.986-2.46,1.971-3.691,2.954
	c-21.575,17.277-12.398,55.99-6.949,78.835c2.918,12.227,6.698,27.596,22.017,25.012c12.848-2.17,17.02-21.992,18.356-32.115
	C499.757,416.977,499.483,416.568,499.022,416.458"/>
<path id="XMLID_122_" fill="#70A341" d="M482.505,401.456c-0.572,0.486-1.11,1.005-1.654,1.524
	c-0.456,0.036-0.922,0.157-1.176,0.232c-4.569,1.361-8.553,3.827-11.631,7.47c-1.063,1.259,1.634,0.718,2.181,0.235
	c2.292-2.029,4.892-3.652,7.694-4.84c-3.964,4.721-6.772,10.391-7.606,16.586c-0.229,1.714,4.116,0.442,4.464-0.922
	c1.897-7.468,4.909-14.168,10.002-20.043C485.909,400.399,483.068,400.973,482.505,401.456"/>
<path id="XMLID_121_" fill="#1E9080" d="M540.433,364.584l-3.053-4.116c0.477,2.355,0.853,4.74,1.215,7.109
	C539.21,366.58,539.82,365.583,540.433,364.584"/>
<path id="XMLID_120_" fill="#70A341" d="M561.033,359.554c-1.157-4.834-7.015-5.436-11.128-2.603
	c-3.473,2.393-8.608,5.808-10.424,9.635c-3.183-11.029-5.077-22.006-14.855-29.639c-2.22-1.734-4.685-3.117-7.137-4.494
	c1.833,6.325,3.459,12.901,4.271,19.449c0.853,6.863,1.303,13.768,1.582,20.678c0.533,13.276,0.381,26.574,1.027,39.848
	c1.303,26.817,4.003,58.762,6.316,85.505c0.094,1.074,20.321,2.606,20.203,1.102c-1.126-14.348-0.892-37.496-0.839-51.866
	c3.512-1.129,5.902-4.561,6.772-8.892C561.32,415.82,566.936,384.232,561.033,359.554"/>
<rect id="XMLID_119_" x="502.442" y="342.477" transform="matrix(0.1189 -0.9929 0.9929 0.1189 109.7563 865.856)" fill="#44606A" width="80.645" height="57.213"/>
<rect id="XMLID_118_" x="505.313" y="343.154" transform="matrix(0.1189 -0.9929 0.9929 0.1189 111.3038 864.8109)" fill="#FFFFFF" width="75.233" height="53.076"/>
<rect id="XMLID_117_" x="543.676" y="332.398" transform="matrix(0.1189 -0.9929 0.9929 0.1189 136.4645 847.3441)" fill="#CFD1D3" width="3.995" height="28.764"/>
<rect id="XMLID_116_" x="543.371" y="345.767" transform="matrix(0.1189 -0.9929 0.9929 0.1189 123.8385 856.0926)" fill="#CFD1D3" width="1.854" height="25"/>
<rect id="XMLID_115_" x="542.755" y="347.299" transform="matrix(0.1189 -0.9929 0.9929 0.1189 118.1857 860.0023)" fill="#CFD1D3" width="1.854" height="32.214"/>
<polygon id="XMLID_114_" fill="#CFD1D3" points="532.142,371.397 553.01,373.898 553.151,372.695 532.283,370.197 "/>
<rect id="XMLID_113_" x="542.303" y="351.081" transform="matrix(0.1189 -0.9929 0.9929 0.1189 114.0751 862.9216)" fill="#CFD1D3" width="1.853" height="32.214"/>
<polygon id="XMLID_112_" fill="#DA1C4D" points="523.504,402.845 527.408,400.799 529.497,404.678 533.594,391.277 527.601,389.444 
	"/>
<polygon id="XMLID_111_" fill="#EB495C" points="538.238,404.609 534.931,401.699 531.979,404.973 531.162,390.985 537.421,390.62 
	"/>
<path id="XMLID_110_" fill="#D48743" d="M524.374,383.233c-0.552,4.61,2.736,8.796,7.346,9.348c4.611,0.552,8.798-2.739,9.348-7.349
	c0.552-4.61-2.736-8.793-7.346-9.345C529.111,375.334,524.926,378.622,524.374,383.233"/>
<path id="XMLID_109_" fill="#EFB89E" d="M537.432,366.69c-0.077-0.088-0.182-0.171-0.326-0.24c-0.425-0.21-0.953-0.204-1.416-0.177
	c-0.994,0.064-2.286,0.367-3.238,0.646c-3.382,0.986-17.986,1.096-18.063,1.06l0.632-5.842c0,0-2.396,0.814-2.722,0.947
	c-16.349,6.587-21.923,28.14-29.901,41.841c-0.21,0.359,3.332,5.734,7.307,8.525c4.591,3.227,9.732,3.876,9.856,3.379
	c1.422-5.704,2.579-12.227,3.766-17.983c0.886-4.279,0.883-11.531,3.766-15.512c2.275-0.726,7.241,0.45,9.005,0.442
	c3.641-0.019,7.128-0.373,10.656-1.27c0.602-0.155,1.295-0.375,1.557-0.988c0.119-0.276,0.246-0.941,0.075-1.231
	c-0.108-0.174-0.853-0.464-1.132-0.381c1.256-0.37,2.62-0.273,3.857-0.704c0.809-0.282,2.109-1.51,0.96-2.278
	c-0.221-0.146-0.499-0.155-0.762-0.16c-2.523-0.042-5.038-0.061-7.539-0.265c-0.116-0.008-0.238-0.019-0.342-0.074
	c-0.102-0.058-0.182-0.174-0.157-0.29c0.02-0.088,0.091-0.155,0.166-0.204c0.591-0.398,1.739-0.155,2.416-0.168
	c0.928-0.019,1.855-0.061,2.78-0.116c1.85-0.113,3.699-0.29,5.546-0.491c0.439-0.047,1.549-0.312,1.587-0.914
	c0.138-1.999-1.731-2.151-3.316-2.015c-1.607,0.144-3.321,0.064-4.936,0.061c-1.585-0.003-2.973-0.119-4.533-0.307
	c-0.099-0.011-0.204-0.025-0.279-0.088c-0.146-0.124-0.099-0.375,0.042-0.505c0.138-0.127,0.337-0.168,0.522-0.202
	c2.214-0.409,4.481-0.45,6.719-0.784c1.273-0.19,2.537-0.433,3.785-0.74c1.182-0.287,2.487-0.519,3.468-1.281
	c0.069-0.052,0.138-0.11,0.179-0.188c0.038-0.066,0.052-0.144,0.066-0.221C537.562,367.524,537.76,367.071,537.432,366.69"/>
<path id="XMLID_108_" fill="#EFB89E" d="M574.414,370.056c0.563-0.795,0.969-1.949,0.329-2.689c-0.149-0.174-0.35-0.312-0.431-0.527
	c-0.077-0.202-0.03-0.428,0.005-0.641c0.229-1.392-0.814-3.225-1.634-4.37c-0.008-0.022-0.331,3.763-0.331,3.763
	c-2.396-1.182-4.792-2.363-7.189-3.545c-1.057-0.522-2.117-1.046-3.177-1.568c-1.107-0.547-2.236-0.908-3.36-1.419
	c-0.848-0.386-1.789-0.787-2.727-0.544c-0.191,0.047-0.384,0.119-0.53,0.249c-0.627,0.541,0.216,1.411,0.649,1.759
	c1.64,1.311,3.473,2.222,5.265,3.285c1.946,1.151,4.033,2.043,5.93,3.255c0.16,0.102,0.328,0.213,0.409,0.386
	c0.08,0.171,0.028,0.42-0.154,0.48c-0.094,0.03-0.193,0.003-0.29-0.022c-1.516-0.414-2.843-0.831-4.318-1.424
	c-1.496-0.605-3.114-1.176-4.547-1.916c-1.419-0.721-3.205-1.284-3.835,0.621c-0.188,0.572,0.74,1.234,1.132,1.444
	c1.632,0.881,3.277,1.742,4.95,2.543c0.839,0.4,1.681,0.79,2.532,1.154c0.624,0.271,1.778,0.475,2.178,1.066
	c0.047,0.074,0.091,0.163,0.075,0.251c-0.022,0.116-0.138,0.196-0.257,0.21c-0.116,0.014-0.232-0.022-0.345-0.058
	c-2.393-0.754-4.732-1.681-7.081-2.595c-0.246-0.094-0.508-0.191-0.768-0.138c-1.352,0.279-0.613,1.908,0.033,2.474
	c0.983,0.864,2.283,1.286,3.305,2.101c-0.226-0.18-1.024-0.193-1.187-0.072c-0.271,0.202-0.406,0.867-0.397,1.171
	c0.014,0.665,0.571,1.129,1.071,1.499c2.501,1.844,5.207,3.476,8.138,4.434l-0.055,0.196c0.431,0.19,0.867,0.375,1.306,0.558
	c0.063,0.025,0.171-0.105,0.301-0.304c0.124,0.03,0.243,0.083,0.372,0.11c0.668,0.138,1.466,0.102,1.891-0.428
	c0.596-0.734,0.124-1.966,0.732-2.689c0.163-0.193,0.389-0.328,0.544-0.527c0.527-0.688-0.014-1.701,0.207-2.537
	c0.201-0.765,1.013-1.286,1.099-2.073c0.08-0.704-0.461-1.388-0.304-2.079C574.017,370.583,574.227,370.321,574.414,370.056"/>
<path id="XMLID_107_" fill="#EFB89E" d="M840.08,669.639c0,0,17.343,5.613,17.05,0.826c-0.204-3.324-3.387-50.703-3.956-99.258
	c-0.618-53.014,1.38-99.664,1.38-99.664l-30.161-14.872l4.712,115.295L840.08,669.639z"/>
<path id="XMLID_106_" fill="#D48743" d="M859.907,663.508c-0.616-0.8-1.342-0.983-2.201-0.152c-2.852,2.758-6.515,3.628-9.229,0.196
	c-0.425-0.538-0.98-1.068-1.667-1.107c-0.734-0.042-1.369,0.477-2.076,0.671c0.152-0.042,1.229-1.549,1.361-1.772
	c0.414-0.715,0.453-1.587,0.1-2.352c-0.572-1.24-2.024-2.493-3.153-3.178c-1.438-0.872-3.004-1.527-4.635-1.938
	c-1.333-0.34-2.819-0.497-4.031,0.154c-1.237,0.663-1.922,2.002-2.6,3.23c-3.738,6.753-8.887,11.051-16.33,13.149
	c-1.474,0.414-2.998,0.732-4.32,1.505c-1.753,1.024-2.995,2.78-3.716,4.679c-0.87,2.294-1.745,5.914-0.571,8.238
	c1.687,3.332,9.789,1.549,12.779,1.485c6.167-0.138,12.329-0.298,18.491-0.489c3.037-0.041,6.107-0.607,9.094-1.082
	c4.276-0.682,9.737,0.182,13.591-2.065c1.574-0.917,1.913-3.012,1.957-4.828C862.789,676.477,862.036,666.279,859.907,663.508"/>
<rect id="XMLID_105_" x="805.712" y="682.151" transform="matrix(0.9999 -0.0135 0.0135 0.9999 -9.1531 11.2969)" fill="#FFFFFF" width="57.626" height="6.719"/>
<path id="XMLID_104_" fill="#FFFFFF" d="M822.406,677.745c-0.348,0.003-0.671-0.221-0.776-0.574
	c-0.762-2.614-2.659-4.917-5.074-6.167c-0.26-0.135-0.536-0.229-0.768-0.237c-0.439,0.064-0.842-0.229-0.911-0.663
	c-0.066-0.436,0.229-0.842,0.665-0.911c0.657-0.122,1.251,0.141,1.745,0.395c2.797,1.446,4.994,4.113,5.875,7.139
	c0.121,0.417-0.119,0.864-0.544,0.986C822.549,677.734,822.475,677.745,822.406,677.745"/>
<path id="XMLID_103_" fill="#FFFFFF" d="M828.783,674.799c-0.246,0.003-0.489-0.105-0.649-0.317
	c-0.417-0.552-0.762-1.132-1.099-1.703c-0.538-0.911-1.049-1.775-1.866-2.474c-1.27-1.085-2.811-1.676-4.453-1.709
	c-0.439-0.011-0.789-0.373-0.781-0.817c0.011-0.439,0.406-0.8,0.817-0.779c1.985,0.039,3.923,0.784,5.453,2.093
	c1.021,0.87,1.623,1.888,2.206,2.877c0.309,0.519,0.615,1.046,1.002,1.552c0.26,0.353,0.19,0.853-0.16,1.118
	C829.111,674.744,828.949,674.796,828.783,674.799"/>
<path id="XMLID_102_" fill="#FFFFFF" d="M835.56,671.348c-0.276,0.003-0.549-0.138-0.698-0.395c-0.991-1.698-2.07-2.968-3.285-3.876
	c-1.416-1.052-2.943-1.618-4.542-1.516c-0.182,0.008-0.37,0.028-0.557,0.044c-0.34,0.033-0.671,0.058-1.021,0.058
	c-0.442-0.005-0.793-0.37-0.784-0.812c0.005-0.439,0.373-0.789,0.812-0.784c0.262,0.014,0.563-0.025,0.845-0.05
	c0.21-0.019,0.419-0.039,0.629-0.052c1.816-0.08,3.859,0.56,5.571,1.833c1.391,1.041,2.609,2.46,3.711,4.351
	c0.221,0.378,0.094,0.867-0.284,1.091C835.831,671.31,835.696,671.348,835.56,671.348"/>
<path id="XMLID_101_" fill="#FFFFFF" d="M841.397,667.549c-0.237,0.003-0.472-0.099-0.632-0.298
	c-0.251-0.312-0.491-0.621-0.732-0.927c-1.223-1.568-2.275-2.926-4.144-3.73c-2.12-0.917-4.492-1-6.546-0.933h-0.011
	c-0.436,0.005-0.795-0.342-0.809-0.779c-0.011-0.439,0.34-0.806,0.779-0.817c2.057-0.08,4.795,0.017,7.216,1.063
	c2.247,0.969,3.473,2.545,4.773,4.216c0.232,0.298,0.467,0.602,0.715,0.908c0.276,0.343,0.221,0.845-0.121,1.121
	C841.742,667.489,841.568,667.547,841.397,667.549"/>
<path id="XMLID_100_" fill="#EFB89E" d="M861.845,674.813c0,0,17.346,5.613,17.053,0.823c-0.201-3.304-0.881-51.608,1.179-101.351
	c2.275-54.825,7.311-103.64,7.311-103.64l-30.431,3.393l-0.124,97.158L861.845,674.813z"/>
<path id="XMLID_99_" fill="#D48743" d="M881.678,668.681c-0.615-0.801-1.344-0.98-2.203-0.152c-2.852,2.758-6.512,3.627-9.229,0.196
	c-0.425-0.538-0.98-1.066-1.667-1.107c-0.732-0.041-1.367,0.478-2.076,0.671c0.152-0.041,1.231-1.549,1.361-1.772
	c0.414-0.715,0.453-1.588,0.1-2.352c-0.569-1.24-2.024-2.493-3.153-3.178c-1.438-0.872-3.004-1.527-4.633-1.941
	c-1.333-0.337-2.819-0.494-4.033,0.157c-1.237,0.663-1.919,2.002-2.598,3.23c-3.741,6.753-8.887,11.051-16.332,13.149
	c-1.474,0.414-2.998,0.732-4.318,1.505c-1.756,1.024-2.995,2.78-3.719,4.679c-0.87,2.294-1.745,5.913-0.571,8.238
	c1.687,3.329,9.792,1.551,12.782,1.485c6.164-0.135,12.329-0.298,18.491-0.489c3.034-0.042,6.104-0.607,9.094-1.082
	c4.276-0.682,9.737,0.182,13.591-2.065c1.571-0.917,1.911-3.012,1.957-4.828C884.557,681.651,883.804,671.453,881.678,668.681"/>
<rect id="XMLID_98_" x="827.481" y="687.323" transform="matrix(0.9999 -0.0135 0.0135 0.9999 -9.2207 11.5905)" fill="#FFFFFF" width="57.627" height="6.72"/>
<path id="XMLID_97_" fill="#FFFFFF" d="M844.177,682.916c-0.351,0.008-0.674-0.218-0.779-0.574
	c-0.762-2.609-2.659-4.917-5.074-6.162c-0.257-0.138-0.535-0.232-0.765-0.243c-0.442,0.063-0.842-0.224-0.914-0.663
	c-0.066-0.433,0.229-0.842,0.668-0.908c0.654-0.122,1.251,0.138,1.745,0.395c2.797,1.447,4.991,4.114,5.872,7.139
	c0.121,0.42-0.118,0.864-0.544,0.989C844.32,682.907,844.243,682.916,844.177,682.916"/>
<path id="XMLID_96_" fill="#FFFFFF" d="M850.548,679.973c-0.245,0.003-0.489-0.105-0.649-0.318
	c-0.417-0.552-0.759-1.132-1.099-1.703c-0.538-0.911-1.049-1.775-1.866-2.474c-1.27-1.085-2.81-1.676-4.453-1.712
	c-0.439-0.008-0.79-0.37-0.779-0.814c0.008-0.439,0.403-0.801,0.815-0.779c1.985,0.042,3.926,0.784,5.455,2.093
	c1.018,0.87,1.62,1.888,2.203,2.877c0.309,0.519,0.618,1.046,1.002,1.554c0.262,0.351,0.191,0.85-0.16,1.115
	C850.877,679.917,850.717,679.97,850.548,679.973"/>
<path id="XMLID_95_" fill="#FFFFFF" d="M857.329,676.524c-0.279,0.003-0.549-0.141-0.701-0.395
	c-0.991-1.698-2.068-2.968-3.285-3.876c-1.413-1.055-2.943-1.621-4.539-1.516c-0.185,0.008-0.373,0.025-0.557,0.044
	c-0.342,0.033-0.674,0.058-1.024,0.058c-0.439-0.008-0.79-0.37-0.784-0.815c0.008-0.436,0.376-0.789,0.812-0.781
	c0.265,0.014,0.566-0.025,0.848-0.05c0.207-0.022,0.417-0.039,0.63-0.052c1.814-0.08,3.857,0.56,5.568,1.833
	c1.391,1.041,2.609,2.46,3.713,4.348c0.218,0.381,0.091,0.87-0.287,1.093C857.596,676.486,857.464,676.522,857.329,676.524"/>
<path id="XMLID_94_" fill="#FFFFFF" d="M863.165,672.723c-0.237,0.003-0.472-0.099-0.632-0.298
	c-0.251-0.312-0.491-0.621-0.729-0.928c-1.226-1.568-2.277-2.926-4.146-3.73c-2.12-0.914-4.492-0.999-6.546-0.933
	c-0.003,0-0.006,0-0.008,0c-0.436,0.006-0.798-0.343-0.809-0.778c-0.014-0.439,0.337-0.806,0.776-0.817
	c2.06-0.08,4.795,0.017,7.219,1.063c2.244,0.969,3.47,2.545,4.77,4.216c0.232,0.298,0.467,0.602,0.715,0.908
	c0.276,0.342,0.224,0.845-0.119,1.121C863.51,672.662,863.336,672.72,863.165,672.723"/>
<path id="XMLID_93_" fill="#EFB89E" d="M816.746,496.924c-0.03,0.693-0.072,1.386-0.119,2.071c-0.053,0.756-0.21,3.619-1.574,2.703
	c-0.632-0.422-0.952-1.54-1.107-2.231c-0.235-1.057-0.268-2.164-0.657-3.175c-0.497-1.278-2.255-2.89-3.219-1.278
	c-3.02,5.057-2.567,11.984-0.754,17.348c0.193,0.566,0.4,1.157,0.32,1.75c-0.08,0.594-0.563,1.182-1.162,1.154
	c-0.638-0.03-1.038-0.682-1.298-1.264c-0.765-1.736-1.079-3.586-1.576-5.403c-0.596-2.173-1.129-4.434-1.455-6.653
	c-1.284,2.048-0.928,4.696-0.342,7.04c0.257,1.044,0.558,2.079,0.889,3.103c0.237,0.734,0.8,1.811,0.665,2.568
	c-0.304,1.723-2.366,1.14-3.031-0.492c-0.881-2.167-1.61-4.373-1.759-6.695c-0.033-0.514,0.099-3.161-0.177-3.901
	c-0.707,2.78,0.063,5.687,0.602,8.5c0.028,0.141,0.052,0.287,0.003,0.42c-0.135,0.356-0.66,0.318-0.999,0.144
	c-1.546-0.795-1.361-2.49-2.175-3.79c0.323,0.516-0.478,1.137-1.041,0.908c-0.566-0.232-0.825-0.872-1.013-1.452
	c-2.267-7.062-2.349-15.154-0.359-22.282c1.082-3.873,2.471-7.851,2.984-11.857c0.925-7.222,0.091-25.733-0.339-27.916
	c1.35-1.259,5.011-0.434,6.794,0.041c1.786,0.475,5.406,0.69,7.247,0.544c-0.616,6.949-2.288,14.974-2.904,21.92
	c-0.329,3.73-1.629,7.771-0.19,11.41c1.449,3.666,5.24,5.516,6.786,9.226C816.771,491.748,816.86,494.343,816.746,496.924"/>
<path id="XMLID_92_" fill="#831B3E" d="M881.427,412.929c-0.13-0.536-1.074-0.707-1.474-0.674
	c-13.718,1.118-27.999,1.154-41.507,3.873c-4.05,0.814-12.611-6.753-12.873,0.422c-0.006,0.13-13.641,34.561-16.893,41.761
	c-6.101,13.516-12.379,30.329-12.904,45.09c5.555-1.267,11.399,0.414,16.484,2.838c6.162,2.937,14,3.459,20.774,4.826
	c3.42,0.688,6.844,1.378,10.314,1.806c14.974,1.861,30.594,0.025,44.425-6.046c4.078-1.792,8.045-3.961,12.31-5.292
	c3.465-1.079,7.169-0.558,10.601-1.383c1.358-0.329,7.423-4.229,8.34-3.722c-7.921-9.041-8.304-18.833-13.657-29.799
	C896.299,448.048,883.881,423.047,881.427,412.929"/>
<path id="XMLID_91_" fill="#631131" d="M901.481,487.847c-9.847-7.261-15.198-18.693-15.595-31.133
	c-0.042-1.262-0.378,25.382,10.168,32.753C897.458,490.447,903.617,489.423,901.481,487.847"/>
<path id="XMLID_90_" fill="#631131" d="M877.772,496.681c-10.819-13.856-11.493-29.211-11.294-46.708
	c0.022-1.822-7.62,32.927,1.046,49.052C870.599,504.75,882.86,503.199,877.772,496.681"/>
<path id="XMLID_89_" fill="#04313B" d="M909.837,264.202c-1.046-7.887-2.634-15.706-4.674-23.344
	c-7.402-27.698-21.735-48.246-52.514-49.933c-15.764-0.867-28.711,3.942-39.53,14.135c-9.9,9.328-13.834,21.58-14.472,33.852
	c-0.743,14.173,3.851,27.858,3.142,41.852c-0.925,18.188,1.574,36.022,8.95,52.788c2.772,6.289,6.507,12.688,12.683,15.7
	c3.97,1.935,8.511,2.247,12.923,2.38c3.989,0.121,7.984,0.124,11.973,0.008c1.896-0.055,3.895,0.014,5.778-0.251
	c1.264-0.177,2.474-0.745,3.721-0.177c0.801,0.364,1.527,0.928,2.388,1.104c0.497,0.105,1.01,0.075,1.516,0.072
	c2.093-0.011,4.149,0.475,6.203,0.861c10.441,1.971,21.343,1.452,31.547-1.505c-1.079-4.864-0.602-10.049,1.292-14.654
	c2.28-5.538,4.641-10.805,6.201-16.691c1.615-6.09,2.75-12.305,3.454-18.566C911.817,289.33,911.496,276.661,909.837,264.202"/>
<path id="XMLID_88_" fill="#0A505A" d="M806.692,270.814c-4.141,18.643,2.004,37.488,10.052,54.245
	c0.693,1.436,4.994-0.232,4.453-1.709c-6.664-18.201-11.766-33.465-11.945-53.157C809.24,269.133,806.863,270.052,806.692,270.814"
	/>
<path id="XMLID_87_" fill="#EFB89E" d="M860.064,336.75c2.775-2.393,5.116-5.375,7.288-8.356c2.302-3.161,4.616-6.968,3.586-10.742
	c-4.395,0.638-12.862,0.376-12.699-6.129c0.036-1.51,0.541-21.716,0.955-21.663c-8.175-1.044-24.802,0.552-24.742,1.024
	c0.693,5.48,1.486,12.495,0.574,17.953c-1.137,6.813-9.728,11.277-16.18,12.628c0.541,4.511,1.742,9.013,4.158,12.859
	c2.418,3.846,6.148,6.99,10.557,8.072c2.932,0.72,5.999,0.519,9.008,0.276c4.249-0.342,8.591-0.787,12.456-2.595
	C856.868,339.213,858.53,338.07,860.064,336.75"/>
<path id="XMLID_86_" fill="#EA9880" d="M858.582,305.185c0.16-3.97,0.337-7.194,0.5-7.175c-8.086-1.041-24.532,0.555-24.474,1.027
	c0.334,2.653,0.472,7.305,0.53,11.504C841.725,317.765,851.421,310.866,858.582,305.185"/>
<path id="XMLID_85_" fill="#EFB89E" d="M796.549,247.95c0.232-0.809,0.668-1.593,1.377-2.095c1.099-0.779,2.642-0.737,3.962-0.351
	c2.532,0.74,4.649,2.675,5.527,5.047l2.957,15.858c-0.312,1.965-2.357,3.531-4.45,3.407c-1.75-0.102-3.293-1.237-4.265-2.626
	c-0.972-1.389-1.469-3.02-1.949-4.621c-0.836-2.766-1.67-5.533-2.504-8.301C796.582,252.204,795.956,250.015,796.549,247.95"/>
<path id="XMLID_84_" fill="#EFB89E" d="M895.639,247.282c-0.249-0.85-0.71-1.67-1.452-2.192c-1.16-0.814-2.777-0.765-4.158-0.351
	c-2.658,0.79-4.875,2.83-5.786,5.328l-3.048,16.661c0.337,2.062,2.487,3.694,4.685,3.556c1.836-0.119,3.451-1.317,4.467-2.78
	c1.013-1.463,1.532-3.175,2.029-4.859c0.867-2.91,1.731-5.82,2.598-8.729C895.62,251.748,896.268,249.446,895.639,247.282"/>
<path id="XMLID_83_" fill="#EFB89E" d="M808.442,246.495c1.104-8.542,2.954-16.401,5.897-24.474c0.889-2.446,1.819-4.958,3.575-6.88
	c1.322-1.449,3.045-2.476,4.795-3.368c9.825-5.003,20.752-5.306,31.522-4.845c4.594,0.199,9.541,2.007,13.867,3.534
	c2.523,0.892,5.099,1.816,7.208,3.465c2.714,2.118,4.439,5.265,5.648,8.489c1.568,4.188,2.372,8.658,2.388,13.127
	c0.008,2.33-0.29,4.585-0.605,6.885c-0.301,2.186,0.182,4.108,0.323,6.339c0.511,8.012,1.406,19.963-2.17,27.508
	c-3.213,6.789-8.097,11.866-13.629,17.136c-6.51,6.198-15.043,10.405-24.871,9.447c-10.375-1.01-17.795-6.372-23.745-13.541
	c-3.92-4.726-8.155-10.99-10.193-16.735c-2.209-6.236-1.298-13.105-0.643-19.521C808.031,250.868,808.216,248.676,808.442,246.495"
	/>
<path id="XMLID_82_" fill="#583634" d="M855.021,257.134c5.455-2.827,14.06-2.882,18.246,1.397c0.351,0.356,0.906,1.264,0.906,1.264
	s-0.304-0.179-1.764-0.017c-1.585,0.177-2.239,0.707-2.413,0.4c-1.654-2.893-7.299-3.782-10.126-3.456
	c-1.187,0.138-3.086,0.638-4.608,1.074C853.93,258.178,854.242,257.538,855.021,257.134"/>
<path id="XMLID_81_" fill="#955023" d="M842.672,252.033c-0.069,2.752-0.34,5.372-1.096,8.025c-0.812,2.846-2.929,4.864-4.122,7.501
	c-1.629,3.611,2.686,4.787,5.218,5.116c0.326,0.044,1.206-0.541,0.599-0.621c-3.203-0.417-6.247-1.59-4.423-5.668
	c0.627-1.4,1.786-2.623,2.559-3.951c1.844-3.155,1.924-7.018,1.883-10.551C843.288,251.641,842.678,251.831,842.672,252.033"/>
<path id="XMLID_80_" fill="#04313B" d="M852.906,241.89c4.017,0.033,8.061,0.102,12.065,0.439c3.873,0.329,6.617,1.742,9.718,3.744
	c0.731,0.475,2.023-0.301,1.4-1.027c-1.148-1.333-2.529-2.678-7.112-4.55c-1.957-0.801-10.731-2.261-15.076-1.916
	C853.204,238.632,851.457,241.879,852.906,241.89"/>
<path id="XMLID_79_" fill="#583634" d="M834.095,255.583c-4.864-3.224-13.058-3.92-17.561,0.039
	c-0.375,0.331-1.016,1.196-1.016,1.196s0.312-0.157,1.687,0.116c1.488,0.293,2.048,0.87,2.25,0.577
	c1.924-2.766,7.41-3.233,10.068-2.697c1.113,0.226,2.868,0.864,4.263,1.411C835.006,256.704,834.788,256.044,834.095,255.583"/>
<path id="XMLID_78_" fill="#FFFFFF" d="M861.003,281.023c0,0-9.475,12.371-21.619,9.56c-5.665-0.693-12.766-11.313-12.766-11.313
	s6.825,3.371,15.675,3.923C854.571,283.957,861.003,281.023,861.003,281.023"/>
<path id="XMLID_77_" fill="#EA9880" d="M801.584,250.412c1.659,1.839,2.984,3.47,1.786,6.027c-1.033,2.211,1.168,3.727,0.803,6.06
	c0.301-0.257,0.599-0.516,0.9-0.773c-0.237,0.091-0.776-3.001-0.779-3.015c-0.052-0.72,0.169-1.427,0.376-2.104
	c0.21-0.685-1.922-0.171-2.151,0.522c-0.734,2.195-0.373,6.871,2.94,5.612c0.323-0.121,0.837-0.384,0.897-0.773
	c0.218-1.375,0-2.38-0.729-3.575c-0.842-1.38,0.16-2.681,0.367-4.08c0.315-2.126-1.27-4.171-3.252-4.63
	C802.454,249.614,801.176,249.957,801.584,250.412"/>
<path id="XMLID_76_" fill="#EA9880" d="M892.561,249.954c-1.83-0.141-3.318,0.472-4.638,1.731c-1.725,1.648-1.413,4.45-3.219,6.065
	c-0.135,0.119-0.235,0.345-0.072,0.486c1.598,1.375-0.083,2.206,0.185,3.641c0.171,0.906,1.936,0.549,2.424,0.362
	c1.706-0.657,2.68-4.249,0.428-4.724c-0.566-0.119-2.217,0.878-1.43,1.052c0.914,0.202,0.869,1.091,0.814,1.781
	c-0.127,0.113-0.256,0.226-0.384,0.34c0.196-0.224,0.351-0.475,0.456-0.756c0.317-0.64,0.102-1.811-0.475-2.244
	c-0.119-0.088,1.002-2.101,1.138-2.457c0.839-2.214,1.17-4.464,4.199-4.53C892.312,250.691,893.273,250.009,892.561,249.954"/>
<path id="XMLID_75_" fill="#04313B" d="M836.334,240.283c-3.989-0.456-8.012-0.875-12.025-1.027
	c-3.89-0.144-6.78,0.928-10.102,2.537c-0.787,0.384-1.971-0.544-1.267-1.187c1.3-1.187,2.835-2.352,7.611-3.655
	c2.04-0.558,10.927-0.941,15.198-0.075C836.43,237.014,837.772,240.446,836.334,240.283"/>
<path id="XMLID_74_" fill="#0A505A" d="M891.763,218.891c1.102-5.789-3.622-10.924-7.954-14.936
	c-2.474-2.294-4.95-4.588-7.424-6.883c0.809,1.911,1.618,3.824,2.43,5.734c-3.661-2.521-7.752-4.412-12.042-5.56l1.836,3.097
	c-7.841-3.07-16.034-5.463-24.443-5.922c-8.406-0.456-17.075,1.124-24.25,5.527c2.018-0.152,4.08,0.271,5.88,1.198
	c-9.05,1.416-16.534,8.497-20.217,16.885c-2.504,5.712-3.412,12.13-2.57,18.309c0.665,4.9,2.151,11.625,5.243,15.59
	c-2.211-4.453,0.682-11.421,1.645-15.954c2.184-10.278,12.495-10.72,20.802-12.136c10.609-1.808,21.219-3.603,31.831-5.405
	c4.276-0.726,8.688-1.709,11.463-5.325c-2.797,5.419,0.657,9.847,3.379,14.529c4.21,7.238,6.217,15.742,5.687,24.101
	c3.037-4.873,4.591-10.659,4.406-16.399l2.849,6.04c2.509-10.83,1.253-22.492-3.5-32.54
	C888.715,212.074,890.369,215.459,891.763,218.891"/>
<path id="XMLID_73_" fill="#54BCC1" d="M799.307,354.237c0.138-3.835,0.163-7.255,1.176-10.974
	c1.071-3.934,2.521-7.788,4.594-11.311c1.831-3.117,4.169-5.969,6.982-8.246c0.759-0.613,8.503-5.742,9.27-4.671
	c1.902,2.67,4.47,7.043,7.619,8.34c8.401,3.459,21.992,4.69,29.678-0.751c4.649-3.293,7.349-9.596,7.349-9.596
	s4.105,0.715,6.131,1.019c10.281,1.554,17.958,12.984,21.611,21.666c4.387,10.43,5.513,21.895,6.593,33.159
	c0.994,10.397,1.991,20.791,2.987,31.188c-4.991,0.767-10.184,1.524-15.007,0.03c-4.82-1.493-9.124-5.952-8.677-10.979
	c0.152,7.33-0.955,14.684-3.247,21.649c-16.868-2.816-34.205-2.824-51.079-0.025c-0.039-16.462-2.918-32.916-8.475-48.415
	c2.667,20.36-3.02,58.648-4.751,80.886c-3.464-0.237-11.564,0.248-14.008-0.966C795.776,422.332,798.506,376.447,799.307,354.237"/>
<path id="XMLID_72_" fill="#0A505A" d="M892.749,218.6c-1.566-5.56-4.064-10.687-8.937-14.648c-2.476-2.291-4.95-4.588-7.426-6.882
	c0.809,1.913,1.618,3.824,2.43,5.737c-3.658-2.521-7.749-4.412-12.039-5.563l1.836,3.1c-7.84-3.07-16.037-5.463-24.446-5.922
	c-8.406-0.458-17.072,1.124-24.25,5.527c2.021-0.152,4.083,0.271,5.883,1.198c-2.592-1.336-10.422,4.011-12.385,5.69
	c-3.713,3.175-6.098,7.915-6.427,12.79c2.926-1.946,6.366-3.12,9.875-3.368c-3.682,1.505-6.314,5.298-6.43,9.276
	c0.077-1.507,20.992-1.916,23.756-2.289c9.478-1.284,18.916-3.211,28.344-4.815c4.273-0.723,8.682-1.706,11.457-5.32
	c-3.586,4.671-0.914,11.846,1.195,16.556c2.694,6.024,6.686,10.811,7.457,17.602c0.411,3.636-0.414,7.167-0.944,10.764
	c-0.591,4-1.184,8.017-1.253,12.062c-0.055,3.224,0.223,6.454,0.833,9.621c-1.444-7.523,1.27-16.559,3.824-23.408
	c0.265,6.079-0.124,12.848-1.185,18.842c-2.272,12.879-5.648,25.539-7.876,38.429c-1.761,10.209,0.202,22.262,7.125,30.293
	c0.494,0.569,1.008,1.118,1.543,1.645c3.484,3.41,8.078,6.151,9.613,10.775c1.952-0.663,3.997-1.055,6.057-1.168
	c-1.22,0.066-4.138-8.497-4.525-9.635c-1.223-3.589-2.029-7.324-2.394-11.098c-0.342-3.545-0.533-7.437,0.398-10.863
	c1.115-4.102,2.424-8.166,3.398-12.31c2.94-12.528,5.414-30.914,0.444-43.241c4.914,12.194,6.156,25.843,3.52,38.724
	c4.351-7.02,4.461-15.769,4.439-24.026c-0.022-7.741-0.061-15.615-2.333-23.013c-1.14-3.716-2.824-7.241-4.174-10.888
	C895.545,239.01,895.556,228.564,892.749,218.6"/>
<rect id="XMLID_71_" x="820.378" y="352.548" transform="matrix(0.1189 -0.9929 0.9929 0.1189 379.8785 1190.4099)" fill="#44606A" width="80.645" height="57.213"/>
<rect id="XMLID_70_" x="823.252" y="353.225" transform="matrix(0.1189 -0.9929 0.9929 0.1189 381.4375 1189.3679)" fill="#FFFFFF" width="75.232" height="53.076"/>
<rect id="XMLID_69_" x="861.614" y="342.471" transform="matrix(0.1189 -0.9929 0.9929 0.1189 406.5917 1171.9015)" fill="#CFD1D3" width="3.996" height="28.765"/>
<rect id="XMLID_68_" x="861.309" y="355.842" transform="matrix(0.1189 -0.9929 0.9929 0.1189 393.9602 1180.649)" fill="#CFD1D3" width="1.855" height="24.999"/>
<rect id="XMLID_67_" x="860.692" y="357.37" transform="matrix(0.119 -0.9929 0.9929 0.119 388.3029 1184.5537)" fill="#CFD1D3" width="1.855" height="32.214"/>
<polygon id="XMLID_66_" fill="#CFD1D3" points="850.076,381.468 870.947,383.967 871.088,382.766 850.223,380.267 "/>
<rect id="XMLID_65_" x="860.239" y="361.153" transform="matrix(0.119 -0.9929 0.9929 0.119 384.1489 1187.4366)" fill="#CFD1D3" width="1.855" height="32.214"/>
<polygon id="XMLID_64_" fill="#DA1C4D" points="841.441,412.916 845.344,410.87 847.434,414.749 851.531,401.348 845.538,399.515 
	"/>
<polygon id="XMLID_63_" fill="#EB495C" points="856.177,414.68 852.867,411.77 849.919,415.047 849.099,401.056 855.36,400.691 "/>
<path id="XMLID_62_" fill="#D48743" d="M842.31,393.304c-0.552,4.61,2.736,8.796,7.349,9.348c4.608,0.552,8.796-2.739,9.348-7.349
	c0.549-4.61-2.739-8.793-7.349-9.348C847.048,385.402,842.863,388.693,842.31,393.304"/>
<path id="XMLID_61_" fill="#EFB89E" d="M903.297,401.461c-0.64-4.257-3.606-8.114-7.205-10.005
	c-3.189-1.673-38.678-7.23-39.326-7.562c-2.413-1.226-4.246-3.166-6.689-4.395c-4.914-2.462-11.65-1.593-16.724-0.323
	c-0.138,0.036-0.293,0.122-0.436,0.232c-0.047-0.011-0.055-0.044-0.116-0.044c-0.842-0.017-2.382,0.867-1.433,1.935
	c0.616,0.688,2.482,0.53,3.258,0.632c1.466,0.191,4.158-1.148,4.401,0.552c0.105,0.729-1.93,2.515-3.981,2.49
	c-1.601-0.017-3.205-0.091-4.804-0.196c-2.739-0.182-3.343,1.433-1.963,1.988c1.634,0.663,3.255,1.182,4.909,1.56
	c-1.458-0.152-2.921-0.069-4.467,0.72c-0.469,0.24-1.333,0.71-1.204,1.469c0.249,1.46,2.532,1.394,3.492,1.458
	c0.293,0.019,0.588,0.008,0.883,0.022c-0.569,0.044-1.129,0.237-1.59,0.638c-0.359,0.309-0.867,1.096-0.169,1.353
	c1.543,0.56,3.067,0.809,4.621,0.917c-0.572,0.072-1.126,0.188-1.643,0.387c-0.853,0.328-1.681,1.521-0.384,1.919
	c4.149,1.278,9.066,1.968,13.127,0.108c3.639-1.665,7.705-4.309,11.935-2.833c3.398,1.19,6.471,3.238,9.632,4.953
	c6.601,3.581,13.666,7.495,21.078,9.08C893.436,409.57,904.443,409.089,903.297,401.461"/>
<path id="XMLID_60_" fill="#D48743" d="M426.261,353.29c0.091-7.076-1.91-13.939-3.421-21.023c-0.268-1.256-0.569-2.54-1.289-3.605
	c-8.528-12.619-19.052,21.387-20.424,25.393c-5.469,15.996-24.692,73.272-4.558,69.374c14.646-2.835,20.468-27.624,23.673-39.365
	c2.363-8.652,4.362-17.514,5.673-26.39C426.134,356.2,426.242,354.742,426.261,353.29"/>
<path id="XMLID_59_" fill="#D48743" d="M381.347,343.213c-3.865-5.924-9.356-10.504-14.557-15.548
	c-0.922-0.895-1.888-1.792-3.081-2.275c-14.115-5.72-3.895,28.38-2.799,32.466c4.376,16.329,20.346,74.597,34.887,60.139
	c10.579-10.518,1.596-34.346-2.288-45.88c-2.863-8.5-6.143-16.97-10.002-25.073C382.865,345.701,382.139,344.428,381.347,343.213"/>
<path id="XMLID_58_" fill="#E9977F" d="M375.086,669.002c0,0-15.598,9.439-16.41,4.707c-1.176-6.86,1.452-29.473,1.452-29.473
	l15.253-3.838L375.086,669.002z"/>
<path id="XMLID_57_" fill="#D51D4D" d="M354.817,666.818c0.602-0.809,1.325-1.005,2.198-0.19c2.899,2.711,6.576,3.523,9.232,0.047
	c0.417-0.547,0.961-1.085,1.648-1.135c0.732-0.055,1.375,0.453,2.087,0.638c-0.152-0.039-1.256-1.53-1.391-1.753
	c-0.425-0.707-0.478-1.576-0.138-2.349c0.552-1.248,1.982-2.523,3.103-3.227c1.422-0.894,2.979-1.576,4.599-2.015
	c1.331-0.359,2.81-0.541,4.034,0.088c1.25,0.64,1.954,1.971,2.653,3.189c3.851,6.687,9.069,10.902,16.548,12.876
	c1.48,0.392,3.006,0.685,4.342,1.433c1.767,0.997,3.039,2.733,3.79,4.619c0.911,2.28,1.844,5.883,0.71,8.227
	c-1.632,3.36-9.765,1.712-12.754,1.698c-6.167-0.036-12.332-0.097-18.5-0.185c-3.034,0.008-6.115-0.505-9.108-0.933
	c-4.287-0.61-9.731,0.342-13.624-1.841c-1.585-0.889-1.96-2.979-2.035-4.795C352.15,679.832,352.735,669.625,354.817,666.818"/>
<rect id="XMLID_56_" x="351.745" y="685.038" transform="matrix(1 -0.003 0.003 1 -2.0434 1.1336)" fill="#FFFFFF" width="57.627" height="6.72"/>
<path id="XMLID_55_" fill="#FFFFFF" d="M392.547,680.434c0.348,0,0.668-0.232,0.768-0.588c0.718-2.623,2.578-4.958,4.972-6.247
	c0.257-0.141,0.53-0.24,0.762-0.251c0.442,0.055,0.839-0.243,0.9-0.679c0.061-0.436-0.243-0.836-0.679-0.897
	c-0.66-0.111-1.251,0.16-1.737,0.422c-2.774,1.491-4.928,4.196-5.759,7.233c-0.113,0.425,0.135,0.864,0.561,0.98
	C392.401,680.425,392.478,680.434,392.547,680.434"/>
<path id="XMLID_54_" fill="#FFFFFF" d="M386.126,677.596c0.246,0,0.486-0.113,0.64-0.329c0.409-0.56,0.743-1.143,1.071-1.72
	c0.525-0.922,1.021-1.792,1.825-2.504c1.253-1.107,2.783-1.723,4.425-1.783c0.439-0.017,0.784-0.386,0.768-0.828
	c-0.017-0.439-0.42-0.792-0.828-0.767c-1.982,0.074-3.912,0.85-5.422,2.184c-1.002,0.886-1.59,1.916-2.156,2.913
	c-0.295,0.525-0.599,1.057-0.972,1.571c-0.26,0.353-0.18,0.853,0.177,1.113C385.794,677.546,385.957,677.596,386.126,677.596"/>
<path id="XMLID_53_" fill="#FFFFFF" d="M379.288,674.258c0.279,0,0.549-0.147,0.696-0.406c0.964-1.714,2.018-3.001,3.222-3.931
	c1.394-1.074,2.915-1.665,4.514-1.587c0.182,0.003,0.37,0.019,0.558,0.033c0.342,0.028,0.671,0.05,1.024,0.042
	c0.439-0.014,0.784-0.384,0.77-0.826c-0.014-0.439-0.387-0.784-0.826-0.77c-0.262,0.019-0.563-0.014-0.848-0.033
	c-0.207-0.019-0.42-0.033-0.629-0.044c-1.817-0.05-3.848,0.624-5.541,1.924c-1.375,1.063-2.565,2.504-3.639,4.412
	c-0.213,0.384-0.077,0.87,0.307,1.085C379.02,674.225,379.155,674.258,379.288,674.258"/>
<path id="XMLID_52_" fill="#FFFFFF" d="M373.393,670.556c0.237,0,0.469-0.107,0.627-0.306c0.246-0.323,0.483-0.632,0.715-0.941
	c1.198-1.59,2.228-2.962,4.083-3.796c2.106-0.952,4.475-1.074,6.532-1.044h0.008c0.436,0,0.79-0.353,0.795-0.789
	c0.006-0.439-0.351-0.8-0.789-0.806c-2.06-0.05-4.795,0.094-7.2,1.179c-2.228,1.008-3.432,2.603-4.704,4.298
	c-0.226,0.295-0.456,0.605-0.699,0.914c-0.27,0.351-0.207,0.853,0.138,1.121C373.048,670.501,373.222,670.556,373.393,670.556"/>
<path id="XMLID_51_" fill="#E9977F" d="M338.871,671.588c0,0-15.598,9.439-16.41,4.707c-1.176-6.86,1.452-29.474,1.452-29.474
	l15.253-3.84L338.871,671.588z"/>
<path id="XMLID_50_" fill="#D51D4D" d="M318.602,669.405c0.602-0.812,1.325-1.005,2.197-0.188c2.899,2.708,6.576,3.52,9.232,0.044
	c0.417-0.547,0.961-1.082,1.648-1.135c0.732-0.055,1.375,0.453,2.087,0.638c-0.152-0.039-1.256-1.53-1.391-1.753
	c-0.425-0.707-0.478-1.577-0.138-2.349c0.552-1.248,1.982-2.523,3.1-3.227c1.425-0.894,2.982-1.576,4.602-2.015
	c1.331-0.359,2.81-0.541,4.033,0.088c1.251,0.641,1.955,1.971,2.653,3.189c3.848,6.689,9.069,10.902,16.548,12.876
	c1.477,0.392,3.006,0.685,4.343,1.433c1.767,0.997,3.039,2.733,3.79,4.619c0.908,2.28,1.844,5.883,0.707,8.227
	c-1.629,3.36-9.762,1.712-12.752,1.698c-6.168-0.036-12.332-0.097-18.5-0.185c-3.034,0.008-6.115-0.508-9.108-0.933
	c-4.287-0.61-9.734,0.342-13.624-1.841c-1.585-0.889-1.96-2.979-2.038-4.795C315.935,682.419,316.52,672.212,318.602,669.405"/>
<rect id="XMLID_49_" x="315.528" y="687.625" transform="matrix(1 -0.003 0.003 1 -2.0501 1.0254)" fill="#FFFFFF" width="57.627" height="6.72"/>
<path id="XMLID_48_" fill="#FFFFFF" d="M356.332,683.02c0.348,0,0.668-0.232,0.767-0.588c0.718-2.623,2.576-4.958,4.972-6.247
	c0.257-0.141,0.53-0.24,0.762-0.251c0.442,0.055,0.837-0.243,0.9-0.679c0.061-0.436-0.243-0.836-0.679-0.897
	c-0.66-0.11-1.251,0.16-1.737,0.423c-2.775,1.491-4.928,4.196-5.759,7.233c-0.113,0.425,0.135,0.864,0.56,0.98
	C356.186,683.012,356.263,683.02,356.332,683.02"/>
<path id="XMLID_47_" fill="#FFFFFF" d="M349.908,680.182c0.248,0,0.489-0.113,0.643-0.329c0.409-0.56,0.743-1.143,1.071-1.72
	c0.525-0.922,1.019-1.792,1.825-2.504c1.25-1.107,2.783-1.723,4.425-1.784c0.439-0.019,0.784-0.386,0.767-0.828
	c-0.016-0.439-0.419-0.795-0.828-0.767c-1.982,0.074-3.912,0.85-5.422,2.184c-1.002,0.886-1.59,1.916-2.156,2.91
	c-0.295,0.525-0.599,1.06-0.972,1.571c-0.259,0.356-0.179,0.856,0.177,1.115C349.579,680.133,349.743,680.182,349.908,680.182"/>
<path id="XMLID_46_" fill="#FFFFFF" d="M343.073,676.844c0.279,0,0.549-0.146,0.696-0.406c0.964-1.714,2.018-3.001,3.222-3.931
	c1.394-1.074,2.915-1.665,4.514-1.59c0.182,0.005,0.37,0.022,0.558,0.036c0.342,0.028,0.671,0.05,1.024,0.041
	c0.439-0.014,0.784-0.384,0.77-0.825c-0.014-0.439-0.389-0.784-0.826-0.77c-0.265,0.019-0.563-0.014-0.847-0.033
	c-0.207-0.019-0.42-0.033-0.63-0.044c-1.817-0.05-3.848,0.624-5.541,1.924c-1.375,1.063-2.565,2.504-3.638,4.411
	c-0.213,0.384-0.077,0.87,0.306,1.085C342.805,676.812,342.94,676.844,343.073,676.844"/>
<path id="XMLID_45_" fill="#FFFFFF" d="M337.176,673.14c0.237,0,0.469-0.105,0.627-0.304c0.246-0.323,0.483-0.632,0.715-0.941
	c1.198-1.59,2.228-2.962,4.083-3.796c2.104-0.955,4.475-1.074,6.532-1.044c0.003,0,0.005,0,0.008,0c0.436,0,0.79-0.353,0.795-0.789
	c0.005-0.439-0.35-0.801-0.79-0.806c-2.059-0.05-4.796,0.094-7.2,1.179c-2.228,1.008-3.432,2.603-4.704,4.298
	c-0.226,0.298-0.456,0.604-0.699,0.914c-0.27,0.351-0.207,0.85,0.138,1.121C336.831,673.087,337.005,673.14,337.176,673.14"/>
<path id="XMLID_44_" fill="#416584" d="M316.675,465.554c0.03-4.942-0.423-10.554,0.908-15.377c0.025-0.069,0.052-0.141,0.077-0.21
	c2.256-5.508,31.478-13.737,35.649-8.989c0.058,0.069,0.11,0.168,0.132,0.257c1.367,5.047,2.984,11.313,2.805,16.448
	c-0.387,10.963-1.055,21.917-1.753,32.866c-0.593,9.276-14.449,151.563-14.204,160.61l-18.094,0.37
	c-1.822-5.375-5.35-123-5.599-123.044C316.622,524.28,316.631,473.29,316.675,465.554"/>
<path id="XMLID_43_" fill="#416584" d="M352.89,462.967c0.03-4.942-0.422-10.554,0.908-15.377c0.025-0.069,0.052-0.141,0.077-0.21
	c2.256-5.508,31.478-13.737,35.649-8.989c0.061,0.069,0.111,0.168,0.132,0.257c1.367,5.047,0.4,11.313,0.218,16.448
	c-0.384,10.963-1.055,21.917-1.753,32.866c-0.591,9.276-11.863,151.563-11.617,160.61c0,0.003-18.094,0.37-18.094,0.37
	c-1.822-5.375-5.35-123.001-5.599-123.045C352.837,521.693,352.846,470.703,352.89,462.967"/>
<path id="XMLID_42_" fill="#2B4D67" d="M363.386,461.198c0.456,7.319,0.607,14.579,0.638,21.912
	c0.019,4.533-9.469,10.027-8.069,9.196c5.06-3.001,3.669-10.35,3.76-15.38c0.097-5.574,0.403-11.065,0.842-16.619
	C360.647,459.149,363.328,460.278,363.386,461.198"/>
<path id="XMLID_41_" fill="#2B4D67" d="M389.745,472.05c-5.604-3.746-12.431-7.838-12.663-15.358
	c-0.052-1.77,4.536-0.127,4.61,1.452c0.304,6.333,5.411,9.243,9.574,13.251C392.52,472.605,390.512,472.564,389.745,472.05"/>
<path id="XMLID_40_" fill="#FDD479" d="M361.47,322.784c-11.015-7.47-25.092-9.077-41.725-3.418
	c-44.831,15.247-47.736,84.928-48.837,99.339c-0.287,3.79-0.514,7.683,0.613,11.313c1.502,4.84,37.038,35.986,37.938,34.473
	c0.56-0.941,8.034-13.77,8.652-13.845c-5.306-7.468-25.514-25.683-25.782-26.685c-0.296-1.115,2.385-27.919,6.195-43.194
	c0,0.248,0.017,0.569,0.041,0.925c0.006,0.074,0.008,0.149,0.017,0.226c1.8,23.579,16.769,86.995,17.332,87.037
	c0.163,0.011,67.499-11.727,74.481-13.028C390.394,410.517,377.521,333.67,361.47,322.784"/>
<path id="XMLID_39_" fill="#C5E9FA" d="M346.642,314.811c-6.482-1.322-15.645,0.094-22.022,1.869
	c-0.676,0.19-5.809,5.284-0.814,11.482c7.308,9.072,10.85,9.994,21.188,6.83c5.292-1.618,8.238-8.288,8.539-15.344
	c0.03-0.696,0.019-1.427-0.226-2.049c-0.287-0.726-0.392-1.096-0.947-1.449C351.852,315.827,347.849,315.057,346.642,314.811"/>
<path id="XMLID_38_" fill="#E9977F" d="M324.352,322.525c0.798-5.174-0.591-20.28,0.516-20.413c0,0,25.056-2.987,25.153-2.998
	c-2.355,0.284,0.05,22.693,0.571,24.17c0.467,1.325-6.987,3.989-6.987,3.989s-4.732,7.553-4.955,7.291
	C334.854,330.125,323.601,327.395,324.352,322.525"/>
<path id="XMLID_37_" fill="#5F3612" d="M290.937,216.329c-0.119-0.828-0.166-1.695-0.069-2.675
	c1.085-11.363,9.577-22.13,21.385-26.384c6.576-2.372,13.77-2.835,20.835-3.139c7.065-0.301,14.231-0.483,21.003-2.341
	c6.775-1.858,13.246-5.66,16.327-11.416c4.254,3.55,6.523,8.947,5.958,14.168c4.262-1.482,7.261-5.546,7.128-9.662
	c7.042,6.822,9.378,17.456,8.02,26.472c-1.091,7.205-6.25,13.133-7.796,20.101c-1.678,7.567-1.885,15.209-4.238,22.773
	c-0.483-4.373-0.963-8.743-1.447-13.113c-0.768-6.927-2.319-16.23-10.209-19.546c-10.758-0.331-21.434-1.918-32.209-1.852
	c-10.866,0.064-16.785,3.481-21.829,12.316c-4.914,8.61-7.849,17.978-10.25,27.37c-0.757,2.971-0.933,8.724-4.354,10.438
	c-2.504,1.259-9.497-0.489-9.028-3.708c1.16-7.967,1.742-15.99,1.888-24.015c0.069-3.63,0.582-7.747-0.13-11.327
	C291.599,219.15,291.149,217.803,290.937,216.329"/>
<path id="XMLID_36_" fill="#EFB79D" d="M300.751,239.941c0.928-5.911,2.247-11.791,4.919-17.24
	c1.841-3.757,6.397-13.351,11.264-14.364c11.711-2.438,39.114-9.221,56.683,1.118c5.483,3.227,7.459,9.723,7.598,15.377
	c0.359,14.367-0.79,28.758-1.483,43.114c-0.348,7.244-0.864,13.13-4.539,19.032c-1.579,2.542-24.921,21.694-30.558,22.185
	c-1.709,0.149-8.558,0.312-10.273,0.243c-5.657-0.224-29.874-18.248-31.574-20.714c-8.867-12.854-4.511-30.879-2.584-44.997
	C300.373,242.445,300.555,241.191,300.751,239.941"/>
<path id="XMLID_35_" fill="#583634" d="M321.578,251.342c-1.875,0.077-3.923,1.118-5.198,2.325
	c-0.351,0.329,0.268,1.524,0.671,1.284c3.614-2.129,8.566-1.654,11.774,1.135c0.362,0.315,1.441-1.063,1.082-1.378
	C327.58,252.69,324.548,251.221,321.578,251.342"/>
<path id="XMLID_34_" fill="#583634" d="M364.639,250.669c-1.874-0.047-3.986,0.856-5.342,1.974
	c-0.367,0.304,0.166,1.538,0.585,1.325c3.746-1.883,8.658-1.079,11.672,1.916c0.34,0.337,1.51-0.964,1.171-1.303
	C370.539,252.411,367.612,250.746,364.639,250.669"/>
<path fill="#5F3612" d="M325.677,240.123c0.025-0.006,0.052-0.011,0.075-0.019c0.016,0.008,0.03,0.017,0.047,0.025
	C325.757,240.126,325.719,240.126,325.677,240.123 M315.998,243.234c5.77-1.499,11.791-0.814,17.693-1.129
	c1.242-0.066,2.653-0.127,3.153-1.322c0.201-0.489-0.574-4.174-0.458-4.185c-2.598,0.26-5.058,0.295-7.661,0.737
	c-5.218,0.883-10.808,1.949-15.603,4.083C311.54,242.119,314.897,243.519,315.998,243.234"/>
<path id="XMLID_31_" fill="#945122" d="M348.172,246.442c-1.668,5.516-0.665,10.543,0.389,16.067
	c0.588,3.095,1.176,6.189,1.781,9.284c0.295,1.502,0.657,2.99,1.096,4.458c-2.565,3.923-5.69,4.859-9.37,2.808
	c-0.345-0.119-1.358,0.48-0.87,0.643c3.686,1.223,9.927,2.689,11.647-1.805c0.806-2.104-1.946-8.746-2.41-11.079
	c-1.336-6.753-3.431-13.682-1.67-20.52C348.818,246.097,348.23,246.252,348.172,246.442"/>
<path id="XMLID_30_" fill="#FFFFFF" d="M356.581,287.193c0,0-7.697,7.965-15.443,7.026c-14.466-1.75-16.001-11.995-16.001-11.995
	s8.42,3.128,15.946,4.431C348.68,287.969,356.581,287.193,356.581,287.193"/>
<path id="XMLID_29_" fill="#80471E" d="M300.403,187.013c-0.047-3.277,1.863-6.529,4.61-8.68c3.183-2.49,7.321-3.691,11.435-4.268
	c16.004-2.247,42.545,9.778,53.745-5.671c1.808,2.94,3.664,6.04,3.735,9.428c0.025,1.264-0.201,2.526-0.566,3.746
	c-1.48,4.983-5.408,9.248-10.353,11.609c-3.58,1.714-7.705,3.354-11.744,3.826c-12.757,1.488-25.694,1.635-38.473,0.434
	c-2.719-0.257-5.712-0.514-7.965,0.933c-3.249,2.087-3.581,6.662-4.925,9.82c-1.789,4.215-1.248,31.696-3.274,40.969
	c-2.719-0.168-3.829-2.479-6.86-2.518c-0.743-0.011-6.247-25.343-6.617-27.555c-0.729-4.332-2.601-9.45-2.711-13.743
	c-0.113-4.378,3.699-9.13,7.073-11.868c0.897-0.729,12.636-6.921,13.061-4.914C300.464,188.048,300.411,187.529,300.403,187.013"/>
<path id="XMLID_28_" fill="#56270E" d="M374.774,177.971c0.287,21.644-29.415,22.652-44.63,25.837
	c-1.14,0.24-1.888,1.626-0.218,1.306c13.555-2.601,49.858-5.491,46.049-27.519C375.908,177.223,374.768,177.615,374.774,177.971"/>
<path id="XMLID_27_" fill="#56270E" d="M384.781,185.135c-7.603,14.858-22.494,17.163-37.67,17.619
	c-0.58,0.016-2.159,1.256-0.977,1.267c15.54,0.13,33.178-3.098,39.931-19.013C386.322,184.406,384.966,184.771,384.781,185.135"/>
<path id="XMLID_26_" fill="#EFB79D" d="M284.341,245.915c0.842-1.405,2.683-2.631,4.917-2.819c2.195-0.185,4.276,0.635,5.894,1.62
	c2.079,1.262,3.716,2.846,4.754,4.597l1.596,17.05c-2.408,0.839-5.174,1.701-7.694,1.102c-2.631-0.624-3.884-2.567-4.853-4.315
	c-2.3-4.149-4.621-8.359-5.245-12.785C283.499,248.872,283.499,247.317,284.341,245.915"/>
<path id="XMLID_25_" fill="#56270E" d="M386.915,190.842c1.844,8.889-11.454,12.956-17.95,13.889
	c-0.712,0.102-2.126,1.38-0.707,1.215c5.64-0.652,10.706-3.1,15.684-5.704c3.335-1.745,5.444-6.281,4.285-9.903
	C388.089,189.906,386.822,190.381,386.915,190.842"/>
<path fill="#5F3612" d="M364.523,240.606c0.017-0.008,0.03-0.017,0.044-0.025c0.022,0.008,0.047,0.014,0.072,0.022
	C364.601,240.603,364.565,240.603,364.523,240.606 M376.648,242.133c-4.528-2.222-9.853-3.396-14.831-4.376
	c-2.242-0.442-4.572-1.107-6.888-1.008c-0.304,0.014-0.939,2.736-1.024,3.18c-0.389,2.087,1.01,2.355,2.965,2.501
	c5.657,0.428,11.288-0.072,16.948,1.463C374.876,244.181,378.142,242.867,376.648,242.133"/>
<path id="XMLID_22_" fill="#CB2128" d="M284.479,245.639c0.036,0,0.069-0.003,0.105-0.014c0.547-0.152,0.917-0.723,1.314-1.06
	c0.453-0.389,1.071-0.583,1.689-0.522l10.408,2.002l-0.298-3.318l-9.889-0.461c-1.201-0.116-2.396,0.251-3.271,1.005
	c-0.375,0.32-1.024,0.676-1.187,1.14C283.204,244.822,283.991,245.631,284.479,245.639"/>
<path fill="#ED222A" d="M304.26,246.939c0.058-2.556,29.965,0.572,31.406,1.289c1.695,0.845-0.947,7.523-3.625,9.516
	c-3.343,2.487-6.984,3.258-11.186,2.868c-5.331-0.491-15.863-0.323-16.73-6.714C303.887,252.146,304.221,248.709,304.26,246.939
	 M352.912,248.582c1.466-0.624,30.63-1.828,30.415,0.723c-0.149,1.764-0.19,5.209-0.604,6.943
	c-1.507,6.311-11.645,5.469-16.835,5.618c-4.094,0.119-7.517-0.881-10.482-3.572C353.033,256.138,351.186,249.316,352.912,248.582
	 M297.731,245.995c0.455,0.572,1.781,0.718,1.839,1.162c0.489,3.948,0.624,10.336,4.718,12.766c3.26,1.938,7.6,2.07,11.366,2.584
	c4.279,0.585,8.782,1.121,13.039,0.033c5.693-1.458,9.784-7.142,10.933-12.44c0.005-0.028,0.008-0.047,0.011-0.075
	c0.066-0.022,0.144-0.019,0.204-0.061c2.802-1.822,5.9-2.211,9.086-1.601c-0.094,0.508-0.099,1.096-0.025,1.827
	c0.549,5.353,3.893,11.28,9.232,13.094c3.987,1.355,8.384,1.11,12.57,0.801c3.686-0.271,7.882-0.124,11.233-1.847
	c4.199-2.162,5.005-8.514,5.894-12.418c0.099-0.439,1.391-0.5,1.891-1.041c0.605-0.654,0.536-2.705,0.519-3.164
	c-0.014-0.34-0.014-0.34-0.919-0.453c-8.263-1.033-36.883,0.361-37.877,0.762c-0.207,0.086-0.384,0.171-0.56,0.254
	c-3.793-2.217-8.185-1.734-12.098,0.282c-0.34-0.268-0.767-0.522-1.317-0.781c-0.98-0.466-30.31-3.746-38.929-3.263
	c-0.947,0.052-0.947,0.052-1,0.389C297.471,243.262,297.179,245.305,297.731,245.995"/>
<path id="XMLID_18_" fill="#EAF7FE" d="M337.082,328.532c-3.611-2.344-7.371-4.055-10.803-6.656
	c-0.845-0.643-1.723-1.32-2.184-2.289c-0.461-0.969-0.351-2.313,0.524-2.907c-2.761,0.066-4.434,9.146-4.119,9.756
	c1.206,2.33,1.966,4.848,3.506,7.192c0.602,0.922,3.12,5.19,4.663,4.301c0.271-0.155,3.984-7.658,5.163-6.75
	c0.116,0.088,4.552,3.387,4.823,3.382C338.15,332.176,337.184,328.598,337.082,328.532"/>
<path id="XMLID_17_" fill="#EAF7FE" d="M338.658,334.561c0.273-0.008,4.544-3.514,4.655-3.608c1.14-0.964,5.198,6.358,5.477,6.501
	c1.587,0.814,3.895-3.57,4.456-4.517c1.427-2.416,2.07-4.966,3.164-7.352c0.282-0.624,0.102-1.358-0.083-2.024
	c-0.166-0.588-1.587-4.464-2.83-6.46c-0.751-1.209-1.518-0.975-1.667-1.066c0.905,0.552,1.077,1.888,0.665,2.879
	c-0.417,0.988-1.259,1.706-2.076,2.388c-3.302,2.761-6.979,4.649-10.477,7.161C339.848,328.535,339.05,332.154,338.658,334.561"/>
<path id="XMLID_16_" fill="#E9977F" d="M289.302,248.571c2.545-0.086,3.501,4.315,3.506,6.107c0.003,1.143-0.618,2.101-0.538,3.277
	c0.083,1.22,0.798,2.167,0.665,3.437c1.035-0.643,2.068-1.284,3.103-1.924c-2.498,0.193-1.701-3.365-0.458-4.202
	c1.612-1.088,0.174-2.095-1.228-1.659c-2.38,0.74-4.406,2.176-4.646,4.834c-0.251,2.769,2.432,3.937,4.743,3.757
	c0.939-0.072,2.979-0.751,3.1-1.924c0.188-1.783-0.969-3.194-0.641-4.978c0.378-2.046,0.395-3.393-0.45-5.35
	c-1.284-2.962-4.111-3.594-6.951-2.661C288.689,247.555,287.983,248.615,289.302,248.571"/>
<rect id="XMLID_15_" x="363.365" y="309.906" transform="matrix(0.1189 -0.9929 0.9929 0.1189 19.5623 699.0707)" fill="#44606A" width="80.645" height="57.213"/>
<rect id="XMLID_14_" x="366.239" y="310.58" transform="matrix(0.1189 -0.9929 0.9929 0.1189 21.1085 698.0226)" fill="#FFFFFF" width="75.233" height="53.076"/>
<rect id="XMLID_13_" x="404.601" y="299.827" transform="matrix(0.1189 -0.9929 0.9929 0.1189 46.2683 680.5589)" fill="#CFD1D3" width="3.996" height="28.765"/>
<rect id="XMLID_12_" x="404.296" y="313.197" transform="matrix(0.1189 -0.9929 0.9929 0.1189 33.642 689.3058)" fill="#CFD1D3" width="1.854" height="24.999"/>
<rect id="XMLID_11_" x="403.68" y="314.729" transform="matrix(0.1189 -0.9929 0.9929 0.1189 28.02 693.2448)" fill="#CFD1D3" width="1.853" height="32.213"/>
<polygon id="XMLID_10_" fill="#CFD1D3" points="393.063,338.827 413.934,341.328 414.075,340.124 393.21,337.626 "/>
<rect id="XMLID_9_" x="403.227" y="318.508" transform="matrix(0.1189 -0.9929 0.9929 0.1189 23.8683 696.1252)" fill="#CFD1D3" width="1.853" height="32.213"/>
<polygon id="XMLID_8_" fill="#DA1C4D" points="384.428,370.271 388.332,368.225 390.421,372.104 394.518,358.704 388.525,356.871 
	"/>
<polygon id="XMLID_7_" fill="#EB495C" points="399.165,372.035 395.854,369.125 392.906,372.402 392.089,358.411 398.345,358.047 
	"/>
<path id="XMLID_6_" fill="#D48743" d="M385.298,350.659c-0.552,4.611,2.739,8.796,7.349,9.348c4.607,0.552,8.795-2.739,9.348-7.349
	c0.549-4.61-2.739-8.793-7.349-9.345C390.035,342.758,385.85,346.049,385.298,350.659"/>
<path id="XMLID_5_" fill="#EFB89E" d="M435.457,340.083c0.729-1.024,1.245-2.512,0.425-3.465c-0.193-0.224-0.455-0.403-0.558-0.679
	c-0.099-0.259-0.039-0.552,0.006-0.825c0.298-1.794-1.049-4.155-2.104-5.629c-0.011-0.03-0.428,4.848-0.428,4.848
	c-3.086-1.524-6.173-3.045-9.262-4.569c-1.364-0.673-2.73-1.347-4.097-2.018c-1.424-0.704-2.882-1.173-4.326-1.83
	c-1.093-0.497-2.305-1.013-3.517-0.704c-0.246,0.064-0.492,0.157-0.685,0.323c-0.803,0.696,0.279,1.819,0.839,2.266
	c2.112,1.687,4.472,2.863,6.786,4.232c2.507,1.485,5.196,2.634,7.639,4.194c0.207,0.132,0.422,0.276,0.527,0.497
	c0.102,0.224,0.036,0.544-0.196,0.621c-0.121,0.039-0.254,0.006-0.375-0.028c-1.955-0.536-3.669-1.071-5.566-1.836
	c-1.927-0.779-4.014-1.516-5.861-2.468c-1.825-0.928-4.13-1.656-4.936,0.798c-0.246,0.737,0.95,1.59,1.455,1.861
	c2.104,1.135,4.224,2.244,6.383,3.277c1.077,0.516,2.161,1.016,3.26,1.488c0.803,0.345,2.291,0.61,2.802,1.372
	c0.066,0.097,0.119,0.213,0.099,0.326c-0.028,0.149-0.18,0.248-0.331,0.268c-0.149,0.017-0.298-0.027-0.445-0.074
	c-3.084-0.969-6.098-2.167-9.127-3.341c-0.317-0.124-0.654-0.248-0.986-0.179c-1.745,0.356-0.789,2.454,0.041,3.186
	c1.267,1.112,2.94,1.656,4.26,2.708c-0.293-0.232-1.322-0.248-1.532-0.094c-0.351,0.262-0.519,1.118-0.511,1.507
	c0.017,0.859,0.734,1.458,1.38,1.932c3.224,2.377,6.708,4.478,10.485,5.715l-0.072,0.251c0.555,0.246,1.115,0.486,1.684,0.718
	c0.08,0.033,0.221-0.135,0.384-0.389c0.166,0.039,0.32,0.108,0.486,0.141c0.859,0.177,1.886,0.132,2.438-0.549
	c0.765-0.95,0.157-2.534,0.944-3.467c0.21-0.248,0.497-0.422,0.693-0.679c0.685-0.884-0.011-2.189,0.271-3.269
	c0.259-0.986,1.309-1.659,1.419-2.672c0.102-0.905-0.596-1.786-0.395-2.675C434.946,340.762,435.214,340.422,435.457,340.083"/>
<path id="XMLID_4_" fill="#D48743" d="M298.559,381.549c0.003,0.052,0,0.088,0.005,0.143c0.006,0.074,0.017,0.149,0.017,0.229
	c-0.022,13.539,10.504,58.673,10.504,58.673l11.476,10.361l-5.323,4.972l9.268,13.031l11.921-3.55c0,0-25.608-62.193-35.414-94.066
	C299.699,374.616,299.006,378.048,298.559,381.549"/>
<path id="XMLID_3_" fill="#EFB89E" d="M318.787,452.3c-3.478,3.65-7.468,7.208-9.969,11.578c6.905,6.59,13.453,10.217,13.453,10.217
	s9.798-8.616,10.032-8.812C332.303,465.284,325.398,460.104,318.787,452.3"/>
<path id="XMLID_2_" fill="#2B4D67" d="M334.517,464.798c-2.526,7.114-8.685,12.912-15.998,14.938
	c-1.353,0.375-5.61-2.098-3.454-2.924c7.065-2.706,12.495-6.94,16.683-13.298C332.309,462.664,334.862,463.826,334.517,464.798"/>
</svg>
