<?xml version="1.0" encoding="utf-8"?>
<!-- Generator: Adobe Illustrator 21.0.0, SVG Export Plug-In . SVG Version: 6.00 Build 0)  -->
<svg version="1.1"  xmlns="http://www.w3.org/2000/svg" xmlns:xlink="http://www.w3.org/1999/xlink" x="0px" y="0px"
	 viewBox="0 0 1440 810" enable-background="new 0 0 1440 810" xml:space="preserve">
<rect id="XMLID_1_" fill="#D0D1D3" width="1440" height="810"/>
<path id="XMLID_204_" fill="#F3F3F5" d="M1185.321,409.167c-2.606,86.869-36.561,171.304-107.13,229.821
	c-70.226,58.231-169.455,83.012-259.828,82.941c-102.048-0.082-217.163,15.818-313.712-23.953
	c-4.262-1.758-8.462-3.658-12.718-5.425c-17.564-7.288-36.456-9.831-53.419-18.055c-17.093-8.286-33.263-19.986-48.264-31.459
	c-28.709-21.966-54.272-47.903-75.846-76.725c-31.967-42.7-68.107-104.419-68.107-159c0-48.887,21.089-89.508,39.277-133.385
	c17.329-41.807,49.894-76.762,87.646-101.713c51.818-34.244,112.998-51.743,173.769-65.618
	c59.376-13.555,115.035-21.594,175.818-21.594c64.977,0,130.408-0.079,195.611,0.689c45.887,0.539,92.866,12.627,133.317,33.946
	c46.185,24.345,64.994,55.789,88.349,99.093C1171.452,276.896,1187.284,343.722,1185.321,409.167"/>
<path id="XMLID_203_" fill="#DCDDDF" d="M1212.493,653.47c0-7.549-218.771-13.671-488.637-13.671s-488.638,6.122-488.638,13.671
	s218.771,13.671,488.638,13.671S1212.493,661.019,1212.493,653.47"/>
<path id="XMLID_202_" fill="#648887" d="M461.54,655.279h8.266l-12.919-99.68c-0.933-7.126-7.055-12.5-14.241-12.5v8.337
	c3.014,0,5.583,2.254,5.975,5.243L461.54,655.279z"/>
<path id="XMLID_201_" fill="#676F7D" d="M408.779,551.439h31.972c10.861,0,19.702-8.805,19.762-19.651l4.163-83.188l-8.328-0.417
	l-4.171,83.494c0,6.301-5.124,11.422-11.425,11.422h-31.972V551.439z"/>
<path id="XMLID_200_" fill="#88B3B3" d="M450.47,551.439h61.157c10.861,0,19.702-8.805,19.762-19.651l4.163-83.188l-8.328-0.417
	l-4.174,83.494c0,6.301-5.121,11.422-11.422,11.422H450.47V551.439z"/>
<path id="XMLID_199_" fill="#A94B24" d="M445.292,413.993c0.281-2.844,2.671-5.016,5.532-5.016h84.002
	c1.191,0,2.283,0.377,3.179,1.012c1.06,0.751,5.359,3.531,6.258,4.16c1.58,1.106,2.549,3.014,2.345,5.096l-3.077,31.434
	c-0.281,2.844-2.674,5.017-5.533,5.017h-84.002c-1.304,0-2.49-0.451-3.425-1.197c-0.936-0.746-5.294-3.408-6.23-4.137
	c-1.452-1.126-2.325-2.949-2.13-4.937L445.292,413.993z"/>
<path id="XMLID_198_" fill="#D48743" d="M447.742,451.524h84.002c2.861,0,5.255-2.169,5.532-5.016l3.08-31.431
	c0.32-3.267-2.249-6.1-5.532-6.1h-84.002c-2.858,0-5.252,2.169-5.53,5.016l-3.079,31.431
	C441.892,448.691,444.458,451.524,447.742,451.524"/>
<path id="XMLID_197_" fill="#88B3B3" d="M519.907,655.279h8.269l-12.922-99.68c-0.933-7.126-7.055-12.5-14.241-12.5h-51.374
	c-4.134,0-8.07,1.781-10.796,4.889c-1.82,2.073-2.983,4.599-3.4,7.268c-0.182,1.177-8.34,100.023-8.34,100.023h8.309
	c0,0,8.192-98.543,8.368-99.258c0.224-0.924,0.675-1.787,1.33-2.532c1.16-1.324,2.768-2.053,4.529-2.053h51.374
	c3.014,0,5.583,2.254,5.975,5.243L519.907,655.279z"/>
<path id="XMLID_196_" fill="#88B3B3" d="M377.042,655.279c0,0,8.209-98.739,8.445-99.533c0.241-0.822,0.663-1.588,1.253-2.257
	c1.163-1.324,2.77-2.053,4.531-2.053h68.921v-8.337h-68.921c-4.134,0-8.07,1.781-10.798,4.889c-1.917,2.183-3.105,4.875-3.457,7.705
	c-0.13,1.038-8.283,99.587-8.283,99.587H377.042z"/>
<rect id="XMLID_195_" x="375.622" y="529.871" fill="#A94B24" width="80.984" height="13.229"/>
<rect id="XMLID_194_" x="446.644" y="529.871" fill="#A94B24" width="66.261" height="13.229"/>
<path id="XMLID_193_" fill="#831B3E" d="M477.723,473.347c-0.085-0.516-73.456-1.398-73.456,0.167
	c-0.008,6.474,1.628,19.11-1.14,26.295c-1.741,4.517,10.044-0.08,13.906,1.231c7.688,2.606,15.613,4.12,23.573,5.606
	c7.146,1.333,16.263,3.125,22.416,7.203c5.031,3.332,7.339,9.769,14.028,11.065c3.457,0.669,7.075-1.33,8.978-4.296
	c4.906-7.642,1.577-17.142-1.063-24.866C482.473,488.453,478.971,480.998,477.723,473.347"/>
<path id="XMLID_192_" fill="#EFB79D" d="M513.51,439.841c-7.866-11.743-23.825-30.603-31.825-42.263
	c-1.846,2.382-15.511,16.203-15.701,16.501c8.431,10.277,25.717,33.291,26.673,34.479c3.094,3.848,6.65,7.39,10.926,9.914
	c1.826,1.078,3.788,1.965,5.864,2.43c2.992,0.669,5.532,0.38,7.665-2.002c1.48-1.653,1.954-3.848,1.812-6.017
	C518.614,448.189,516.073,443.666,513.51,439.841"/>
<path id="XMLID_191_" fill="#04313B" d="M453.393,337.103c-1.123-6.068-2.915-12.012-5.342-17.672
	c-5.989-13.957-14.212-24.01-26.412-32.568c-1.633-1.148-3.275-2.297-5.059-3.193c-5.45-2.731-11.788-2.873-17.885-2.958
	c-2.081-0.031-4.162-0.059-6.246-0.091c-5.793-0.082-11.765-0.133-17.15,2.013c-6.491,2.589-11.66,9.102-15.959,14.405
	c-5.277,6.514-8.309,14.533-10.881,22.512c-1.157,3.59-2.237,7.214-2.841,10.937c-1.747,10.787,0.958,22.13,6.981,31.204
	c6.959,10.483,16.776,12.968,29.04,13.382c7.322,0.25,14.399-0.61,21.037,3.261c10.319,6.017,3.131,17.164-2.904,23.156
	c-9.402,9.335-21.624,10.234-33.92,12.593c-1.08,0.207-2.458,0.289-3.017-0.661c1.319,2.255,0.42,5.83,2.166,8.317
	c1.37,1.954,3.428,3.221,5.521,4.358c16.135,8.782,36.9-3.312,49.893-12.786c7.497-5.464,13.464-12.534,18.837-20.028
	c4.693-6.551,10.682-13.09,12.815-20.876C455.211,360.943,455.551,348.792,453.393,337.103"/>
<path id="XMLID_190_" fill="#0A505A" d="M402.441,367.613c-5.788-2.036-12.138-3.193-17.874-0.646
	c-6.652,2.955-3.17,11.241-7.069,15.851c-0.527,0.624-0.42,1.288-0.034,1.772c-3.034,5.47-9.854,9.664-15.993,6.511
	c-1.628-0.837-3.142-2.351-3.102-4.18c-2.167,5.825-0.882,12.69,2.887,17.632c3.763,4.945,9.797,7.966,15.988,8.507
	c13.881,1.217,25.814-7.875,32.986-18.908C417.505,382.954,415.097,372.065,402.441,367.613"/>
<path id="XMLID_189_" fill="#E9977F" d="M328.341,447.61c-0.318-0.125-0.652-0.238-1.015-0.34c-2.461-0.706-5.186-0.99-7.736-0.836
	c-2.03,0.119-7.109,1.508-4.021,4.392c0.729,0.684,1.715,1.004,2.668,1.305c-0.607,0.765-0.13,1.979,0.698,2.487
	c0.831,0.51,1.863,0.51,2.836,0.499c-0.618-0.003-1.052,0.734-0.893,1.33c0.159,0.598,0.746,1.001,1.35,1.129
	c0.604,0.13,1.231,0.031,1.84-0.065c2.223-0.355,4.449-0.712,6.675-1.066c0.777-0.122,1.582-0.258,2.246-0.683
	C336.361,453.596,330.397,448.416,328.341,447.61"/>
<path id="XMLID_188_" fill="#E9977F" d="M333.188,435.386c-2.254,0.167-4.792,1.197-6.573,1.934c-3.74,1.551-7.126,3.8-10.427,6.114
	c-0.924,0.649-9.596,6.17-4.143,6.834c0.695,0.085,1.341-0.323,1.92-0.717c4.67-3.167,11.346-2.45,16.906-2.824
	c2.634-0.181,4.753-0.156,7.123,1.078c1.923,1.004,6.017,5.6,8.215,3.562c0.53-0.491,0.698-1.285,0.601-2.002
	c-0.096-0.717-0.422-1.381-0.749-2.03c-1.131-2.24-2.354-4.458-3.942-6.4c-1.557-1.906-4.378-4.739-6.854-5.394
	C334.628,435.369,333.922,435.332,333.188,435.386"/>
<path id="XMLID_187_" fill="#FFD85C" d="M342.311,425.96c0.44,0.542,0.573,1.148,0.349,1.44l0.02,0.026l-35.432,28.771l-1.044-1.287
	l35.903-29.154C342.177,425.824,342.246,425.88,342.311,425.96"/>
<path id="XMLID_186_" fill="#F9B418" d="M342.107,425.756l-35.906,29.154l-0.683-0.845l35.432-28.768l0.023,0.026
	C341.254,425.186,341.707,425.364,342.107,425.756"/>
<path id="XMLID_185_" fill="#FFD85C" d="M302.093,458.749c0,0,5.133-2.535,5.152-2.552c0.312-0.252,0.176-0.936-0.301-1.523
	c-0.479-0.59-1.117-0.859-1.426-0.607C305.431,454.135,302.093,458.749,302.093,458.749"/>
<path id="XMLID_184_" fill="#010101" d="M302.924,457.637l-0.831,1.112l1.253-0.595c-0.079-0.074-0.164-0.145-0.241-0.238
	C303.032,457.824,302.981,457.731,302.924,457.637"/>
<path id="XMLID_183_" fill="#E9977F" d="M344.462,443.119c-0.729-0.434-1.469-0.871-2.229-1.248c-0.845-0.42-1.721-0.763-2.646-0.95
	c-4.554-0.919-11.034,1.12-15.616,1.801c-2.91,0.431-5.949,1.279-8.501,2.773c-1.585,0.927-6.4,5.096-2.26,6.08
	c0.933,0.224,1.911,0.011,2.847-0.198c1.701-0.383,3.406-0.766,5.11-1.148c3.916-0.879,5.178,0.079,7.469,3.142
	c1.962,2.629,5.181,4.273,8.459,4.327c1.137,0.017,2.268-0.145,3.406-0.145c2.405-0.003,7.951-1.409,10.356-1.392
	c4.937,0.043,29.403,0.471,36.697,0.726c4.582,0.159,11.077,1.523,14.531-1.761c2.424-2.306,13.461-36.804,15.894-45.518
	c0.547-1.962,1.086-4.106,0.289-5.978c-0.587-1.384-1.806-2.376-2.983-3.309c-1.174-0.936-2.476-1.917-3.976-1.914
	c-2.399,0-6.721-8.263-7.58-6.023c-1.534,4.01-10.524,41.007-12.013,42.98c-3.284,4.347-3.119,4.517-8.113,5.428
	c-5.144,0.939-25.164,3.562-30.021,3.613C350.738,444.434,347.015,444.636,344.462,443.119"/>
<path id="XMLID_182_" fill="#4DBAC0" d="M415.035,422.928c2.362-5.702,4.305-10.552,5.331-13.282
	c0.879-2.348,1.77-4.917,0.993-7.299c-0.573-1.758-1.962-3.105-3.306-4.378c-1.338-1.271-2.83-2.612-4.67-2.771
	c-2.943-0.255-7.356-10.849-8.646-8.192c-1.14,2.339-5.351,14.303-9.576,26.111C401.806,416.324,408.255,420.059,415.035,422.928"/>
<path id="XMLID_181_" fill="#6FCAD0" d="M407.897,390.267c0.406-1.007,0.82-2.002,1.236-2.989
	c4.282-10.106,10.73-14.042,21.526-15.449c11.726-1.529,27.881,0.241,32.588,13.152c1.582,4.339,1.681,9.054,1.849,13.668
	c0.933,25.836,4.495,50.158,12.627,74.701c-22.955,0.729-49.148,2.558-73.076-0.36c-0.647-0.079-0.034-42.842,0.008-47.061
	C404.716,419.875,405.615,395.958,407.897,390.267"/>
<path id="XMLID_180_" fill="#E9977F" d="M434.235,510.205c-2.878-4.237-7.829-6.63-12.539-8.184
	c-8.805-2.901,11.232-3.664,2.002-4.083c-10.191-0.462-26.556,2.742-46.616,3.026c-8.68,0.125-24.801,3.995-24.461,15.066
	c0.343,11.283,12.208,20.893,19.294,28.711c9.392,10.356,19.002,20.516,28.663,30.623c12.395,12.962,24.897,25.827,37.51,38.58
	c0,0,18.31-8.212,14.709-11.919c-22.3-22.958-61.047-71.615-59.274-71.581c6.505,0.125,13.07,0.162,19.532-0.717
	c5.53-0.754,11.328-2.164,15.846-5.612C432.772,521.16,437.567,515.108,434.235,510.205"/>
<path id="XMLID_179_" fill="#6FCAD0" d="M486.069,399.491c-0.417-0.607-0.831-1.216-1.248-1.823
	c-6.857-9.973-17.726-22.694-29.812-25.884c-7.458-1.968-15.372-2.949-23.085-2.923c-6.893,0.023-19.416,6.241-22.978,12.415
	c-3.105,5.385-3.332,12.369-4.205,18.361c-1.608,11.031-1.1,56.765,0.148,68.587c-0.043-0.397,38.818-0.031,51.487-1.151
	c0.167-0.014,0.556-0.079,0.593-0.312c0.136-0.828,0.269-1.656,0.403-2.484c0.553-0.057,0.961-0.284,0.958-0.805
	c-0.13-18.148,0.587-36.251,2.107-54.329c2.149,2.765,5.606,7.049,9.471,11.788C472.208,415.522,484.118,401.862,486.069,399.491"/>
<path id="XMLID_178_" fill="#EFB79D" d="M484.58,511.893c-2.819-4.149-7.668-6.494-12.284-8.014
	c-8.623-2.844-17.967-3.842-27.007-4.254c-16.969-0.771-45.709-5.694-52.163,15.568c-2.915,9.605-1.435,119.609-1.435,119.609
	s21.101,5.887,20.593,0.74c-2.294-23.318,5.626-87.101,8.192-103.747c0.196-1.287,22.493-0.116,24.228-0.082
	c6.375,0.122,12.803,0.159,19.132-0.703c5.416-0.737,11.096-2.118,15.52-5.495C483.148,522.623,487.844,516.696,484.58,511.893"/>
<path id="XMLID_177_" fill="#B9DDED" d="M415.049,628.093c-0.649-0.87-1.432-1.077-2.368-0.195
	c-3.111,2.926-7.069,3.811-9.939,0.077c-0.454-0.587-1.044-1.163-1.781-1.217c-0.788-0.054-1.483,0.493-2.246,0.695
	c0.162-0.042,1.347-1.653,1.492-1.891c0.457-0.763,0.51-1.701,0.142-2.532c-0.598-1.341-2.144-2.711-3.352-3.465
	c-1.533-0.959-3.212-1.69-4.958-2.155c-1.435-0.383-3.029-0.576-4.344,0.108c-1.344,0.695-2.098,2.13-2.847,3.442
	c-4.123,7.214-9.732,11.768-17.777,13.92c-1.591,0.425-3.238,0.746-4.673,1.557c-1.903,1.08-3.267,2.952-4.069,4.988
	c-0.973,2.456-1.968,6.341-0.734,8.862c1.764,3.613,10.521,1.812,13.739,1.784c6.641-0.054,13.282-0.142,19.921-0.255
	c3.27,0,6.583-0.564,9.808-1.035c4.613-0.672,10.48,0.338,14.666-2.025c1.704-0.964,2.099-3.218,2.178-5.175
	C417.961,642.102,417.298,631.108,415.049,628.093"/>
<rect id="XMLID_176_" x="356.365" y="647.799" fill="#E9F7FD" width="62.065" height="7.237"/>
<path id="XMLID_175_" fill="#FFFFFF" d="M374.46,642.879c-0.374,0-0.72-0.249-0.828-0.63c-0.783-2.824-2.793-5.334-5.376-6.712
	c-0.275-0.15-0.573-0.258-0.822-0.269c-0.474,0.06-0.902-0.258-0.97-0.729c-0.068-0.468,0.258-0.902,0.729-0.97
	c0.709-0.119,1.347,0.17,1.872,0.451c2.995,1.596,5.32,4.503,6.224,7.773c0.125,0.457-0.139,0.927-0.598,1.058
	C374.616,642.87,374.534,642.879,374.46,642.879"/>
<path id="XMLID_174_" fill="#FFFFFF" d="M381.368,639.799c-0.267,0-0.525-0.119-0.695-0.351c-0.44-0.601-0.802-1.228-1.157-1.849
	c-0.57-0.99-1.103-1.925-1.974-2.691c-1.353-1.188-3.003-1.846-4.772-1.906c-0.474-0.017-0.845-0.414-0.828-0.89
	c0.017-0.474,0.448-0.857,0.888-0.828c2.138,0.074,4.217,0.902,5.847,2.334c1.083,0.95,1.718,2.059,2.334,3.128
	c0.32,0.564,0.647,1.137,1.052,1.687c0.278,0.383,0.193,0.922-0.187,1.203C381.722,639.745,381.544,639.799,381.368,639.799"/>
<path id="XMLID_173_" fill="#FFFFFF" d="M388.717,636.184c-0.298,0-0.59-0.156-0.749-0.437c-1.043-1.84-2.184-3.224-3.482-4.22
	c-1.506-1.154-3.145-1.786-4.866-1.698c-0.198,0.006-0.4,0.023-0.598,0.04c-0.371,0.031-0.726,0.054-1.106,0.048
	c-0.474-0.014-0.845-0.411-0.834-0.888c0.014-0.474,0.417-0.845,0.888-0.831c0.286,0.02,0.607-0.017,0.913-0.042
	c0.224-0.02,0.448-0.037,0.678-0.045c1.957-0.06,4.146,0.658,5.972,2.053c1.483,1.143,2.77,2.688,3.933,4.738
	c0.232,0.414,0.088,0.936-0.326,1.171C389.007,636.147,388.862,636.184,388.717,636.184"/>
<path id="XMLID_172_" fill="#FFFFFF" d="M395.056,632.177c-0.255,0-0.508-0.113-0.675-0.329c-0.27-0.343-0.522-0.678-0.774-1.01
	c-1.296-1.707-2.41-3.184-4.41-4.078c-2.268-1.018-4.823-1.14-7.035-1.1h-0.011c-0.471,0-0.854-0.38-0.859-0.848
	c-0.006-0.474,0.377-0.865,0.848-0.871c2.22-0.057,5.167,0.088,7.761,1.248c2.402,1.078,3.701,2.793,5.076,4.611
	c0.244,0.323,0.493,0.655,0.754,0.987c0.296,0.374,0.228,0.913-0.145,1.205C395.428,632.117,395.241,632.177,395.056,632.177"/>
<path id="XMLID_171_" fill="#B9DDED" d="M451.281,593.819c-0.593-0.19-1.2-0.219-1.645,0.176c-0.335,0.301-0.462,0.765-0.527,1.211
	c-0.661,4.506,0.139,9.482-6.193,9.185c-0.74-0.037-1.56,0.042-2.078,0.573c-0.553,0.564-0.581,1.449-0.922,2.161
	c0.074-0.15-0.391-2.095-0.479-2.359c-0.286-0.842-0.97-1.489-1.84-1.744c-1.412-0.414-3.457-0.116-4.812,0.318
	c-1.721,0.553-3.363,1.361-4.849,2.393c-1.219,0.845-2.396,1.94-2.725,3.386c-0.337,1.475,0.27,2.978,0.785,4.398
	c2.844,7.806,2.699,15.029-0.859,22.563c-0.703,1.489-1.523,2.952-1.829,4.571c-0.408,2.15,0.142,4.398,1.174,6.327
	c1.251,2.331,3.573,5.598,6.293,6.287c3.896,0.987,8.178-6.86,10.24-9.332c4.245-5.107,8.473-10.231,12.675-15.372
	c2.493-3.051,4.203-6.627,6.545-9.763c2.697-3.607,5.757-6.792,8.172-10.642c0.201-0.326,0.414-0.684,0.389-1.066
	c-0.025-0.462-0.38-0.833-0.715-1.154c-4.753-4.56-10.101-8.501-15.86-11.694C451.93,594.079,451.607,593.923,451.281,593.819"/>
<rect id="XMLID_170_" x="419.861" y="627.629" transform="matrix(0.6462 -0.7632 0.7632 0.6462 -322.2261 567.4918)" fill="#E9F7FD" width="62.063" height="7.237"/>
<path id="XMLID_169_" fill="#FFFFFF" d="M436.016,635.602c-0.241,0.286-0.655,0.388-1.015,0.224
	c-2.66-1.225-5.876-1.313-8.598-0.232c-0.292,0.113-0.567,0.272-0.734,0.453c-0.261,0.4-0.783,0.522-1.183,0.27
	c-0.403-0.252-0.522-0.78-0.272-1.182c0.366-0.618,0.998-0.919,1.554-1.137c3.153-1.253,6.874-1.151,9.953,0.269
	c0.428,0.201,0.618,0.709,0.42,1.143C436.107,635.478,436.064,635.546,436.016,635.602"/>
<path id="XMLID_168_" fill="#FFFFFF" d="M438.129,628.343c-0.17,0.201-0.431,0.32-0.717,0.303c-0.743-0.054-1.455-0.182-2.161-0.312
	c-1.12-0.207-2.184-0.403-3.326-0.233c-1.781,0.264-3.349,1.1-4.54,2.41c-0.318,0.349-0.859,0.377-1.214,0.057
	c-0.349-0.318-0.363-0.896-0.057-1.214c1.438-1.582,3.411-2.634,5.558-2.952c1.426-0.216,2.68,0.017,3.893,0.241
	c0.641,0.119,1.287,0.241,1.971,0.286c0.471,0.034,0.828,0.445,0.794,0.919C438.319,628.037,438.245,628.207,438.129,628.343"/>
<path id="XMLID_167_" fill="#FFFFFF" d="M440.119,620.395c-0.193,0.23-0.502,0.349-0.817,0.289
	c-2.079-0.394-3.871-0.417-5.473-0.068c-1.855,0.403-3.394,1.245-4.438,2.614c-0.125,0.156-0.241,0.321-0.357,0.485
	c-0.216,0.303-0.428,0.59-0.678,0.873c-0.318,0.355-0.859,0.383-1.214,0.062c-0.354-0.315-0.377-0.862-0.062-1.214
	c0.199-0.204,0.38-0.474,0.559-0.723c0.13-0.184,0.261-0.366,0.403-0.547c1.217-1.531,3.182-2.739,5.425-3.23
	c1.829-0.397,3.842-0.38,6.159,0.059c0.462,0.088,0.771,0.539,0.683,1.004C440.278,620.151,440.213,620.284,440.119,620.395"/>
<path id="XMLID_166_" fill="#FFFFFF" d="M441.157,612.968c-0.165,0.195-0.414,0.312-0.686,0.303
	c-0.437-0.017-0.856-0.04-1.273-0.062c-2.141-0.116-3.987-0.218-5.961,0.732c-2.24,1.075-3.987,2.943-5.385,4.659
	c-0.003,0.003-0.006,0.006-0.009,0.009c-0.303,0.357-0.839,0.405-1.202,0.105c-0.366-0.301-0.417-0.842-0.113-1.208
	c1.389-1.73,3.403-3.885,5.963-5.115c2.376-1.137,4.523-1.021,6.8-0.896c0.403,0.023,0.817,0.048,1.242,0.062
	c0.474,0.014,0.842,0.414,0.825,0.888C441.35,612.645,441.276,612.826,441.157,612.968"/>
<path id="XMLID_165_" fill="#E9977F" d="M436.912,370.222c3.148,4.083,0.746,10.004-1.072,14.164
	c-2.317,5.303-12.179,14.238-17.939,8.042c-1.37-1.477-1.832-3.567-2.11-5.561c-0.224-1.613-0.352-3.321,0.312-4.807
	c0.428-0.964,1.582-2.24,1.327-3.383c-0.36-1.602-1.84-1.324-2.649-2.368c-2.614-3.383,4.696-14.496,6.65-17.681
	c1.786-0.267,2.776,1.84,3.973,3.196C435.681,373.48,436.736,369.992,436.912,370.222"/>
<path id="XMLID_164_" fill="#EFB79D" d="M356.823,353.522c0.128,0.074,0.261,0.102,0.394,0.153c0.057,0.241,0.136,0.477,0.184,0.72
	L356.823,353.522z"/>
<path id="XMLID_163_" fill="#EFB79D" d="M434.173,332.513c-0.354-0.737-0.905-1.415-1.664-1.781
	c-1.183-0.564-2.654-0.269-3.854,0.32c-2.306,1.131-4.015,3.335-4.466,5.756l-0.221,15.693c0.624,1.835,2.841,2.995,4.829,2.529
	c1.659-0.388,2.949-1.733,3.652-3.227c0.703-1.492,0.91-3.136,1.109-4.753c0.343-2.79,0.686-5.584,1.029-8.374
	C434.842,336.596,435.08,334.393,434.173,332.513"/>
<path id="XMLID_162_" fill="#EFB79D" d="M355.343,350.343c-1.579-6.443-3.865-12.741-1.662-19.453
	c2.061-6.278,7.662-10.796,13.623-13.648c5.961-2.855,12.46-4.401,18.554-6.953c4.676-1.959,9.443-4.897,11.145-9.67
	c5.745,13.319,12.304,27.569,24.98,34.618c3.182,6.993,6.315,14.967,5.059,22.847c-1.094,6.874-4.114,12.661-7.665,18.786
	c-4.18,7.203-14.025,14.298-23.012,15.999c-9.492,1.798-14.137-2.172-21.291-7.001c-4.716-3.184-10.109-7.654-13.413-12.233
	c-4.126-5.72-4.415-12.403-5.43-18.979C356.006,353.207,355.694,351.773,355.343,350.343"/>
<path id="XMLID_161_" fill="#E9977F" d="M431.998,334.971c-1.869,0.045-3.698,0.893-4.897,2.342
	c-1.511,1.826-0.893,4.529-2.317,6.261c-0.23,0.281-0.61,0.814-0.164,1.123c1.648,1.137-0.442,2.629,1.149,3.61
	c1.066,0.655,2.753,0.111,3.737-0.465c2.144-1.254,2.691-5.195-0.38-5.447c-0.967-0.079-2.399,0.36-3.012,1.157
	c-0.544,0.706-0.44,1.313,0.542,1.418c0.78,0.079,0.122,2.084-0.065,2.337c0.542-0.394,1.08-0.785,1.619-1.18
	c1.055-0.459,1.639-0.301,1.423-1.704c-0.128-0.825-0.59-1.344-1.321-1.721c0.026,0.269,0.051,0.539,0.077,0.808
	c0.601-0.913,0.905-1.818,1.083-2.895c0.235-1.446,0.031-3.527,1.897-3.995C432.29,336.389,433.892,334.923,431.998,334.971"/>
<path id="XMLID_160_" fill="#945122" d="M380.767,349.016c0.646,2.79,1.157,5.711,0.8,8.581c-0.278,2.237-1.639,4.324-1.673,6.573
	c-0.054,3.771,3.616,3.859,6.46,3.44c0.865-0.128,2.45-1.673,0.828-1.426c-7.824,1.197-3.896-5.357-3.525-9.091
	c0.301-3.02-0.522-5.787-1.483-8.615C382.015,348.015,380.651,348.526,380.767,349.016"/>
<path id="XMLID_159_" fill="#04313B" d="M375.326,341.901c-3.224,0.451-6.465,0.936-9.636,1.665
	c-3.068,0.706-6.397,3.513-8.618,5.671c-0.525,0.513-1.897-0.533-1.355-1.132c2.079-2.297,5.322-5.056,6.502-5.802
	c1.469-0.924,8.32-3.193,11.856-3.332C374.642,338.95,376.488,341.74,375.326,341.901"/>
<path id="XMLID_158_" fill="#04313B" d="M391.412,338.615c3.485-1.302,7.009-2.578,10.585-3.61
	c3.462-0.998,8.204-0.947,11.547-0.241c0.794,0.167,0.856-1.546,0.003-1.781c-3.272-0.899-7.115-0.865-8.689-0.89
	c-1.959-0.034-10.034,1.594-13.681,3.326C390.592,335.697,390.153,339.083,391.412,338.615"/>
<path id="XMLID_157_" fill="#D3413D" d="M403.289,372.167c0,0-0.133,0.354-0.417,0.95c-0.298,0.598-0.766,1.412-1.475,2.317
	c-0.706,0.905-1.69,1.855-2.901,2.705c-1.214,0.839-2.669,1.494-4.155,1.945c-1.494,0.445-2.975,0.672-4.429,0.715
	c-1.441,0.037-2.796-0.156-3.91-0.462c-2.254-0.601-3.462-1.676-3.462-1.676s0.377-0.065,1.038-0.181
	c0.621-0.099,1.506-0.238,2.566-0.408c1.026-0.164,2.186-0.391,3.414-0.635c1.211-0.25,2.561-0.519,3.831-0.828
	c2.546-0.604,4.912-1.605,6.746-2.64C402.027,372.887,403.289,372.167,403.289,372.167"/>
<path id="XMLID_156_" fill="#583634" d="M363.473,358.524c0.133,1.117,1.426,1.88,2.887,1.704c1.46-0.176,2.532-1.225,2.396-2.342
	c-0.133-1.117-1.426-1.88-2.887-1.704C364.412,356.358,363.337,357.407,363.473,358.524"/>
<path id="XMLID_155_" fill="#583634" d="M397.074,349.839c0.133,1.117,1.424,1.88,2.884,1.704c1.46-0.179,2.532-1.225,2.399-2.342
	c-0.136-1.117-1.344-1.2-2.802-1.024C398.092,348.353,396.938,348.721,397.074,349.839"/>
<path id="XMLID_154_" fill="#583634" d="M394.163,348.685c9.107,2.836,15.833-3.255,15.833-3.255s-2.526-0.944-2.782-0.726
	c-2.77,2.337-11.29,3.82-12.773,3.375C393.145,347.686,393.355,348.432,394.163,348.685"/>
<path id="XMLID_153_" fill="#583634" d="M375.713,353.724c-6.962,6.519-15.667,3.962-15.667,3.962s1.721-2.32,2.027-2.178
	c3.559,1.65,11.987-1.163,13.124-2.209C376.195,352.379,376.331,353.145,375.713,353.724"/>
<path id="XMLID_152_" fill="#0A505A" d="M386.063,307.819c-3.723,1.874-7.747,3.397-11.53,4.991
	c-4.469,1.88-8.822,4.038-13.022,6.46c-9.763,5.629-17.754,15.279-15.106,27.033c1.531,6.806,5.025,13.158,9.947,18.1
	c-4.469-4.489-0.36-17.785,1.974-22.371c3.808-7.475,7.662-13.807,14.187-19.314c4.475-3.777,9.134-7.336,13.952-10.659
	c5.473-3.777,11.807-8.377,11.833-15.026C395.702,302.018,391.162,305.25,386.063,307.819"/>
<path id="XMLID_151_" fill="#EFB79D" d="M517.474,452.286c-3.312-8.38-13.226-8.212-23.065-8.462
	c-9.956-0.252-50.725,3.865-51.757,3.647c-4.327-0.922-8.799-0.95-13.081-2.11c-6.193-1.681-12.381-3.142-18.673-3.023
	c-5.462,0.102-10.773,1.713-15.694,3.97c-0.646,0.298-0.573,1.185-0.173,1.628c0.445,0.488,0.862,0.788,1.283,1.007
	c-0.645,0.502-1.243,1.069-1.757,1.744c-0.454,0.595-0.329,1.517,0.493,1.718c2.559,0.624,4.609-0.187,7.119-0.817
	c1.818-0.457,3.686-0.544,5.538-0.391c-3.082,0.595-6.026,1.696-8.901,3.338c-0.312,0.179-0.508,0.55-0.493,0.905l0.057,1.355
	c0.02,0.578,0.482,1.004,1.052,1.009c3.735,0.043,7.106-1.299,10.81-1.63c5.342-0.479,10.39,2.269,15.656,2.62
	c3.698,0.247,10.356,0.187,14.717-0.009c1.251-0.054,45.572,6.621,57.341,5.856c8.133-0.533,15.596-2.016,18.676-5.484
	C518.172,457.413,518.611,455.168,517.474,452.286"/>
<path id="XMLID_150_" fill="#831B3E" d="M486.996,511.141c-2.929-4.31-7.965-6.746-12.761-8.326
	c-8.955-2.952-18.664-3.993-28.053-4.418c-6.692-0.303-15.148-1.214-23.431-1.038c-0.06-0.003-13.912-1.679-13.971-1.693
	c-8.643-1.829-16.375,3.168-35.919,5.612c19.388,1.236,47.834,7.733,53.94,11.726c4.418,2.893,8.314,7.089,10.03,12.159
	c0.695,2.05,2.13,6.168,2.13,6.168s4.704,0.36,6.618,0.397c6.621,0.128,13.297,0.167,19.872-0.729
	c5.626-0.766,11.521-2.201,16.118-5.708C485.507,522.286,490.385,516.129,486.996,511.141"/>
<path id="XMLID_149_" fill="#88B3B3" d="M235.824,655.038l11.575-161.637c0.366-5.133,4.684-9.156,9.834-9.156h123.049
	c2.005,0,3.874,0.8,5.257,2.252c1.384,1.452,2.096,3.355,1.996,5.357l4.744,163.185h8.326l-4.742-162.786
	c0.208-4.302-1.316-8.391-4.29-11.51c-2.972-3.117-6.984-4.835-11.292-4.835H257.234c-9.502,0-17.473,7.424-18.154,16.901
	l-11.572,162.23H235.824z"/>
<path id="XMLID_148_" fill="#88B3B3" d="M496.626,655.038h8.317l-11.649-163.276c-0.638-8.89-8.119-15.854-17.031-15.854H336.007
	v8.337h140.256c4.56,0,8.388,3.565,8.714,8.113L496.626,655.038z"/>
<rect id="XMLID_147_" x="237.765" y="463.28" fill="#D48743" width="153.952" height="13.365"/>
<rect id="XMLID_146_" x="391.717" y="463.28" fill="#A94B24" width="110.045" height="13.365"/>
<rect id="XMLID_145_" x="341.202" y="454.736" fill="#D9DBDB" width="9.38" height="6.142"/>
<rect id="XMLID_144_" x="303.201" y="460.711" fill="#98C13D" width="113.691" height="2.569"/>
<path id="XMLID_143_" fill="#F3F3F5" d="M385.288,455.695l-33.291-1.137c-3.383,0-6.122,2.742-6.122,6.122v0.201h39.413V455.695z"/>
<path id="XMLID_142_" fill="#F3F3F5" d="M303.199,455.695l36.552-1.137c3.383,0,6.122,2.742,6.122,6.122v0.201h-42.674V455.695z"/>
<polygon id="XMLID_141_" fill="#D9DBDB" points="415.086,460.879 385.287,460.879 385.287,455.692 415.086,456.982 "/>
<path id="XMLID_140_" fill="#648887" d="M1084.723,655.279h8.269l-12.922-99.68c-0.933-7.126-7.055-12.5-14.241-12.5v8.337
	c3.014,0,5.583,2.254,5.975,5.243L1084.723,655.279z"/>
<path id="XMLID_139_" fill="#676F7D" d="M1031.962,551.439h31.975c10.858,0,19.699-8.805,19.759-19.651l4.166-83.188l-8.328-0.417
	l-4.174,83.494c0,6.301-5.124,11.422-11.422,11.422h-31.975V551.439z"/>
<path id="XMLID_138_" fill="#88B3B3" d="M1073.652,551.439h61.157c10.861,0,19.702-8.805,19.762-19.651l4.163-83.188l-8.328-0.417
	l-4.171,83.494c0,6.301-5.124,11.422-11.425,11.422h-61.157V551.439z"/>
<path id="XMLID_137_" fill="#A94B24" d="M1068.474,413.993c0.278-2.844,2.671-5.016,5.53-5.016h84.002
	c1.194,0,2.286,0.377,3.179,1.012c1.061,0.751,5.359,3.531,6.258,4.16c1.582,1.106,2.552,3.014,2.348,5.096l-3.08,31.434
	c-0.281,2.844-2.671,5.017-5.532,5.017h-84.002c-1.304,0-2.487-0.451-3.423-1.197c-0.936-0.746-5.294-3.408-6.233-4.137
	c-1.452-1.126-2.322-2.949-2.127-4.937L1068.474,413.993z"/>
<path id="XMLID_136_" fill="#D48743" d="M1070.924,451.524h84.002c2.858,0,5.252-2.169,5.53-5.016l3.082-31.431
	c0.318-3.267-2.249-6.1-5.532-6.1h-84.002c-2.858,0-5.252,2.169-5.53,5.016l-3.082,31.431
	C1065.074,448.691,1067.64,451.524,1070.924,451.524"/>
<path id="XMLID_135_" fill="#88B3B3" d="M1143.089,655.279h8.266l-12.919-99.68c-0.933-7.126-7.055-12.5-14.241-12.5h-51.374
	c-4.134,0-8.07,1.781-10.798,4.889c-1.818,2.073-2.98,4.599-3.397,7.268c-0.182,1.177-8.343,100.023-8.343,100.023h8.309
	c0,0,8.195-98.543,8.368-99.258c0.227-0.924,0.675-1.787,1.33-2.532c1.163-1.324,2.77-2.053,4.531-2.053h51.374
	c3.014,0,5.583,2.254,5.975,5.243L1143.089,655.279z"/>
<path id="XMLID_134_" fill="#88B3B3" d="M1000.225,655.279c0,0,8.209-98.739,8.445-99.533c0.241-0.822,0.664-1.588,1.253-2.257
	c1.163-1.324,2.768-2.053,4.529-2.053h68.924v-8.337h-68.924c-4.134,0-8.07,1.781-10.795,4.889c-1.917,2.183-3.108,4.875-3.46,7.705
	c-0.128,1.038-8.28,99.587-8.28,99.587H1000.225z"/>
<rect id="XMLID_133_" x="998.804" y="529.871" fill="#A94B24" width="80.984" height="13.229"/>
<rect id="XMLID_132_" x="1069.829" y="529.871" fill="#A94B24" width="66.259" height="13.229"/>
<path id="XMLID_131_" fill="#E9977F" d="M1012.758,634.406c0,0,23.015,6.298,22.708,1.134c-0.445-7.486,2.104-23.488,2.104-23.488
	l-20.956-0.491L1012.758,634.406z"/>
<path id="XMLID_130_" fill="#E9977F" d="M933.546,634.803c0,0,22.583,5.901,22.277,0.74c-0.445-7.489,3.397-23.488,3.397-23.488
	l-19.821-1.341L933.546,634.803z"/>
<path id="XMLID_129_" fill="#D61D4D" d="M1031.083,390.267c0.403-1.007,0.817-2.002,1.233-2.989
	c4.282-10.106,10.73-14.042,21.526-15.449c10.966-1.429,23.652,0.848,32.866,7.234c4.478,3.105,5.756,6.692,7.605,11.797
	c0.187,0.513,2.722,8.683,2.674,8.816c-0.661,1.721,5.218,11.346,6.051,13.447c2.096,5.26,3.925,10.623,5.487,16.064
	c3.011,10.515,5.016,21.316,5.992,32.21c0.978,10.929,0.927,21.951-0.167,32.871c-0.615,6.162-0.715,12.352-1.421,18.506
	c-0.108,0.95-1.066,2.203-1.676,1.466c-13.095-15.948-28.589-13.952-47.977-13.838c-11.743,0.068-21.415-1.942-33.161-1.88
	c-0.502,0-1.611-13.946-2.047-30.297c-0.375-14.093-0.369-28.201-0.233-42.297C1027.895,419.875,1028.797,395.958,1031.083,390.267"
	/>
<path id="XMLID_128_" fill="#E9977F" d="M992.943,381.692c-0.014-0.204-0.031-0.408-0.054-0.612
	c-0.278-2.495-1.188-4.869-2.09-7.214c-1.401-3.632-3.27-6.99-4.668-10.628c-1.96-5.099-2.47-10.625-2.229-16.036
	c0.031-0.709,0.882-0.978,1.441-0.774c0.621,0.23,1.052,0.502,1.415,0.811c0.221-0.785,0.525-1.554,0.956-2.286
	c0.38-0.644,1.282-0.873,1.775-0.19c1.546,2.138,1.565,4.344,1.926,6.905c0.264,1.857,0.882,3.621,1.724,5.28
	c-0.61-3.08-0.698-6.224-0.258-9.505c0.045-0.354,0.318-0.678,0.649-0.797l1.279-0.46c0.542-0.196,1.112,0.071,1.333,0.596
	c1.443,3.443,1.469,7.072,2.555,10.628c1.863,6.088,9.709,12.111,9.758,18.571c0.014,1.829-0.703,3.581-1.506,5.226
	c-1.687,3.46-3.808,6.709-6.298,9.647c-0.145,0.17-0.298,0.343-0.505,0.422c-0.184,0.074-0.388,0.06-0.587,0.043
	c-2.994-0.258-5.915-1.338-8.36-3.091C992.617,386.408,993.09,384.006,992.943,381.692"/>
<path id="XMLID_127_" fill="#D61D4D" d="M970.146,459.968c1.214,1.979,3.187,3.119,6.162,3.046
	c17.423-0.44,18.701-30.268,21.222-41.169c2.487-10.747,4.974-21.494,7.464-32.242l-16.589-4.171
	c1.007,0.51-9.738,28.218-10.469,30.444C976.257,420.98,964.24,450.35,970.146,459.968"/>
<path id="XMLID_126_" fill="#D61D4D" d="M970.6,456.415c0.264,2.305,1.565,4.177,4.296,5.368
	c15.968,6.976,55.945-41.027,62.751-49.712c0,0-8.377-28.088-9.979-26.383C1023.985,389.601,969.318,445.2,970.6,456.415"/>
<path id="XMLID_125_" fill="#053547" d="M964.038,513.574c2.714-8.941,11.658-15.049,28.204-15.284
	c20.06-0.286,44.447-0.814,54.638-0.352c9.227,0.417-10.81,1.18-2.005,4.083c4.713,1.554,9.664,3.947,12.542,8.184
	c3.332,4.903-1.463,10.954-5.334,13.909c-4.517,3.445-10.316,4.857-15.846,5.609c-6.463,0.882-13.027,0.842-19.535,0.717
	c-1.772-0.034-17.468-1.353-18.078-0.173c-6.049,11.674-32.089,82.641-34.371,90.836c0,0-7.427,0.017-16.736-1.406
	c-6.735-1.029-14.933-4.634-14.933-4.634C931.142,604.526,960.993,523.61,964.038,513.574"/>
<path id="XMLID_124_" fill="#EB495C" d="M1027.668,385.69c1.9-2.714,4.429-4.926,7.064-6.936c5.651-4.31,13.058-9.865,20.374-9.891
	c7.713-0.026,15.628,0.956,23.085,2.924c12.086,3.19,22.955,15.911,29.812,25.884c9.63,14.008,19.226,28.051,28.689,42.173
	c2.563,3.825,5.107,8.348,5.413,13.041c0.142,2.169-0.332,4.361-1.815,6.017c-2.132,2.382-4.67,2.671-7.662,2.002
	c-2.076-0.465-4.041-1.353-5.864-2.43c-4.276-2.524-7.832-6.066-10.929-9.914c-1.591-1.979-24.761-29.82-32.216-39.416
	c-1.52,18.078-2.24,36.181-2.11,54.329c0.006,0.522-0.403,0.749-0.958,0.805c-0.13,0.828-0.267,1.656-0.4,2.484
	c-0.037,0.233-0.425,0.295-0.593,0.312c-12.673,1.117-51.533,0.754-51.488,1.151C1026.336,451.47,1025.357,388.994,1027.668,385.69"
	/>
<path id="XMLID_123_" fill="#8F4520" d="M1033.686,274.594c-0.026-0.009-0.054-0.02-0.079-0.028
	c-3.868-1.364-7.427-4.055-11.703-3.902c-11.417,0.414-21.339,6.63-31.093,11.95c-4.101,2.234-8.314,4.565-11.241,8.206
	c-3.267,4.064-4.599,9.42-4.642,14.635c-0.045,5.215,1.098,10.362,2.317,15.435c2.464-3.253,7.146-3.576,11.227-3.61
	c5.924-0.054,11.847-0.105,17.771-0.159c11.513-0.102,24.166,0.196,32.82,7.787c1.704,1.492,3.23,3.255,5.26,4.254
	c2.033,0.998,4.823,0.97,6.221-0.808c1.849-2.353,4.361-6.179,7.407-7.217c1.375-0.468-1.279-18.273-1.469-20.119
	c-0.828-7.892-4.083-21.188-12.372-24.381C1040.888,275.393,1037.015,275.742,1033.686,274.594"/>
<path id="XMLID_122_" fill="#E9977F" d="M1058.277,372.326c-0.406-2.739-2.521-4.756-4.483-6.953
	c-0.462-0.516-5.101-6.343-5.83-5.813c0,0-17.442,12.783-17.513,12.834c2.047-1.5,10.58,11.328,11.802,12.727
	c0.862,0.99,2.371,1.001,3.681,0.936c6.216-0.318,10.702-4.954,12.191-11.031C1058.365,374.044,1058.399,373.151,1058.277,372.326"
	/>
<path id="XMLID_121_" fill="#EFB79D" d="M1047.22,318.595c-2.328-4.571-4.965-9.012-8.592-12.744
	c-2.501-2.572-8.762-9.182-13.002-8.711c-10.191,1.126-34.329,2.881-45.896,15.979c-3.613,4.086-3.497,9.905-2.107,14.55
	c3.216,10.77,7.396,21.245,11.502,31.7c2.178,5.55,4.855,11.037,9.057,15.35c4.909,5.042,11.141,6.661,17.627,8.836
	c5.932,1.988,12.588,3.426,18.772,1.741c6.587-1.795,10.24-7.004,14.207-12.125c5.07-6.548,9.942-14.42,10.387-23.051
	c0.539-10.364-6.188-19.682-10.512-28.609C1048.193,320.535,1047.714,319.562,1047.22,318.595"/>
<path id="XMLID_120_" fill="#583634" d="M1033.294,339.636c-1.792,0.539-4.027,0.352-5.581-0.213
	c-0.423-0.153-0.182-1.316,0.269-1.253c4.024,0.561,8.575-1.412,10.813-4.693c0.252-0.369,1.667,0.397,1.415,0.768
	C1038.589,336.624,1036.139,338.782,1033.294,339.636"/>
<path id="XMLID_119_" fill="#945122" d="M1009.361,336.78c1.838,2.921,2.059,7.41,2.626,10.724
	c0.723,4.217,1.372,8.476,1.752,12.741c0.193,2.152-0.19,4.585,2.402,4.957c2.668,0.386,6.996-1.863,9.105-3.321
	c1.48-1.024-0.927-1.114-1.721-0.553c-2.203,1.563-5.807,3.358-7.225,0.017c-0.162-0.383-0.009-0.967-0.116-1.378
	c-0.669-2.49-0.695-5.36-1.106-7.909c-0.814-5.036-1.31-11.516-4.361-15.798C1010.427,335.856,1009.129,336.412,1009.361,336.78"/>
<path id="XMLID_118_" fill="#583634" d="M1032.651,365.339c0,0,0.164,0.802-0.167,1.957c-0.286,1.146-1.092,2.518-2.172,3.587
	c-1.086,1.069-2.399,1.832-3.474,2.209c-1.063,0.394-1.886,0.42-1.886,0.42s0.394-0.723,1.083-1.56
	c0.68-0.853,1.63-1.846,2.572-2.793c0.973-0.93,1.945-1.86,2.677-2.558C1032.027,365.897,1032.651,365.339,1032.651,365.339"/>
<path id="XMLID_117_" fill="#EFB79D" d="M1062.182,319.1c-1.058-0.922-2.887-1.432-4.755-0.99c-1.84,0.431-3.318,1.656-4.375,2.887
	c-1.358,1.582-2.271,3.309-2.649,5.011l3.23,14.32c2.186,0.045,4.67,0.011,6.565-1.148c1.979-1.208,2.481-3.122,2.807-4.806
	c0.771-3.993,1.546-8.039,0.876-11.814C1063.653,321.286,1063.242,320.018,1062.182,319.1"/>
<path id="XMLID_116_" fill="#583634" d="M999.139,351.123c1.752-0.658,3.582-1.863,4.71-3.59c0.247-0.374-0.672-1.151-0.99-0.828
	c-2.833,2.878-7.654,4.069-11.459,2.827c-0.428-0.139-1.069,1.321-0.641,1.463C993.516,351.895,996.36,352.167,999.139,351.123"/>
<path id="XMLID_115_" fill="#E9977F" d="M1058.552,321.694c-2.215,0.057-3.888,1.548-4.37,3.695
	c-0.338,1.506-0.159,3.034,0.524,4.407c0.496,1.004,0.837,1.285,0.919,2.566c0.06,0.893-0.02,1.469,0.323,2.3
	c0.164,0.406,0.882,0.301,1.191,0.224c1.71-0.414,3.477-1.548,3.457-3.519c-0.02-1.863-1.591-3.088-3.326-3.162
	c-0.51-0.023-2.836,1.177-1.682,1.46c0.817,0.204,1.424,0.465,1.894,1.174c0.34,0.516,0.953,2.334-0.102,2.589
	c0.4,0.077,0.797,0.15,1.194,0.227c-0.394-0.964-0.119-1.886-0.346-2.856c-0.219-0.924-0.726-1.483-1.14-2.311
	c-0.749-1.494-1.12-5.484,1.157-5.995C1058.705,322.392,1059.465,321.672,1058.552,321.694"/>
<path id="XMLID_114_" fill="#8F4520" d="M1033.51,322.667c-5.396,1.268-9.199,3.732-12.763,7.926
	c-1.01,1.185-4.608-0.604-4.299-0.984c4.475-5.462,11.692-9.165,18.667-9.565C1037.528,319.905,1034.42,322.454,1033.51,322.667"/>
<path id="XMLID_113_" fill="#8F4520" d="M987.101,338.354c4.305-2.889,8.32-3.808,13.26-3.329c1.398,0.133,2.623-3.667,2.18-3.72
	c-6.323-0.743-13.333,1.699-18.126,6.312C982.76,339.213,986.375,338.842,987.101,338.354"/>
<path id="XMLID_112_" fill="#9E5925" d="M977.443,344.031c-0.613,0.145-1.231,0.252-1.857,0.318
	c0.703-2.944,0.919-6.377,0.003-9.275c-2.053,2.016-6.806,2.203-8.221,4.721c2.697-4.804,2.895-10.926,0.513-15.894
	c-1.974,1.786-4.234,3.261-6.664,4.35c2.402-7.393,2.033-15.372,3.321-23.037c2.124-12.659,10.56-19.158,21.705-24.189
	c12.902-5.822,33.064-11.34,46.003-3.987c3.508,1.993,7.441,2.887,10.265,5.745c7.191,7.279,10.784,18.032,9.658,28.269
	c-0.306-3.264-1.526-6.411-3.488-9.015c2.87,10.43,3.133,21.619,0.757,32.338c0.576-2.595-1.772-7.583-2.603-10.024
	c-1.242-3.661-2.802-7.217-4.738-10.56c-3.23-5.572-7.018-10.529-12.795-13.662c-1.185,6.5-5.408,12.131-10.529,16.302
	c-5.124,4.171-11.142,7.072-17.096,9.933c0.556-1.5,1.109-2.997,1.662-4.497c-3.221,2.552-5.793,5.81-8.521,8.884
	C990.328,335.805,984.379,342.378,977.443,344.031"/>
<path id="XMLID_111_" fill="#44606A" d="M1016.819,514.862c6.59-21.71,35.934-16.682,53.26-15.897
	c9.23,0.42,18.772,1.44,27.577,4.344c4.713,1.554,9.664,3.947,12.542,8.181c3.329,4.906-1.463,10.957-5.337,13.912
	c-4.515,3.445-10.313,4.858-15.843,5.609c-6.462,0.882-13.027,0.842-19.535,0.717c-1.772-0.034-17.468-1.355-18.08-0.173
	c-6.049,11.674-6.857,80.721-9.137,88.913c0,0-8.714,1.426-18.024,0c-6.735-1.029-14.198-2.317-14.198-2.317
	C1008.601,607.614,1013.774,524.897,1016.819,514.862"/>
<path id="XMLID_110_" fill="#54BCC2" d="M1038.231,628.093c-0.649-0.87-1.432-1.077-2.365-0.195
	c-3.114,2.926-7.072,3.811-9.942,0.077c-0.454-0.587-1.044-1.163-1.781-1.217c-0.788-0.054-1.48,0.493-2.246,0.695
	c0.161-0.042,1.347-1.653,1.492-1.891c0.456-0.763,0.51-1.701,0.142-2.532c-0.595-1.341-2.144-2.711-3.352-3.465
	c-1.534-0.959-3.213-1.69-4.96-2.155c-1.435-0.383-3.028-0.576-4.344,0.108c-1.344,0.695-2.098,2.13-2.847,3.442
	c-4.123,7.214-9.729,11.768-17.777,13.92c-1.591,0.425-3.238,0.746-4.673,1.557c-1.903,1.08-3.267,2.952-4.069,4.988
	c-0.973,2.456-1.965,6.341-0.734,8.862c1.764,3.613,10.52,1.812,13.739,1.784c6.641-0.054,13.282-0.142,19.921-0.255
	c3.27,0,6.584-0.564,9.809-1.035c4.616-0.672,10.483,0.338,14.666-2.025c1.704-0.964,2.101-3.218,2.178-5.175
	C1041.146,642.102,1040.483,631.108,1038.231,628.093"/>
<rect id="XMLID_109_" x="979.547" y="647.799" fill="#26A4B0" width="62.062" height="7.237"/>
<path id="XMLID_108_" fill="#44606A" d="M997.641,642.879c-0.377,0-0.723-0.249-0.828-0.63c-0.783-2.824-2.793-5.334-5.376-6.712
	c-0.275-0.15-0.576-0.258-0.822-0.269c-0.474,0.06-0.902-0.258-0.97-0.729c-0.068-0.468,0.258-0.902,0.729-0.97
	c0.709-0.119,1.344,0.17,1.872,0.451c2.992,1.596,5.32,4.503,6.224,7.773c0.125,0.457-0.142,0.927-0.601,1.058
	C997.794,642.87,997.715,642.879,997.641,642.879"/>
<path id="XMLID_107_" fill="#44606A" d="M1004.549,639.799c-0.264,0-0.524-0.119-0.695-0.351c-0.44-0.601-0.803-1.228-1.157-1.849
	c-0.567-0.99-1.103-1.925-1.974-2.691c-1.353-1.188-3.003-1.846-4.773-1.906c-0.474-0.017-0.845-0.414-0.828-0.89
	c0.017-0.474,0.448-0.857,0.89-0.828c2.138,0.074,4.214,0.902,5.844,2.334c1.083,0.95,1.719,2.059,2.334,3.128
	c0.32,0.564,0.647,1.137,1.052,1.687c0.278,0.383,0.193,0.922-0.187,1.203C1004.904,639.745,1004.728,639.799,1004.549,639.799"/>
<path id="XMLID_106_" fill="#44606A" d="M1011.899,636.184c-0.298,0-0.59-0.156-0.748-0.437c-1.044-1.84-2.184-3.224-3.482-4.22
	c-1.506-1.154-3.145-1.786-4.866-1.698c-0.198,0.006-0.4,0.023-0.601,0.04c-0.369,0.031-0.726,0.054-1.103,0.048
	c-0.474-0.014-0.845-0.411-0.834-0.888c0.014-0.474,0.417-0.845,0.888-0.831c0.284,0.02,0.607-0.017,0.913-0.042
	c0.224-0.02,0.448-0.037,0.678-0.045c1.954-0.06,4.146,0.658,5.972,2.053c1.483,1.143,2.77,2.688,3.933,4.738
	c0.232,0.414,0.085,0.936-0.326,1.171C1012.188,636.147,1012.044,636.184,1011.899,636.184"/>
<path id="XMLID_105_" fill="#44606A" d="M1018.24,632.177c-0.255,0-0.508-0.113-0.675-0.329c-0.269-0.343-0.522-0.678-0.774-1.01
	c-1.296-1.707-2.41-3.184-4.409-4.078c-2.269-1.018-4.823-1.14-7.038-1.1h-0.008c-0.471,0-0.854-0.38-0.859-0.848
	c-0.006-0.474,0.374-0.865,0.848-0.871c2.22-0.057,5.167,0.088,7.758,1.248c2.402,1.078,3.701,2.793,5.079,4.611
	c0.244,0.323,0.493,0.655,0.754,0.987c0.295,0.374,0.227,0.913-0.145,1.205C1018.611,632.117,1018.424,632.177,1018.24,632.177"/>
<path id="XMLID_104_" fill="#54BCC2" d="M958.824,627.529c-0.238-0.576-0.607-1.058-1.197-1.14
	c-0.445-0.062-0.885,0.139-1.265,0.377c-3.865,2.407-7.149,6.233-11.011,1.208c-0.454-0.587-1.041-1.163-1.781-1.217
	c-0.788-0.057-1.48,0.493-2.246,0.692c0.161-0.04,1.347-1.651,1.492-1.889c0.459-0.766,0.51-1.701,0.142-2.532
	c-0.596-1.344-2.144-2.711-3.352-3.468c-1.534-0.958-3.213-1.687-4.96-2.155c-1.435-0.383-3.029-0.573-4.344,0.111
	c-1.341,0.695-2.098,2.127-2.847,3.44c-4.123,7.217-9.729,11.771-17.78,13.923c-1.591,0.425-3.238,0.746-4.67,1.557
	c-1.903,1.077-3.264,2.952-4.069,4.985c-0.97,2.458-1.965,6.343-0.734,8.864c1.764,3.613,10.52,1.812,13.742,1.784
	c6.638-0.057,13.279-0.142,19.921-0.258c3.939-0.068,7.77-1.072,11.68-1.31c4.495-0.272,8.904,0.005,13.401-0.641
	c0.383-0.057,0.788-0.125,1.066-0.391c0.337-0.32,0.391-0.828,0.42-1.293c0.408-6.573-0.037-13.2-1.321-19.66
	C959.045,628.193,958.954,627.847,958.824,627.529"/>
<rect id="XMLID_103_" x="898.974" y="647.799" fill="#26A4B0" width="62.062" height="7.237"/>
<path id="XMLID_102_" fill="#44606A" d="M917.071,642.879c-0.38,0-0.723-0.249-0.831-0.63c-0.783-2.824-2.79-5.334-5.376-6.712
	c-0.272-0.15-0.576-0.258-0.822-0.269c-0.474,0.06-0.902-0.258-0.967-0.729c-0.071-0.468,0.258-0.902,0.726-0.97
	c0.709-0.119,1.344,0.17,1.872,0.451c2.995,1.596,5.323,4.503,6.227,7.773c0.125,0.457-0.142,0.927-0.598,1.058
	C917.224,642.87,917.142,642.879,917.071,642.879"/>
<path id="XMLID_101_" fill="#44606A" d="M923.976,639.799c-0.267,0-0.525-0.119-0.695-0.351c-0.44-0.601-0.802-1.228-1.157-1.849
	c-0.57-0.99-1.106-1.925-1.974-2.691c-1.353-1.188-3.003-1.846-4.773-1.906c-0.474-0.017-0.845-0.414-0.828-0.89
	c0.017-0.474,0.448-0.857,0.888-0.828c2.138,0.074,4.217,0.902,5.847,2.334c1.083,0.95,1.719,2.059,2.331,3.128
	c0.323,0.564,0.649,1.137,1.055,1.687c0.278,0.383,0.193,0.922-0.19,1.203C924.33,639.745,924.152,639.799,923.976,639.799"/>
<path id="XMLID_100_" fill="#44606A" d="M931.326,636.184c-0.298,0-0.59-0.156-0.749-0.437c-1.044-1.84-2.183-3.224-3.482-4.22
	c-1.506-1.154-3.145-1.786-4.866-1.698c-0.199,0.006-0.4,0.023-0.601,0.04c-0.369,0.031-0.723,0.054-1.103,0.048
	c-0.474-0.014-0.845-0.411-0.833-0.888c0.014-0.474,0.417-0.845,0.888-0.831c0.286,0.02,0.607-0.017,0.913-0.042
	c0.224-0.02,0.448-0.037,0.678-0.045c1.954-0.06,4.146,0.658,5.972,2.053c1.483,1.143,2.771,2.688,3.933,4.738
	c0.233,0.414,0.088,0.936-0.326,1.171C931.615,636.147,931.471,636.184,931.326,636.184"/>
<path id="XMLID_99_" fill="#44606A" d="M937.667,632.177c-0.255,0-0.508-0.113-0.675-0.329c-0.269-0.343-0.522-0.678-0.774-1.01
	c-1.296-1.707-2.41-3.184-4.409-4.078c-2.269-1.018-4.823-1.14-7.035-1.1h-0.011c-0.471,0-0.853-0.38-0.859-0.848
	c-0.006-0.474,0.374-0.865,0.848-0.871c2.22-0.057,5.167,0.088,7.758,1.248c2.402,1.078,3.701,2.793,5.079,4.611
	c0.244,0.323,0.493,0.655,0.754,0.987c0.295,0.374,0.227,0.913-0.145,1.205C938.038,632.117,937.851,632.177,937.667,632.177"/>
<path id="XMLID_98_" fill="#EFB79D" d="M1071.219,438.902c0.065-0.133,0.145-0.261,0.235-0.38c1.387-1.806,4.132-1.744,6.139-1.333
	c2.558,0.525,4.818,2.096,6.647,3.922c1.696,1.693,2.317,3.791,4.288,5.252c1.996,1.48,5.209,2.07,5.7,4.951
	c0.255,1.506-0.53,2.975-1.287,4.302c-3.692-0.496-7.248-1.965-10.214-4.217c-1.733-1.313-3.309-2.96-4.024-5.013
	c-0.55-1.571-1.007-3.298-2.064-4.622c-1.055-1.316-2.737-1.288-4.308-0.91c-0.289,0.071-0.612,0.159-0.873,0.011
	c-0.15-0.085-0.252-0.235-0.323-0.394C1070.916,439.974,1070.978,439.392,1071.219,438.902"/>
<path id="XMLID_97_" fill="#FFD85C" d="M1090.309,427.644c0.42,0.559,0.53,1.168,0.295,1.452l0.02,0.029l-36.45,27.466l-0.995-1.321
	l36.935-27.835C1090.178,427.503,1090.246,427.565,1090.309,427.644"/>
<path id="XMLID_96_" fill="#F9B418" d="M1090.113,427.435l-36.935,27.835l-0.655-0.868l36.45-27.469l0.02,0.029
	C1089.282,426.833,1089.725,427.029,1090.113,427.435"/>
<path id="XMLID_95_" fill="#FFD85C" d="M1048.931,458.956c0,0,5.221-2.348,5.243-2.365c0.318-0.241,0.207-0.927-0.247-1.531
	c-0.457-0.607-1.086-0.902-1.406-0.661C1052.432,454.467,1048.931,458.956,1048.931,458.956"/>
<path id="XMLID_94_" fill="#010101" d="M1049.801,457.876l-0.87,1.08l1.276-0.547c-0.079-0.079-0.161-0.153-0.233-0.25
	C1049.903,458.069,1049.855,457.972,1049.801,457.876"/>
<path id="XMLID_93_" fill="#EFB79D" d="M1059.618,442.517c0.009-0.264,0.071-0.522,0.196-0.754c0.828-1.545,3.391-1.642,4.928-1.838
	c1.75-0.221,3.496-0.062,5.238,0.147c3.859,0.462,6.633,3.511,10.54,3.295c0.998-0.054,1.991-0.261,2.992-0.213
	c2.68,0.128,4.707,3.238,7.146,4.293c1.977,0.856,4.075,1.514,6,2.464c4.151,2.047,3.312,9.182-0.026,11.669
	c-3.391,2.524-8.124,2.198-12.162,2.374c-3.176,0-6.301,0.054-9.468-0.318c-3.043-0.357-6.023-1.072-9.043-1.605
	c-0.321-0.057-1.174-0.777-1.259-1.018c-0.184-0.525-0.374-1.095-0.215-1.628c0.505-1.724,3.04-1.058,4.307-1.364
	c0.096-0.153,0.048-0.366-0.074-0.502c-0.119-0.133-0.295-0.204-0.471-0.25c-0.57-0.142-2.827-0.539-3.278-0.882
	c-0.998-0.757-1.548-1.61-1.39-2.852c0.048-0.372,0.159-0.749,0.411-1.027c0.845-0.924,3.003-0.621,4.041-0.414
	c0.275,0.054,0.528-0.224,0.252-0.692c-0.241-0.411-1.857-0.499-2.303-0.61c-1.123-0.281-2.286-0.496-3.443-0.323
	c-0.848,0.125-1.801,0.431-2.495-0.071c-0.184-0.133-0.329-0.312-0.468-0.491c-0.204-0.264-0.411-0.559-0.397-0.893
	c0.011-0.284,0.184-0.533,0.366-0.751c1.086-1.316,2.756-2.127,4.46-2.175c1.08-0.028,2.237-0.088,3.292-0.042
	c1.27,0.057,2.45,0.51,3.749,0.383c0.085-0.008,0.173-0.023,0.23-0.085c0.04-0.045,0.054-0.108,0.057-0.167
	c0.031-0.576-4.492-1.665-6.151-1.716c-1.458-0.045-3.306,0.491-4.645-0.25C1059.942,443.884,1059.598,443.192,1059.618,442.517"/>
<path id="XMLID_92_" fill="#EB495C" d="M1091.222,446.816c0.105-0.417,34.36-6.896,39.399-5.487
	c7.886,2.203,18.282,14.78,6.474,19.75c-11.51,4.846-30.563,4.469-42.601,2.875c-0.388-0.051,0.624-5.419-0.4-10.217
	C1092.864,447.968,1091.142,447.134,1091.222,446.816"/>
<path id="XMLID_91_" fill="#88B3B3" d="M859.004,655.038l11.575-161.637c0.366-5.133,4.687-9.156,9.834-9.156h123.049
	c2.005,0,3.874,0.8,5.258,2.252c1.384,1.452,2.095,3.355,1.999,5.357l4.741,163.185h8.328l-4.741-162.786
	c0.204-4.302-1.319-8.391-4.29-11.51c-2.975-3.117-6.984-4.835-11.295-4.835H880.414c-9.5,0-17.474,7.424-18.154,16.901
	l-11.573,162.23H859.004z"/>
<path id="XMLID_90_" fill="#88B3B3" d="M1119.808,655.038h8.317l-11.649-163.276c-0.635-8.89-8.116-15.854-17.031-15.854H959.189
	v8.337h140.256c4.56,0,8.388,3.565,8.714,8.113L1119.808,655.038z"/>
<rect id="XMLID_89_" x="860.944" y="463.28" fill="#D48743" width="153.952" height="13.365"/>
<rect id="XMLID_88_" x="1014.896" y="463.28" fill="#A94B24" width="110.047" height="13.365"/>
<rect id="XMLID_87_" x="979.11" y="454.736" fill="#D9DBDB" width="9.38" height="6.142"/>
<rect id="XMLID_86_" x="941.106" y="460.711" fill="#98C13D" width="113.691" height="2.569"/>
<path id="XMLID_85_" fill="#FFFFFF" d="M1023.197,455.695l-33.291-1.137c-3.383,0-6.122,2.742-6.122,6.122v0.201h39.413V455.695z"/>
<path id="XMLID_84_" fill="#FFFFFF" d="M941.109,455.695l36.549-1.137c3.38,0,6.122,2.742,6.122,6.122v0.201h-42.671V455.695z"/>
<polygon id="XMLID_83_" fill="#D9DBDB" points="1052.994,460.879 1023.197,460.879 1023.197,455.692 1052.994,456.982 "/>
<path id="XMLID_82_" fill="#648887" d="M762.724,655.279h8.266l-12.919-99.68c-0.933-7.126-7.055-12.5-14.241-12.5v8.337
	c3.014,0,5.583,2.254,5.975,5.243L762.724,655.279z"/>
<path id="XMLID_81_" fill="#676F7D" d="M709.964,551.439h31.975c10.858,0,19.7-8.805,19.762-19.651l4.163-83.188l-8.328-0.417
	l-4.174,83.494c0,6.301-5.124,11.422-11.422,11.422h-31.975V551.439z"/>
<path id="XMLID_80_" fill="#88B3B3" d="M751.657,551.439h61.155c10.861,0,19.705-8.805,19.765-19.651l4.163-83.188l-8.331-0.417
	l-4.174,83.494c0,6.301-5.121,11.422-11.422,11.422h-61.155V551.439z"/>
<path id="XMLID_79_" fill="#A94B24" d="M746.476,413.993c0.281-2.844,2.671-5.016,5.533-5.016h84.002
	c1.191,0,2.285,0.377,3.179,1.012c1.061,0.751,5.359,3.531,6.258,4.16c1.58,1.106,2.549,3.014,2.345,5.096l-3.077,31.434
	c-0.281,2.844-2.674,5.017-5.532,5.017h-84.002c-1.304,0-2.49-0.451-3.426-1.197c-0.936-0.746-5.294-3.408-6.23-4.137
	c-1.452-1.126-2.325-2.949-2.13-4.937L746.476,413.993z"/>
<path id="XMLID_78_" fill="#D48743" d="M748.929,451.524h84.002c2.858,0,5.252-2.169,5.53-5.016l3.082-31.431
	c0.318-3.267-2.249-6.1-5.532-6.1h-84.002c-2.858,0-5.252,2.169-5.533,5.016l-3.079,31.431
	C743.079,448.691,745.645,451.524,748.929,451.524"/>
<path id="XMLID_77_" fill="#88B3B3" d="M821.091,655.279h8.269l-12.922-99.68c-0.933-7.126-7.055-12.5-14.241-12.5h-51.374
	c-4.135,0-8.07,1.781-10.796,4.889c-1.82,2.073-2.983,4.599-3.4,7.268c-0.182,1.177-8.34,100.023-8.34,100.023h8.309
	c0,0,8.192-98.543,8.368-99.258c0.224-0.924,0.675-1.787,1.33-2.532c1.16-1.324,2.768-2.053,4.529-2.053h51.374
	c3.014,0,5.583,2.254,5.975,5.243L821.091,655.279z"/>
<path id="XMLID_76_" fill="#88B3B3" d="M678.227,655.279c0,0,8.209-98.739,8.445-99.533c0.241-0.822,0.664-1.588,1.253-2.257
	c1.163-1.324,2.77-2.053,4.531-2.053h68.921v-8.337h-68.921c-4.134,0-8.07,1.781-10.798,4.889c-1.917,2.183-3.105,4.875-3.457,7.705
	c-0.13,1.038-8.283,99.587-8.283,99.587H678.227z"/>
<rect id="XMLID_75_" x="676.806" y="529.871" fill="#A94B24" width="80.984" height="13.229"/>
<rect id="XMLID_74_" x="747.831" y="529.871" fill="#A94B24" width="66.262" height="13.229"/>
<path id="XMLID_73_" fill="#5EA88D" d="M709.084,390.267c0.403-1.007,0.82-2.002,1.236-2.989
	c4.282-10.106,10.727-14.042,21.523-15.449c7.404-0.967,22.756-1.154,28.524,4.738c6.08,6.21,7.546,22.365,9.449,30.569
	c5.572,23.993,11.144,47.983,16.714,71.975c2.787,12.006,5.589,24.444,3.235,36.541c-1.242-7.412-14.547-12.67-20.825-14.088
	c-9.006-2.036-18.508-1.217-27.662-1.163c-11.743,0.068-21.418-1.942-33.158-1.88c-0.502,0-1.611-13.946-2.047-30.297
	c-0.377-14.093-0.369-28.201-0.233-42.297C705.9,419.875,706.799,395.958,709.084,390.267"/>
<path id="XMLID_72_" fill="#5EA88D" d="M705.67,385.69c1.9-2.714,4.429-4.926,7.064-6.936c5.651-4.31,18.35-10.265,25.666-10.291
	c7.713-0.026,15.628,0.958,23.085,2.926c12.086,3.188,17.664,16.308,24.52,26.281c9.63,14.008,19.229,28.051,28.689,42.173
	c2.564,3.825,5.107,8.348,5.413,13.041c0.142,2.169-0.329,4.361-1.812,6.017c-2.132,2.382-4.673,2.671-7.665,2.002
	c-2.073-0.465-4.038-1.353-5.864-2.43c-4.276-2.524-7.832-6.066-10.926-9.914c-1.594-1.979-24.764-29.82-32.219-39.416
	c-1.52,18.078-2.237,36.181-2.107,54.329c0.003,0.522-0.406,0.749-0.958,0.805c-0.133,0.828-0.267,1.656-0.403,2.484
	c-0.037,0.233-0.425,0.295-0.593,0.312c-12.67,1.117-51.53,0.754-51.487,1.151C704.34,451.47,703.359,388.994,705.67,385.69"/>
<path id="XMLID_71_" fill="#E9977F" d="M666.572,353.284c0.037-0.338,0.057-0.695,0.06-1.069c0.028-2.558-0.417-5.263-1.239-7.682
	c-0.652-1.928-3.338-6.457-5.303-2.714c-0.462,0.882-0.51,1.917-0.55,2.915c-0.896-0.38-1.943,0.397-2.215,1.333
	c-0.269,0.936,0,1.931,0.269,2.867c-0.162-0.596-0.987-0.822-1.52-0.51c-0.533,0.312-0.768,0.984-0.729,1.599
	c0.034,0.618,0.295,1.197,0.55,1.758c0.93,2.053,1.86,4.103,2.793,6.156c0.323,0.717,0.666,1.458,1.253,1.982
	C662.919,362.602,666.339,355.479,666.572,353.284"/>
<path id="XMLID_70_" fill="#EFB79D" d="M679.639,354.722c-0.757-2.13-2.422-4.305-3.604-5.827c-2.484-3.196-5.549-5.867-8.654-8.439
	c-0.868-0.72-8.487-7.62-7.688-2.186c0.102,0.692,0.669,1.208,1.202,1.662c4.29,3.664,5.362,10.294,7.197,15.557
	c0.871,2.493,1.407,4.543,0.842,7.155c-0.457,2.118-3.808,7.285-1.262,8.864c0.618,0.383,1.424,0.332,2.093,0.051
	c0.664-0.284,1.219-0.774,1.758-1.259c1.86-1.684,3.678-3.448,5.13-5.496c1.426-2.005,3.414-5.473,3.391-8.036
	C680.039,356.105,679.885,355.417,679.639,354.722"/>
<path id="XMLID_69_" fill="#FFD85C" d="M686.189,358.774c-0.406,0.567-0.956,0.856-1.299,0.717l-0.017,0.028l-37.119-26.562
	l0.967-1.347l37.61,26.914C686.285,358.609,686.249,358.692,686.189,358.774"/>
<path id="XMLID_68_" fill="#F9B418" d="M686.331,358.524l-37.613-26.914l0.632-0.885l37.116,26.562l-0.017,0.026
	C686.654,357.552,686.6,358.034,686.331,358.524"/>
<path id="XMLID_67_" fill="#FFD85C" d="M643.929,328.665c0,0,3.803,4.279,3.825,4.293c0.326,0.233,0.947-0.077,1.389-0.692
	c0.44-0.618,0.533-1.304,0.207-1.54C649.26,330.664,643.929,328.665,643.929,328.665"/>
<path id="XMLID_66_" fill="#010101" d="M645.222,329.172l-1.293-0.507l0.905,1.052c0.054-0.099,0.099-0.199,0.167-0.295
	C645.069,329.325,645.148,329.252,645.222,329.172"/>
<path id="XMLID_65_" fill="#EFB79D" d="M675.779,365.163c0.179-0.927,0.284-1.86,0.218-2.802c-0.32-4.636-4.001-10.345-5.87-14.584
	c-1.185-2.694-2.807-5.399-4.923-7.466c-1.313-1.282-6.607-4.823-6.463-0.57c0.034,0.958,0.496,1.846,0.947,2.694
	c0.82,1.54,1.636,3.082,2.459,4.625c1.883,3.542,1.293,5.014-1.055,8.034c-2.013,2.589-2.748,6.125-1.934,9.301
	c0.284,1.1,0.737,2.15,1.041,3.247c0.638,2.317,0.573,4.764,0.505,7.169c-0.133,4.684-3.457,44.934-3.59,49.619
	c2.847,0.825,14.283-3.774,17.235-4.03c-0.193-13.617-1.205-45.397,0.817-52.755C675.391,366.824,675.618,365.996,675.779,365.163"
	/>
<path id="XMLID_64_" fill="#1E907F" d="M661.034,455.783c0.53,2.26,2.044,3.964,4.894,4.829c5.703,1.73,11.89-2.841,16.036-6.179
	c6.945-5.589,12.877-12.446,18.449-19.362c5.615-6.97,10.866-14.235,15.86-21.659c2.155-3.199,3.95-6.652,6.199-9.746
	c3.474-4.778,8.008-9.46,8.686-15.608c0.377-3.392-0.576-6.91-2.609-9.647c-1.985-2.671-5.24-4.634-8.538-4.197
	c-1.248,0.164-2.43,0.658-3.562,1.208c-2.779,1.356-5.359,3.108-7.645,5.186c-5.291,4.795-9.429,11.485-13.668,17.215
	c-5.249,7.095-10.407,14.258-15.381,21.546c-4.872,7.143-9.661,14.397-13.77,22.011C663.974,445.109,659.97,451.251,661.034,455.783
	"/>
<path id="XMLID_63_" fill="#FFFFFF" d="M710.777,388.662c2.98-10.149,9.105-18.27,22.331-18.316
	c7.302-0.026,11.984-0.652,16.115,6.55c5.969,10.404,13.01,103.018,13.884,120.44c0.008,0.125,0.159,2.481,0.116,2.487
	c-12.673,1.106-51.513,0.746-51.488,1.14c-0.995-17.794-2.867-35.577-4.01-53.37c-0.709-10.98-1.588-21.826-0.55-32.806
	c0.397-4.143,0.788-8.289,1.18-12.432C708.795,397.736,709.498,393.012,710.777,388.662"/>
<path fill="#814723" d="M693.638,280.673c-1.591,2.07-4.319,7.512-6.749,13.16c0.468-2.759,1.14-5.459,2.266-7.855
	C690.199,283.756,691.781,282.08,693.638,280.673 M690.763,285.585c-0.698,3.4-1.052,7.336,1.219,9.962
	c1.943,2.24,4.064,1.778,5.663-0.284c2.447-3.156,6.386-4.546,10.05-6.38c2.073-1.038,4.171-2.081,6.46-2.595
	c4.455-1.001,9.315,0.139,13.328,2.467c3.258,1.892,6.919,4.866,8.856,8.076c0.576,0.959,2.629,7.798,3.145,7.739
	c1.5-0.164,2.203-1.009,3.034-2.189c1.381-1.962,3.091-3.698,5.05-5.124c1.497-1.089,3.522-2.022,5.252-1.174
	c2.152,1.052,2.234,3.919,1.994,6.187c-0.17,1.585-0.338,3.168-0.505,4.753c-0.074,0.697-0.15,1.404-0.057,2.107
	c0.079,0.627,0.292,1.234,0.434,1.855c0.459,2.053,0.111,4.166-0.366,6.185c-1.083,4.588-3.539,8.286-4.322,13.007
	c-1.08,6.448-4.628,12.959-7.217,18.871c-0.961,2.192-1.197,5.172,0.729,6.593c0.768,0.567,1.744,0.766,2.688,0.922
	c6.304,1.044,13.019,0.683,19.03-1.582c10.336-3.896,19.013-13.855,18.857-25.255c-0.051-3.743-0.936-7.693,0.627-11.096
	c0.539-1.171,1.35-2.218,1.753-3.442c0.508-1.546,0.32-3.219,0.125-4.832c-0.632-5.198-1.347-10.534-3.899-15.108
	c-1.31-2.348-3.06-4.412-4.804-6.462c-3.596-4.234-6.494-7.886-11.218-10.852c-5.249-3.298-11.246-6.105-17.61-5.49
	c-1.517,0.147-3.017,0.488-4.537,0.51c-6.091,0.085-12.429-1.48-18.506-1.897c-4.48-0.306-8.629,1.364-12.922,2.325
	c-4.373,0.981-8.912,0.544-13.217,1.891c-3.23,1.012-6.292,3.031-7.807,6.06c-0.406,0.808-0.689,1.667-0.919,2.544
	C691.004,284.439,690.882,285.012,690.763,285.585"/>
<path id="XMLID_60_" fill="#E9977F" d="M741.045,371.211c0.105,0.284,0.167,0.587,0.207,0.888c0.309,2.303-0.732,4.432-1.707,6.449
	c-0.992,2.053-2.178,4.012-3.616,5.788c-3.644,4.495-15.528,10.484-19.43,2.977c-0.93-1.789-0.817-3.925-0.556-5.921
	c0.216-1.613,0.544-3.295,1.579-4.548c0.672-0.817,2.124-1.741,2.181-2.909c0.079-1.642-1.424-1.767-1.923-2.986
	c-1.143-2.79,1.361-4.716,3.227-6.468c2.266-2.127,4.602-4.299,7.492-5.442c0.808-0.318,1.733-0.547,2.529-0.196
	c0.542,0.238,0.936,0.712,1.313,1.168c1.602,1.951,1.77,4.387,3.462,6.352c0.57,0.661,1.1,1.333,1.747,1.922
	c0.55,0.499,1.143,0.91,1.772,1.302c0.53,0.332,1.166,0.624,1.503,1.171C740.918,370.902,740.986,371.052,741.045,371.211"/>
<path id="XMLID_59_" fill="#EFB79D" d="M686.929,318.076c0.068,0.13,0.167,0.227,0.25,0.34c-0.079,0.232-0.139,0.474-0.227,0.706
	L686.929,318.076z"/>
<path id="XMLID_58_" fill="#EFB79D" d="M697.935,289.294c1.483-1.605,3.099-3.122,5.008-4.248c5.762-3.397,13.2-2.75,20.009-1.69
	c6.284,0.978,12.61,2.24,18.387,4.92c4.631,2.147,8.833,5.192,12.27,8.887c1.781,1.914,3.377,4.032,4.344,6.412
	c1.009,2.487,1.296,5.172,1.267,7.812c-0.088,8.056-3.15,15.959-8.521,21.994c-1.177,1.321-2.688,2.648-4.531,2.558
	c-1.268-0.062-2.402-0.791-3.465-1.483c-7.342-4.781-15.052-9.136-23.36-12.006c-8.306-2.872-17.272-4.214-25.856-2.887
	c-2.215,0.343-5.05,0.544-6.304-1.148c1.795-5.311,1.565-11.173,3.176-16.563C691.767,297.14,694.569,292.932,697.935,289.294"/>
<path id="XMLID_57_" fill="#EFB79D" d="M763.532,341.66c0.094-0.814-0.006-1.681-0.456-2.393c-0.698-1.112-2.098-1.648-3.428-1.792
	c-2.552-0.275-5.175,0.675-6.851,2.481l-8.575,13.143c-0.451,1.883,0.802,4.049,2.731,4.719c1.611,0.559,3.42,0.111,4.812-0.774
	c1.392-0.888,2.444-2.166,3.477-3.426c1.784-2.175,3.564-4.35,5.345-6.528C761.916,345.469,763.294,343.736,763.532,341.66"/>
<path id="XMLID_56_" fill="#EFB79D" d="M687.253,314.557c3.525-7.242,10.478-13.903,17.434-18.168
	c4.665-2.861,10.288-4.648,15.874-3.879c1.818,0.252,3.595,0.766,5.362,1.279c6.879,1.994,14.091,4.174,19.158,9.137
	c8.442,8.269,10.033,22.039,7.719,32.59c-1.594,7.268-3.851,18.14-8.961,23.947c-4.599,5.223-10.248,8.499-16.521,11.777
	c-7.381,3.859-19.495,4.591-28,1.225c-8.983-3.55-10.787-9.389-14.252-17.295c-2.283-5.212-4.455-11.873-4.798-17.508
	C679.826,330.462,684.204,320.821,687.253,314.557"/>
<path id="XMLID_55_" fill="#E9977F" d="M760.81,342.327c-1.682-1.129-3.661-0.964-5.47-0.128c-0.89,0.414-1.665,0.998-2.376,1.67
	c-0.669,0.629-1.389,1.9-2.288,2.181c-0.522,0.165-1.977,0.953-1.647,1.718c0.383,0.896,0.36,1.072-0.295,1.614
	c-0.431,0.352-0.91,0.802-0.893,1.415c0.034,1.441,1.937,1.591,2.977,1.375c1.721-0.36,6.071-3.672,3.389-5.481
	c-1.194-0.805-5.147,1.211-3.905,2.107c0.584,0.425-0.116,1.375,0.332,1.231c0.53-0.094,1.058-0.184,1.588-0.278
	c-0.786,0.516-0.942,0.627-0.474,0.329c0.216-0.122,0.414-0.272,0.587-0.454c0.349-0.312,0.644-0.601,0.854-1.032
	c0.397-0.803,0.352-1.639-0.136-2.371c-0.55,0.573-1.1,1.146-1.648,1.719c1.253-0.516,2.308-1.18,3.253-2.161
	c1.228-1.279,1.713-2.566,3.743-1.937C758.995,344.031,761.746,342.956,760.81,342.327"/>
<path id="XMLID_54_" fill="#945122" d="M709.601,327.383c-1.035,2.799-2.833,4.886-4.954,6.905c-1.438,1.37-3.377,2.683-4.31,4.503
	c-1.778,3.471,0.854,5.975,3.834,7.268c0.698,0.303,2.856-0.913,1.838-1.353c-2.507-1.086-4.985-2.952-3.587-6.122
	c0.766-1.741,2.997-3.202,4.333-4.548c2.059-2.073,3.468-4.171,4.271-6.999C711.16,326.558,709.756,326.957,709.601,327.383"/>
<path id="XMLID_53_" fill="#D3413D" d="M721.014,353.99c0,0-1.18,2.311-2.544,3.335c-1.338,1.038-2.311,2.334-4.707,2.91
	c-2.385,0.61-4.982,0.519-6.726,0.017c-1.767-0.459-2.725-1.219-2.725-1.219s6.375-0.879,8.351-1.355
	C714.634,357.189,721.014,353.99,721.014,353.99"/>
<path id="XMLID_52_" fill="#583634" d="M692.504,324.924c-0.666,0.908-0.25,2.348,0.933,3.219c1.185,0.873,2.685,0.845,3.352-0.062
	c0.669-0.905,0.25-2.345-0.933-3.219C694.671,323.991,693.171,324.02,692.504,324.924"/>
<path id="XMLID_51_" fill="#AD663C" d="M688.358,279.219c7.095-8.09,16.422-7.432,26.023-9.389c2.643-0.542,5.195-1.475,7.841-2.01
	c5.277-1.069,12.228,1.248,17.193,3.122c1.404,0.53,17.445,10.926,13.64,13.095c3.406-1.943,7.316-3.162,11.221-2.878
	c4.523,0.326,6.86,3.142,10.223,5.759c2.51,1.954,5.121,4.038,6.338,6.973c0.76,1.835,0.91,3.859,0.936,5.841
	c0.04,2.836-0.422,5.632-0.442,8.45c-0.014,1.877-0.737,4.685-0.604,6.321c-0.25-3.034-2.044-5.904-4.667-7.452
	c2.195,4.94,3.011,10.478,2.337,15.84c-0.536,4.276-2.22,8.703-5.791,11.116c-1.276,0.862-2.98,1.418-4.339,0.689
	c-1.248-0.675-1.753-2.175-2.152-3.536c-0.732-2.51-1.466-5.019-2.198-7.529c1.25,4.285-3.556,9.675-6.125,12.641
	c-3.267,3.771-7.88,6.789-12.335,8.949c-0.471,0.227-1.097,0.423-1.46,0.046c3.012-1.957,3.806-6.051,3.519-9.633
	c-0.284-3.581-1.364-7.135-0.981-10.708c0.417-3.876,1.44-7.62,2.294-11.431c0.451-2.033,0.953-4.225,1.27-6.287
	c0.167-1.089,0.369-6.457-0.513-7.041c-1.696-1.12-6.431,2.694-7.727,3.63c-4.945,3.576-9.4,8.501-15.63,9.749
	c-3.582,0.72-7.279,0.068-10.875-0.581c-3.502-0.632-7.007-1.267-10.509-1.9c1.906-1.548,2.799-4.239,2.198-6.618
	c-1.202,3.959-6.128,5.141-10.231,5.663c-6.014,0.768-12.094,1.846-18.134,2.269c3.539-3.587,3.757-8.428,4.398-13.098
	c0.383-2.793,0.933-11.462,4.2-12.772c-1.324,0.53-2.339,1.772-2.597,3.176C683.974,286.095,685.71,282.236,688.358,279.219"/>
<path id="XMLID_50_" fill="#814723" d="M711.594,282.244c-4.259,1.809-8.399,3.967-11.207,7.778
	c-0.998,1.355-1.798,2.836-2.376,4.421c-0.944,2.603-0.655,5.291-1.412,7.892c-0.167,0.573,1.492,0.128,1.667-0.289
	c1.372-3.267,0.905-6.783,2.603-10.07c2.348-4.54,6.721-6.99,11.136-9.188C712.723,282.431,712.195,281.989,711.594,282.244"/>
<path id="XMLID_49_" fill="#814723" d="M726.22,282.023c-10.016-3.553-15.055,15.04-12.664,21.543
	c0.244,0.667,2.198-0.071,2.027-0.777c-0.956-3.964-0.59-7.237,0.817-11.025c1.338-3.607,3.635-9.936,8.765-8.964
	C725.509,282.865,726.861,282.25,726.22,282.023"/>
<path id="XMLID_48_" fill="#814723" d="M721.085,290.689c-2.093,0.53-2.473,2.955-2.972,4.832
	c-0.958,3.616-1.208,7.495-0.547,11.184c0.099,0.567,1.891-0.034,1.852-0.578c-0.19-2.493-0.349-4.926-0.096-7.415
	c0.119-1.154,0.61-6.976,1.639-7.259C721.598,291.276,722.061,290.442,721.085,290.689"/>
<path fill="#814723" d="M794.376,286.359c-4.265,2.529-10.115,1.829-14.669,0.119c1.211-0.252,2.396-0.61,3.559-1.038
	c2.135-0.068,4.265,0.062,6.431-0.703c2.651-0.936,4.599-2.904,6.102-5.13c0.105-0.15,0.19-0.32,0.284-0.479
	C797.779,281.649,797.172,284.7,794.376,286.359 M746.708,252.665c0.258,0.068,0.53,0.048,0.754-0.011
	c-3.726,4.534-1.219,10.191-0.17,15.704c-1.256-1.823-2.235-3.76-2.935-5.91C743.725,260.512,742.211,251.5,746.708,252.665
	 M795.304,272.302c0.136,2.836-1.041,5.513-2.558,7.775c-1.5,2.24-4.055,3.601-6.718,4.208c1.358-0.644,2.694-1.367,4.015-2.13
	c4.679-2.711,4.441-8.085,3.701-13.101C794.623,269.827,795.233,270.788,795.304,272.302 M797.152,277.673
	c-0.071-0.062-0.181-0.113-0.309-0.159c0.74-2.027,0.967-4.393,0.604-6.386c-0.36-1.996-2.121-2.921-3.967-3.766
	c-0.196-1.197-0.394-2.356-0.525-3.426c-0.701-5.686-5.757-6.879-10.662-8.745c-6.485-2.464-13.498-4.16-20.346-4.926
	c-3.891-0.434-10.591-1.489-13.736,1.557c-0.139,0.136-0.247,0.275-0.371,0.411c-0.068-0.096-0.23-0.199-0.53-0.286
	c-4.208-1.222-6.29,1.667-6.29,5.53c-0.003,4.2,1.775,8.416,4.401,11.85c-0.434,0.099-0.695,0.32-0.547,0.681
	c2.013,4.86,6.105,7.188,10.62,9.69c5.186,2.872,12.02,6.502,18.009,7.132c1.628,0.17,3.193,0.116,4.713-0.088
	c0.06,0.054,0.15,0.111,0.289,0.173c5.708,2.583,10.858,2.623,16.637,0.766C799.563,286.26,800.884,280.883,797.152,277.673"/>
<path id="XMLID_43_" fill="#AE663C" d="M787.086,257.032c-8.272,0.975-25.206-12.06-28.025-0.734
	c-0.695,2.785-1.154,5.745-0.822,8.663c0.655,5.802,3.978,7.231,9.128,8.896c4.061,1.31,7.342,2.617,10.118,5.946
	c0.947,1.134,0.998,2.569,1.494,3.851c0.374,0.964,8.816-2.521,8.743-2.49c6.335-2.773,6.284-6.485,6.204-10.747
	c-0.054-0.454-0.113-0.91-0.181-1.361c0.059,0.054,0.108,0.116,0.167,0.173c-0.006-0.545,0-1.092,0.026-1.65
	c-0.153-0.071-0.303-0.145-0.456-0.213c-0.196-1.2-0.391-2.357-0.525-3.428C792.491,260.151,790.089,258.359,787.086,257.032"/>
<path id="XMLID_42_" fill="#AE663C" d="M754.688,258.773c-1.852-0.655-4.219,0.385-5.053,2.163c-0.513,1.1-0.329,2.266-0.198,3.423
	c0.204,1.758,0.366,3.533,0.655,5.28c0.196,1.174,3.967-0.06,3.871-1.208c-0.079-0.941-0.573-7.994-1.117-8.059
	C753.438,260.444,755.933,259.213,754.688,258.773"/>
<path id="XMLID_41_" fill="#814723" d="M775.179,257.08c1.823,3.289,2.592,6.185,0.312,9.494c-1.73,2.509-4.086,4.537-6.352,6.542
	c-0.902,0.797,1.268,0.561,1.761,0.128c2.617-2.303,5.371-4.682,7.143-7.733c1.948-3.355,0.559-5.981-1.52-8.947
	C776.248,256.17,774.957,256.681,775.179,257.08"/>
<path id="XMLID_40_" fill="#814723" d="M780.856,260.123c1.611,1.945,2.402,3.335,1.307,5.946c-0.596,1.423-1.838,2.705-2.904,3.803
	c-2.07,2.124-4.54,3.805-6.956,5.501c-1.265,0.89,0.797,0.942,1.469,0.474c3.133-2.183,6.357-4.458,8.725-7.5
	c0.976-1.251,2.416-3.012,2.269-4.704c-0.136-1.619-1.577-3.114-2.651-4.2C781.8,259.125,780.501,259.695,780.856,260.123"/>
<path id="XMLID_39_" fill="#814723" d="M787.128,260.668c0.547,4.926,1.029,10.659-4.514,12.936
	c-2.263,0.93-4.497,1.545-6.482,3.037c-1.211,0.91,0.785,0.941,1.435,0.462c3.102-2.294,7.461-2.402,10.004-5.549
	c2.654-3.284,1.889-7.662,0.933-11.414C788.385,259.681,787.074,260.185,787.128,260.668"/>
<path id="XMLID_38_" fill="#814723" d="M783.456,269.453c-0.139,1.08-2.464,1.866-3.309,2.271c-1.443,0.692-2.878,1.132-4.469,1.304
	c-0.811,0.088-2.308,1.478-0.771,1.327c2.26-0.221,4.356-1.041,6.338-2.118c1.078-0.587,3.689-1.574,3.616-3.125
	C784.831,268.548,783.513,269.01,783.456,269.453"/>
<path id="XMLID_37_" fill="#814723" d="M691.169,313.967c4.673-1.126,8.507,0.196,12.29,2.955c1.18,0.856,5.49-1.012,4.168-2.251
	c-4.319-4.058-11.275-4.534-16.612-2.49C689.453,312.779,689.073,314.472,691.169,313.967"/>
<path id="XMLID_36_" fill="#814723" d="M738.627,325.304c-3.667-3.108-7.685-3.652-12.307-2.892
	c-1.438,0.238-4.446-3.372-2.708-3.885c5.68-1.682,12.108,1.024,15.956,5.252C740.694,325.015,740.271,326.697,738.627,325.304"/>
<path id="XMLID_35_" fill="#583634" d="M701.122,326.96c0.122-2.019-5.008-4.007-6.46-4.324c-1.327-0.292-2.578-0.227-3.91-0.082
	c-1.596,0.173-1.959,1.154-3.346,1.872c2.28,0.054,4.571,0.108,6.808,0.55c1.409,0.278,2.799,0.715,4.072,1.381
	C698.961,326.708,700.938,328.653,701.122,326.96"/>
<path id="XMLID_34_" fill="#583634" d="M727.497,335.303c0.113,1.12-0.973,2.149-2.439,2.303c-1.461,0.153-2.742-0.632-2.859-1.75
	c-0.116-1.12,0.976-2.152,2.436-2.303C726.096,333.4,727.38,334.183,727.497,335.303"/>
<path id="XMLID_33_" fill="#583634" d="M719.032,332.697c0.919-1.803,6.346-0.919,7.761-0.459c1.29,0.423,2.337,1.109,3.414,1.911
	c1.287,0.956,1.106,1.985,1.937,3.306c-1.994-1.109-3.998-2.22-6.151-2.972c-1.355-0.474-2.773-0.803-4.211-0.873
	C721.026,333.573,718.334,334.251,719.032,332.697"/>
<path id="XMLID_32_" fill="#1E907F" d="M675.181,409.524c0.405,0.145,4.489,36.025,2.606,40.908
	c-2.946,7.637-16.458,16.784-20.278,4.557c-3.726-11.921-2.436-32.012,0.298-43.845
	C657.895,410.763,674.875,409.414,675.181,409.524"/>
<rect id="XMLID_31_" x="657.112" y="454.736" fill="#D9DBDB" width="9.38" height="6.142"/>
<rect id="XMLID_30_" x="619.111" y="460.711" fill="#EB495C" width="113.691" height="2.569"/>
<path id="XMLID_29_" fill="#FFFFFF" d="M701.198,455.695l-33.291-1.137c-3.383,0-6.122,2.742-6.122,6.122v0.201h39.413V455.695z"/>
<path id="XMLID_28_" fill="#FFFFFF" d="M619.111,455.695l36.552-1.137c3.38,0,6.122,2.742,6.122,6.122v0.201h-42.674V455.695z"/>
<polygon id="XMLID_27_" fill="#D9DBDB" points="730.999,460.879 701.198,460.879 701.198,455.692 730.999,456.982 "/>
<path id="XMLID_26_" fill="#EFB79D" d="M727.145,445.359c-6.196-1.684-12.384-3.147-18.673-3.031
	c-5.462,0.099-10.773,1.704-15.698,3.961c-0.644,0.298-0.573,1.185-0.173,1.628c0.445,0.488,0.859,0.788,1.284,1.007
	c-0.646,0.502-1.245,1.069-1.761,1.744c-0.454,0.596-0.329,1.517,0.493,1.719c2.561,0.624,4.611-0.184,7.123-0.814
	c1.818-0.454,3.684-0.542,5.538-0.388c-3.083,0.595-6.031,1.693-8.907,3.335c-0.306,0.176-0.508,0.55-0.491,0.902l0.054,1.358
	c0.023,0.576,0.482,1.004,1.055,1.01c3.732,0.045,7.104-1.296,10.807-1.625c5.342-0.476,10.387,2.271,15.656,2.626
	c3.698,0.249,10.356,0.193,14.717,0c2.339-0.102,44.742,3.757,44.892,3.21c0.661-2.436-9.497-13.716-8.836-16.152
	c-1.716-0.227-32.489,3.227-34.19,2.864C735.709,447.789,731.424,446.521,727.145,445.359"/>
<path id="XMLID_25_" fill="#5EA88D" d="M821.466,459.203c1.551-1.744,1.993-3.99,0.856-6.871
	c-3.307-8.379-12.477-10.815-22.317-11.07c-9.956-0.255-19.076,2.527-30.745,3.145c0,0,1.733,17.346,1.733,17.349
	c2.291,0.289,20.026,3.684,31.794,2.921C810.923,464.151,818.383,462.671,821.466,459.203"/>
<path id="XMLID_24_" fill="#E9977F" d="M690.763,634.406c0,0,23.012,6.298,22.705,1.134c-0.442-7.486,2.107-30.767,2.107-30.767
	l-20.958-0.49L690.763,634.406z"/>
<path id="XMLID_23_" fill="#E9977F" d="M611.548,634.803c0,0,22.583,5.901,22.277,0.74c-0.442-7.489,5.825-28.343,5.825-28.343
	l-19.824-1.338L611.548,634.803z"/>
<path id="XMLID_22_" fill="#54BCC1" d="M642.043,513.574c2.714-8.941,11.657-15.049,28.204-15.284
	c20.06-0.286,44.447-0.814,54.638-0.352c9.227,0.417-10.81,1.18-2.005,4.083c4.713,1.554,9.664,3.947,12.542,8.184
	c3.329,4.903-1.463,10.954-5.337,13.909c-4.514,3.445-10.313,4.857-15.843,5.609c-6.462,0.882-13.027,0.842-19.535,0.717
	c-1.772-0.034-17.468-1.353-18.08-0.173c-6.049,11.674-34.513,72.934-36.796,81.129l-21.962-6.04
	C622.261,588.215,638.998,523.61,642.043,513.574"/>
<path id="XMLID_21_" fill="#6FCACF" d="M694.824,514.862c6.59-21.71,35.934-16.682,53.26-15.897
	c9.227,0.42,18.772,1.44,27.577,4.344c4.713,1.554,9.664,3.947,12.542,8.181c3.329,4.906-1.463,10.957-5.337,13.912
	c-4.514,3.445-10.313,4.858-15.846,5.609c-6.46,0.882-13.024,0.842-19.532,0.717c-1.772-0.034-17.468-1.355-18.08-0.173
	c-6.049,11.674-11.708,71.014-13.988,79.209l-22.518-2.317C691.458,597.907,691.776,524.897,694.824,514.862"/>
<path id="XMLID_20_" fill="#782C16" d="M716.236,628.093c-0.649-0.87-1.432-1.077-2.365-0.195c-3.114,2.926-7.072,3.811-9.942,0.077
	c-0.454-0.587-1.044-1.163-1.781-1.217c-0.788-0.054-1.483,0.493-2.246,0.695c0.162-0.042,1.347-1.653,1.492-1.891
	c0.457-0.763,0.51-1.701,0.142-2.532c-0.598-1.341-2.144-2.711-3.352-3.465c-1.534-0.959-3.213-1.69-4.96-2.155
	c-1.435-0.383-3.028-0.576-4.344,0.108c-1.344,0.695-2.098,2.13-2.847,3.442c-4.123,7.214-9.732,11.768-17.777,13.92
	c-1.591,0.425-3.238,0.746-4.673,1.557c-1.903,1.08-3.267,2.952-4.069,4.988c-0.973,2.456-1.968,6.341-0.734,8.862
	c1.764,3.613,10.52,1.812,13.739,1.784c6.641-0.054,13.282-0.142,19.921-0.255c3.269,0,6.584-0.564,9.809-1.035
	c4.614-0.672,10.481,0.338,14.666-2.025c1.704-0.964,2.099-3.218,2.178-5.175C719.151,642.102,718.485,631.108,716.236,628.093"/>
<rect id="XMLID_19_" x="657.549" y="647.799" fill="#FECE89" width="62.065" height="7.237"/>
<path id="XMLID_18_" fill="#FECE89" d="M675.646,642.879c-0.374,0-0.72-0.249-0.828-0.63c-0.783-2.824-2.793-5.334-5.377-6.712
	c-0.275-0.15-0.573-0.258-0.822-0.269c-0.474,0.06-0.902-0.258-0.97-0.729c-0.065-0.468,0.258-0.902,0.729-0.97
	c0.709-0.119,1.347,0.17,1.872,0.451c2.995,1.596,5.32,4.503,6.224,7.773c0.125,0.457-0.139,0.927-0.598,1.058
	C675.802,642.87,675.72,642.879,675.646,642.879"/>
<path id="XMLID_17_" fill="#FECE89" d="M682.554,639.799c-0.267,0-0.525-0.119-0.695-0.351c-0.44-0.601-0.802-1.228-1.157-1.849
	c-0.567-0.99-1.103-1.925-1.974-2.691c-1.353-1.188-3.003-1.846-4.773-1.906c-0.474-0.017-0.845-0.414-0.828-0.89
	c0.017-0.474,0.448-0.857,0.888-0.828c2.138,0.074,4.217,0.902,5.847,2.334c1.083,0.95,1.718,2.059,2.334,3.128
	c0.32,0.564,0.647,1.137,1.052,1.687c0.278,0.383,0.193,0.922-0.187,1.203C682.908,639.745,682.73,639.799,682.554,639.799"/>
<path id="XMLID_16_" fill="#FECE89" d="M689.904,636.184c-0.298,0-0.59-0.156-0.749-0.437c-1.044-1.84-2.183-3.224-3.482-4.22
	c-1.506-1.154-3.145-1.786-4.866-1.698c-0.199,0.006-0.4,0.023-0.598,0.04c-0.371,0.031-0.726,0.054-1.106,0.048
	c-0.473-0.014-0.845-0.411-0.834-0.888c0.014-0.474,0.417-0.845,0.887-0.831c0.286,0.02,0.607-0.017,0.913-0.042
	c0.224-0.02,0.448-0.037,0.678-0.045c1.957-0.06,4.146,0.658,5.972,2.053c1.483,1.143,2.771,2.688,3.933,4.738
	c0.233,0.414,0.088,0.936-0.326,1.171C690.193,636.147,690.048,636.184,689.904,636.184"/>
<path id="XMLID_15_" fill="#FECE89" d="M696.242,632.177c-0.255,0-0.508-0.113-0.675-0.329c-0.269-0.343-0.522-0.678-0.774-1.01
	c-1.296-1.707-2.41-3.184-4.41-4.078c-2.268-1.018-4.823-1.14-7.035-1.1h-0.011c-0.471,0-0.853-0.38-0.859-0.848
	c-0.006-0.474,0.377-0.865,0.848-0.871c2.22-0.057,5.167,0.088,7.758,1.248c2.405,1.078,3.703,2.793,5.079,4.611
	c0.244,0.323,0.493,0.655,0.754,0.987c0.295,0.374,0.227,0.913-0.145,1.205C696.613,632.117,696.426,632.177,696.242,632.177"/>
<path id="XMLID_14_" fill="#782C16" d="M636.825,627.529c-0.235-0.576-0.607-1.058-1.197-1.14c-0.445-0.062-0.882,0.139-1.265,0.377
	c-3.865,2.407-7.146,6.233-11.011,1.208c-0.451-0.587-1.041-1.163-1.781-1.217c-0.788-0.057-1.48,0.493-2.246,0.692
	c0.164-0.04,1.347-1.651,1.492-1.889c0.46-0.766,0.51-1.701,0.142-2.532c-0.595-1.344-2.144-2.711-3.349-3.468
	c-1.537-0.958-3.216-1.687-4.963-2.155c-1.432-0.383-3.028-0.573-4.344,0.111c-1.341,0.695-2.096,2.127-2.847,3.44
	c-4.123,7.217-9.729,11.771-17.777,13.923c-1.591,0.425-3.238,0.746-4.673,1.557c-1.903,1.077-3.264,2.952-4.069,4.985
	c-0.97,2.458-1.965,6.343-0.734,8.864c1.767,3.613,10.523,1.812,13.742,1.784c6.641-0.057,13.279-0.142,19.921-0.258
	c3.939-0.068,7.773-1.072,11.68-1.31c4.495-0.272,8.907,0.005,13.404-0.641c0.38-0.057,0.785-0.125,1.063-0.391
	c0.337-0.32,0.391-0.828,0.42-1.293c0.408-6.573-0.037-13.2-1.321-19.66C637.047,628.193,636.956,627.847,636.825,627.529"/>
<rect id="XMLID_13_" x="576.978" y="647.799" fill="#FECE89" width="62.062" height="7.237"/>
<path id="XMLID_12_" fill="#FECE89" d="M595.073,642.879c-0.374,0-0.72-0.249-0.828-0.63c-0.783-2.824-2.793-5.334-5.377-6.712
	c-0.275-0.15-0.573-0.258-0.822-0.269c-0.474,0.06-0.902-0.258-0.97-0.729c-0.065-0.468,0.258-0.902,0.729-0.97
	c0.709-0.119,1.347,0.17,1.872,0.451c2.995,1.596,5.32,4.503,6.224,7.773c0.125,0.457-0.139,0.927-0.598,1.058
	C595.229,642.87,595.147,642.879,595.073,642.879"/>
<path id="XMLID_11_" fill="#FECE89" d="M601.98,639.799c-0.264,0-0.525-0.119-0.695-0.351c-0.44-0.601-0.802-1.228-1.157-1.849
	c-0.567-0.99-1.103-1.925-1.974-2.691c-1.353-1.188-3.003-1.846-4.773-1.906c-0.474-0.017-0.845-0.414-0.828-0.89
	c0.017-0.474,0.448-0.857,0.89-0.828c2.135,0.074,4.214,0.902,5.844,2.334c1.083,0.95,1.718,2.059,2.334,3.128
	c0.32,0.564,0.647,1.137,1.052,1.687c0.278,0.383,0.193,0.922-0.187,1.203C602.335,639.745,602.156,639.799,601.98,639.799"/>
<path id="XMLID_10_" fill="#FECE89" d="M609.331,636.184c-0.298,0-0.59-0.156-0.749-0.437c-1.043-1.84-2.183-3.224-3.482-4.22
	c-1.506-1.154-3.145-1.786-4.866-1.698c-0.199,0.006-0.4,0.023-0.601,0.04c-0.369,0.031-0.726,0.054-1.103,0.048
	c-0.473-0.014-0.845-0.411-0.833-0.888c0.014-0.474,0.417-0.845,0.885-0.831c0.286,0.02,0.61-0.017,0.916-0.042
	c0.224-0.02,0.448-0.037,0.678-0.045c1.954-0.06,4.146,0.658,5.972,2.053c1.483,1.143,2.771,2.688,3.933,4.738
	c0.23,0.414,0.085,0.936-0.326,1.171C609.62,636.147,609.475,636.184,609.331,636.184"/>
<path id="XMLID_9_" fill="#FECE89" d="M615.668,632.177c-0.255,0-0.508-0.113-0.675-0.329c-0.269-0.343-0.522-0.678-0.774-1.01
	c-1.296-1.707-2.41-3.184-4.409-4.078c-2.269-1.018-4.824-1.14-7.038-1.1h-0.008c-0.471,0-0.854-0.38-0.859-0.848
	c-0.006-0.474,0.374-0.865,0.848-0.871c2.22-0.057,5.164,0.088,7.758,1.248c2.402,1.078,3.701,2.793,5.076,4.611
	c0.247,0.323,0.496,0.655,0.757,0.987c0.295,0.374,0.227,0.913-0.145,1.205C616.04,632.117,615.853,632.177,615.668,632.177"/>
<path id="XMLID_8_" fill="#A4D8CB" d="M645.262,601.756c-6.783-5.966-26.919-9.709-27.418-9.519
	c-0.065-0.017-0.133-0.031-0.198-0.048c-0.266-0.065-0.505-0.048-0.709,0.028c-0.854,0.329-1.395,8.133-1.69,11.192
	c-0.054,0.553,0.465,0.993,0.933,1.137c7.807,2.408,15.616,4.815,23.423,7.223c3.947,1.214,5.374-6.417,6.003-8.856
	C645.707,602.516,645.573,602.031,645.262,601.756"/>
<path id="XMLID_7_" fill="#A4D8CB" d="M718.998,601.651c-7.98-4.234-28.436-3.21-28.879-2.909c-0.068-0.003-0.136,0-0.201,0
	c-1.455-0.02-0.162,8.425,0.261,11.47c0.077,0.547,0.683,0.856,1.171,0.89c8.153,0.533,16.305,1.066,24.461,1.599
	c4.12,0.269,3.74-7.486,3.786-10.004C719.605,602.286,719.364,601.846,718.998,601.651"/>
<path id="XMLID_6_" fill="#A4D8CB" d="M709.867,536.756l-3.8-0.431c0.995-0.136,1.979-0.301,2.983-0.394
	c1.288-0.116,1.744-2.065,0.323-2.382c-0.984-0.221-1.974-0.383-2.96-0.564c0.828-0.134,1.656-0.278,2.49-0.4
	c1.112-0.164,1.154-2.002,0.125-2.297c0.028,0,0.06-0.003,0.091-0.003c1.103-0.043,1.792-1.741,0.613-2.26
	c-1.412-0.624-2.844-1.112-4.296-1.517c0.984-0.564,0.817-2.365-0.536-2.26c-2.028,0.153-3.947,0.539-5.861,1.225
	c-1.304,0.468-1.063,2.28,0.32,2.382c1.151,0.085,2.274,0.258,3.386,0.476c-1.381,0.173-2.756,0.394-4.12,0.74
	c-1.418,0.357-0.967,2.243,0.32,2.382c0.556,0.06,1.112,0.139,1.665,0.201c-0.536,0.125-1.08,0.213-1.614,0.354
	c-1.398,0.374-0.984,2.263,0.323,2.385c0.695,0.065,1.381,0.176,2.073,0.261c-1.259,0.247-2.518,0.479-3.769,0.794
	c-1.423,0.36-0.958,2.237,0.323,2.382c3.973,0.451,7.948,0.902,11.921,1.353C711.421,539.359,711.404,536.929,709.867,536.756"/>
<path id="XMLID_5_" fill="#A4D8CB" d="M655.178,516.449c-2.271-2.206-4.77-3.808-7.696-5.01c-1.449-0.595-2.07,1.752-0.644,2.339
	c1.27,0.522,2.444,1.151,3.547,1.886c-3.142-0.227-6.261-0.128-9.412,0.57c-1.242,0.275-1.072,1.979,0,2.34
	c1.943,0.652,3.888,1.304,5.83,1.957c-1.543,0.128-3.233,0.071-4.222,0.161c-1.112,0.108-1.472,1.265-0.893,1.968
	c-0.984,0.025-1.472,1.165-1.01,1.872c-0.431,0.533-0.462,1.378,0.295,1.781c2.464,1.316,4.982,2.484,7.568,3.542
	c1.449,0.59,2.073-1.758,0.644-2.339c-0.315-0.13-0.618-0.278-0.927-0.411c0.715-0.114,1.038-0.686,0.967-1.265
	c0.238,0,0.465,0.034,0.703,0.031c1.432-0.02,1.568-1.917,0.323-2.385l-1.985-0.74c1.234-0.21,2.373-0.593,3.23-1.347
	c0.726-0.641,0.275-1.758-0.536-2.031c-1.378-0.462-2.756-0.924-4.134-1.386c2.382-0.063,4.761,0.119,7.172,0.496
	C655.118,518.653,656.125,517.371,655.178,516.449"/>
<path id="XMLID_4_" fill="#88B3B3" d="M537.009,655.038l11.575-161.637c0.366-5.133,4.685-9.156,9.834-9.156h123.049
	c2.005,0,3.874,0.8,5.257,2.252c1.384,1.452,2.096,3.355,1.999,5.357l4.741,163.185h8.326l-4.741-162.786
	c0.207-4.302-1.316-8.391-4.29-11.51c-2.972-3.117-6.984-4.835-11.292-4.835H558.419c-9.502,0-17.473,7.424-18.154,16.901
	l-11.572,162.23H537.009z"/>
<path id="XMLID_3_" fill="#88B3B3" d="M797.81,655.038h8.317l-11.649-163.276c-0.638-8.89-8.119-15.854-17.031-15.854H637.188v8.337
	h140.259c4.56,0,8.388,3.565,8.714,8.113L797.81,655.038z"/>
<rect id="XMLID_2_" x="538.949" y="463.28" fill="#D48743" width="153.952" height="13.365"/>
</svg>
