<?xml version="1.0" encoding="utf-8"?>
<!-- Generator: Adobe Illustrator 21.0.0, SVG Export Plug-In . SVG Version: 6.00 Build 0)  -->
<svg version="1.1"  xmlns="http://www.w3.org/2000/svg" xmlns:xlink="http://www.w3.org/1999/xlink" x="0px" y="0px"
	 viewBox="0 0 1440 810" enable-background="new 0 0 1440 810" xml:space="preserve">
<rect id="XMLID_1_" fill="#D0D1D3" width="1440" height="810"/>
<path id="XMLID_245_" fill="#CDE9E1" d="M185.193,390.82c6.854-61.817,38.881-120.703,82.776-164.728
	C409.232,84.418,634.455,62.643,824.893,103.079c160.035,33.973,397.594,144.868,428.636,307.964
	c3.218,16.899,3.59,34.054,0.628,50.845c-10.788,61.204-61.506,114.439-129.885,149.304
	c-180.5,92.043-383.741,135.816-597.69,102.927c-86.898-13.359-170.068-47.527-238.819-96.855
	c-31.069-22.296-62.882-47.883-80.485-82.216c-14.657-28.575-19.442-67.808-22.477-99.23
	C183.35,420.759,183.542,405.707,185.193,390.82"/>
<polygon id="XMLID_244_" fill="#AACEC3" points="601.344,644.491 601.379,626.083 638.42,635.32 "/>
<path id="XMLID_243_" fill="#AACEC3" d="M605.639,635.297c0.008-4.689-1.866-8.409-4.26-8.988v-0.222l-146.301,0.08l-0.019,11.122
	l150.381-0.077C605.52,636.58,605.635,635.979,605.639,635.297"/>
<path id="XMLID_242_" fill="#AACEC3" d="M605.444,637.212l-150.381,0.077l-0.015,7.286l146.301-0.084v-0.222
	C603.398,643.783,604.995,640.94,605.444,637.212"/>
<path id="XMLID_241_" fill="#AACEC3" d="M459.928,635.377c-0.008,5.084-2.195,9.198-4.881,9.194c-2.689-0.004-4.861-4.13-4.85-9.21
	c0.008-5.084,2.191-9.198,4.881-9.195C457.767,626.172,459.939,630.298,459.928,635.377"/>
<path id="XMLID_240_" fill="#AACEC3" d="M629.384,637.557l9.037-2.234l-9.033-2.253c0.1,0.743,0.238,1.464,0.238,2.272
	C629.621,636.128,629.483,636.833,629.384,637.557"/>
<path id="XMLID_236_" fill="#AACEC3" d="M1001.474,208.925l0.016-29.292l-308.16-0.146l-0.095,207.183l308.159,0.146l0.069-151.473
	c0.847-0.402,1.44-1.253,1.44-2.245l0.008-21.925C1002.915,210.174,1002.321,209.323,1001.474,208.925"/>
<path id="XMLID_235_" fill="#AACEC3" d="M1155.882,381.744l-0.019-0.831l-0.061-6.949l0.046-138.417l0.003-3.137v-10.581
	l-121.495-0.042c-5.168,0-9.363,4.191-9.367,9.359v1.218h-0.073l0.073,146.401h0.073v4.16c-0.004,5.172,4.225,6.428,9.397,6.428
	l121.499,0.042L1155.882,381.744z"/>
<path id="XMLID_234_" fill="#AACEC3" d="M1085.978,420.103h-8.248v-3.191h-18.986H921.438c-2.778,0-5.456,0.096-8.015,0.31v-0.011
	c-0.203,0.015-0.394,0.042-0.59,0.061c-0.333,0.031-0.663,0.061-0.992,0.1c-0.571,0.061-1.13,0.13-1.686,0.211
	c-0.318,0.046-0.636,0.084-0.946,0.138c-0.586,0.092-1.161,0.199-1.732,0.314c-0.245,0.05-0.505,0.088-0.747,0.146
	c-0.801,0.176-1.583,0.368-2.337,0.586c-0.088,0.027-0.169,0.061-0.26,0.088c-0.659,0.199-1.299,0.414-1.919,0.655
	c-0.23,0.088-0.456,0.192-0.682,0.287c-0.463,0.191-0.916,0.391-1.352,0.613c-0.245,0.119-0.479,0.249-0.716,0.379
	c-0.406,0.218-0.797,0.456-1.176,0.701c-0.222,0.146-0.44,0.287-0.651,0.441c-0.394,0.28-0.762,0.582-1.126,0.893
	c-0.165,0.142-0.341,0.272-0.498,0.417c-0.505,0.471-0.985,0.969-1.421,1.509c-0.031,0.038-0.058,0.08-0.085,0.123
	c-0.402,0.502-0.77,1.042-1.107,1.605c-0.119,0.199-0.218,0.414-0.33,0.621c-0.233,0.429-0.452,0.877-0.647,1.341
	c-0.107,0.257-0.203,0.525-0.303,0.789c-0.165,0.46-0.318,0.942-0.448,1.441c-0.077,0.283-0.153,0.571-0.218,0.866
	c-0.122,0.548-0.214,1.122-0.295,1.716c-0.038,0.272-0.088,0.536-0.115,0.82c-0.088,0.889-0.146,1.812-0.146,2.789
	c-0.004-13.837-9.214-18.393-21.837-19.58v-3.294h-16.523v2.927h-122.3H704.06v3.195h-8.248l0.004,228.59h195.081h152.592
	l42.489-19.247V420.103z"/>
<path id="XMLID_232_" fill="#AACEC3" d="M620.12,591.145l-0.004-5.344l19.588-0.004c0,0,2.739,0.82,2.739,2.517
	c0.004,1.992-2.739,2.823-2.739,2.823L620.12,591.145z"/>
<path id="XMLID_231_" fill="#AACEC3" d="M610.623,593.834l13.585-0.004c1.341,0,2.429-1.084,2.429-2.429v-5.858
	c0-1.345-1.088-2.429-2.429-2.429h-13.588l-1.609-4.658l-11.807,0.004l0.004,20.036l11.803-0.004L610.623,593.834z"/>
<rect id="XMLID_230_" x="461.665" y="578.472" fill="#AACEC3" width="135.54" height="20.032"/>
<rect id="XMLID_229_" x="472.399" y="585.818" fill="#AACEC3" width="90.407" height="5.342"/>
<path id="XMLID_228_" fill="#AACEC3" d="M461.667,598.516l-0.004-20.032h-2.364c-5.03,0-9.102,4.076-9.102,9.103v1.827
	c0,5.03,4.076,9.102,9.106,9.102H461.667z"/>
<path id="XMLID_227_" fill="#AACEC3" d="M1120.526,581.453l3.122,0.019l-0.088,15.454c0,0-0.49,2.161-1.483,2.157
	c-1.161-0.008-1.64-2.176-1.64-2.176L1120.526,581.453z"/>
<path id="XMLID_226_" fill="#AACEC3" d="M1119.215,587.559l5.861,0.035c1.341,0.008,4.551-29.027,4.551-29.027l-14.401,0.115
	C1115.227,558.681,1117.875,587.552,1119.215,587.559"/>
<polygon id="XMLID_225_" fill="#AACEC3" points="1114.741,434.657 1130.574,434.561 1129.628,558.566 1115.227,558.681 "/>
<path id="XMLID_224_" fill="#AACEC3" d="M1114.741,434.657l15.833-0.096l0.264-16.99c0.019-3.383-2.709-6.141-6.095-6.16
	l-3.578,0.169c-3.382-0.023-6.145,2.709-6.164,6.087L1114.741,434.657z"/>
<path id="XMLID_223_" fill="#AACEC3" d="M1128.475,426.934c0.149-0.054,0.307-0.084,0.471-0.084l4.241-0.042
	c1.249-0.015,2.421,0.456,3.314,1.326c0.885,0.873,1.383,2.042,1.395,3.287l0.387,40.057c0.012,0.778-0.617,1.425-1.398,1.425
	c-0.781,0.004-1.417-0.617-1.425-1.398l-0.383-40.057c-0.011-1.015-0.847-1.831-1.862-1.82l-4.237,0.042
	c-0.778,0.011-1.417-0.613-1.425-1.391C1127.544,427.658,1127.927,427.137,1128.475,426.934"/>
<path id="XMLID_222_" fill="#AACEC3" d="M641.16,299.884h-48.048H325.798h-43.344c-11.7,0-21.181,9.485-21.181,21.181v212.171
	c0,11.7,9.481,21.181,21.181,21.181H641.16c11.7,0,21.181-9.482,21.181-21.181V321.065
	C662.341,309.369,652.859,299.884,641.16,299.884"/>
<polygon id="XMLID_221_" fill="#FFFFFF" points="593.61,639.335 593.644,620.927 630.686,630.164 "/>
<path id="XMLID_220_" fill="#FFD85C" d="M597.904,630.137c0.008-4.689-1.866-8.405-4.26-8.984v-0.226l-146.301,0.081l-0.019,11.121
	l150.381-0.077C597.785,631.42,597.9,630.818,597.904,630.137"/>
<path id="XMLID_219_" fill="#F9B418" d="M597.705,632.052l-150.381,0.077l-0.015,7.287l146.301-0.084v-0.223
	C595.659,638.622,597.257,635.783,597.705,632.052"/>
<path id="XMLID_218_" fill="#FFD85C" d="M452.193,630.225c-0.008,5.08-2.191,9.198-4.881,9.191c-2.689-0.004-4.862-4.126-4.85-9.21
	c0.008-5.084,2.195-9.198,4.881-9.195C450.032,621.019,452.204,625.141,452.193,630.225"/>
<path id="XMLID_217_" fill="#010101" d="M621.645,632.401l9.037-2.237l-9.034-2.253c0.1,0.743,0.238,1.467,0.238,2.272
	C621.882,630.968,621.744,631.673,621.645,632.401"/>
<rect id="XMLID_216_" x="688.125" y="176.982" fill="#DA1C4D" width="308.156" height="207.183"/>
<rect id="XMLID_215_" x="843.719" y="181.162" fill="#CFD1D3" width="148.215" height="196.585"/>
<rect id="XMLID_214_" x="843.721" y="181.16" fill="#FFFFFF" width="143.123" height="191.495"/>
<rect id="XMLID_213_" x="691.834" y="181.091" fill="#CFD1D3" width="148.215" height="196.583"/>
<rect id="XMLID_212_" x="696.925" y="181.093" fill="#FFFFFF" width="143.125" height="191.491"/>
<path id="XMLID_211_" fill="#767676" d="M848.53,190.82c0,1.536,1.249,2.789,2.789,2.789c1.536,0,2.785-1.249,2.785-2.785
	c0-1.54-1.245-2.789-2.781-2.793C849.779,188.031,848.534,189.279,848.53,190.82"/>
<path id="XMLID_210_" fill="#767676" d="M848.526,202.895c0,1.54,1.245,2.789,2.785,2.793c1.54,0,2.785-1.253,2.785-2.789
	c0.003-1.536-1.245-2.789-2.782-2.789C849.775,200.11,848.526,201.359,848.526,202.895"/>
<path id="XMLID_209_" fill="#767676" d="M848.519,214.97c0,1.536,1.245,2.789,2.789,2.789c1.536,0,2.785-1.249,2.785-2.785
	c0-1.54-1.245-2.789-2.785-2.789C849.768,212.185,848.523,213.434,848.519,214.97"/>
<path id="XMLID_208_" fill="#767676" d="M848.515,227.049c0,1.536,1.245,2.789,2.785,2.789c1.54,0,2.785-1.249,2.785-2.789
	c0.004-1.536-1.245-2.785-2.781-2.789C849.764,224.26,848.515,225.509,848.515,227.049"/>
<path id="XMLID_207_" fill="#767676" d="M848.508,239.121c0,1.54,1.245,2.789,2.789,2.793c1.536,0,2.785-1.253,2.785-2.789
	c0-1.536-1.245-2.789-2.785-2.789C849.756,236.335,848.511,237.584,848.508,239.121"/>
<path id="XMLID_206_" fill="#767676" d="M848.503,251.196c0,1.536,1.245,2.789,2.785,2.789c1.54,0,2.786-1.249,2.786-2.785
	c0.003-1.54-1.245-2.789-2.782-2.789C849.753,248.407,848.503,249.66,848.503,251.196"/>
<path id="XMLID_205_" fill="#767676" d="M848.496,263.275c0,1.536,1.245,2.789,2.789,2.789c1.536,0,2.785-1.249,2.785-2.789
	c0-1.536-1.245-2.789-2.785-2.789C849.745,260.486,848.5,261.735,848.496,263.275"/>
<path id="XMLID_204_" fill="#767676" d="M848.492,275.346c0,1.54,1.245,2.789,2.785,2.793c1.541,0,2.785-1.253,2.785-2.789
	c0.004-1.536-1.245-2.789-2.781-2.789C849.741,272.561,848.492,273.81,848.492,275.346"/>
<path id="XMLID_203_" fill="#767676" d="M848.484,287.422c0,1.536,1.245,2.789,2.789,2.789c1.536,0,2.785-1.249,2.785-2.785
	c0-1.54-1.245-2.789-2.785-2.789C849.733,284.632,848.488,285.885,848.484,287.422"/>
<path id="XMLID_202_" fill="#767676" d="M848.48,299.5c0,1.536,1.245,2.789,2.785,2.789c1.536,0,2.785-1.249,2.785-2.789
	c0.004-1.536-1.245-2.789-2.781-2.789C849.729,296.711,848.48,297.96,848.48,299.5"/>
<path id="XMLID_201_" fill="#767676" d="M848.473,311.572c0,1.54,1.245,2.789,2.789,2.789c1.536,0.004,2.785-1.249,2.785-2.785
	c0-1.536-1.245-2.789-2.785-2.789C849.722,308.787,848.473,310.036,848.473,311.572"/>
<path id="XMLID_200_" fill="#767676" d="M848.469,323.647c0,1.536,1.245,2.789,2.785,2.789c1.536,0,2.785-1.249,2.785-2.785
	c0.004-1.54-1.245-2.789-2.781-2.789C849.718,320.858,848.469,322.111,848.469,323.647"/>
<path id="XMLID_199_" fill="#767676" d="M848.461,335.726c0,1.536,1.245,2.789,2.789,2.789c1.536,0,2.785-1.249,2.785-2.789
	c0-1.536-1.245-2.789-2.785-2.789C849.71,332.937,848.461,334.186,848.461,335.726"/>
<path id="XMLID_198_" fill="#767676" d="M848.458,347.798c0,1.54,1.245,2.789,2.785,2.789c1.54,0.004,2.785-1.249,2.785-2.785
	c0-1.536-1.245-2.789-2.781-2.789C849.706,345.013,848.458,346.261,848.458,347.798"/>
<path id="XMLID_197_" fill="#767676" d="M848.45,359.873c0,1.536,1.245,2.789,2.789,2.789c1.536,0,2.785-1.249,2.785-2.785
	c0-1.54-1.245-2.789-2.785-2.789C849.699,357.084,848.45,358.337,848.45,359.873"/>
<path id="XMLID_196_" fill="#767676" d="M836.206,190.816c0,1.54-1.249,2.789-2.789,2.789c-1.54-0.004-2.785-1.253-2.785-2.789
	c0-1.54,1.249-2.789,2.785-2.789C834.961,188.027,836.206,189.279,836.206,190.816"/>
<path id="XMLID_195_" fill="#EB495C" d="M851.561,192.111L851.561,192.111l-18.14-0.011c-0.712,0-1.291-0.575-1.291-1.291
	c0-0.709,0.578-1.287,1.291-1.287l18.14,0.008c0.712,0,1.291,0.582,1.291,1.291C852.852,191.536,852.273,192.111,851.561,192.111"/>
<path id="XMLID_194_" fill="#767676" d="M836.198,202.891c0,1.536-1.249,2.785-2.789,2.785c-1.536,0-2.781-1.253-2.781-2.789
	c0-1.536,1.249-2.785,2.785-2.785C834.953,200.102,836.198,201.355,836.198,202.891"/>
<path id="XMLID_193_" fill="#EB495C" d="M851.553,204.19L851.553,204.19l-18.136-0.011c-0.716,0-1.291-0.575-1.291-1.291
	c0-0.709,0.574-1.287,1.291-1.287l18.136,0.008c0.712,0,1.287,0.582,1.287,1.291C852.84,203.611,852.265,204.19,851.553,204.19"/>
<path id="XMLID_192_" fill="#767676" d="M836.194,214.966c0,1.536-1.249,2.785-2.789,2.785c-1.541,0-2.785-1.253-2.785-2.789
	c0-1.536,1.249-2.789,2.785-2.789C834.95,212.177,836.194,213.426,836.194,214.966"/>
<path id="XMLID_191_" fill="#EB495C" d="M851.549,216.261L851.549,216.261l-18.14-0.008c-0.716,0-1.291-0.579-1.291-1.291
	c0-0.709,0.575-1.287,1.291-1.287l18.14,0.008c0.713,0,1.287,0.579,1.287,1.287C852.836,215.686,852.262,216.261,851.549,216.261"/>
<path id="XMLID_190_" fill="#767676" d="M836.187,227.041c0,1.54-1.249,2.789-2.789,2.789c-1.536-0.004-2.781-1.253-2.781-2.789
	c0-1.54,1.249-2.789,2.785-2.789C834.942,224.253,836.187,225.505,836.187,227.041"/>
<path id="XMLID_189_" fill="#EB495C" d="M851.542,228.336L851.542,228.336l-18.14-0.012c-0.712,0-1.287-0.575-1.287-1.291
	c0-0.709,0.575-1.287,1.287-1.287l18.14,0.008c0.716,0,1.291,0.582,1.291,1.291C852.832,227.762,852.258,228.336,851.542,228.336"/>
<path id="XMLID_188_" fill="#767676" d="M836.183,239.117c0,1.536-1.249,2.785-2.789,2.785c-1.54,0-2.785-1.253-2.785-2.789
	c0-1.536,1.249-2.785,2.785-2.785C834.938,236.328,836.183,237.581,836.183,239.117"/>
<path id="XMLID_187_" fill="#EB495C" d="M851.537,240.415L851.537,240.415l-18.14-0.011c-0.712,0-1.291-0.575-1.291-1.291
	c0-0.709,0.578-1.287,1.291-1.287l18.14,0.008c0.713,0,1.287,0.582,1.287,1.291C852.825,239.837,852.25,240.415,851.537,240.415"/>
<path id="XMLID_186_" fill="#767676" d="M836.175,251.192c0,1.536-1.249,2.785-2.789,2.785c-1.536,0-2.781-1.253-2.781-2.789
	c0-1.536,1.249-2.789,2.785-2.789C834.93,248.403,836.175,249.652,836.175,251.192"/>
<path id="XMLID_185_" fill="#EB495C" d="M851.53,252.487L851.53,252.487l-18.136-0.008c-0.716,0-1.291-0.579-1.291-1.291
	c0-0.709,0.575-1.291,1.291-1.291l18.136,0.012c0.712,0,1.287,0.578,1.287,1.291S852.242,252.487,851.53,252.487"/>
<path id="XMLID_184_" fill="#767676" d="M836.172,263.267c-0.004,1.54-1.249,2.789-2.789,2.789
	c-1.541-0.004-2.786-1.253-2.786-2.793c0-1.536,1.249-2.785,2.786-2.785C834.927,260.478,836.172,261.731,836.172,263.267"/>
<path id="XMLID_183_" fill="#EB495C" d="M851.522,264.562L851.522,264.562l-18.136-0.011c-0.716,0-1.291-0.575-1.291-1.291
	c0-0.709,0.575-1.287,1.291-1.287l18.136,0.008c0.717,0,1.291,0.582,1.291,1.291C852.813,263.987,852.239,264.562,851.522,264.562"
	/>
<path id="XMLID_182_" fill="#767676" d="M836.164,275.342c0,1.536-1.249,2.785-2.789,2.785c-1.536,0-2.781-1.253-2.781-2.789
	c0-1.536,1.245-2.785,2.785-2.785C834.919,272.553,836.164,273.806,836.164,275.342"/>
<path id="XMLID_181_" fill="#EB495C" d="M851.518,276.637L851.518,276.637l-18.14-0.008c-0.712,0-1.287-0.575-1.287-1.287
	c0-0.713,0.575-1.291,1.287-1.291l18.14,0.008c0.716,0,1.291,0.578,1.291,1.291C852.809,276.063,852.235,276.637,851.518,276.637"/>
<path id="XMLID_180_" fill="#767676" d="M836.16,287.418c-0.004,1.536-1.249,2.785-2.789,2.785c-1.54,0-2.785-1.253-2.785-2.789
	c0-1.536,1.249-2.789,2.785-2.789C834.915,284.629,836.16,285.878,836.16,287.418"/>
<path id="XMLID_179_" fill="#EB495C" d="M851.515,288.712L851.515,288.712l-18.14-0.008c-0.716,0-1.291-0.579-1.291-1.291
	c0-0.709,0.575-1.291,1.291-1.291l18.14,0.011c0.713,0,1.287,0.579,1.287,1.291C852.802,288.138,852.227,288.712,851.515,288.712"/>
<path id="XMLID_178_" fill="#767676" d="M836.152,299.493c0,1.536-1.249,2.789-2.789,2.789c-1.536-0.004-2.785-1.253-2.781-2.793
	c0-1.536,1.245-2.785,2.785-2.785C834.907,296.704,836.152,297.957,836.152,299.493"/>
<path id="XMLID_177_" fill="#EB495C" d="M851.507,300.792L851.507,300.792l-18.136-0.008c-0.716,0-1.291-0.579-1.291-1.291
	s0.575-1.291,1.291-1.291l18.136,0.011c0.713,0,1.287,0.579,1.287,1.291C852.794,300.217,852.22,300.792,851.507,300.792"/>
<path id="XMLID_176_" fill="#767676" d="M836.149,311.568c-0.004,1.536-1.249,2.785-2.789,2.785c-1.54,0-2.785-1.253-2.785-2.789
	c0-1.536,1.249-2.785,2.785-2.785C834.904,308.779,836.149,310.028,836.149,311.568"/>
<path id="XMLID_175_" fill="#EB495C" d="M851.499,312.863L851.499,312.863l-18.136-0.008c-0.716,0-1.291-0.578-1.291-1.291
	c0-0.709,0.575-1.287,1.291-1.287l18.136,0.008c0.716,0,1.291,0.578,1.291,1.291C852.79,312.288,852.216,312.863,851.499,312.863"/>
<path id="XMLID_174_" fill="#767676" d="M836.141,323.643c0,1.536-1.249,2.785-2.789,2.785c-1.536,0-2.785-1.253-2.781-2.789
	c0-1.54,1.245-2.789,2.785-2.789C834.896,320.854,836.141,322.103,836.141,323.643"/>
<path id="XMLID_173_" fill="#EB495C" d="M851.495,324.938L851.495,324.938l-18.14-0.008c-0.713,0-1.287-0.578-1.287-1.291
	c0-0.709,0.574-1.291,1.287-1.291l18.14,0.012c0.716,0,1.291,0.578,1.291,1.291C852.786,324.363,852.212,324.938,851.495,324.938"/>
<path id="XMLID_172_" fill="#767676" d="M836.137,335.719c-0.004,1.536-1.249,2.789-2.789,2.789
	c-1.54-0.004-2.785-1.253-2.785-2.793c0-1.536,1.249-2.785,2.785-2.785C834.892,332.93,836.137,334.182,836.137,335.719"/>
<path id="XMLID_171_" fill="#EB495C" d="M851.492,337.017L851.492,337.017l-18.14-0.008c-0.716,0-1.291-0.578-1.291-1.291
	c0-0.713,0.575-1.291,1.291-1.291l18.14,0.008c0.712,0,1.287,0.582,1.287,1.291C852.779,336.439,852.204,337.017,851.492,337.017"/>
<path id="XMLID_170_" fill="#767676" d="M836.129,347.794c0,1.536-1.249,2.785-2.789,2.785c-1.536,0-2.785-1.253-2.781-2.789
	c0-1.536,1.245-2.785,2.785-2.785C834.884,345.005,836.129,346.254,836.129,347.794"/>
<path id="XMLID_169_" fill="#EB495C" d="M851.484,349.089L851.484,349.089l-18.136-0.008c-0.716,0-1.291-0.578-1.291-1.291
	c0-0.709,0.575-1.287,1.291-1.287l18.136,0.008c0.712,0,1.287,0.582,1.287,1.291C852.771,348.514,852.196,349.089,851.484,349.089"
	/>
<path id="XMLID_168_" fill="#767676" d="M836.125,359.865c-0.003,1.54-1.249,2.789-2.793,2.789c-1.536,0-2.781-1.253-2.781-2.789
	c0-1.54,1.249-2.789,2.785-2.789C834.877,357.08,836.125,358.329,836.125,359.865"/>
<path id="XMLID_167_" fill="#EB495C" d="M851.476,361.164L851.476,361.164l-18.136-0.008c-0.716,0-1.291-0.578-1.291-1.291
	c0-0.709,0.575-1.291,1.291-1.291l18.136,0.011c0.716,0,1.291,0.579,1.291,1.291C852.767,360.589,852.193,361.164,851.476,361.164"
	/>
<path id="XMLID_166_" fill="#F9B418" d="M994.019,233.022l-3.685-0.004l0.011-26.935l3.689,0.004c2.057,0,3.724,1.666,3.724,3.724
	l-0.012,19.488C997.747,231.355,996.076,233.022,994.019,233.022"/>
<path id="XMLID_165_" fill="#75AE42" d="M992.59,217.824l-3.689-0.004l0.015-26.936l3.685,0.004c2.057,0,3.724,1.667,3.724,3.724
	l-0.011,19.488C996.314,216.158,994.644,217.824,992.59,217.824"/>
<path id="XMLID_164_" fill="#EB495C" d="M691.859,260.877l3.689,0.004l0.011-26.935l-3.685-0.004c-2.057,0-3.727,1.663-3.727,3.72
	l-0.011,19.488C688.135,259.206,689.806,260.877,691.859,260.877"/>
<rect id="XMLID_163_" x="866.23" y="209.95" fill="#9B9B9B" width="103.26" height="2.578"/>
<rect id="XMLID_162_" x="950.223" y="203.077" fill="#9B9B9B" width="19.266" height="2.58"/>
<rect id="XMLID_161_" x="950.228" y="196.187" fill="#9B9B9B" width="19.269" height="2.58"/>
<rect id="XMLID_160_" x="866.222" y="227.825" fill="#9B9B9B" width="103.26" height="1.291"/>
<rect id="XMLID_159_" x="866.218" y="238.165" fill="#9B9B9B" width="103.256" height="1.291"/>
<rect id="XMLID_158_" x="866.21" y="248.505" fill="#9B9B9B" width="103.26" height="1.289"/>
<rect id="XMLID_157_" x="866.207" y="258.841" fill="#9B9B9B" width="103.26" height="1.291"/>
<rect id="XMLID_156_" x="866.202" y="269.178" fill="#9B9B9B" width="103.256" height="1.289"/>
<rect id="XMLID_155_" x="866.195" y="279.52" fill="#9B9B9B" width="103.26" height="1.289"/>
<rect id="XMLID_154_" x="866.195" y="289.856" fill="#9B9B9B" width="103.256" height="1.291"/>
<rect id="XMLID_153_" x="866.187" y="300.196" fill="#9B9B9B" width="103.256" height="1.287"/>
<rect id="XMLID_152_" x="866.183" y="310.532" fill="#9B9B9B" width="103.26" height="1.291"/>
<rect id="XMLID_151_" x="866.18" y="320.87" fill="#9B9B9B" width="103.256" height="1.289"/>
<rect id="XMLID_150_" x="866.172" y="331.211" fill="#9B9B9B" width="103.26" height="1.291"/>
<rect id="XMLID_149_" x="866.168" y="341.549" fill="#9B9B9B" width="103.26" height="1.289"/>
<path id="XMLID_148_" fill="#9B9B9B" d="M869.896,204.328l17.366,0.008c1.379,0,2.498-1.115,2.498-2.494l0.004-3.007
	c0-1.375-1.119-2.494-2.498-2.494l-17.366-0.011c-1.375,0-2.494,1.119-2.494,2.494l-0.004,3.007
	C867.402,203.209,868.52,204.328,869.896,204.328"/>
<rect id="XMLID_147_" x="936.424" y="356.279" fill="#9B9B9B" width="32.996" height="2.58"/>
<rect id="XMLID_146_" x="714.343" y="209.881" fill="#9B9B9B" width="103.261" height="2.578"/>
<rect id="XMLID_145_" x="714.35" y="202.968" fill="#9B9B9B" width="19.27" height="2.578"/>
<rect id="XMLID_144_" x="714.354" y="196.074" fill="#9B9B9B" width="19.266" height="2.58"/>
<rect id="XMLID_143_" x="714.331" y="227.756" fill="#9B9B9B" width="103.264" height="1.291"/>
<rect id="XMLID_142_" x="714.327" y="238.092" fill="#9B9B9B" width="103.26" height="1.291"/>
<rect id="XMLID_141_" x="714.327" y="248.432" fill="#9B9B9B" width="103.26" height="1.289"/>
<rect id="XMLID_140_" x="714.324" y="258.772" fill="#9B9B9B" width="103.26" height="1.291"/>
<rect id="XMLID_139_" x="714.316" y="269.109" fill="#9B9B9B" width="103.26" height="1.289"/>
<rect id="XMLID_138_" x="714.312" y="279.447" fill="#9B9B9B" width="103.26" height="1.289"/>
<rect id="XMLID_137_" x="714.308" y="289.783" fill="#9B9B9B" width="103.26" height="1.291"/>
<rect id="XMLID_136_" x="714.3" y="300.123" fill="#9B9B9B" width="103.26" height="1.287"/>
<rect id="XMLID_135_" x="714.297" y="310.463" fill="#9B9B9B" width="103.26" height="1.291"/>
<rect id="XMLID_134_" x="714.293" y="320.799" fill="#9B9B9B" width="103.26" height="1.291"/>
<rect id="XMLID_133_" x="714.289" y="331.139" fill="#9B9B9B" width="103.256" height="1.289"/>
<rect id="XMLID_132_" x="714.281" y="341.475" fill="#9B9B9B" width="103.26" height="1.291"/>
<path id="XMLID_131_" fill="#9B9B9B" d="M813.94,204.301l-17.362-0.008c-1.383-0.004-2.498-1.119-2.498-2.498v-3.003
	c0-1.379,1.119-2.498,2.502-2.498l17.362,0.008c1.379,0.004,2.494,1.119,2.494,2.498v3.007
	C816.438,203.182,815.32,204.301,813.94,204.301"/>
<rect id="XMLID_130_" x="714.274" y="356.172" fill="#9B9B9B" width="32.996" height="2.582"/>
<path id="XMLID_129_" fill="#54BCC2" d="M1029.199,216.633c-5.172-0.004-9.363,4.187-9.363,9.355v1.222h-0.073l0.073,146.401h0.065
	v4.16c0,5.168,4.229,6.425,9.402,6.425l121.495,0.042l-0.073-7.65l-0.081-3.731l0.05-142.463v-3.145l0.004-10.577L1029.199,216.633z
	"/>
<path id="XMLID_128_" fill="#E0E1E0" d="M1150.76,382.269l-117.668-0.038c-5.003,0-9.106-1.126-9.106-6.133l-0.038-1.203
	c0-5.007,4.023-6.13,9.033-6.126l117.664,0.034"/>
<rect id="XMLID_127_" x="1036.66" y="216.635" fill="#6FCAD0" width="6.664" height="152.136"/>
<rect id="XMLID_126_" x="1060.724" y="250.529" fill="#FFFFFF" width="69.095" height="30.406"/>
<polygon id="XMLID_125_" fill="#75AE42" points="883.162,435.473 813.504,414.951 688.078,414.951 688.081,643.545 883.162,643.541 
	1078.243,643.541 1078.243,414.951 916.335,414.951 "/>
<polygon id="XMLID_124_" fill="#CFD1D3" points="869.133,419.751 722.503,411.756 696.329,411.756 696.329,630.845 869.133,630.842 
	883.162,630.842 "/>
<path id="XMLID_123_" fill="#FFFFFF" d="M852.614,411.756H704.156l0.004,210.608h150.197c15.906,0,28.805-0.471,28.805,8.478
	V431.704C883.158,414.836,869.482,411.752,852.614,411.756"/>
<polygon id="XMLID_122_" fill="#CFD1D3" points="897.188,419.751 1043.818,411.752 1069.991,411.752 1069.995,630.842 
	897.191,630.842 883.162,630.842 "/>
<path id="XMLID_121_" fill="#FFFFFF" d="M913.703,411.752h148.458V622.36H911.964c-15.906,0-28.805-0.467-28.805,8.478V431.704
	C883.155,414.836,896.835,411.752,913.703,411.752"/>
<path id="XMLID_120_" fill="#D1D0D7" d="M883.538,631.167c-0.18,0-0.326-0.146-0.326-0.322v-203.95c0-0.18,0.142-0.326,0.322-0.326
	c0.18,0,0.322,0.146,0.322,0.326l0.004,203.95C883.859,631.022,883.714,631.167,883.538,631.167"/>
<path id="XMLID_119_" fill="#F4F4F5" d="M903.302,622.379l2.386-210.324c-12.979,1.088-22.526,5.555-22.526,19.653v199.134
	C883.162,623.59,891.625,622.524,903.302,622.379"/>
<path id="XMLID_118_" fill="#D1D0D7" d="M1042.665,426.302H918.737c-0.18,0-0.318-0.142-0.318-0.322c0-0.18,0.138-0.322,0.318-0.322
	h123.928c0.18,0,0.318,0.142,0.318,0.322C1042.983,426.16,1042.845,426.302,1042.665,426.302"/>
<path id="XMLID_117_" fill="#D1D0D7" d="M1042.665,439.442H918.737c-0.18,0-0.322-0.142-0.322-0.322c0-0.18,0.142-0.322,0.322-0.322
	h123.928c0.18,0,0.322,0.142,0.322,0.322C1042.987,439.301,1042.845,439.442,1042.665,439.442"/>
<path id="XMLID_116_" fill="#D1D0D7" d="M1042.665,452.582H918.737c-0.18,0-0.322-0.146-0.322-0.322c0-0.18,0.142-0.326,0.322-0.326
	h123.928c0.18,0,0.322,0.146,0.322,0.326C1042.987,452.437,1042.845,452.582,1042.665,452.582"/>
<path id="XMLID_115_" fill="#D1D0D7" d="M918.74,465.719c-0.18,0-0.322-0.146-0.322-0.326c0-0.176,0.142-0.322,0.322-0.322h123.928
	c0.18,0,0.322,0.142,0.322,0.322c0,0.18-0.142,0.322-0.322,0.322L918.74,465.719z"/>
<path id="XMLID_114_" fill="#D1D0D7" d="M1042.665,478.855H918.737c-0.18,0-0.322-0.146-0.322-0.322c0-0.18,0.142-0.326,0.322-0.326
	h123.928c0.18,0,0.322,0.146,0.322,0.326C1042.987,478.71,1042.845,478.855,1042.665,478.855"/>
<path id="XMLID_113_" fill="#D1D0D7" d="M918.74,478.855c-0.18,0-0.322-0.146-0.322-0.322V425.98c0-0.18,0.142-0.322,0.322-0.322
	c0.18,0,0.322,0.142,0.322,0.322v52.553C919.062,478.71,918.92,478.855,918.74,478.855"/>
<path id="XMLID_112_" fill="#D1D0D7" d="M1042.665,478.855c-0.18,0-0.322-0.146-0.322-0.322l-0.004-52.553
	c0-0.18,0.142-0.322,0.322-0.322c0.18,0,0.322,0.142,0.322,0.322l0.004,52.553C1042.987,478.71,1042.845,478.855,1042.665,478.855"
	/>
<path id="XMLID_111_" fill="#D1D0D7" d="M1022.981,478.802c-0.18,0-0.322-0.142-0.322-0.322v-52.549c0-0.18,0.142-0.322,0.322-0.322
	c0.18,0,0.322,0.142,0.322,0.322v52.549C1023.303,478.66,1023.161,478.802,1022.981,478.802"/>
<path id="XMLID_110_" fill="#D1D0D7" d="M959.031,479.139c-0.18,0-0.322-0.142-0.322-0.322v-52.549c0-0.18,0.142-0.326,0.322-0.326
	c0.18,0,0.321,0.146,0.321,0.326v52.549C959.353,478.997,959.211,479.139,959.031,479.139"/>
<path id="XMLID_109_" fill="#D1D0D7" d="M1041.585,490.977H917.656c-0.18,0-0.322-0.142-0.322-0.322c0-0.18,0.142-0.322,0.322-0.322
	h123.928c0.18,0,0.322,0.142,0.322,0.322C1041.906,490.835,1041.765,490.977,1041.585,490.977"/>
<path id="XMLID_108_" fill="#D1D0D7" d="M1041.585,504.117H917.656c-0.18,0-0.322-0.142-0.322-0.322c0-0.18,0.142-0.322,0.322-0.322
	h123.928c0.18,0,0.322,0.142,0.322,0.322C1041.906,503.975,1041.765,504.117,1041.585,504.117"/>
<path id="XMLID_107_" fill="#D1D0D7" d="M917.66,517.253c-0.18,0-0.322-0.142-0.322-0.322c0-0.18,0.142-0.322,0.322-0.322
	l123.928-0.004c0.18,0,0.322,0.142,0.322,0.322c0,0.18-0.142,0.322-0.322,0.322L917.66,517.253z"/>
<path id="XMLID_106_" fill="#D1D0D7" d="M917.66,530.393c-0.18,0-0.322-0.142-0.322-0.322c0-0.18,0.142-0.322,0.322-0.322
	l123.928-0.004c0.18,0,0.322,0.142,0.322,0.322c0,0.18-0.142,0.322-0.322,0.322L917.66,530.393z"/>
<path id="XMLID_105_" fill="#D1D0D7" d="M1041.585,543.53H917.656c-0.18,0-0.322-0.142-0.322-0.322c0-0.18,0.142-0.322,0.322-0.322
	h123.928c0.18,0,0.322,0.142,0.322,0.322C1041.906,543.388,1041.765,543.53,1041.585,543.53"/>
<path id="XMLID_104_" fill="#D1D0D7" d="M917.66,543.53c-0.18,0-0.322-0.142-0.322-0.322v-52.553c0-0.18,0.142-0.322,0.322-0.322
	c0.18,0,0.322,0.142,0.322,0.322v52.553C917.982,543.388,917.84,543.53,917.66,543.53"/>
<path id="XMLID_103_" fill="#D1D0D7" d="M1041.585,543.53c-0.18,0-0.322-0.142-0.322-0.322v-52.553c0-0.18,0.142-0.322,0.322-0.322
	s0.322,0.142,0.322,0.322v52.553C1041.906,543.388,1041.765,543.53,1041.585,543.53"/>
<path id="XMLID_102_" fill="#D1D0D7" d="M1021.905,543.48c-0.18,0-0.326-0.145-0.326-0.322v-52.553c0-0.176,0.145-0.322,0.326-0.322
	c0.177,0,0.322,0.146,0.322,0.322v52.553C1022.227,543.334,1022.081,543.48,1021.905,543.48"/>
<path id="XMLID_101_" fill="#D1D0D7" d="M957.951,543.813c-0.18,0-0.322-0.142-0.322-0.322v-52.549c0-0.18,0.142-0.322,0.322-0.322
	c0.18,0,0.321,0.142,0.321,0.322v52.549C958.272,543.671,958.131,543.813,957.951,543.813"/>
<path id="XMLID_100_" fill="#D1D0D7" d="M918.009,556.969c-0.18,0-0.322-0.146-0.322-0.326c0-0.176,0.142-0.322,0.322-0.322
	l123.928-0.004c0.177,0,0.322,0.146,0.322,0.326c0,0.176-0.145,0.322-0.322,0.322L918.009,556.969z"/>
<path id="XMLID_99_" fill="#D1D0D7" d="M1041.937,570.102H918.009c-0.18,0-0.322-0.146-0.322-0.326c0-0.176,0.142-0.322,0.322-0.322
	h123.928c0.177,0,0.322,0.146,0.322,0.322C1042.259,569.956,1042.114,570.102,1041.937,570.102"/>
<path id="XMLID_98_" fill="#D1D0D7" d="M1041.937,583.242H918.009c-0.18,0-0.322-0.145-0.322-0.326c0-0.176,0.142-0.322,0.322-0.322
	h123.928c0.177,0,0.322,0.145,0.322,0.322C1042.259,583.096,1042.114,583.242,1041.937,583.242"/>
<path id="XMLID_97_" fill="#D1D0D7" d="M918.009,596.378c-0.18,0-0.322-0.142-0.322-0.322c0-0.18,0.142-0.322,0.322-0.322
	l123.928-0.004c0.177,0,0.322,0.146,0.322,0.326c0,0.176-0.145,0.322-0.322,0.322H918.009z"/>
<path id="XMLID_96_" fill="#D1D0D7" d="M1041.937,609.514H918.009c-0.18,0-0.322-0.146-0.322-0.326c0-0.176,0.142-0.322,0.322-0.322
	h123.928c0.177,0,0.322,0.146,0.322,0.322C1042.259,609.369,1042.114,609.514,1041.937,609.514"/>
<path id="XMLID_95_" fill="#D1D0D7" d="M918.009,609.514c-0.18,0-0.322-0.146-0.322-0.326v-52.549c0-0.176,0.142-0.322,0.322-0.322
	c0.18,0,0.322,0.146,0.322,0.322v52.549C918.331,609.369,918.189,609.514,918.009,609.514"/>
<path id="XMLID_94_" fill="#D1D0D7" d="M1041.937,609.514c-0.18,0-0.326-0.146-0.326-0.326v-52.549c0-0.18,0.146-0.326,0.326-0.326
	c0.177,0,0.322,0.146,0.322,0.326v52.549C1042.259,609.369,1042.114,609.514,1041.937,609.514"/>
<path id="XMLID_93_" fill="#D1D0D7" d="M1022.25,609.465c-0.18,0-0.322-0.142-0.322-0.322v-52.549c0-0.18,0.142-0.322,0.322-0.322
	c0.18,0,0.322,0.142,0.322,0.322v52.549C1022.571,609.323,1022.43,609.465,1022.25,609.465"/>
<path id="XMLID_92_" fill="#D1D0D7" d="M958.303,609.802c-0.18,0-0.322-0.146-0.322-0.322v-52.553c0-0.176,0.142-0.322,0.322-0.322
	c0.176,0,0.322,0.145,0.322,0.322v52.553C958.625,609.656,958.479,609.802,958.303,609.802"/>
<path id="XMLID_91_" fill="#D1D0D7" d="M726.705,424.819c-0.176,0-0.322-0.142-0.322-0.322c0-0.18,0.145-0.322,0.322-0.322
	l123.928-0.004c0.18,0,0.322,0.142,0.322,0.322c0,0.18-0.142,0.322-0.322,0.322L726.705,424.819z"/>
<path id="XMLID_90_" fill="#D1D0D7" d="M850.63,437.952H726.701c-0.176,0-0.322-0.142-0.322-0.322c0-0.18,0.146-0.322,0.322-0.322
	H850.63c0.18,0,0.322,0.142,0.322,0.322C850.952,437.81,850.81,437.952,850.63,437.952"/>
<path id="XMLID_89_" fill="#D1D0D7" d="M850.63,451.092H726.701c-0.176,0-0.322-0.142-0.322-0.322c0-0.18,0.146-0.322,0.322-0.322
	H850.63c0.18,0,0.322,0.142,0.322,0.322C850.952,450.951,850.81,451.092,850.63,451.092"/>
<path id="XMLID_88_" fill="#D1D0D7" d="M726.709,464.232c-0.18,0-0.322-0.145-0.322-0.322c0-0.18,0.142-0.326,0.322-0.326h123.924
	c0.18,0,0.322,0.142,0.322,0.322c0,0.18-0.142,0.322-0.322,0.322L726.709,464.232z"/>
<path id="XMLID_87_" fill="#D1D0D7" d="M850.63,477.365H726.705c-0.18,0-0.322-0.142-0.322-0.322c0-0.18,0.142-0.322,0.322-0.322
	H850.63c0.18,0,0.322,0.142,0.322,0.322C850.952,477.223,850.81,477.365,850.63,477.365"/>
<path id="XMLID_86_" fill="#D1D0D7" d="M726.709,477.365c-0.18,0-0.322-0.142-0.322-0.322l-0.004-52.549
	c0-0.18,0.145-0.322,0.322-0.322c0.18,0,0.326,0.142,0.326,0.322v52.549C727.031,477.223,726.889,477.365,726.709,477.365"/>
<path id="XMLID_85_" fill="#D1D0D7" d="M850.63,477.365c-0.18,0-0.321-0.142-0.321-0.322V424.49c0-0.18,0.141-0.322,0.321-0.322
	c0.18,0,0.322,0.142,0.322,0.322v52.553C850.952,477.223,850.81,477.365,850.63,477.365"/>
<path id="XMLID_84_" fill="#D1D0D7" d="M830.95,477.319c-0.18,0-0.322-0.146-0.322-0.326v-52.549c0-0.18,0.142-0.322,0.322-0.322
	c0.18,0,0.322,0.142,0.322,0.322v52.549C831.272,477.173,831.13,477.319,830.95,477.319"/>
<path id="XMLID_83_" fill="#D1D0D7" d="M767.003,477.652c-0.184,0-0.326-0.142-0.326-0.322v-52.549c0-0.18,0.142-0.322,0.326-0.322
	c0.18,0,0.318,0.142,0.318,0.322v52.549C767.322,477.511,767.183,477.652,767.003,477.652"/>
<path id="XMLID_82_" fill="#D1D0D7" d="M849.553,489.49H725.625c-0.18,0-0.322-0.146-0.322-0.326c0-0.176,0.142-0.322,0.322-0.322
	h123.928c0.18,0,0.322,0.146,0.322,0.322C849.875,489.344,849.733,489.49,849.553,489.49"/>
<path id="XMLID_81_" fill="#D1D0D7" d="M849.553,502.626H725.625c-0.18,0-0.322-0.142-0.322-0.322c0-0.18,0.142-0.322,0.322-0.322
	h123.928c0.18,0,0.322,0.142,0.322,0.322C849.875,502.485,849.733,502.626,849.553,502.626"/>
<path id="XMLID_80_" fill="#D1D0D7" d="M849.553,515.767H725.625c-0.18,0-0.322-0.142-0.322-0.322c0-0.18,0.142-0.322,0.322-0.322
	h123.928c0.18,0,0.322,0.142,0.322,0.322C849.875,515.625,849.733,515.767,849.553,515.767"/>
<path id="XMLID_79_" fill="#D1D0D7" d="M725.629,528.903c-0.18,0-0.322-0.142-0.322-0.322s0.142-0.322,0.322-0.322l123.928-0.004
	c0.18,0,0.322,0.146,0.322,0.322c0,0.18-0.142,0.326-0.322,0.326H725.629z"/>
<path id="XMLID_78_" fill="#D1D0D7" d="M849.553,542.039H725.625c-0.18,0-0.322-0.142-0.322-0.322c0-0.18,0.142-0.322,0.322-0.322
	h123.928c0.18,0,0.322,0.142,0.322,0.322C849.875,541.898,849.733,542.039,849.553,542.039"/>
<path id="XMLID_77_" fill="#D1D0D7" d="M725.629,542.039c-0.18,0-0.322-0.142-0.322-0.322v-52.553c0-0.176,0.142-0.322,0.322-0.322
	c0.18,0,0.322,0.146,0.322,0.322v52.553C725.951,541.898,725.809,542.039,725.629,542.039"/>
<path id="XMLID_76_" fill="#D1D0D7" d="M849.553,542.039c-0.18,0-0.322-0.142-0.322-0.322v-52.553c0-0.176,0.141-0.322,0.322-0.322
	c0.18,0,0.322,0.146,0.322,0.322v52.553C849.875,541.898,849.733,542.039,849.553,542.039"/>
<path id="XMLID_75_" fill="#D1D0D7" d="M829.873,541.99c-0.18,0-0.326-0.142-0.326-0.322v-52.549c0-0.18,0.146-0.326,0.326-0.326
	c0.176,0,0.322,0.145,0.322,0.326v52.549C830.195,541.848,830.05,541.99,829.873,541.99"/>
<path id="XMLID_74_" fill="#D1D0D7" d="M765.919,542.323c-0.18,0-0.322-0.142-0.322-0.322v-52.549c0-0.18,0.142-0.322,0.322-0.322
	c0.18,0,0.322,0.142,0.322,0.322v52.549C766.241,542.181,766.099,542.323,765.919,542.323"/>
<path id="XMLID_73_" fill="#D1D0D7" d="M725.977,555.479c-0.18,0-0.322-0.145-0.322-0.326c0-0.176,0.142-0.322,0.322-0.322h123.928
	c0.176,0,0.322,0.142,0.322,0.322c0,0.18-0.146,0.322-0.322,0.322L725.977,555.479z"/>
<path id="XMLID_72_" fill="#D1D0D7" d="M849.906,568.615H725.977c-0.18,0-0.322-0.146-0.322-0.322c0-0.18,0.142-0.322,0.322-0.322
	h123.928c0.176,0,0.322,0.142,0.322,0.322C850.227,568.469,850.082,568.615,849.906,568.615"/>
<path id="XMLID_71_" fill="#D1D0D7" d="M849.906,581.751H725.977c-0.18,0-0.322-0.145-0.322-0.322c0-0.18,0.142-0.326,0.322-0.326
	h123.928c0.176,0,0.322,0.146,0.322,0.326C850.227,581.606,850.082,581.751,849.906,581.751"/>
<path id="XMLID_70_" fill="#D1D0D7" d="M725.977,594.892c-0.18,0-0.322-0.146-0.322-0.326c0-0.176,0.142-0.322,0.322-0.322h123.928
	c0.176,0,0.322,0.142,0.322,0.322c0,0.18-0.146,0.322-0.322,0.322L725.977,594.892z"/>
<path id="XMLID_69_" fill="#D1D0D7" d="M849.906,608.028H725.977c-0.18,0-0.322-0.146-0.322-0.322c0-0.18,0.142-0.326,0.322-0.326
	h123.928c0.176,0,0.322,0.146,0.322,0.326C850.227,607.883,850.082,608.028,849.906,608.028"/>
<path id="XMLID_68_" fill="#D1D0D7" d="M725.977,608.028c-0.18,0-0.322-0.146-0.322-0.322v-52.553c0-0.176,0.142-0.322,0.322-0.322
	c0.18,0,0.322,0.146,0.322,0.322v52.553C726.299,607.883,726.157,608.028,725.977,608.028"/>
<path id="XMLID_67_" fill="#D1D0D7" d="M849.906,608.028c-0.18,0-0.326-0.146-0.326-0.322v-52.553c0-0.18,0.146-0.322,0.326-0.322
	c0.176,0,0.322,0.142,0.322,0.322v52.553C850.227,607.883,850.082,608.028,849.906,608.028"/>
<path id="XMLID_66_" fill="#D1D0D7" d="M830.218,607.974c-0.18,0-0.322-0.142-0.322-0.322l-0.003-52.549
	c0-0.18,0.145-0.322,0.326-0.322c0.176,0,0.322,0.142,0.322,0.322v52.549C830.54,607.833,830.398,607.974,830.218,607.974"/>
<path id="XMLID_65_" fill="#D1D0D7" d="M766.272,608.311c-0.18,0-0.322-0.145-0.322-0.322V555.44c0-0.18,0.142-0.326,0.322-0.326
	c0.176,0,0.322,0.145,0.322,0.326v52.549C766.593,608.166,766.448,608.311,766.272,608.311"/>
<path id="XMLID_64_" fill="#EB495C" d="M1037.815,463.776c-0.145-3.996-0.295-7.995-0.441-11.991
	c0.031-0.004,0.057-0.004,0.092-0.008c3-0.222,3.187-4.95,0.146-4.72c-0.138,0.012-0.276,0.019-0.414,0.031l-0.268-7.31
	c-0.115-3.023-4.839-3.199-4.724-0.149c0.096,2.605,0.192,5.206,0.287,7.808c-2.222,0.165-4.447,0.333-6.67,0.498
	c2.927-6.302,5.85-12.611,8.777-18.913c1.268-2.724-2.701-5.298-3.977-2.548c-3.532,7.608-7.065,15.217-10.6,22.829
	c-0.655,1.421-0.107,3.785,1.919,3.635c3.574-0.268,7.152-0.536,10.723-0.801c0.142,3.831,0.283,7.658,0.429,11.489
	C1033.206,466.654,1037.926,466.83,1037.815,463.776"/>
<path id="XMLID_63_" fill="#EB495C" d="M837.133,591.655c-0.145-3.996-0.295-7.991-0.44-11.991c0.031,0,0.061-0.004,0.092-0.008
	c2.999-0.222,3.188-4.95,0.145-4.72c-0.138,0.011-0.276,0.023-0.414,0.03l-0.268-7.309c-0.115-3.023-4.834-3.199-4.724-0.145
	c0.1,2.601,0.192,5.206,0.288,7.804c-2.222,0.165-4.448,0.333-6.67,0.498c2.927-6.302,5.85-12.608,8.781-18.914
	c1.264-2.724-2.705-5.298-3.98-2.544c-3.532,7.605-7.064,15.213-10.596,22.825c-0.659,1.421-0.111,3.785,1.915,3.635
	c3.574-0.264,7.152-0.536,10.723-0.801l0.429,11.493C832.525,594.532,837.244,594.708,837.133,591.655"/>
<path id="XMLID_62_" fill="#EB495C" d="M1042.247,522.758c0.762-4.884-2.935-8.708-7.053-10.474
	c-4.344-1.866-9.079-0.379-13.029,1.889c-0.402-3.509-0.552-7.03-0.387-10.573c0.349,0.173,0.74,0.284,1.199,0.234
	c5.191-0.617,10.386-1.226,15.577-1.839c2.64-0.31,1.686-4.329-0.935-4.019c-5.191,0.609-10.386,1.226-15.577,1.835
	c-0.805,0.092-1.241,0.544-1.429,1.1c-1.187-0.464-2.85,0.099-2.954,1.77c-0.31,5.122-0.035,10.21,0.774,15.274
	c0.245,1.532,1.709,1.827,2.812,1.299c0.364-0.031,0.736-0.119,1.092-0.376c3.122-2.23,6.742-3.797,10.635-2.969
	c3.926,0.835,5.819,4.344,4.85,8.053c-2.08,7.953-12.071,6.819-17.623,3.915c-2.344-1.222-4.582,2.245-2.226,3.474
	C1027.28,536.216,1040.328,535.013,1042.247,522.758"/>
<path id="XMLID_61_" fill="#EB495C" d="M849.783,517.724c0.766-4.888-2.935-8.712-7.049-10.478
	c-4.344-1.862-9.079-0.379-13.029,1.892c-0.402-3.513-0.552-7.034-0.387-10.577c0.349,0.173,0.739,0.284,1.199,0.234
	c5.191-0.617,10.386-1.226,15.577-1.839c2.639-0.31,1.685-4.325-0.935-4.019c-5.195,0.609-10.386,1.226-15.577,1.835
	c-0.805,0.092-1.241,0.544-1.429,1.099c-1.188-0.464-2.85,0.099-2.954,1.77c-0.31,5.122-0.034,10.21,0.774,15.274
	c0.245,1.536,1.709,1.827,2.812,1.298c0.364-0.031,0.735-0.119,1.088-0.375c3.126-2.23,6.746-3.793,10.639-2.969
	c3.923,0.835,5.819,4.348,4.85,8.053c-2.08,7.953-12.071,6.819-17.622,3.915c-2.344-1.222-4.582,2.249-2.226,3.478
	C834.82,531.179,847.867,529.976,849.783,517.724"/>
<path id="XMLID_60_" fill="#EB495C" d="M851.775,459.279c0.763-4.884-2.935-8.708-7.053-10.478
	c-4.341-1.862-9.079-0.379-13.029,1.892c-0.398-3.513-0.548-7.03-0.387-10.573c0.349,0.172,0.74,0.283,1.199,0.23
	c5.191-0.613,10.386-1.226,15.577-1.835c2.643-0.31,1.686-4.329-0.935-4.023c-5.191,0.613-10.385,1.226-15.576,1.839
	c-0.801,0.092-1.242,0.544-1.429,1.099c-1.188-0.467-2.85,0.099-2.95,1.77c-0.31,5.122-0.038,10.21,0.77,15.27
	c0.249,1.536,1.708,1.827,2.812,1.303c0.364-0.031,0.736-0.123,1.091-0.376c3.126-2.23,6.743-3.796,10.639-2.969
	c3.923,0.835,5.815,4.344,4.847,8.053c-2.081,7.949-12.072,6.815-17.623,3.915c-2.344-1.226-4.582,2.245-2.226,3.475
	C836.807,472.737,849.86,471.534,851.775,459.279"/>
<path id="XMLID_59_" fill="#EB495C" d="M1040.657,588.398c0.762-4.884-2.934-8.708-7.053-10.474
	c-4.341-1.866-9.079-0.383-13.029,1.889c-0.398-3.513-0.548-7.03-0.387-10.574c0.348,0.172,0.739,0.284,1.199,0.23
	c5.191-0.613,10.39-1.226,15.581-1.835c2.639-0.31,1.682-4.329-0.939-4.019c-5.191,0.609-10.385,1.222-15.576,1.835
	c-0.801,0.092-1.241,0.544-1.429,1.1c-1.184-0.464-2.85,0.1-2.95,1.77c-0.31,5.122-0.038,10.209,0.77,15.274
	c0.249,1.532,1.708,1.827,2.812,1.299c0.364-0.031,0.736-0.123,1.092-0.376c3.126-2.229,6.743-3.796,10.639-2.969
	c3.923,0.835,5.815,4.344,4.846,8.053c-2.08,7.949-12.071,6.815-17.623,3.915c-2.341-1.222-4.578,2.245-2.225,3.475
	C1025.694,601.856,1038.742,600.653,1040.657,588.398"/>
<polygon id="XMLID_58_" fill="#F9B418" points="861.33,506.3 853.821,501.002 844.803,506.3 844.803,408.829 861.322,408.829 "/>
<path id="XMLID_57_" fill="#DA1C4D" d="M612.381,585.984l-0.004-5.34l19.588-0.004c0,0,2.739,0.816,2.739,2.517
	c0.004,1.988-2.739,2.827-2.739,2.827H612.381z"/>
<path id="XMLID_56_" fill="#EB495C" d="M602.888,588.674h13.584c1.341,0,2.429-1.088,2.429-2.429v-5.862
	c0-1.341-1.088-2.429-2.429-2.429l-13.588,0.004l-1.609-4.659h-11.807l0.004,20.036l11.803-0.004L602.888,588.674z"/>
<rect id="XMLID_55_" x="453.93" y="573.315" fill="#FFFFFF" width="135.54" height="20.032"/>
<rect id="XMLID_54_" x="464.663" y="580.661" transform="matrix(1 -0.0014 0.0014 1 -0.8399 0.7352)" fill="#EB495C" width="90.411" height="5.342"/>
<path id="XMLID_53_" fill="#EB495C" d="M453.932,593.359l-0.004-20.032h-2.364c-5.03,0-9.103,4.076-9.103,9.102v1.828
	c0,5.03,4.076,9.106,9.107,9.102H453.932z"/>
<path id="XMLID_52_" fill="#053547" d="M1115.369,578.874l3.118,0.019l-0.089,15.454c0,0-0.49,2.161-1.482,2.153
	c-1.161-0.008-1.636-2.172-1.636-2.172L1115.369,578.874z"/>
<path id="XMLID_51_" fill="#EB495C" d="M1114.059,584.981l5.858,0.034c1.344,0.008,4.551-29.031,4.551-29.031l-14.401,0.115
	C1110.067,556.099,1112.714,584.973,1114.059,584.981"/>
<polygon id="XMLID_50_" fill="#EB495C" points="1109.58,432.079 1125.418,431.983 1124.468,555.984 1110.067,556.099 "/>
<path id="XMLID_49_" fill="#FFFFFF" d="M1109.58,432.079l15.837-0.096l0.261-16.99c0.019-3.387-2.709-6.141-6.095-6.164
	l-3.574,0.169c-3.387-0.019-6.149,2.708-6.168,6.091L1109.58,432.079z"/>
<path id="XMLID_48_" fill="#FFFFFF" d="M1123.318,424.356c0.146-0.058,0.303-0.084,0.471-0.084l4.237-0.046
	c1.249-0.012,2.425,0.46,3.318,1.329c0.885,0.874,1.383,2.038,1.395,3.287l0.387,40.057c0.007,0.778-0.617,1.421-1.402,1.421
	c-0.778,0.008-1.418-0.617-1.425-1.398l-0.383-40.053c-0.011-1.015-0.846-1.831-1.858-1.82l-4.237,0.042
	c-0.781,0.012-1.421-0.613-1.425-1.394C1122.384,425.08,1122.771,424.555,1123.318,424.356"/>
<path id="XMLID_47_" fill="#EEEFF1" d="M615.4,546.683H277.263c-17.377,0-31.467-14.09-31.467-31.467V323.613
	c0-17.378,14.09-31.464,31.467-31.464H615.4c17.377,0,31.468,14.086,31.468,31.464v191.602
	C646.868,532.592,632.777,546.683,615.4,546.683"/>
<path id="XMLID_46_" fill="#A3C3CC" d="M663.276,111.618H224.687c-9.781,0-17.052,9.049-14.945,18.596l31.242,141.493
	c1.544,7.007,7.758,11.999,14.937,11.999h376.462c7.191,0,13.416-5.011,14.949-12.037l30.889-141.486
	C680.305,120.64,673.041,111.618,663.276,111.618"/>
<path id="XMLID_45_" fill="#C7C6C5" d="M480.956,535.312h-73.945c-7.658,0-13.857-6.202-13.857-13.857v-30.215
	c0-7.65,6.198-13.853,13.857-13.853h73.938c7.654,0,13.857,6.202,13.857,13.853v30.219
	C494.805,529.11,488.602,535.312,480.956,535.312"/>
<path id="XMLID_44_" fill="#D6D7D8" d="M582.14,466.029H305.827c-12.619,0-22.844-10.229-22.844-22.844v-95.154
	c0-12.615,10.225-22.844,22.844-22.844H582.14c12.616,0,22.844,10.229,22.844,22.844v95.154
	C604.984,455.801,594.755,466.029,582.14,466.029"/>
<path id="XMLID_43_" fill="#464646" d="M663.276,120.062H224.687c-9.781,0-17.052,9.045-14.945,18.596l31.242,141.489
	c1.544,7.011,7.758,12.003,14.937,12.003h376.462c7.191,0,13.416-5.011,14.949-12.037l30.889-141.489
	C680.305,129.083,673.041,120.062,663.276,120.062"/>
<polygon id="XMLID_42_" fill="#F4F4F5" points="624.997,280.828 259.441,280.828 229.794,140.327 658.165,140.327 "/>
<rect id="XMLID_41_" x="310.324" y="292.149" fill="#464646" width="267.314" height="8.271"/>
<path id="XMLID_40_" fill="#464646" d="M318.89,364.114h-13.405c-1.808,0-3.275-1.467-3.275-3.276v-13.405
	c0-1.808,1.467-3.275,3.279-3.275h13.401c1.812,0,3.275,1.467,3.275,3.275v13.405C322.166,362.646,320.702,364.114,318.89,364.114"
	/>
<path id="XMLID_39_" fill="#464646" d="M345.723,364.114h-13.405c-1.812,0-3.275-1.467-3.275-3.276v-13.405
	c0-1.808,1.463-3.275,3.275-3.275h13.405c1.808,0,3.272,1.467,3.272,3.275v13.405C348.994,362.646,347.531,364.114,345.723,364.114"
	/>
<path id="XMLID_38_" fill="#464646" d="M372.551,364.114h-13.405c-1.808,0-3.275-1.467-3.275-3.276v-13.405
	c0-1.808,1.467-3.275,3.275-3.275h13.405c1.812,0,3.276,1.467,3.276,3.275v13.405C375.827,362.646,374.363,364.114,372.551,364.114"
	/>
<path id="XMLID_37_" fill="#464646" d="M399.379,364.114h-13.405c-1.812,0-3.275-1.467-3.275-3.276v-13.405
	c0-1.808,1.464-3.275,3.275-3.275h13.401c1.812,0,3.275,1.467,3.275,3.275v13.405C402.651,362.646,401.187,364.114,399.379,364.114"
	/>
<path id="XMLID_36_" fill="#464646" d="M426.207,364.114h-13.404c-1.808,0-3.276-1.467-3.276-3.276v-13.405
	c0-1.808,1.467-3.275,3.276-3.275h13.404c1.812,0,3.275,1.467,3.275,3.275v13.405C429.483,362.646,428.02,364.114,426.207,364.114"
	/>
<path id="XMLID_35_" fill="#464646" d="M453.036,364.114h-13.401c-1.812,0-3.279-1.467-3.279-3.276v-13.405
	c0-1.808,1.467-3.275,3.279-3.275h13.401c1.812,0,3.276,1.467,3.276,3.275v13.405C456.311,362.646,454.848,364.114,453.036,364.114"
	/>
<path id="XMLID_34_" fill="#464646" d="M479.868,364.114h-13.405c-1.812,0-3.275-1.467-3.275-3.276v-13.405
	c0-1.808,1.467-3.275,3.275-3.275h13.405c1.808,0,3.272,1.467,3.272,3.275v13.405C483.14,362.646,481.676,364.114,479.868,364.114"
	/>
<path id="XMLID_33_" fill="#464646" d="M506.696,364.114h-13.401c-1.812,0-3.279-1.467-3.279-3.276v-13.405
	c0-1.808,1.467-3.275,3.279-3.275h13.401c1.812,0,3.275,1.467,3.275,3.275v13.405C509.972,362.646,508.508,364.114,506.696,364.114"
	/>
<path id="XMLID_32_" fill="#464646" d="M533.528,364.114h-13.404c-1.812,0-3.275-1.467-3.275-3.276v-13.405
	c0-1.808,1.463-3.275,3.275-3.275h13.404c1.808,0,3.272,1.467,3.272,3.275v13.405C536.8,362.646,535.337,364.114,533.528,364.114"/>
<path id="XMLID_31_" fill="#464646" d="M560.357,364.114h-13.405c-1.808,0-3.275-1.467-3.275-3.276v-13.405
	c0-1.808,1.467-3.275,3.275-3.275h13.405c1.812,0,3.275,1.467,3.275,3.275v13.405C563.632,362.646,562.169,364.114,560.357,364.114"
	/>
<path id="XMLID_30_" fill="#464646" d="M587.189,364.114h-13.405c-1.812,0-3.276-1.467-3.276-3.276v-13.405
	c0-1.808,1.464-3.275,3.276-3.275h13.405c1.808,0,3.272,1.467,3.272,3.275v13.405C590.461,362.646,588.997,364.114,587.189,364.114"
	/>
<path id="XMLID_29_" fill="#464646" d="M331.552,390.846h-26.07c-1.804,0-3.272-1.467-3.272-3.275v-13.405
	c0-1.808,1.467-3.275,3.272-3.275h26.07c1.812,0,3.276,1.467,3.276,3.275v13.405C334.827,389.379,333.364,390.846,331.552,390.846"
	/>
<path id="XMLID_28_" fill="#464646" d="M358.549,390.846h-13.404c-1.808,0-3.276-1.467-3.276-3.275v-13.405
	c0-1.808,1.467-3.275,3.276-3.275h13.404c1.812,0,3.276,1.467,3.276,3.275v13.405C361.824,389.379,360.361,390.846,358.549,390.846"
	/>
<path id="XMLID_27_" fill="#464646" d="M385.546,390.846h-13.401c-1.812,0-3.279-1.467-3.279-3.275v-13.405
	c0-1.808,1.467-3.275,3.279-3.275h13.401c1.812,0,3.275,1.467,3.275,3.275v13.405C388.821,389.379,387.358,390.846,385.546,390.846"
	/>
<path id="XMLID_26_" fill="#464646" d="M412.542,390.846h-13.401c-1.812,0-3.279-1.467-3.279-3.275v-13.405
	c0-1.808,1.467-3.275,3.279-3.275h13.401c1.812,0,3.276,1.467,3.276,3.275v13.405C415.818,389.379,414.354,390.846,412.542,390.846"
	/>
<path id="XMLID_25_" fill="#464646" d="M439.539,390.846h-13.401c-1.812,0-3.279-1.467-3.279-3.275v-13.405
	c0-1.808,1.467-3.275,3.279-3.275h13.401c1.812,0,3.276,1.467,3.276,3.275v13.405C442.815,389.379,441.351,390.846,439.539,390.846"
	/>
<path id="XMLID_24_" fill="#464646" d="M466.536,390.846h-13.401c-1.812,0-3.279-1.467-3.279-3.275v-13.405
	c0-1.808,1.467-3.275,3.279-3.275h13.401c1.812,0,3.276,1.467,3.276,3.275v13.405C469.812,389.379,468.348,390.846,466.536,390.846"
	/>
<path id="XMLID_23_" fill="#464646" d="M493.537,390.846h-13.405c-1.812,0-3.275-1.467-3.275-3.275v-13.405
	c0-1.808,1.464-3.275,3.275-3.275h13.401c1.812,0,3.275,1.467,3.275,3.275v13.405C496.809,389.379,495.345,390.846,493.537,390.846"
	/>
<path id="XMLID_22_" fill="#464646" d="M520.534,390.846h-13.408c-1.812,0-3.272-1.467-3.272-3.275v-13.405
	c0-1.808,1.46-3.275,3.272-3.275h13.408c1.808,0,3.268,1.467,3.268,3.275v13.405C523.802,389.379,522.342,390.846,520.534,390.846"
	/>
<path id="XMLID_21_" fill="#464646" d="M547.527,390.846h-13.405c-1.812,0-3.275-1.467-3.275-3.275v-13.405
	c0-1.808,1.463-3.275,3.275-3.275h13.405c1.808,0,3.272,1.467,3.272,3.275v13.405C550.799,389.379,549.335,390.846,547.527,390.846"
	/>
<path id="XMLID_20_" fill="#464646" d="M587.189,390.846h-26.07c-1.808,0-3.275-1.467-3.275-3.275v-13.405
	c0-1.808,1.467-3.275,3.275-3.275h26.07c1.808,0,3.272,1.467,3.272,3.275v13.405C590.461,389.379,588.997,390.846,587.189,390.846"
	/>
<path id="XMLID_19_" fill="#464646" d="M344.217,417.583h-38.731c-1.808,0-3.275-1.467-3.275-3.272v-13.409
	c0-1.808,1.467-3.275,3.275-3.275h38.731c1.812,0,3.276,1.467,3.276,3.275v13.409C347.493,416.116,346.029,417.583,344.217,417.583"
	/>
<path id="XMLID_18_" fill="#464646" d="M398.211,417.583H384.81c-1.812,0-3.279-1.467-3.279-3.272v-13.409
	c0-1.808,1.467-3.275,3.279-3.275h13.401c1.812,0,3.275,1.467,3.275,3.275v13.409C401.486,416.116,400.023,417.583,398.211,417.583"
	/>
<path id="XMLID_17_" fill="#464646" d="M425.208,417.583h-13.401c-1.812,0-3.279-1.467-3.279-3.272v-13.409
	c0-1.808,1.467-3.275,3.279-3.275h13.401c1.812,0,3.276,1.467,3.276,3.275v13.409C428.483,416.116,427.02,417.583,425.208,417.583"
	/>
<path id="XMLID_16_" fill="#464646" d="M479.202,417.583h-13.405c-1.808,0-3.275-1.467-3.275-3.272v-13.409
	c0-1.808,1.467-3.275,3.275-3.275h13.405c1.808,0,3.272,1.467,3.272,3.275v13.409C482.473,416.116,481.009,417.583,479.202,417.583"
	/>
<path id="XMLID_15_" fill="#464646" d="M506.198,417.583h-13.405c-1.812,0-3.275-1.467-3.275-3.272v-13.409
	c0-1.808,1.464-3.275,3.275-3.275h13.405c1.808,0,3.272,1.467,3.272,3.275v13.409C509.47,416.116,508.006,417.583,506.198,417.583"
	/>
<path id="XMLID_14_" fill="#464646" d="M533.195,417.583H519.79c-1.812,0-3.275-1.467-3.275-3.272v-13.409
	c0-1.808,1.464-3.275,3.275-3.275h13.405c1.808,0,3.272,1.467,3.272,3.275v13.409C536.467,416.116,535.003,417.583,533.195,417.583"
	/>
<path id="XMLID_13_" fill="#464646" d="M560.192,417.583h-13.405c-1.812,0-3.275-1.467-3.275-3.272v-13.409
	c0-1.808,1.463-3.275,3.275-3.275h13.405c1.808,0,3.272,1.467,3.272,3.275v13.409C563.464,416.116,562,417.583,560.192,417.583"/>
<path id="XMLID_12_" fill="#464646" d="M587.189,417.583h-13.405c-1.812,0-3.276-1.467-3.276-3.272v-13.409
	c0-1.808,1.464-3.275,3.276-3.275h13.405c1.808,0,3.272,1.467,3.272,3.275v13.409C590.461,416.116,588.997,417.583,587.189,417.583"
	/>
<path id="XMLID_11_" fill="#464646" d="M371.214,417.583h-13.401c-1.812,0-3.279-1.467-3.279-3.272v-13.409
	c0-1.808,1.467-3.275,3.279-3.275h13.401c1.812,0,3.275,1.467,3.275,3.275v13.409C374.489,416.116,373.026,417.583,371.214,417.583"
	/>
<path id="XMLID_10_" fill="#464646" d="M452.204,417.583h-13.401c-1.812,0-3.279-1.467-3.279-3.272v-13.409
	c0-1.808,1.467-3.275,3.279-3.275h13.401c1.812,0,3.276,1.467,3.276,3.275v13.409C455.48,416.116,454.017,417.583,452.204,417.583"
	/>
<path id="XMLID_9_" fill="#464646" d="M318.89,444.315h-13.405c-1.808,0-3.275-1.467-3.275-3.272v-13.408
	c0-1.808,1.467-3.276,3.279-3.276h13.401c1.812,0,3.275,1.467,3.275,3.276v13.408C322.166,442.848,320.702,444.315,318.89,444.315"
	/>
<path id="XMLID_8_" fill="#464646" d="M345.757,444.315h-13.401c-1.812,0-3.279-1.467-3.279-3.272v-13.408
	c0-1.808,1.467-3.276,3.279-3.276h13.401c1.812,0,3.275,1.467,3.275,3.276v13.408C349.032,442.848,347.569,444.315,345.757,444.315"
	/>
<path id="XMLID_7_" fill="#464646" d="M372.631,444.315h-13.404c-1.812,0-3.276-1.467-3.276-3.272v-13.408
	c0-1.808,1.464-3.276,3.276-3.276h13.404c1.808,0,3.272,1.467,3.272,3.276v13.408C375.903,442.848,374.439,444.315,372.631,444.315"
	/>
<path id="XMLID_6_" fill="#464646" d="M479.703,444.315h-93.61c-1.804,0-3.272-1.467-3.272-3.272v-13.408
	c0-1.808,1.467-3.276,3.272-3.276h93.614c1.808,0,3.272,1.467,3.272,3.276v13.408C482.979,442.848,481.515,444.315,479.703,444.315"
	/>
<path id="XMLID_5_" fill="#464646" d="M506.577,444.315h-13.405c-1.812,0-3.275-1.467-3.275-3.272v-13.408
	c0-1.808,1.463-3.276,3.275-3.276h13.405c1.808,0,3.272,1.467,3.272,3.276v13.408C509.849,442.848,508.386,444.315,506.577,444.315"
	/>
<path id="XMLID_4_" fill="#464646" d="M533.448,444.315h-13.404c-1.808,0-3.276-1.467-3.276-3.272v-13.408
	c0-1.808,1.468-3.276,3.276-3.276h13.404c1.812,0,3.276,1.467,3.276,3.276v13.408C536.724,442.848,535.26,444.315,533.448,444.315"
	/>
<path id="XMLID_3_" fill="#464646" d="M560.315,444.315h-13.401c-1.812,0-3.279-1.467-3.279-3.272v-13.408
	c0-1.808,1.467-3.276,3.279-3.276h13.401c1.812,0,3.276,1.467,3.276,3.276v13.408C563.59,442.848,562.127,444.315,560.315,444.315"
	/>
<path id="XMLID_2_" fill="#464646" d="M587.189,444.315h-13.405c-1.812,0-3.276-1.467-3.276-3.272v-13.408
	c0-1.808,1.464-3.276,3.276-3.276h13.405c1.808,0,3.272,1.467,3.272,3.276v13.408C590.461,442.848,588.997,444.315,587.189,444.315"
	/>
</svg>
