<?xml version="1.0" encoding="utf-8"?>
<!-- Generator: Adobe Illustrator 21.0.0, SVG Export Plug-In . SVG Version: 6.00 Build 0)  -->
<svg version="1.1"  xmlns="http://www.w3.org/2000/svg" xmlns:xlink="http://www.w3.org/1999/xlink" x="0px" y="0px"
	 viewBox="0 0 1440 810" enable-background="new 0 0 1440 810" xml:space="preserve">
<rect id="XMLID_1_" fill="#CFD1D2" width="1440" height="810"/>
<path id="XMLID_178_" fill="#CDE9E1" d="M126.859,363.877c11.044-53.184,48.148-100.672,96.698-133.686
	c156.231-106.244,468.07-95.925,664.108-36.851c164.735,49.646,405.469,176.189,427.565,322.633
	c2.291,15.17,1.598,30.212-2.545,44.524c-15.11,52.158-71.354,92.374-144.85,114.333c-194.024,57.967-484.324,69.619-705.351,14.208
	c-89.777-22.506-174.353-62.734-242.933-114.429c-30.997-23.363-62.553-49.694-78.75-81.898c-13.479-26.806-16-61.7-17.183-89.548
	C123.051,389.821,124.198,376.684,126.859,363.877"/>
<polygon id="XMLID_177_" fill="#BDD9D1" points="751.842,505.28 641.185,441.217 493.4,527.122 493.4,532.943 604.053,597.01 
	751.842,511.106 "/>
<path id="XMLID_176_" fill="#BDD9D1" d="M740.955,569.766c-1.469,0-2.661,2.251-2.661,5.029c0,2.774,1.192,5.029,2.661,5.029
	h167.287l20.247-5.049l-20.247-5.008H740.955z"/>
<path id="XMLID_175_" fill="#BDD9D1" d="M844.389,635.998c-0.004,0.028-0.012,0.057-0.016,0.085
	c-5.419-3.044-13.906-7.815-13.97-7.835l-160.326-47.761l-0.036,0.12c-1.345-0.076-2.907,1.578-3.64,4.034
	c-0.105,0.354-0.141,0.689-0.197,1.031c-0.35,2.021,0.04,3.76,1.039,4.336l-0.036,0.117l160.326,47.761
	c0.391,0.117,21.25,0.676,21.25,0.676L844.389,635.998z"/>
<path id="XMLID_174_" fill="#BDD9D1" d="M841.921,292.635l-163.724,95.072h-0.004c-0.407,0.238-0.753,0.523-1.063,0.829
	c-0.137,0.137-0.25,0.282-0.37,0.427c-0.137,0.169-0.266,0.334-0.379,0.511c-0.145,0.225-0.274,0.455-0.383,0.697
	c-0.024,0.052-0.04,0.101-0.06,0.153c-0.129,0.306-0.254,0.608-0.322,0.926h-0.145v10.802h0.125
	c0.238,1.554,1.103,3.024,2.682,3.905L939.44,551.709c4.505,2.512,10.001,2.468,14.462-0.125l163.724-95.068
	c1.377-0.801,2.202-2.049,2.528-3.398h0.173L841.921,292.635z"/>
<path id="XMLID_173_" fill="#BDD9D1" d="M1119.051,571.138c-1.981-5.31-6.563-10.234-14.107-14.007
	c-19.571-9.775-40.011-3.793-60.395-3.313c-18.955,0.443-38.533-1.8-56.868,4.992c-15.307,5.669-13.58,25.662-2.963,35.566
	c16.503,15.396,42.632,19.454,63.982,19.454c19.587,0,41.436-3.462,58.068-14.896
	C1117.823,591.33,1122.586,580.616,1119.051,571.138"/>
<path id="XMLID_172_" fill="#BDD9D1" d="M746.564,327.646l-73.657-35.172l-196.42,75.513l0.036,0.012
	c-2.178,1.22-3.748,3.503-3.748,6.317v1.248v8.906v1.248c0,2.907,1.727,5.532,4.392,6.679l113.008,48.767v0.161L746.564,327.646z"/>
<path id="XMLID_171_" fill="#A3C3CC" d="M1120.328,437.489h-0.012c-0.101-1.743-1.019-3.438-2.77-4.416L856.383,287.321
	c-4.505-2.512-10.001-2.468-14.462,0.125l-163.724,95.068c-1.425,0.829-2.251,2.138-2.552,3.547h-0.174v10.802h0.125
	c0.234,1.554,1.103,3.023,2.682,3.905l261.159,145.752c4.505,2.512,10.004,2.468,14.465-0.125l163.724-95.068
	c1.377-0.801,2.198-2.049,2.528-3.398h0.173V437.489z"/>
<path id="XMLID_170_" fill="#EEEFF1" d="M1117.545,433.073L856.383,287.321c-4.501-2.512-10.001-2.468-14.462,0.125l-163.72,95.068
	c-3.676,2.134-3.628,7.448,0.081,9.518L939.44,537.783c4.505,2.512,10.001,2.468,14.462-0.125l163.724-95.068
	C1121.298,440.457,1121.25,435.142,1117.545,433.073"/>
<path id="XMLID_169_" fill="#262728" d="M840.939,365.552l12.839-7.456c1.111-0.644,1.095-2.25-0.024-2.87l-15.396-8.548
	c-0.507-0.282-1.127-0.278-1.631,0.016l-12.843,7.456c-1.107,0.644-1.091,2.246,0.028,2.87l15.396,8.548
	C839.815,365.85,840.435,365.845,840.939,365.552"/>
<path id="XMLID_168_" fill="#262728" d="M834.469,341.182l17.389,9.655c0.507,0.282,1.127,0.278,1.63-0.016l13.145-7.633
	c1.107-0.644,1.091-2.251-0.028-2.871l-17.388-9.655c-0.507-0.282-1.127-0.278-1.631,0.016l-13.145,7.634
	C833.334,338.955,833.349,340.558,834.469,341.182"/>
<path id="XMLID_167_" fill="#262728" d="M810.638,352.986c-0.507-0.282-1.127-0.278-1.63,0.016l-13.145,7.633
	c-1.107,0.644-1.095,2.246,0.024,2.871l15.4,8.547c0.507,0.282,1.124,0.278,1.627-0.016l13.149-7.633
	c1.107-0.644,1.091-2.251-0.028-2.871L810.638,352.986z"/>
<path id="XMLID_166_" fill="#262728" d="M858.182,354.351l15.396,8.547c0.507,0.282,1.128,0.278,1.631-0.016l13.145-7.633
	c1.111-0.644,1.095-2.25-0.028-2.871l-15.396-8.547c-0.507-0.282-1.127-0.278-1.631,0.016l-13.145,7.634
	C857.047,352.125,857.063,353.727,858.182,354.351"/>
<path id="XMLID_165_" fill="#262728" d="M847.674,373.547l-15.311-8.503c-0.512-0.282-1.127-0.274-1.63,0.016l-13.149,7.633
	c-1.107,0.644-1.091,2.251,0.028,2.871l15.315,8.503c0.507,0.282,1.127,0.274,1.63-0.016l13.145-7.633
	C848.81,375.774,848.793,374.167,847.674,373.547"/>
<path id="XMLID_164_" fill="#262728" d="M879.907,366.409l15.315,8.503c0.507,0.282,1.123,0.274,1.627-0.016l13.149-7.634
	c1.107-0.644,1.091-2.25-0.028-2.871l-15.311-8.503c-0.511-0.282-1.131-0.278-1.635,0.016l-13.145,7.634
	C878.772,364.183,878.788,365.785,879.907,366.409"/>
<path id="XMLID_163_" fill="#262728" d="M935.797,422.472l-15.396-8.547c-0.507-0.282-1.127-0.278-1.63,0.016l-13.145,7.634
	c-1.107,0.644-1.091,2.246,0.028,2.87l15.396,8.547c0.507,0.282,1.127,0.274,1.63-0.016l13.145-7.634
	C936.932,424.698,936.916,423.096,935.797,422.472"/>
<path id="XMLID_162_" fill="#262728" d="M916.295,367.903c-0.507-0.282-1.127-0.278-1.631,0.016l-13.145,7.633
	c-1.107,0.644-1.091,2.247,0.028,2.871l16.309,9.054c0.508,0.282,1.128,0.278,1.627-0.016l13.149-7.634
	c1.107-0.644,1.091-2.246-0.028-2.87L916.295,367.903z"/>
<path id="XMLID_161_" fill="#262728" d="M870.341,388.983c1.107-0.644,1.091-2.251-0.028-2.871l-16.314-9.054
	c-0.507-0.282-1.123-0.278-1.627,0.016l-13.149,7.634c-1.107,0.64-1.091,2.247,0.028,2.871l16.314,9.055
	c0.508,0.282,1.128,0.278,1.631-0.016L870.341,388.983z"/>
<path id="XMLID_160_" fill="#262728" d="M1001.953,459.202l-15.553-8.636c-0.507-0.282-1.127-0.274-1.631,0.016l-13.145,7.633
	c-1.107,0.644-1.091,2.25,0.028,2.871l15.553,8.636c0.507,0.282,1.127,0.278,1.63-0.016l13.145-7.633
	C1003.088,461.428,1003.072,459.826,1001.953,459.202"/>
<path id="XMLID_159_" fill="#262728" d="M957.437,434.486l-15.311-8.499c-0.512-0.286-1.127-0.278-1.631,0.012l-13.149,7.634
	c-1.107,0.644-1.091,2.25,0.028,2.87l15.311,8.503c0.511,0.282,1.131,0.278,1.635-0.016l13.145-7.634
	C958.572,436.712,958.556,435.11,957.437,434.486"/>
<path id="XMLID_158_" fill="#262728" d="M914.1,413.281c1.107-0.644,1.091-2.251-0.028-2.871l-7.762-4.308l-2.629-1.462l-5.165-2.87
	c-0.511-0.282-1.127-0.274-1.631,0.016l-13.149,7.634c-1.107,0.644-1.091,2.25,0.029,2.871l15.564,8.64
	c0.508,0.282,1.123,0.278,1.627-0.016L914.1,413.281z"/>
<path id="XMLID_157_" fill="#262728" d="M892.186,398.259l-15.549-8.632c-0.511-0.282-1.131-0.278-1.63,0.016l-13.145,7.633
	c-1.111,0.64-1.095,2.247,0.028,2.87l15.545,8.632c0.512,0.282,1.132,0.278,1.635-0.016l13.145-7.633
	C893.322,400.486,893.306,398.883,892.186,398.259"/>
<path id="XMLID_156_" fill="#262728" d="M980.076,447.055l-16.31-9.055c-0.512-0.282-1.132-0.278-1.631,0.016l-13.145,7.633
	c-1.111,0.644-1.095,2.247,0.028,2.871l16.309,9.055c0.508,0.282,1.127,0.278,1.631-0.016l13.145-7.634
	C981.211,449.282,981.195,447.679,980.076,447.055"/>
<path id="XMLID_155_" fill="#262728" d="M898.028,379.804l-16.31-9.055c-0.507-0.282-1.127-0.278-1.631,0.016l-12.843,7.456
	c-1.107,0.644-1.091,2.251,0.028,2.871l16.314,9.054c0.507,0.286,1.123,0.278,1.627-0.016l12.843-7.456
	C899.164,382.03,899.147,380.428,898.028,379.804"/>
<path id="XMLID_154_" fill="#262728" d="M928.977,414.432l12.843-7.456c1.107-0.644,1.091-2.25-0.028-2.871l-15.448-8.576
	c-0.503-0.282-1.119-0.278-1.618,0.008l-12.936,7.408c-1.115,0.636-1.107,2.251,0.016,2.875l15.541,8.628
	C927.853,414.73,928.474,414.726,928.977,414.432"/>
<path id="XMLID_153_" fill="#262728" d="M924.182,390.992l15.553,8.636c0.507,0.282,1.127,0.274,1.631-0.016l13.145-7.633
	c1.107-0.644,1.091-2.251-0.028-2.871l-15.553-8.636c-0.507-0.282-1.127-0.278-1.631,0.016l-13.145,7.633
	C923.046,388.766,923.062,390.368,924.182,390.992"/>
<path id="XMLID_152_" fill="#262728" d="M862.579,377.565l12.843-7.456c1.107-0.644,1.091-2.251-0.028-2.87l-16.583-9.208
	l0.221,0.382l-13.423,7.794c-1.107,0.644-1.091,2.251,0.028,2.871l15.311,8.503C861.46,377.863,862.075,377.859,862.579,377.565"/>
<path id="XMLID_151_" fill="#262728" d="M1037.109,430.725l12.541-7.283c1.107-0.644,1.091-2.247-0.028-2.871l-15.549-8.636
	c-0.511-0.282-1.131-0.274-1.635,0.016l-12.541,7.283c-1.107,0.644-1.091,2.251,0.028,2.871l15.553,8.636
	C1035.986,431.023,1036.605,431.019,1037.109,430.725"/>
<path id="XMLID_150_" fill="#262728" d="M919.906,391.951l-15.553-8.636c-0.507-0.282-1.127-0.274-1.63,0.016l-12.839,7.46
	c-1.107,0.644-1.095,2.247,0.028,2.871l15.549,8.632c0.511,0.282,1.127,0.278,1.631-0.016l12.844-7.456
	C921.041,394.177,921.025,392.575,919.906,391.951"/>
<path id="XMLID_149_" fill="#262728" d="M967.945,415.29l15.4,8.547c0.507,0.282,1.123,0.278,1.626-0.016l13.145-7.633
	c1.111-0.644,1.095-2.247-0.028-2.871l-15.396-8.547c-0.507-0.282-1.127-0.278-1.63,0.016l-13.145,7.633
	C966.809,413.063,966.826,414.666,967.945,415.29"/>
<path id="XMLID_148_" fill="#262728" d="M1002.786,416.844l-13.141,7.634c-1.111,0.644-1.095,2.251,0.028,2.871l15.311,8.503
	c0.507,0.282,1.127,0.278,1.63-0.016l13.145-7.633c1.107-0.644,1.091-2.247-0.028-2.871l-15.316-8.503
	C1003.91,416.546,1003.29,416.554,1002.786,416.844"/>
<path id="XMLID_147_" fill="#262728" d="M946.063,403.139l15.557,8.64c0.507,0.282,1.127,0.274,1.631-0.016l13.145-7.633
	c1.111-0.644,1.095-2.25-0.028-2.875l-15.557-8.636c-0.507-0.282-1.127-0.274-1.631,0.016l-13.145,7.633
	C944.928,400.913,944.944,402.515,946.063,403.139"/>
<path id="XMLID_146_" fill="#262728" d="M962.981,434.156l0.064,0.109l7.666,4.255c0.507,0.286,1.127,0.278,1.63-0.012l12.843-7.456
	c1.111-0.644,1.095-2.25-0.028-2.875l-15.311-8.499c-0.507-0.282-1.127-0.278-1.631,0.016l-12.843,7.456
	c-1.107,0.644-1.092,2.251,0.028,2.871l7.517,4.175L962.981,434.156z"/>
<path id="XMLID_145_" fill="#262728" d="M963.516,416.163l-15.4-8.551c-0.508-0.282-1.128-0.274-1.627,0.016l-12.843,7.46
	c-1.111,0.64-1.095,2.247,0.024,2.871l15.4,8.547c0.507,0.282,1.127,0.278,1.631-0.016l12.843-7.456
	C964.652,418.39,964.635,416.783,963.516,416.163"/>
<path id="XMLID_144_" fill="#262728" d="M985.849,446.588l0.29,0.499l7.207,4.002c0.507,0.282,1.128,0.278,1.631-0.016l12.843-7.456
	c1.107-0.644,1.095-2.25-0.028-2.871l-16.31-9.055c-0.507-0.282-1.127-0.278-1.626,0.016l-12.847,7.456
	c-1.107,0.644-1.091,2.246,0.028,2.87l8.515,4.727L985.849,446.588z"/>
<path id="XMLID_143_" fill="#262728" d="M778.881,358.317l-13.149,7.633c-1.107,0.644-1.091,2.25,0.028,2.87l15.395,8.547
	c0.507,0.282,1.127,0.278,1.631-0.016l13.149-7.633c1.107-0.644,1.091-2.247-0.028-2.871l-15.396-8.547
	C780.004,358.019,779.384,358.023,778.881,358.317"/>
<path id="XMLID_142_" fill="#262728" d="M963.399,478.551l36.984,20.529c0.507,0.282,1.128,0.278,1.631-0.012l13.145-7.633
	c1.107-0.648,1.091-2.255-0.028-2.871l-36.979-20.533c-0.507-0.282-1.127-0.278-1.63,0.016l-13.149,7.629
	C962.264,476.325,962.28,477.923,963.399,478.551"/>
<path id="XMLID_141_" fill="#262728" d="M954.643,455.897l-13.145,7.633c-1.107,0.644-1.091,2.251,0.028,2.871l15.549,8.636
	c0.507,0.282,1.127,0.274,1.63-0.016l13.149-7.633c1.107-0.644,1.091-2.251-0.028-2.871l-15.553-8.636
	C955.766,455.599,955.146,455.603,954.643,455.897"/>
<path id="XMLID_140_" fill="#262728" d="M822.242,382.389l-13.145,7.633c-1.111,0.644-1.095,2.251,0.028,2.875l103.438,57.424
	c0.507,0.282,1.123,0.278,1.627-0.016l13.149-7.634c1.107-0.644,1.091-2.246-0.028-2.87l-103.438-57.428
	C823.365,382.091,822.745,382.095,822.242,382.389"/>
<path id="XMLID_139_" fill="#262728" d="M932.008,443.331l-13.149,7.633c-1.107,0.644-1.091,2.251,0.028,2.871l16.31,9.055
	c0.511,0.286,1.131,0.278,1.635-0.016l13.141-7.633c1.111-0.644,1.095-2.247-0.024-2.871l-16.309-9.055
	C933.128,443.033,932.511,443.037,932.008,443.331"/>
<path id="XMLID_138_" fill="#262728" d="M758.291,346.887l-13.145,7.634c-1.111,0.644-1.095,2.25,0.028,2.87l14.26,7.92
	c0.508,0.282,1.124,0.274,1.627-0.016l13.149-7.633c1.107-0.644,1.095-2.251-0.028-2.871l-14.26-7.919
	C759.415,346.589,758.795,346.593,758.291,346.887"/>
<path id="XMLID_137_" fill="#262728" d="M800.605,370.375l-13.153,7.633c-1.107,0.644-1.091,2.25,0.028,2.871l15.315,8.503
	c0.507,0.282,1.128,0.278,1.631-0.016l13.145-7.634c1.107-0.644,1.091-2.25-0.028-2.871l-15.311-8.503
	C801.725,370.077,801.109,370.081,800.605,370.375"/>
<path id="XMLID_136_" fill="#262728" d="M1041.779,431.382c-1.107,0.644-1.091,2.251,0.028,2.871l6.039,3.354l0.052-0.032
	l0.052,0.093l29.753,16.519c0.508,0.282,1.128,0.274,1.631-0.016l12.541-7.283c1.107-0.644,1.095-2.25-0.024-2.874l-35.901-19.929
	c-0.507-0.282-1.127-0.274-1.631,0.016L1041.779,431.382z"/>
<path id="XMLID_135_" fill="#262728" d="M804.313,349.471l-24.986-13.87c-0.507-0.282-1.123-0.278-1.627,0.016l-13.145,7.633
	c-1.111,0.644-1.095,2.247,0.024,2.871l24.982,13.87c0.511,0.282,1.131,0.278,1.63-0.016l13.149-7.634
	C805.449,351.698,805.433,350.095,804.313,349.471"/>
<path id="XMLID_134_" fill="#262728" d="M1033.948,451.931l24.35,13.52c0.507,0.282,1.127,0.278,1.63-0.016l13.141-7.633
	c1.111-0.644,1.095-2.247-0.024-2.871l-24.354-13.52c-0.507-0.282-1.123-0.278-1.627,0.016l-13.149,7.633
	C1032.809,449.705,1032.825,451.307,1033.948,451.931"/>
<path id="XMLID_133_" fill="#262728" d="M1034.858,456.134l-13.334,7.742c-1.107,0.644-1.091,2.251,0.028,2.871l17.646,9.799
	c0.507,0.282,1.127,0.274,1.631-0.016l12.843-7.46c1.107-0.644,1.091-2.247-0.028-2.871l-19.096-10.601L1034.858,456.134z"/>
<path id="XMLID_132_" fill="#262728" d="M1006.647,462.729l-13.145,7.634c-1.107,0.644-1.095,2.25,0.028,2.87l26.258,14.578
	c0.511,0.282,1.127,0.278,1.63-0.016l13.145-7.633c1.107-0.64,1.095-2.247-0.028-2.871l-26.258-14.578
	C1007.771,462.431,1007.151,462.435,1006.647,462.729"/>
<path id="XMLID_131_" fill="#262728" d="M851.986,310.841l-15.343-8.519c-0.511-0.282-1.127-0.274-1.63,0.016l-12.545,7.287
	c-1.107,0.64-1.095,2.247,0.028,2.87l15.343,8.515c0.507,0.282,1.127,0.278,1.631-0.016l12.545-7.283
	C853.121,313.068,853.105,311.466,851.986,310.841"/>
<path id="XMLID_130_" fill="#262728" d="M949.232,381.938l12.541-7.283c1.111-0.644,1.095-2.251-0.028-2.871l-15.557-8.64
	c-0.507-0.282-1.127-0.278-1.631,0.016l-12.545,7.283c-1.107,0.644-1.092,2.251,0.028,2.87l15.561,8.64
	C948.109,382.236,948.728,382.232,949.232,381.938"/>
<path id="XMLID_129_" fill="#262728" d="M927.342,369.783l12.545-7.283c1.107-0.644,1.091-2.251-0.028-2.871l-15.549-8.636
	c-0.511-0.282-1.131-0.274-1.631,0.016l-12.545,7.283c-1.107,0.644-1.091,2.25,0.028,2.875l15.549,8.632
	C926.219,370.081,926.839,370.077,927.342,369.783"/>
<path id="XMLID_128_" fill="#262728" d="M905.468,357.641l12.545-7.284c1.107-0.644,1.091-2.25-0.028-2.87l-16.314-9.059
	c-0.508-0.282-1.128-0.274-1.63,0.016l-12.541,7.287c-1.111,0.64-1.095,2.246,0.024,2.871l16.314,9.054
	C904.345,357.938,904.965,357.934,905.468,357.641"/>
<path id="XMLID_127_" fill="#262728" d="M970.952,393.996l12.546-7.283c1.107-0.644,1.091-2.251-0.029-2.871l-15.396-8.551
	c-0.507-0.282-1.131-0.274-1.63,0.016l-12.542,7.287c-1.111,0.644-1.095,2.251,0.024,2.871l15.396,8.547
	C969.829,394.294,970.449,394.29,970.952,393.996"/>
<path id="XMLID_126_" fill="#262728" d="M1015.227,418.579l12.545-7.283c1.107-0.644,1.091-2.247-0.028-2.871l-16.31-9.055
	c-0.507-0.282-1.127-0.278-1.631,0.016l-12.541,7.283c-1.111,0.644-1.095,2.246,0.024,2.871l16.31,9.054
	C1014.108,418.877,1014.724,418.873,1015.227,418.579"/>
<path id="XMLID_125_" fill="#262728" d="M981.843,400.965l0.032-0.02l0.032,0.056l9.055,5.025c0.507,0.286,1.127,0.278,1.631-0.012
	l12.545-7.287c1.107-0.64,1.091-2.246-0.032-2.87l-15.307-8.499c-0.512-0.282-1.132-0.278-1.635,0.016l-12.541,7.283
	c-1.107,0.644-1.095,2.246,0.024,2.871L981.843,400.965z"/>
<path id="XMLID_124_" fill="#262728" d="M829.025,338.09l13.894-8.068c1.107-0.644,1.091-2.251-0.028-2.871l-25.05-13.91
	c-0.512-0.282-1.132-0.274-1.631,0.016l-13.149,7.633c-1.107,0.644-1.091,2.251,0.028,2.871l25.996,14.433L829.025,338.09z"/>
<path id="XMLID_123_" fill="#262728" d="M1024.431,428.862l-13.149,7.633c-1.107,0.64-1.091,2.246,0.028,2.871l16.309,9.055
	c0.507,0.282,1.127,0.278,1.63-0.016l13.145-7.634c1.111-0.644,1.095-2.251-0.024-2.871l-16.309-9.054
	C1025.55,428.564,1024.934,428.568,1024.431,428.862"/>
<path id="XMLID_122_" fill="#262728" d="M832.033,343.163l-33.602-18.657c-0.507-0.282-1.123-0.274-1.626,0.016l-12.843,7.46
	c-1.107,0.64-1.091,2.246,0.028,2.871l33.598,18.653c0.507,0.282,1.127,0.274,1.63-0.016l12.843-7.456
	C833.168,345.389,833.152,343.783,832.033,343.163"/>
<path id="XMLID_121_" fill="#262728" d="M1029.668,452.893l-15.548-8.632c-0.507-0.286-1.128-0.278-1.631,0.016l-12.843,7.456
	c-1.107,0.644-1.095,2.251,0.028,2.871l15.553,8.632c0.507,0.282,1.127,0.277,1.627-0.016l12.843-7.456
	C1030.804,455.119,1030.788,453.513,1029.668,452.893"/>
<path id="XMLID_120_" fill="#262728" d="M882.83,345.071l12.545-7.283c1.107-0.644,1.091-2.251-0.028-2.871l-15.311-8.503
	c-0.511-0.282-1.131-0.278-1.635,0.016l-12.541,7.283c-1.111,0.644-1.095,2.251,0.028,2.871l15.311,8.503
	C881.706,345.369,882.327,345.361,882.83,345.071"/>
<path id="XMLID_119_" fill="#262728" d="M861.19,333.057l12.545-7.283c1.107-0.644,1.091-2.251-0.028-2.871l-15.396-8.547
	c-0.507-0.282-1.127-0.278-1.63,0.016l-12.545,7.283c-1.107,0.644-1.091,2.251,0.028,2.871l15.396,8.547
	C860.066,333.355,860.686,333.351,861.19,333.057"/>
<path id="XMLID_118_" fill="#A3C3CC" d="M1126.705,223.274L861.464,85.672c-1.401-0.785-2.919-0.842-4.244-0.378
	c-0.882,0.31-4.288,1.643-5.161,2.065c-1.699,0.825-2.943,2.536-2.943,4.694v186.926c0,2.645,1.429,5.085,3.74,6.377
	l265.241,148.026c1.458,0.813,3.044,0.842,4.405,0.318c0.817-0.314,4.131-1.586,5.009-2.009c1.695-0.829,2.939-2.54,2.939-4.694
	v-197.35C1130.449,227.003,1129.016,224.563,1126.705,223.274"/>
<path id="XMLID_117_" fill="#464646" d="M1118.101,433.383L852.86,285.357c-2.311-1.293-3.744-3.732-3.744-6.377V92.057
	c0-4.026,4.328-6.566,7.843-4.606l265.241,137.603c2.311,1.292,3.744,3.732,3.744,6.377v197.346c0,2.343-1.465,4.179-3.378,4.924
	C1121.189,434.237,1119.575,434.204,1118.101,433.383"/>
<path id="XMLID_116_" fill="#E2E2E2" d="M1113.036,420.809L863.062,281.302c-0.644-0.359-1.039-1.035-1.039-1.772V105.846
	l249.974,129.084c0.64,0.358,1.039,1.039,1.039,1.772V420.809z"/>
<path id="XMLID_115_" fill="#D6D7D8" d="M888.378,451.391l-60.645-33.847c-1.28-0.712-2.847-0.701-4.111,0.036l-36.376,21.121
	c-2.786,1.618-2.75,5.652,0.06,7.223l60.649,33.843c1.28,0.717,2.843,0.705,4.11-0.032l36.376-21.121
	C891.228,456.996,891.192,452.962,888.378,451.391"/>
<path id="XMLID_114_" fill="#87AEBB" d="M787.247,439.768l36.376-21.121c1.268-0.737,2.83-0.749,4.111-0.036l60.645,33.847
	c1.24,0.693,1.909,1.864,2.065,3.096c0.201-1.586-0.467-3.269-2.065-4.163l-60.645-33.847c-1.28-0.712-2.843-0.701-4.111,0.036
	l-36.376,21.121c-1.558,0.906-2.198,2.564-2.001,4.127C785.399,441.62,786.043,440.465,787.247,439.768"/>
<path id="XMLID_113_" fill="#464646" d="M840.733,364.831l12.843-7.456c1.108-0.644,1.091-2.251-0.028-2.871l-15.396-8.547
	c-0.507-0.282-1.127-0.278-1.627,0.016l-12.843,7.456c-1.111,0.644-1.095,2.251,0.024,2.871l15.396,8.547
	C839.61,365.129,840.23,365.125,840.733,364.831"/>
<path id="XMLID_112_" fill="#464646" d="M834.263,340.461l17.389,9.654c0.507,0.282,1.127,0.278,1.63-0.016l13.145-7.633
	c1.107-0.644,1.095-2.251-0.028-2.871l-17.389-9.654c-0.507-0.282-1.127-0.278-1.631,0.016l-13.145,7.633
	C833.128,338.235,833.144,339.841,834.263,340.461"/>
<path id="XMLID_111_" fill="#464646" d="M810.433,352.266c-0.508-0.282-1.128-0.278-1.631,0.016l-13.145,7.634
	c-1.107,0.644-1.091,2.246,0.028,2.871l15.396,8.547c0.508,0.282,1.128,0.278,1.627-0.016l13.149-7.634
	c1.107-0.644,1.095-2.246-0.028-2.87L810.433,352.266z"/>
<path id="XMLID_110_" fill="#464646" d="M857.977,353.63l15.396,8.547c0.507,0.282,1.127,0.278,1.63-0.016l13.145-7.633
	c1.107-0.644,1.095-2.247-0.028-2.871l-15.396-8.547c-0.507-0.282-1.127-0.278-1.631,0.016l-13.145,7.633
	C856.842,351.404,856.858,353.006,857.977,353.63"/>
<path id="XMLID_109_" fill="#464646" d="M847.469,372.827l-15.311-8.503c-0.511-0.282-1.127-0.274-1.63,0.016l-13.149,7.633
	c-1.107,0.644-1.091,2.251,0.032,2.871l15.311,8.503c0.508,0.282,1.128,0.278,1.631-0.016l13.145-7.633
	C848.604,375.053,848.588,373.451,847.469,372.827"/>
<path id="XMLID_108_" fill="#464646" d="M879.701,365.689l15.311,8.503c0.511,0.282,1.127,0.274,1.63-0.016l13.149-7.633
	c1.107-0.644,1.091-2.251-0.028-2.871l-15.315-8.503c-0.507-0.282-1.127-0.274-1.631,0.016l-13.145,7.633
	C878.566,363.462,878.582,365.069,879.701,365.689"/>
<path id="XMLID_107_" fill="#464646" d="M935.591,421.751l-15.396-8.547c-0.511-0.282-1.128-0.278-1.631,0.016l-13.145,7.633
	c-1.111,0.644-1.095,2.246,0.028,2.871l15.392,8.547c0.511,0.282,1.131,0.274,1.63-0.016l13.149-7.633
	C936.727,423.978,936.711,422.375,935.591,421.751"/>
<path id="XMLID_106_" fill="#464646" d="M916.089,367.186c-0.507-0.282-1.127-0.278-1.631,0.016l-13.145,7.633
	c-1.107,0.644-1.091,2.246,0.028,2.871l16.31,9.055c0.507,0.282,1.123,0.274,1.626-0.016l13.149-7.634
	c1.107-0.644,1.091-2.25-0.028-2.87L916.089,367.186z"/>
<path id="XMLID_105_" fill="#464646" d="M870.136,388.267c1.103-0.644,1.091-2.25-0.028-2.871l-16.314-9.059
	c-0.511-0.282-1.123-0.274-1.626,0.016l-13.149,7.633c-1.107,0.644-1.091,2.251,0.024,2.871l16.314,9.059
	c0.511,0.282,1.131,0.278,1.634-0.016L870.136,388.267z"/>
<path id="XMLID_104_" fill="#464646" d="M1001.748,458.481l-15.553-8.636c-0.507-0.282-1.127-0.274-1.63,0.016l-13.145,7.634
	c-1.111,0.644-1.091,2.25,0.028,2.87l15.549,8.636c0.507,0.282,1.127,0.274,1.63-0.016l13.145-7.634
	C1002.883,460.708,1002.863,459.101,1001.748,458.481"/>
<path id="XMLID_103_" fill="#464646" d="M957.231,433.765l-15.311-8.499c-0.507-0.282-1.127-0.278-1.631,0.016l-13.145,7.63
	c-1.111,0.644-1.095,2.251,0.028,2.87l15.311,8.503c0.507,0.282,1.127,0.278,1.631-0.016l13.145-7.634
	C958.367,435.992,958.351,434.389,957.231,433.765"/>
<path id="XMLID_102_" fill="#464646" d="M913.899,412.564c1.107-0.644,1.091-2.251-0.028-2.871l-7.762-4.308l-2.633-1.461
	l-5.165-2.871c-0.507-0.282-1.123-0.274-1.627,0.016l-13.149,7.633c-1.107,0.644-1.091,2.251,0.028,2.871l15.561,8.64
	c0.511,0.282,1.127,0.278,1.63-0.016L913.899,412.564z"/>
<path id="XMLID_101_" fill="#464646" d="M891.985,397.543l-15.549-8.636c-0.511-0.282-1.131-0.274-1.635,0.016l-13.145,7.634
	c-1.107,0.644-1.091,2.251,0.028,2.874l15.549,8.632c0.507,0.282,1.127,0.274,1.63-0.016l13.149-7.633
	C893.12,399.769,893.104,398.163,891.985,397.543"/>
<path id="XMLID_100_" fill="#464646" d="M979.866,446.335l-16.31-9.055c-0.507-0.282-1.127-0.278-1.63,0.016l-13.145,7.634
	c-1.107,0.64-1.091,2.246,0.029,2.87l16.309,9.055c0.507,0.282,1.127,0.274,1.631-0.016l13.145-7.634
	C981.001,448.561,980.985,446.955,979.866,446.335"/>
<path id="XMLID_99_" fill="#464646" d="M897.823,379.087l-16.31-9.055c-0.507-0.282-1.127-0.278-1.63,0.016l-12.844,7.456
	c-1.107,0.644-1.091,2.251,0.028,2.871l16.314,9.059c0.508,0.282,1.128,0.274,1.631-0.016l12.839-7.46
	C898.958,381.314,898.942,379.711,897.823,379.087"/>
<path id="XMLID_98_" fill="#464646" d="M928.775,413.711l12.835-7.456c1.111-0.644,1.099-2.25-0.02-2.87l-15.452-8.576
	c-0.503-0.282-1.115-0.278-1.618,0.008l-12.936,7.408c-1.119,0.636-1.103,2.251,0.02,2.875l15.537,8.628
	C927.648,414.009,928.272,414.005,928.775,413.711"/>
<path id="XMLID_97_" fill="#464646" d="M923.976,390.272l15.553,8.636c0.507,0.282,1.127,0.274,1.631-0.016l13.145-7.633
	c1.111-0.644,1.095-2.251-0.029-2.871l-15.552-8.636c-0.508-0.282-1.127-0.278-1.631,0.016l-13.145,7.633
	C922.841,388.045,922.857,389.647,923.976,390.272"/>
<path id="XMLID_96_" fill="#464646" d="M862.374,376.845l12.839-7.456c1.111-0.644,1.095-2.251-0.024-2.871l-16.583-9.207
	l0.221,0.383l-13.423,7.794c-1.111,0.644-1.095,2.251,0.028,2.87l15.311,8.503C861.25,377.143,861.87,377.139,862.374,376.845"/>
<path id="XMLID_95_" fill="#464646" d="M1036.903,430.005l12.541-7.283c1.111-0.644,1.095-2.25-0.029-2.871l-15.549-8.636
	c-0.507-0.282-1.127-0.274-1.63,0.016l-12.545,7.283c-1.107,0.644-1.091,2.251,0.028,2.871l15.553,8.636
	C1035.78,430.303,1036.4,430.299,1036.903,430.005"/>
<path id="XMLID_94_" fill="#464646" d="M919.7,391.234l-15.552-8.636c-0.511-0.282-1.131-0.274-1.631,0.016l-12.843,7.456
	c-1.107,0.644-1.091,2.25,0.028,2.875l15.552,8.632c0.508,0.282,1.127,0.278,1.631-0.016l12.843-7.456
	C920.836,393.461,920.82,391.858,919.7,391.234"/>
<path id="XMLID_93_" fill="#464646" d="M967.74,414.569l15.4,8.547c0.507,0.282,1.127,0.278,1.626-0.016l13.145-7.633
	c1.111-0.644,1.095-2.247-0.028-2.871l-15.392-8.547c-0.512-0.282-1.132-0.278-1.634,0.016l-13.145,7.633
	C966.604,412.343,966.62,413.945,967.74,414.569"/>
<path id="XMLID_92_" fill="#464646" d="M1002.581,416.127l-13.145,7.634c-1.107,0.644-1.091,2.251,0.028,2.871l15.312,8.503
	c0.511,0.282,1.131,0.274,1.63-0.016l13.149-7.633c1.107-0.644,1.091-2.251-0.028-2.871l-15.315-8.503
	C1003.704,415.829,1003.085,415.833,1002.581,416.127"/>
<path id="XMLID_91_" fill="#464646" d="M945.858,402.418l15.557,8.636c0.511,0.282,1.131,0.278,1.63-0.016l13.145-7.629
	c1.111-0.644,1.095-2.251-0.028-2.875l-15.557-8.636c-0.507-0.282-1.127-0.278-1.631,0.016l-13.145,7.633
	C944.723,400.192,944.738,401.794,945.858,402.418"/>
<path id="XMLID_90_" fill="#464646" d="M962.775,433.435l0.065,0.109l7.665,4.259c0.507,0.282,1.127,0.274,1.631-0.016l12.843-7.456
	c1.107-0.644,1.095-2.25-0.028-2.871l-15.311-8.503c-0.507-0.282-1.128-0.278-1.631,0.016l-12.843,7.456
	c-1.107,0.644-1.091,2.251,0.028,2.871l7.512,4.175L962.775,433.435z"/>
<path id="XMLID_89_" fill="#464646" d="M963.311,415.447l-15.396-8.547c-0.511-0.282-1.127-0.278-1.63,0.016l-12.843,7.456
	c-1.107,0.644-1.091,2.246,0.028,2.87l15.396,8.547c0.511,0.282,1.128,0.277,1.631-0.016l12.843-7.456
	C964.446,417.673,964.43,416.071,963.311,415.447"/>
<path id="XMLID_88_" fill="#464646" d="M985.643,445.868l0.29,0.499l7.207,4.002c0.511,0.282,1.131,0.278,1.635-0.016l12.839-7.456
	c1.107-0.644,1.095-2.25-0.028-2.871l-16.309-9.055c-0.507-0.282-1.124-0.277-1.627,0.016l-12.843,7.456
	c-1.111,0.644-1.095,2.251,0.028,2.871l8.511,4.727L985.643,445.868z"/>
<path id="XMLID_87_" fill="#464646" d="M778.676,357.596l-13.145,7.633c-1.111,0.644-1.095,2.251,0.028,2.871l15.392,8.547
	c0.507,0.282,1.127,0.278,1.631-0.016l13.149-7.633c1.107-0.64,1.091-2.246-0.028-2.87l-15.396-8.547
	C779.799,357.298,779.179,357.302,778.676,357.596"/>
<path id="XMLID_86_" fill="#464646" d="M963.198,477.83l36.983,20.533c0.508,0.282,1.127,0.274,1.627-0.016l13.149-7.633
	c1.107-0.644,1.091-2.251-0.028-2.871L977.95,467.31c-0.511-0.282-1.131-0.278-1.635,0.016l-13.145,7.633
	C962.063,475.604,962.079,477.207,963.198,477.83"/>
<path id="XMLID_85_" fill="#464646" d="M954.437,455.18l-13.145,7.633c-1.111,0.644-1.095,2.251,0.028,2.871l15.548,8.636
	c0.508,0.281,1.128,0.274,1.631-0.016l13.145-7.633c1.111-0.644,1.095-2.251-0.024-2.871l-15.552-8.636
	C955.557,454.882,954.94,454.886,954.437,455.18"/>
<path id="XMLID_84_" fill="#464646" d="M822.036,381.672l-13.145,7.634c-1.107,0.644-1.091,2.25,0.028,2.874l103.438,57.424
	c0.507,0.282,1.127,0.278,1.63-0.016l13.145-7.633c1.107-0.644,1.091-2.247-0.028-2.871l-103.437-57.428
	C823.159,381.374,822.539,381.378,822.036,381.672"/>
<path id="XMLID_83_" fill="#464646" d="M931.799,442.611l-13.145,7.633c-1.111,0.644-1.095,2.251,0.028,2.871l16.31,9.059
	c0.507,0.282,1.127,0.274,1.63-0.016l13.145-7.637c1.107-0.64,1.091-2.247-0.029-2.871l-16.309-9.055
	C932.922,442.313,932.302,442.317,931.799,442.611"/>
<path id="XMLID_82_" fill="#464646" d="M758.086,346.166l-13.149,7.633c-1.107,0.644-1.091,2.251,0.028,2.871l14.26,7.919
	c0.511,0.282,1.127,0.278,1.631-0.016l13.149-7.633c1.107-0.644,1.091-2.251-0.028-2.871l-14.26-7.919
	C759.209,345.868,758.589,345.872,758.086,346.166"/>
<path id="XMLID_81_" fill="#464646" d="M800.396,369.658l-13.149,7.633c-1.107,0.644-1.091,2.251,0.028,2.871l15.315,8.503
	c0.508,0.282,1.128,0.278,1.631-0.016l13.145-7.633c1.107-0.644,1.095-2.251-0.028-2.871l-15.311-8.503
	C801.519,369.36,800.899,369.364,800.396,369.658"/>
<path id="XMLID_80_" fill="#464646" d="M1041.573,430.661c-1.107,0.644-1.091,2.251,0.029,2.871l6.039,3.354l0.052-0.028
	l0.052,0.089l29.752,16.519c0.512,0.282,1.132,0.274,1.631-0.016l12.541-7.283c1.111-0.644,1.095-2.25-0.024-2.87l-35.896-19.933
	c-0.511-0.282-1.131-0.274-1.634,0.016L1041.573,430.661z"/>
<path id="XMLID_79_" fill="#464646" d="M804.108,348.751l-24.982-13.87c-0.511-0.282-1.127-0.278-1.63,0.016l-13.145,7.634
	c-1.107,0.644-1.091,2.25,0.024,2.87l24.986,13.87c0.507,0.282,1.127,0.278,1.63-0.016l13.145-7.633
	C805.244,350.977,805.227,349.375,804.108,348.751"/>
<path id="XMLID_78_" fill="#464646" d="M1033.743,451.214l24.35,13.519c0.512,0.282,1.131,0.278,1.63-0.016l13.145-7.633
	c1.112-0.64,1.095-2.246-0.028-2.87l-24.349-13.52c-0.507-0.282-1.127-0.278-1.631,0.016l-13.145,7.633
	C1032.608,448.988,1032.624,450.59,1033.743,451.214"/>
<path id="XMLID_77_" fill="#464646" d="M1034.649,455.414l-13.334,7.742c-1.103,0.644-1.091,2.251,0.032,2.871l17.642,9.799
	c0.507,0.282,1.127,0.274,1.63-0.016l12.843-7.461c1.107-0.644,1.091-2.246-0.028-2.87l-19.096-10.601L1034.649,455.414z"/>
<path id="XMLID_76_" fill="#464646" d="M1006.446,462.008l-13.145,7.633c-1.115,0.644-1.099,2.25,0.024,2.87l26.258,14.579
	c0.507,0.282,1.127,0.278,1.63-0.016l13.145-7.629c1.107-0.644,1.099-2.251-0.028-2.875l-26.258-14.578
	C1007.561,461.71,1006.95,461.714,1006.446,462.008"/>
<path id="XMLID_75_" fill="#464646" d="M851.777,310.121l-15.344-8.519c-0.507-0.282-1.127-0.274-1.63,0.016l-12.546,7.287
	c-1.107,0.64-1.095,2.247,0.028,2.871l15.343,8.519c0.507,0.278,1.127,0.274,1.631-0.02l12.546-7.283
	C852.912,312.347,852.896,310.745,851.777,310.121"/>
<path id="XMLID_74_" fill="#464646" d="M949.027,381.217l12.541-7.283c1.107-0.644,1.091-2.251-0.028-2.871l-15.557-8.64
	c-0.512-0.282-1.131-0.278-1.631,0.016l-12.545,7.283c-1.107,0.644-1.095,2.251,0.024,2.871l15.565,8.64
	C947.903,381.515,948.523,381.511,949.027,381.217"/>
<path id="XMLID_73_" fill="#464646" d="M927.137,369.066l12.545-7.283c1.107-0.644,1.091-2.251-0.028-2.871l-15.549-8.636
	c-0.507-0.282-1.127-0.274-1.63,0.016l-12.545,7.283c-1.107,0.644-1.091,2.251,0.028,2.875l15.549,8.632
	C926.013,369.364,926.634,369.36,927.137,369.066"/>
<path id="XMLID_72_" fill="#464646" d="M905.263,356.92l12.545-7.283c1.107-0.644,1.091-2.25-0.028-2.871l-16.31-9.059
	c-0.511-0.282-1.131-0.274-1.635,0.016l-12.541,7.283c-1.107,0.644-1.095,2.251,0.024,2.871l16.314,9.059
	C904.14,357.218,904.76,357.214,905.263,356.92"/>
<path id="XMLID_71_" fill="#464646" d="M970.747,393.275l12.545-7.283c1.107-0.644,1.091-2.251-0.028-2.871l-15.396-8.547
	c-0.511-0.286-1.131-0.278-1.634,0.016l-12.541,7.283c-1.107,0.644-1.091,2.25,0.028,2.87l15.396,8.547
	C969.624,393.573,970.244,393.569,970.747,393.275"/>
<path id="XMLID_70_" fill="#464646" d="M1015.022,417.858l12.545-7.283c1.107-0.644,1.091-2.246-0.028-2.871l-16.31-9.055
	c-0.507-0.282-1.127-0.278-1.631,0.016l-12.545,7.283c-1.107,0.644-1.091,2.251,0.028,2.871l16.31,9.055
	C1013.898,418.156,1014.518,418.152,1015.022,417.858"/>
<path id="XMLID_69_" fill="#464646" d="M981.638,400.244l0.032-0.02l0.032,0.057l9.055,5.024c0.507,0.282,1.127,0.278,1.627-0.016
	l12.545-7.283c1.112-0.644,1.095-2.247-0.028-2.871l-15.311-8.499c-0.507-0.282-1.127-0.278-1.63,0.016l-12.541,7.283
	c-1.111,0.64-1.095,2.247,0.025,2.871L981.638,400.244z"/>
<path id="XMLID_68_" fill="#464646" d="M828.816,337.369l13.894-8.068c1.111-0.644,1.095-2.251-0.028-2.871l-25.05-13.91
	c-0.507-0.282-1.127-0.274-1.63,0.016l-13.145,7.634c-1.111,0.644-1.095,2.251,0.029,2.87l25.992,14.434L828.816,337.369z"/>
<path id="XMLID_67_" fill="#464646" d="M1024.225,428.141l-13.145,7.633c-1.111,0.644-1.099,2.247,0.024,2.871l16.31,9.054
	c0.507,0.282,1.131,0.278,1.635-0.016l13.141-7.633c1.111-0.644,1.091-2.247-0.025-2.871l-16.313-9.055
	C1025.349,427.843,1024.729,427.847,1024.225,428.141"/>
<path id="XMLID_66_" fill="#464646" d="M831.824,342.446l-33.598-18.653c-0.511-0.282-1.127-0.278-1.631,0.016l-12.843,7.456
	c-1.107,0.644-1.091,2.246,0.028,2.871l33.598,18.653c0.511,0.282,1.127,0.278,1.63-0.016l12.843-7.456
	C832.959,344.672,832.943,343.07,831.824,342.446"/>
<path id="XMLID_65_" fill="#464646" d="M1029.463,452.172l-15.549-8.632c-0.511-0.282-1.131-0.278-1.635,0.016l-12.839,7.456
	c-1.107,0.644-1.095,2.25,0.028,2.871l15.549,8.636c0.511,0.282,1.127,0.274,1.631-0.02l12.843-7.456
	C1030.599,454.399,1030.582,452.797,1029.463,452.172"/>
<path id="XMLID_64_" fill="#464646" d="M882.624,344.35l12.546-7.283c1.107-0.644,1.091-2.25-0.028-2.871l-15.311-8.503
	c-0.511-0.282-1.131-0.278-1.631,0.016l-12.545,7.283c-1.107,0.644-1.091,2.25,0.028,2.871l15.311,8.503
	C881.501,344.648,882.121,344.644,882.624,344.35"/>
<path id="XMLID_63_" fill="#464646" d="M860.984,332.337l12.545-7.283c1.107-0.644,1.095-2.25-0.028-2.871l-15.392-8.551
	c-0.511-0.282-1.131-0.274-1.635,0.016l-12.541,7.287c-1.111,0.644-1.095,2.247,0.024,2.871l15.396,8.547
	C859.865,332.635,860.481,332.63,860.984,332.337"/>
<path id="XMLID_62_" fill="#F1DFDB" d="M983.075,469.722c-0.064,0.62-0.169,1.232-0.169,1.864l0.528,0.467
	C983.26,471.288,983.156,470.507,983.075,469.722"/>
<path id="XMLID_61_" fill="#FFFFFF" d="M994.887,477.847c8.471-9.912,26.902-16.648,48.84-16.648
	c21.942,0,40.373,6.736,48.844,16.648c2.887-3.084,4.525-6.462,4.525-9.985c0-13.709-24.438-25.292-53.366-25.292
	c-28.931,0-53.373,11.583-53.373,25.292C990.358,471.385,991.997,474.763,994.887,477.847"/>
<path id="XMLID_60_" fill="#A94B24" d="M1043.728,461.195c-21.942,0-40.373,6.74-48.84,16.648
	c8.354,8.91,27.349,15.311,48.84,15.311c21.491,0,40.486-6.402,48.84-15.311C1084.101,467.935,1065.666,461.195,1043.728,461.195"/>
<path id="XMLID_59_" fill="#EB495C" d="M1089.033,507.93v-0.069l9.823-7.364c1.912,0.568,3.809,1.292,5.693,2.114v-33.992
	l-0.077,0.072c-0.802,17.96-27.164,31.91-60.741,31.91c-31.456,0-56.574-12.243-60.298-28.549l-0.528-0.467v104.311
	c0,18.363,26.713,32.744,60.826,32.744c27.708,0,50.539-9.494,58.128-22.9c-0.358,0.012-0.693,0.072-1.051,0.072
	c-3.708,0-7.496-0.644-11.265-1.735l-0.511,0.386v-0.523v-8.044v-3.414l9.823-7.363v-0.069c1.9,0.777,3.805,1.377,5.693,1.804
	V529.94c-4.55-4.569-9.787-8.157-15.138-10.387l-0.378,0.286v-0.463V507.93z"/>
<path id="XMLID_2_" fill="#F2738A" d="M1043.731,442.566c28.927,0,53.366,11.583,53.366,25.292c0,3.527-1.635,6.905-4.525,9.985
	c-8.358,8.91-27.349,15.311-48.84,15.311c-21.495,0-40.486-6.402-48.844-15.311c-2.891-3.08-4.529-6.458-4.529-9.985
	C990.358,454.149,1014.8,442.566,1043.731,442.566 M1043.731,500.602c33.581,0,59.94-13.95,60.741-31.907
	c0.016-0.282,0.077-0.555,0.077-0.837c0-18.359-26.713-32.744-60.818-32.744c-34.109,0-60.822,14.385-60.822,32.744
	c0,0.632,0.105,1.244,0.169,1.864c0.077,0.785,0.181,1.566,0.358,2.331C987.162,488.363,1012.276,500.602,1043.731,500.602"/>
<path id="XMLID_56_" fill="#F1DFDB" d="M1119.538,579.368c-0.68,0.58-1.457,1.026-2.194,1.53
	C1117.827,580.709,1118.496,580.254,1119.538,579.368"/>
<path id="XMLID_55_" fill="#DA1C4D" d="M1104.549,566.855c-1.888-0.427-3.793-1.031-5.693-1.804v0.069l-9.823,7.363
	c3.982,1.627,7.996,2.537,11.776,2.537c4.529,0,8.451-1.301,11.342-3.756c1.413-1.2,2.512-2.67,3.374-4.3
	c-1.538,0.374-3.152,0.624-4.892,0.624C1108.656,567.588,1106.615,567.326,1104.549,566.855"/>
<path id="XMLID_54_" fill="#F1DFDB" d="M1089.548,584.078c-0.169-0.048-0.342-0.085-0.511-0.137v0.523L1089.548,584.078z"/>
<path id="XMLID_53_" fill="#F1DFDB" d="M1089.411,519.557c-0.128-0.052-0.25-0.129-0.378-0.181v0.467L1089.411,519.557z"/>
<path id="XMLID_52_" fill="#EB495C" d="M1124.326,516.916c-5.782-6.341-12.634-11.192-19.776-14.304
	c-1.884-0.817-3.785-1.546-5.693-2.114l-9.823,7.364v0.069c9.155,2.726,18.166,8.406,25.469,16.418
	c16.789,18.427,19.051,43.111,5.037,55.02c0.729-0.62,11.241-8.709,11.885-9.397C1143.103,557.466,1140.24,534.381,1124.326,516.916
	"/>
<path id="XMLID_51_" fill="#DA1C4D" d="M1114.502,524.348c-7.303-8.012-16.314-13.697-25.469-16.418v11.446
	c0.129,0.048,0.25,0.125,0.378,0.181c5.347,2.23,10.585,5.814,15.138,10.383c0.515,0.52,1.063,0.994,1.562,1.538
	c10.589,11.619,14.164,26.447,9.409,35.486c-0.858,1.635-1.957,3.1-3.37,4.304c-2.891,2.452-6.812,3.753-11.342,3.753
	c-3.78,0-7.794-0.91-11.776-2.537v3.414v8.044c0.169,0.052,0.342,0.089,0.511,0.137c3.768,1.091,7.557,1.735,11.265,1.735
	c0.358,0,0.693-0.06,1.047-0.072c5.854-0.189,11.12-1.86,15.488-4.844c0.733-0.503,1.51-0.95,2.19-1.53
	C1133.549,567.459,1131.291,542.775,1114.502,524.348"/>
<path id="XMLID_50_" fill="#FFFFFF" d="M1045.137,377.034c1.594-5.415,5.045-9.494,6.675-15.275
	c1.682-5.958,1.993-12.284,1.143-18.407c-1.232-8.865-4.831-17.3-9.735-24.789c2.146,12.026-2.593,27.245-11.345,35.784
	c-4.099,4.002-5.294,9.51-6.305,14.836c-1.614,8.535,2.037,16.918,6.736,23.85c3.74,5.52,9.131,13.946,14.731,17.602
	c-1.747-9.325-3.18-19.349-2.709-28.863C1044.412,380.054,1044.71,378.495,1045.137,377.034"/>
<path id="XMLID_49_" fill="#FFFFFF" d="M1076.737,387.84c-3.136-4.614-8.338-6.47-10.536-11.921
	c-1.196-2.955-2.858-13.616,0.238-16.012c-3.7,2.858-6.74,6.478-9.598,10.182c-2.182,2.822-4.316,5.793-5.318,9.22
	c-2.983,10.186,5.604,15.211,8.282,23.939c2.758,8.978-1.748,18.496-7.275,25.34c3.788,0.181,7.259-1.941,10.452-3.99
	C1076.713,415.793,1087.797,404.093,1076.737,387.84"/>
<polygon id="XMLID_48_" fill="#FFFFFF" points="749.249,500.095 638.593,436.032 490.808,521.936 490.808,527.758 601.464,591.825 
	749.249,505.921 "/>
<polygon id="XMLID_47_" fill="#D48743" points="601.464,585.999 490.808,521.932 638.593,436.028 749.249,500.095 "/>
<path id="XMLID_46_" fill="#FFFFFF" d="M506.791,515.43c-0.765-1.884-2.242-3.358-4.155-4.155c-3.78-1.574-8.044,0.036-9.517,3.567
	c-0.749,1.804-0.648,3.8,0.201,5.544l2.613-1.292c-0.479-1.003-0.544-2.13-0.125-3.132c0.853-2.053,3.414-2.951,5.709-1.997
	c1.192,0.495,2.105,1.405,2.577,2.565c0.306,0.745,1.151,1.107,1.896,0.797C506.735,517.024,507.097,516.175,506.791,515.43"/>
<path id="XMLID_45_" fill="#FFFFFF" d="M506.574,516.775c-0.326,0-0.652-0.109-0.922-0.33c-2.492-2.037-3.386-5.278-2.23-8.06
	c1.474-3.539,5.741-5.137,9.522-3.567c2.069,0.866,3.648,2.556,4.324,4.646c0.245,0.765-0.173,1.582-0.938,1.832
	c-0.765,0.246-1.586-0.173-1.832-0.938c-0.415-1.276-1.389-2.315-2.678-2.85c-2.295-0.954-4.851-0.06-5.709,1.997
	c-0.66,1.582-0.105,3.47,1.385,4.691c0.62,0.507,0.713,1.425,0.205,2.049C507.411,516.594,506.993,516.775,506.574,516.775"/>
<path id="XMLID_44_" fill="#FFFFFF" d="M516.365,511.086c-0.378,0-0.753-0.145-1.039-0.435c-2.021-2.061-2.653-5.008-1.61-7.517
	c1.474-3.535,5.741-5.133,9.518-3.563c1.82,0.761,3.261,2.134,4.05,3.877c0.334,0.733,0.012,1.594-0.721,1.928
	c-0.729,0.33-1.59,0.012-1.928-0.725c-0.483-1.067-1.381-1.921-2.52-2.392c-2.295-0.95-4.852-0.06-5.709,1.993
	c-0.596,1.421-0.201,3.136,0.998,4.356c0.564,0.572,0.555,1.494-0.016,2.057C517.102,510.945,516.735,511.086,516.365,511.086"/>
<path id="XMLID_43_" fill="#FFFFFF" d="M526.978,504.914c-0.342,0-0.688-0.125-0.966-0.366c-2.303-2.041-3.104-5.206-1.993-7.871
	c1.473-3.535,5.737-5.141,9.513-3.567c1.965,0.817,3.507,2.407,4.232,4.364c0.282,0.757-0.105,1.594-0.858,1.872
	c-0.761,0.286-1.594-0.108-1.872-0.857c-0.443-1.204-1.397-2.182-2.617-2.689c-2.295-0.95-4.851-0.057-5.709,1.997
	c-0.644,1.542-0.157,3.337,1.236,4.574c0.6,0.531,0.656,1.453,0.125,2.053C527.779,504.749,527.381,504.914,526.978,504.914"/>
<path id="XMLID_42_" fill="#FFFFFF" d="M536.685,499.274c-0.411,0-0.817-0.173-1.103-0.507c-1.755-2.049-2.242-4.783-1.272-7.122
	c1.469-3.535,5.741-5.133,9.518-3.567c1.631,0.676,2.975,1.896,3.808,3.426c0.383,0.708,0.121,1.59-0.588,1.973
	c-0.704,0.382-1.59,0.125-1.972-0.588c-0.515-0.95-1.353-1.703-2.363-2.126c-2.303-0.942-4.856-0.052-5.709,2.001
	c-0.551,1.321-0.245,2.895,0.789,4.106c0.523,0.612,0.451,1.53-0.161,2.053C537.357,499.161,537.019,499.274,536.685,499.274"/>
<path id="XMLID_41_" fill="#FFFFFF" d="M547.257,493.125c-0.378,0-0.753-0.145-1.043-0.439c-2.013-2.053-2.641-4.996-1.603-7.5
	c1.474-3.539,5.742-5.137,9.522-3.567c1.812,0.753,3.253,2.13,4.046,3.865c0.334,0.733,0.012,1.594-0.716,1.932
	c-0.725,0.322-1.595,0.008-1.933-0.721c-0.483-1.067-1.381-1.917-2.516-2.388c-2.295-0.954-4.855-0.061-5.713,1.997
	c-0.591,1.421-0.201,3.128,0.995,4.344c0.564,0.576,0.555,1.498-0.02,2.061C547.994,492.989,547.623,493.125,547.257,493.125"/>
<path id="XMLID_40_" fill="#FFFFFF" d="M557.129,487.389c-0.431,0-0.854-0.189-1.143-0.552c-1.618-2.049-2.021-4.626-1.079-6.901
	c0.721-1.735,2.126-3.06,3.95-3.724c1.784-0.652,3.756-0.596,5.568,0.157c1.538,0.64,2.806,1.735,3.66,3.177
	c0.414,0.693,0.185,1.586-0.507,1.997c-0.693,0.407-1.586,0.181-1.993-0.511c-0.531-0.894-1.32-1.578-2.275-1.973
	c-1.139-0.471-2.363-0.515-3.454-0.109c-1.051,0.383-1.852,1.127-2.255,2.102c-0.535,1.284-0.286,2.77,0.672,3.978
	c0.499,0.632,0.386,1.546-0.238,2.045C557.765,487.288,557.447,487.389,557.129,487.389"/>
<path id="XMLID_39_" fill="#FFFFFF" d="M567.702,481.241c-0.395,0-0.789-0.161-1.079-0.479c-1.876-2.069-2.42-4.863-1.413-7.283
	c1.477-3.539,5.753-5.137,9.518-3.571c1.325,0.551,2.46,1.445,3.29,2.581l0.185,0.338c0.088,0.226,0.197,0.447,0.322,0.66
	c0.411,0.689,0.181,1.582-0.511,1.993c-0.685,0.403-1.586,0.177-1.997-0.515c-0.169-0.29-0.322-0.584-0.451-0.894
	c-0.507-0.64-1.18-1.147-1.957-1.474c-2.287-0.95-4.851-0.056-5.709,1.997c-0.568,1.373-0.229,2.987,0.882,4.211
	c0.539,0.596,0.499,1.518-0.101,2.057C568.402,481.116,568.052,481.241,567.702,481.241"/>
<path id="XMLID_38_" fill="#FFFFFF" d="M577.34,475.64c-0.531,0-1.047-0.294-1.301-0.805c-0.109-0.213-0.225-0.427-0.374-0.624
	l-0.185-0.338c-0.636-1.655-0.628-3.426,0.016-4.98c0.725-1.735,2.126-3.06,3.949-3.724c1.784-0.652,3.757-0.592,5.568,0.157
	c1.204,0.5,2.279,1.313,3.1,2.355c0.503,0.632,0.395,1.546-0.234,2.045c-0.628,0.499-1.546,0.391-2.045-0.238
	c-0.528-0.66-1.18-1.155-1.937-1.473c-1.135-0.467-2.363-0.512-3.454-0.109c-1.051,0.383-1.852,1.127-2.259,2.106
	c-0.427,1.023-0.274,1.981-0.044,2.657c0.189,0.278,0.35,0.567,0.503,0.866c0.358,0.716,0.064,1.59-0.652,1.952
	C577.779,475.592,577.557,475.64,577.34,475.64"/>
<path id="XMLID_37_" fill="#FFFFFF" d="M587.779,469.573c-0.459,0-0.918-0.218-1.196-0.628c-1.365-1.973-1.655-4.409-0.781-6.514
	c0.721-1.735,2.126-3.056,3.949-3.724c1.784-0.648,3.757-0.592,5.568,0.157c1.389,0.576,2.568,1.53,3.414,2.758
	c0.455,0.664,0.286,1.566-0.379,2.025c-0.652,0.451-1.562,0.294-2.021-0.374c-0.527-0.761-1.264-1.357-2.13-1.719
	c-1.144-0.471-2.368-0.507-3.454-0.109c-1.051,0.383-1.852,1.131-2.259,2.102c-0.495,1.191-0.31,2.589,0.483,3.744
	c0.459,0.66,0.294,1.57-0.366,2.025C588.355,469.488,588.065,469.573,587.779,469.573"/>
<path id="XMLID_36_" fill="#FFFFFF" d="M597.752,463.776c-0.515,0-1.014-0.278-1.28-0.761c-1.007-1.86-1.143-3.982-0.374-5.83
	c0.725-1.735,2.122-3.06,3.946-3.724c1.783-0.652,3.764-0.592,5.572,0.157c1.119,0.467,2.102,1.184,2.911,2.134
	c0.527,0.612,0.455,1.53-0.157,2.053c-0.612,0.527-1.53,0.455-2.053-0.157c-0.515-0.604-1.127-1.051-1.816-1.341
	c-1.14-0.471-2.367-0.515-3.454-0.109c-1.051,0.383-1.856,1.132-2.259,2.102c-0.439,1.051-0.35,2.23,0.245,3.326
	c0.383,0.705,0.121,1.59-0.588,1.973C598.227,463.719,597.99,463.776,597.752,463.776"/>
<path id="XMLID_35_" fill="#FFFFFF" d="M608.26,457.668c-0.479,0-0.95-0.238-1.228-0.673c-1.244-1.961-1.473-4.243-0.632-6.272
	c0.725-1.731,2.126-3.052,3.95-3.72c1.784-0.652,3.756-0.592,5.568,0.157c1.289,0.536,2.412,1.41,3.245,2.525
	c0.479,0.64,0.346,1.554-0.298,2.033c-0.644,0.479-1.558,0.35-2.037-0.294c-0.519-0.693-1.22-1.236-2.025-1.574
	c-1.139-0.467-2.363-0.515-3.455-0.109c-1.051,0.383-1.852,1.127-2.255,2.102c-0.479,1.135-0.33,2.444,0.395,3.587
	c0.435,0.68,0.234,1.582-0.447,2.013C608.8,457.595,608.526,457.668,608.26,457.668"/>
<path id="XMLID_34_" fill="#FFFFFF" d="M618.144,451.923c-0.556,0-1.083-0.318-1.328-0.858c-0.789-1.755-0.837-3.664-0.125-5.375
	c0.72-1.735,2.126-3.056,3.945-3.72c1.787-0.656,3.76-0.596,5.572,0.157c0.954,0.395,1.82,0.979,2.569,1.739
	c0.564,0.572,0.556,1.494-0.016,2.057c-0.567,0.563-1.49,0.559-2.061-0.016c-0.471-0.479-1.01-0.845-1.606-1.091
	c-1.139-0.471-2.363-0.512-3.454-0.113c-1.055,0.386-1.856,1.131-2.259,2.106c-0.399,0.958-0.366,2.045,0.093,3.056
	c0.33,0.737,0.004,1.598-0.729,1.928C618.547,451.883,618.346,451.923,618.144,451.923"/>
<path id="XMLID_33_" fill="#FFFFFF" d="M628.648,445.815c-0.515,0-1.018-0.278-1.28-0.765c-1.003-1.852-1.139-3.974-0.374-5.818
	c0.721-1.735,2.126-3.06,3.95-3.728c1.784-0.648,3.76-0.592,5.568,0.157c1.111,0.463,2.089,1.18,2.907,2.13
	c0.524,0.608,0.455,1.526-0.153,2.053c-0.6,0.519-1.53,0.459-2.053-0.153c-0.52-0.604-1.131-1.055-1.816-1.341
	c-1.139-0.471-2.367-0.504-3.454-0.109c-1.051,0.382-1.852,1.131-2.255,2.106c-0.435,1.047-0.35,2.226,0.241,3.322
	c0.383,0.705,0.121,1.59-0.592,1.969C629.119,445.759,628.886,445.815,628.648,445.815"/>
<polygon id="XMLID_32_" fill="#FFFFFF" points="657.394,520.99 607.274,491.97 641.302,472.56 691.422,501.576 "/>
<path id="XMLID_31_" fill="#F9B418" d="M724.283,306.095l-104.75-45.128l-2.492-1.075c-2.706-1.167-5.564-0.539-7.557,1.16
	c-0.35,0.298-135.594,101.747-135.594,101.747l0.036,0.016c-2.178,1.22-3.748,3.499-3.748,6.313v10.154
	c0,2.903,1.727,5.532,4.396,6.679l113.004,48.764l136.705-102.552l-0.06-26.033L724.283,306.095z"/>
<path id="XMLID_30_" fill="#FFFFFF" d="M474.575,387.212l113.004,48.764v-26.004l-107.242-46.276
	c-4.803-2.074-10.154,1.449-10.154,6.679v10.158C470.182,383.435,471.901,386.06,474.575,387.212"/>
<polygon id="XMLID_29_" fill="#E1E2E4" points="587.578,409.971 587.578,435.976 587.578,436.141 724.283,333.512 724.219,306.139 
	"/>
<polygon id="XMLID_28_" fill="#FFFFFF" points="658.288,327.646 592.583,299.448 598.014,295.389 663.719,323.588 "/>
<polygon id="XMLID_27_" fill="#FFFFFF" points="639.691,332.671 587.582,310.306 591.886,307.085 643.999,329.45 "/>
<polygon id="XMLID_26_" fill="#FFFFFF" points="659.762,315.987 611.875,295.438 615.833,292.478 663.719,313.028 "/>
<rect id="XMLID_25_" x="596.358" y="377.72" transform="matrix(0.7968 -0.6042 0.6042 0.7968 -97.5828 465.5962)" fill="#44606A" width="94.209" height="0.332"/>
<polygon id="XMLID_24_" fill="#44606A" points="581.386,417.858 503.228,384.132 503.357,383.826 581.515,417.552 "/>
<polygon id="XMLID_23_" fill="#44606A" points="573.708,418.974 484.342,380.408 484.471,380.102 573.837,418.668 "/>
<polygon id="XMLID_22_" fill="#44606A" points="560.761,418.974 497.298,391.588 497.426,391.278 560.893,418.668 "/>
<polygon id="XMLID_21_" fill="#44606A" points="629.296,396.323 629.099,396.057 712.06,333.017 712.258,333.283 "/>
<path id="XMLID_20_" fill="#EB495C" d="M733.237,286.001l-96.714-59.537l-2.299-1.445c-2.496-1.57-5.419-1.381-7.65-0.012
	c-0.39,0.241-153.88,82.079-153.88,82.079c-2.339,0.874-0.29,12.425-0.29,12.425c-0.443,2.87,0.862,5.729,3.322,7.275l105.74,65.452
	l151.771-80.465v-25.735V286.001z"/>
<path id="XMLID_19_" fill="#FFFFFF" d="M581.467,367.774l-103.273-60.596c-3.74-2.194-8.451,0.499-8.451,4.839v9.429
	c0,1.945,1.007,3.752,2.665,4.775l109.058,67.251V367.774z"/>
<polygon id="XMLID_18_" fill="#EEEEEF" points="581.467,367.774 581.467,393.473 581.467,393.634 733.237,313.096 733.237,286.037 
	"/>
<path id="XMLID_3_" fill="#FFFFFF" d="M515.769,304.991l70.855,42.076l109.69-59.074l-70.855-42.076L515.769,304.991z
	 M586.56,350.414l-76.701-45.547l115.669-62.295l76.696,45.547L586.56,350.414z"/>
<polygon id="XMLID_15_" fill="#44606A" points="581.463,373.789 581.382,373.741 493.119,321.953 493.288,321.663 581.471,373.406 
	733.157,292.329 733.314,292.619 "/>
<polygon id="XMLID_14_" fill="#44606A" points="552.676,365.636 493.115,330.686 493.284,330.4 552.845,365.35 "/>
<polygon id="XMLID_13_" fill="#44606A" points="570.15,371.462 510.588,336.512 510.757,336.226 570.319,371.176 "/>
<rect id="XMLID_12_" x="655.439" y="320.979" transform="matrix(0.882 -0.4713 0.4713 0.882 -69.8587 363.3371)" fill="#44606A" width="70.106" height="0.331"/>
<polygon id="XMLID_11_" fill="#FFFFFF" points="905.646,574.633 905.646,564.576 925.893,569.589 "/>
<path id="XMLID_10_" fill="#FFD85C" d="M907.985,569.605c0-2.561-1.027-4.594-2.339-4.904v-0.125H738.358v6.076H907.88
	C907.92,570.305,907.985,569.975,907.985,569.605"/>
<path id="XMLID_9_" fill="#F9B418" d="M907.88,570.652H738.358v3.982H905.65v-0.125C906.769,574.243,907.634,572.689,907.88,570.652
	"/>
<path id="XMLID_8_" fill="#FFFFFF" d="M741.016,569.605c0,2.778-1.188,5.029-2.657,5.029c-1.47,0-2.657-2.251-2.657-5.029
	s1.188-5.029,2.657-5.029C739.828,564.576,741.016,566.827,741.016,569.605"/>
<path id="XMLID_7_" fill="#010101" d="M739.292,569.605c0,0.974-0.419,1.767-0.934,1.767c-0.515,0-0.934-0.793-0.934-1.767
	c0-0.974,0.419-1.767,0.934-1.767C738.874,567.837,739.292,568.63,739.292,569.605"/>
<path id="XMLID_6_" fill="#010101" d="M920.957,570.817l4.936-1.228l-4.94-1.224c0.056,0.407,0.133,0.801,0.133,1.24
	C921.085,570.036,921.009,570.418,920.957,570.817"/>
<path id="XMLID_5_" fill="#FFD85C" d="M663.804,579.453c0.733-2.456,2.295-4.107,3.639-4.034l0.036-0.117l160.326,47.757
	l-1.735,5.822l-162.464-48.393C663.663,580.141,663.699,579.807,663.804,579.453"/>
<path id="XMLID_4_" fill="#F9B418" d="M663.606,580.483l162.468,48.397l-1.139,3.813l-160.326-47.757l0.036-0.117
	C663.647,584.244,663.256,582.504,663.606,580.483"/>
<path id="XMLID_179_" fill="#FFD85C" d="M846.189,633.378c0,0-18.283-10.287-18.379-10.319c-1.409-0.419-3.193,1.401-3.986,4.062
	c-0.793,2.661-0.294,5.157,1.111,5.576C825.329,632.814,846.189,633.378,846.189,633.378"/>
<path id="XMLID_180_" fill="#010101" d="M841.104,633.164l5.085,0.213l-4.396-2.565c-0.06,0.403-0.097,0.801-0.222,1.224
	C841.45,632.452,841.269,632.798,841.104,633.164"/>
</svg>
