<svg version="1.1" xmlns="http://www.w3.org/2000/svg" xmlns:xlink="http://www.w3.org/1999/xlink" x="0px" y="0px" viewBox="0 0 136 64" enable-background="new 0 0 136 64" xml:space="preserve"><rect fill="none" width="136" height="64"/><path fill="#F03B4C" d="M21,12C10,12,1,21,1,32s9,20,20,20s20-9,20-20S32,12,21,12z"/><path fill="#191919" d="M26,43.9c-0.4,0-0.7-0.1-1.1-0.2c-1.6-0.5-2.2-1.8-1.9-3.5c0.3-1.3,0.8-2.6,1.3-3.8l0,0c0.4-0.8,0.7-1.7,1-2.5c0.2-0.6,0.5-1.2,0.7-1.8c0-0.1,0.1-0.2,0.1-0.3v-0.1l0,0c-0.1,0.1-0.2,0.2-0.3,0.3c-0.2,0.2-0.5,0.4-0.7,0.6c-0.6,0.6-1.2,1.2-1.7,1.8c-0.9,1-1.9,2.1-2.9,3.1c-0.7,0.7-1.5,1.5-2.6,2c-0.6,0.3-1.2,0.4-1.7,0.2c-1-0.3-1.5-1.1-1.4-2.3c0.1-1.1,0.4-2.1,0.8-3.1c0.4-1,0.9-1.9,1.3-2.9c0.2-0.4,0.4-0.9,0.6-1.3s0.4-0.9,0.6-1.3c0.6-1.2,1.1-2.5,1.7-3.8c0.2-0.4,0.3-0.8,0.4-1.2c0-0.2,0.1-0.4,0.1-0.5s0-0.2,0-0.2l0,0l-0.1,0.1c-0.1,0.1-0.3,0.3-0.4,0.4c-0.8,1.1-1.5,2.2-2.3,3.3c-0.2,0.3-0.4,0.6-0.7,0.9c-0.6,0.8-1.2,1.7-1.9,2.5c-0.4,0.5-0.8,0.9-1.3,1.2c-0.5,0.3-1,0.3-1.4,0.2c-0.5-0.2-0.9-0.7-1.1-1.3c-0.3-0.9,0-1.7,0.3-2.4c0.3-0.6,0.6-1.3,1-1.9c0.3-0.5,0.5-1,0.8-1.6s0.6-1.2,0.5-1.9c0-0.4-0.2-0.8-0.5-1c-0.2-0.2-0.4-0.2-0.8,0c-0.5,0.2-1,0.7-1.5,1.3c-0.2,0.3-0.6,0.4-0.9,0.3c-0.2-0.1-0.3-0.3-0.4-0.4c0-0.2,0-0.4,0.1-0.5c0.6-1,1.4-1.6,2.3-2c1-0.4,2,0,2.7,1c0.5,0.8,0.6,1.6,0.3,2.4c-0.2,0.8-0.6,1.5-0.9,2.3c-0.2,0.5-0.5,0.9-0.7,1.4c-0.2,0.4-0.4,0.9-0.6,1.3c-0.1,0.3-0.2,0.7-0.2,1c0,0.1,0.1,0.2,0.1,0.3l0.2-0.1c0.1-0.1,0.2-0.2,0.3-0.3c0.3-0.4,0.7-0.7,1-1.2c0.5-0.8,1.1-1.6,1.6-2.4c0.4-0.7,0.9-1.3,1.3-2c0.5-0.7,1-1.4,1.6-2.1c0.5-0.5,0.9-0.8,1.4-0.9c0.4-0.1,0.8,0,1.2,0.3c0.4,0.3,0.6,0.8,0.7,1.3c0.1,0.7,0,1.4-0.3,2c-0.5,1.3-1,2.7-1.6,4.1c-0.4,1-0.9,2.1-1.3,3.1c-0.4,1-0.9,2-1.3,3.1c-0.2,0.5-0.4,1.1-0.5,1.7c-0.1,0.2-0.1,0.4-0.2,0.6c0,0.1,0,0.2,0,0.3c0,0,0,0,0,0.1c0.1,0,0.1-0.1,0.2-0.1c0.2-0.1,0.3-0.2,0.5-0.3c1-0.8,1.9-1.8,2.7-2.6c1.2-1.4,2.7-3,4.1-4.5c0.5-0.6,1.1-1,1.7-1.2s1.2-0.2,1.7,0c0.5,0.3,0.8,0.8,1,1.4c0.1,0.6,0,1.2-0.1,1.7c-0.2,1.1-0.7,2.2-1.1,3.3c-0.1,0.3-0.2,0.6-0.4,0.9c-0.5,1.2-0.9,2.4-1.4,3.7c-0.1,0.2-0.1,0.4-0.1,0.7c0,0.1,0,0.2-0.1,0.3c0,0.1,0,0.1,0,0.1h0.1c0.3,0,0.6,0,0.8-0.1c0.8-0.3,1.5-0.9,2.1-1.5c0.3-0.3,0.7-0.6,1-1c0.1-0.1,0.3-0.3,0.4-0.4c0.4-0.4,0.8-0.4,1.2,0c0.3,0.3,0.6,0.6,0.9,0.9c0.2,0.2,0.3,0.3,0.3,0.5s-0.1,0.4-0.2,0.5l-0.2,0.2c-1.1,1.1-2.3,2.3-3.7,3.1C27.4,43.7,26.6,43.9,26,43.9z"/><path fill="currentColor" d="M58.7,15.2c0,0.6-0.2,1.2-0.5,1.7s-0.8,0.9-1.3,1.2s-1.2,0.4-2,0.4h-1.2V22h-1.6v-9.8h3c1.1,0,2,0.3,2.6,0.8C58.4,13.5,58.7,14.2,58.7,15.2z M57,15.3c0-0.6-0.2-1-0.5-1.3c-0.4-0.3-0.9-0.4-1.5-0.4h-1.1v3.5h1c0.7,0,1.2-0.2,1.6-0.5C56.8,16.3,57,15.9,57,15.3z"/><path fill="currentColor" d="M60.5,18.9c0,0.6,0.2,1.1,0.6,1.5s0.9,0.5,1.5,0.5c0.4,0,0.8-0.1,1.1-0.2c0.4-0.1,0.7-0.3,1-0.5v1.3c-0.3,0.2-0.6,0.3-1.1,0.4c-0.4,0.1-0.9,0.2-1.4,0.2c-1.1,0-1.9-0.3-2.5-1s-0.9-1.5-0.9-2.6c0-0.7,0.1-1.4,0.4-2c0.3-0.6,0.7-1,1.2-1.3s1.1-0.5,1.7-0.5c1,0,1.7,0.3,2.3,0.9c0.5,0.6,0.8,1.4,0.8,2.5v0.8C65.2,18.9,60.5,18.9,60.5,18.9z M63.7,17.8c0-0.6-0.1-1-0.4-1.3c-0.3-0.3-0.6-0.4-1.1-0.4c-0.4,0-0.8,0.2-1.1,0.5s-0.5,0.7-0.6,1.2C60.5,17.8,63.7,17.8,63.7,17.8z"/><path fill="currentColor" d="M71.4,22v-5.7h-3.1V22h-1.6v-7H73v7H71.4z"/><path fill="currentColor" d="M76.2,18.9c0,0.6,0.2,1.1,0.6,1.5c0.4,0.3,0.9,0.5,1.5,0.5c0.4,0,0.8-0.1,1.1-0.2c0.4-0.1,0.7-0.3,1-0.5v1.3c-0.3,0.2-0.6,0.3-1.1,0.4c-0.4,0.1-0.9,0.2-1.4,0.2c-1.1,0-1.9-0.3-2.5-1s-0.9-1.5-0.9-2.6c0-0.7,0.1-1.4,0.4-2s0.7-1,1.2-1.3s1.1-0.5,1.7-0.5c1,0,1.7,0.3,2.3,0.9c0.5,0.6,0.8,1.4,0.8,2.5v0.8C80.9,18.9,76.2,18.9,76.2,18.9z M79.4,17.8c0-0.6-0.1-1-0.4-1.3s-0.6-0.4-1.1-0.4c-0.4,0-0.8,0.2-1.1,0.5c-0.3,0.3-0.5,0.7-0.6,1.2C76.2,17.8,79.4,17.8,79.4,17.8z"/><path fill="currentColor" d="M85,16.2V22h-1.6v-5.7h-1.9V15h5.4v1.3H85V16.2z"/><path fill="currentColor" d="M93.1,22v-4.9L89.5,22h-1.3v-7h1.5v4.8l3.5-4.8h1.4v7H93.1z"/><path fill="currentColor" d="M99.3,16.2V22h-1.6v-5.7h-1.9V15h5.4v1.3h-1.9V16.2z"/><path fill="currentColor" d="M108.7,18.4c0,1.1-0.3,2-1,2.7s-1.5,1-2.7,1c-1.1,0-1.9-0.3-2.6-1c-0.6-0.6-1-1.5-1-2.6c0-1.2,0.3-2.1,1-2.7c0.7-0.7,1.6-1,2.7-1s1.9,0.3,2.6,1S108.7,17.3,108.7,18.4z M107.1,18.5c0-0.8-0.2-1.4-0.5-1.8s-0.8-0.6-1.4-0.6s-1.1,0.2-1.5,0.6s-0.5,1-0.5,1.8c0,0.7,0.2,1.3,0.5,1.7s0.8,0.6,1.5,0.6c0.6,0,1.1-0.2,1.4-0.6C106.9,19.8,107.1,19.2,107.1,18.5z"/><path fill="currentColor" d="M117.1,18.3c0,1.2-0.3,2.1-0.9,2.8s-1.4,1-2.4,1c-0.8,0-1.5-0.4-2-1.1l0,0v4.1h-1.6V15h1.6v1.1l0,0c0.6-0.9,1.3-1.3,2.3-1.3c0.9,0,1.6,0.3,2.1,0.9C116.9,16.4,117.1,17.2,117.1,18.3z M115.5,18.3c0-0.7-0.2-1.2-0.5-1.6s-0.7-0.6-1.3-0.6c-0.6,0-1,0.2-1.3,0.6s-0.5,0.9-0.5,1.5v0.9c0,0.5,0.2,0.9,0.5,1.3c0.3,0.3,0.7,0.5,1.2,0.5c0.6,0,1.1-0.2,1.4-0.7S115.5,19.1,115.5,18.3z"/><path fill="currentColor" d="M55.7,37v-1l0,0c-0.5,0.8-1.2,1.1-2.1,1.1c-0.7,0-1.2-0.2-1.6-0.6c-0.4-0.4-0.6-0.9-0.6-1.5c0-0.7,0.2-1.2,0.6-1.6s1-0.6,1.7-0.7l2-0.3c0-1-0.4-1.4-1.3-1.4c-0.4,0-0.8,0.1-1.2,0.2s-0.8,0.3-1.1,0.6v-1.4c0.3-0.2,0.6-0.3,1.1-0.4s1-0.2,1.4-0.2c0.9,0,1.6,0.2,2,0.7c0.5,0.5,0.7,1.1,0.7,2V37H55.7L55.7,37z M53,34.9c0,0.3,0.1,0.5,0.3,0.7s0.5,0.3,0.8,0.3c0.5,0,0.9-0.2,1.2-0.5s0.5-0.7,0.5-1.2v-0.6l-1.5,0.2c-0.5,0.1-0.8,0.2-1,0.4C53.1,34.3,53,34.6,53,34.9z"/><path fill="currentColor" d="M63.7,37v-3h-3.1v3H59v-7h1.6v2.7h3.1V30h1.6v7H63.7z"/><path fill="currentColor" d="M69,31.2V37h-1.6v-7h4.1v1.3L69,31.2L69,31.2z"/><path fill="currentColor" d="M76.3,37v-5.7h-1.6c-0.2,1.5-0.3,2.7-0.6,3.5c-0.2,0.8-0.5,1.4-0.9,1.8c-0.4,0.4-0.9,0.5-1.5,0.5c-0.3,0-0.6,0-0.7-0.1v-1.1c0.1,0,0.2,0.1,0.4,0.1c0.3,0,0.6-0.2,0.9-0.6c0.2-0.4,0.4-1,0.6-1.8s0.3-2,0.5-3.5h4.5v7L76.3,37L76.3,37z"/><path fill="currentColor" d="M84.9,37v-4.9L81.3,37H80v-7h1.5v4.8L85,30h1.4v7H84.9z"/><path fill="currentColor" d="M93.4,37v-4.9L89.8,37h-1.3v-7H90v4.8l3.5-4.8h1.4v7H93.4z M94.4,27c0,0.3-0.1,0.5-0.2,0.8s-0.3,0.5-0.5,0.7s-0.5,0.3-0.8,0.4S92.2,29,91.8,29c-0.4,0-0.8-0.1-1.1-0.2s-0.6-0.3-0.8-0.4c-0.2-0.2-0.4-0.4-0.5-0.7c-0.1-0.3-0.2-0.5-0.2-0.8h1.3c0.1,0.4,0.2,0.6,0.4,0.8c0.2,0.2,0.5,0.3,0.9,0.3l0,0c0.4,0,0.7-0.1,0.9-0.3c0.2-0.2,0.3-0.5,0.4-0.8L94.4,27L94.4,27z"/><path fill="currentColor" d="M102,36.7c-0.5,0.3-1.2,0.5-2,0.5c-0.7,0-1.3-0.1-1.8-0.4c-0.5-0.3-0.9-0.7-1.2-1.2c-0.3-0.5-0.4-1.1-0.4-1.8c0-0.8,0.2-1.4,0.5-2c0.3-0.6,0.7-1,1.3-1.4c0.6-0.3,1.2-0.5,2-0.5c0.3,0,0.6,0,0.9,0.1s0.6,0.2,0.8,0.3v1.5c-0.5-0.4-1.1-0.6-1.6-0.6c-0.7,0-1.2,0.2-1.6,0.7c-0.4,0.4-0.6,1-0.6,1.8c0,0.7,0.2,1.3,0.6,1.7s0.9,0.6,1.6,0.6c0.2,0,0.5-0.1,0.8-0.2c0.3-0.1,0.6-0.2,0.8-0.4L102,36.7L102,36.7z"/><path fill="currentColor" d="M107.9,37l-2.7-3.4l0,0V37h-1.6v-7h1.6v3.2l0,0l2.6-3.2h2l-3,3.3L110,37H107.9L107.9,37z"/><path fill="currentColor" d="M117.2,33.4c0,1.1-0.3,2-1,2.7s-1.5,1-2.7,1c-1.1,0-1.9-0.3-2.6-1c-0.6-0.6-1-1.5-1-2.6c0-1.2,0.3-2.1,1-2.7s1.6-1,2.7-1s1.9,0.3,2.6,1S117.2,32.3,117.2,33.4z M115.6,33.5c0-0.8-0.2-1.4-0.5-1.8c-0.3-0.4-0.8-0.6-1.4-0.6s-1.1,0.2-1.5,0.6c-0.4,0.4-0.5,1-0.5,1.8c0,0.7,0.2,1.3,0.5,1.7c0.4,0.4,0.8,0.6,1.5,0.6c0.6,0,1.1-0.2,1.4-0.6C115.4,34.8,115.6,34.2,115.6,33.5z"/><path fill="currentColor" d="M120.4,31.2V37h-1.6v-7h4.1v1.3L120.4,31.2L120.4,31.2z"/><path fill="currentColor" d="M130.5,33.4c0,1.1-0.3,2-1,2.7s-1.5,1-2.7,1c-1.1,0-1.9-0.3-2.6-1c-0.6-0.6-1-1.5-1-2.6c0-1.2,0.3-2.1,1-2.7c0.7-0.7,1.6-1,2.7-1s1.9,0.3,2.6,1C130.2,31.4,130.5,32.3,130.5,33.4z M128.8,33.5c0-0.8-0.2-1.4-0.5-1.8c-0.3-0.4-0.8-0.6-1.4-0.6s-1.1,0.2-1.5,0.6c-0.4,0.4-0.5,1-0.5,1.8c0,0.7,0.2,1.3,0.5,1.7c0.4,0.4,0.8,0.6,1.5,0.6c0.6,0,1.1-0.2,1.4-0.6C128.7,34.8,128.8,34.2,128.8,33.5z"/><path fill="currentColor" d="M58,49.9c0,0.6-0.2,1.1-0.6,1.5c-0.4,0.4-1,0.6-1.7,0.6H52v-7h3.4c0.8,0,1.3,0.1,1.7,0.4c0.4,0.3,0.6,0.7,0.6,1.3c0,0.4-0.1,0.8-0.4,1c-0.3,0.3-0.6,0.5-1,0.6c0.5,0.1,0.9,0.2,1.2,0.5C57.9,49.1,58,49.5,58,49.9z M56.1,46.9c0-0.3-0.1-0.5-0.3-0.6s-0.5-0.2-0.9-0.2h-1.4v1.8h1.3c0.4,0,0.7-0.1,0.9-0.2C56,47.5,56.1,47.2,56.1,46.9z M56.4,49.9c0-0.6-0.4-1-1.3-1h-1.4v1.9h1.5c0.4,0,0.7-0.1,0.9-0.2C56.3,50.5,56.4,50.2,56.4,49.9z"/><path fill="currentColor" d="M66.6,43.6V52H65v-8.4h-2.8v-1.4h7.3v1.4H66.6z"/><path fill="currentColor" d="M69.8,55.3c-0.4,0-0.7,0-1-0.1v-1.3c0.3,0.1,0.5,0.2,0.8,0.2c0.6,0,1-0.3,1.2-0.9l0.5-1.1l-2.8-7h1.8l1.8,5.4l0,0L74,45h1.6l-3,7.8c-0.3,0.8-0.7,1.5-1.2,1.9C70.9,55.1,70.4,55.3,69.8,55.3z"/><path fill="currentColor" d="M76.6,52v-7h1.6v5.7h2.4V45h1.6v5.7h2.4V45h1.6v7H76.6z"/><path fill="currentColor" d="M93.2,52v-4.9L89.6,52h-1.3v-7h1.5v4.8l3.5-4.8h1.4v7H93.2z"/><path fill="currentColor" d="M101.5,52v-3h-3.1v3h-1.6v-7h1.6v2.7h3.1V45h1.6v7H101.5z"/><path fill="currentColor" d="M111.8,48.4c0,1.1-0.3,2-1,2.7s-1.5,1-2.7,1c-1.1,0-1.9-0.3-2.6-1c-0.6-0.6-1-1.5-1-2.6c0-1.2,0.3-2.1,1-2.7c0.7-0.7,1.6-1,2.7-1s1.9,0.3,2.6,1C111.5,46.4,111.8,47.3,111.8,48.4z M110.2,48.5c0-0.8-0.2-1.4-0.5-1.8c-0.3-0.4-0.8-0.6-1.4-0.6s-1.1,0.2-1.5,0.6c-0.4,0.4-0.5,1-0.5,1.8c0,0.7,0.2,1.3,0.5,1.7c0.4,0.4,0.8,0.6,1.5,0.6c0.6,0,1.1-0.2,1.4-0.6S110.2,49.2,110.2,48.5z"/></svg>