<svg version="1.1" xmlns="http://www.w3.org/2000/svg" x="0px" y="0px" viewBox="0 0 1024 576" enable-background="new 0 0 1024 576"><rect fill="#282828" stroke="#000000" stroke-miterlimit="10" width="1024" height="576"/><path fill="#FF0000" d="M435.093,256.551c-1.497-5.612-5.924-10.04-11.557-11.557c-10.185-2.723-51.05-2.723-51.05-2.723s-40.844,0-51.05,2.723c-5.612,1.497-10.04,5.924-11.557,11.557c-2.723,10.185-2.723,31.449-2.723,31.449s0,21.264,2.723,31.449c1.497,5.612,5.924,10.039,11.557,11.557c10.206,2.723,51.05,2.723,51.05,2.723s40.865,0,51.05-2.723c5.612-1.497,10.04-5.924,11.557-11.557c2.723-10.185,2.723-31.449,2.723-31.449S437.816,266.736,435.093,256.551z"/><polygon fill="#FFFFFF" points="359.433,307.601 393.376,288 359.433,268.399 "/><path fill="#FFFFFF" d="M496.806,325.477c-2.577-1.746-4.427-4.448-5.508-8.127c-1.081-3.679-1.642-8.564-1.642-14.675v-8.314c0-6.173,0.624-11.12,1.871-14.862s3.201-6.464,5.841-8.169c2.64-1.704,6.111-2.577,10.414-2.577c4.24,0,7.628,0.873,10.185,2.619s4.427,4.469,5.612,8.169c1.185,3.7,1.767,8.647,1.767,14.799v8.314c0,6.111-0.582,11.016-1.725,14.716c-1.143,3.7-3.014,6.423-5.612,8.127c-2.577,1.704-6.09,2.577-10.518,2.577C502.958,328.096,499.383,327.223,496.806,325.477z M511.293,316.497c0.707-1.871,1.081-4.926,1.081-9.146v-17.855c0-4.116-0.353-7.109-1.081-9.021c-0.707-1.892-1.975-2.848-3.783-2.848c-1.746,0-2.972,0.956-3.7,2.848c-0.707,1.892-1.081,4.905-1.081,9.021v17.855c0,4.24,0.333,7.296,1.018,9.146c0.686,1.871,1.933,2.806,3.741,2.806C509.319,319.303,510.566,318.368,511.293,316.497z"/><path fill="#FFFFFF" d="M695.247,302.82v2.889c0,3.679,0.104,6.423,0.333,8.273c0.208,1.829,0.665,3.18,1.351,4.012s1.746,1.268,3.18,1.268c1.933,0,3.263-0.748,3.97-2.245s1.102-3.991,1.164-7.483l11.12,0.644c0.062,0.499,0.083,1.185,0.083,2.058c0,5.3-1.455,9.25-4.344,11.869c-2.889,2.619-6.984,3.928-12.284,3.928c-6.36,0-10.809-1.995-13.365-5.986c-2.557-3.991-3.825-10.143-3.825-18.499v-9.998c0-8.605,1.33-14.862,3.97-18.832c2.64-3.949,7.171-5.924,13.594-5.924c4.427,0,7.815,0.811,10.185,2.432c2.37,1.621,4.032,4.136,5.009,7.566c0.956,3.43,1.455,8.169,1.455,14.197v9.811h-21.596V302.82z M696.889,278.709c-0.644,0.811-1.081,2.141-1.31,3.97c-0.229,1.829-0.333,4.635-0.333,8.356v4.116h9.437v-4.116c0-3.679-0.125-6.464-0.374-8.356c-0.249-1.892-0.707-3.243-1.351-4.012s-1.663-1.164-3.035-1.164C698.552,277.482,697.534,277.898,696.889,278.709z"/><path fill="#FFFFFF" d="M465.419,301.739l-14.675-52.983h12.804l5.134,24.008c1.31,5.924,2.266,10.954,2.889,15.132h0.374c0.436-2.993,1.393-8.003,2.889-15.049l5.321-24.111h12.804l-14.841,53.004v25.421h-12.7V301.739z"/><path fill="#FFFFFF" d="M566.978,269.875v57.265h-10.081l-1.122-7.005h-0.27c-2.744,5.3-6.859,7.94-12.326,7.94c-3.804,0-6.61-1.247-8.418-3.741s-2.702-6.381-2.702-11.682v-42.777h12.887v42.05c0,2.557,0.27,4.386,0.831,5.467c0.561,1.081,1.497,1.642,2.806,1.642c1.122,0,2.203-0.333,3.222-1.019c1.018-0.686,1.788-1.559,2.286-2.619v-45.521H566.978z"/><path fill="#FFFFFF" d="M633.119,269.875v57.265h-10.081l-1.122-7.005h-0.27c-2.744,5.3-6.859,7.94-12.326,7.94c-3.804,0-6.61-1.247-8.418-3.741c-1.808-2.494-2.702-6.381-2.702-11.682v-42.777h12.887v42.05c0,2.557,0.27,4.386,0.831,5.467c0.561,1.081,1.497,1.642,2.806,1.642c1.122,0,2.203-0.333,3.222-1.019c1.019-0.686,1.788-1.559,2.286-2.619v-45.521H633.119z"/><path fill="#FFFFFF" d="M602.023,259.129h-12.804v68.011h-12.617v-68.011h-12.804v-10.372h38.204v10.372H602.023z"/><path fill="#FFFFFF" d="M675.792,279.041c-0.79-3.617-2.037-6.236-3.783-7.857c-1.746-1.621-4.136-2.432-7.192-2.432c-2.37,0-4.573,0.665-6.631,2.016c-2.058,1.33-3.638,3.097-4.76,5.28h-0.104v-30.181h-12.43v81.293h10.642l1.31-5.425h0.27c0.998,1.933,2.494,3.45,4.49,4.573s4.199,1.684,6.631,1.684c4.365,0,7.566-2.016,9.624-6.028c2.058-4.012,3.076-10.289,3.076-18.832v-9.063C676.956,287.667,676.561,282.658,675.792,279.041z M663.965,302.405c0,4.178-0.166,7.441-0.52,9.811c-0.333,2.37-0.915,4.053-1.725,5.051c-0.811,0.998-1.891,1.497-3.263,1.497c-1.06,0-2.037-0.249-2.952-0.748c-0.894-0.499-1.642-1.247-2.203-2.245v-32.53c0.437-1.559,1.185-2.827,2.245-3.825c1.06-0.998,2.203-1.497,3.45-1.497c1.31,0,2.328,0.52,3.035,1.538s1.206,2.764,1.497,5.176c0.27,2.432,0.416,5.882,0.416,10.372v7.4H663.965z"/></svg>