<svg version="1.1" xmlns="http://www.w3.org/2000/svg" x="0px" y="0px" viewBox="0 0 1024 576" enable-background="new 0 0 1024 576"><rect fill="#1AB7EA" width="1024" height="576"/><path fill="#FFFFFF" d="M621.08,236.76c-0.96,21.24-15.72,50.52-44.52,87.72c-29.88,39-54.96,58.32-75.48,58.32c-12.72,0-23.4-11.76-32.28-35.4c-3.96-14.28-9.84-36.12-17.64-65.04c-6.48-23.52-13.44-35.4-21-35.4c-1.56,0-7.2,3.36-17.04,10.32l-10.32-13.2c2.04-1.92,6.96-6.24,14.4-13.08c7.56-6.72,13.32-11.88,17.52-15.6c13.92-12.36,24.72-18.96,32.28-19.68c8.52-0.84,15.36,1.56,20.52,7.56c5.16,5.76,8.88,15,10.92,27.6c3.96,25.8,6.96,42.48,8.88,50.4c4.92,22.44,10.32,33.72,16.08,33.72c4.44,0,11.4-7.2,20.76-21.72c9-14.52,13.92-25.56,14.64-33.12c1.08-12.6-3.72-18.72-14.64-18.72c-5.16,0-10.44,1.08-16.2,3.6c10.8-35.4,31.32-52.56,61.56-51.48C611.96,193.56,622.52,208.2,621.08,236.76z"/></svg>