<svg version="1.1" xmlns="http://www.w3.org/2000/svg" viewBox="0 0 24 24" enable-background="new 0 0 24 24"><path fill="currentColor" d="M6.022,10.656c1.6,3.144,4.178,5.722,7.322,7.322l2.444-2.444c0.311-0.311,0.744-0.4,1.133-0.278c1.244,0.411,2.578,0.633,3.967,0.633C21.503,15.889,22,16.386,22,17v3.889C22,21.503,21.503,22,20.889,22C10.457,22,2,13.543,2,3.111C2,2.497,2.497,2,3.111,2H7c0.614,0,1.111,0.497,1.111,1.111c0,1.389,0.222,2.722,0.633,3.967C8.867,7.467,8.778,7.9,8.467,8.211L6.022,10.656z"></path></svg>