<svg version="1.1" xmlns="http://www.w3.org/2000/svg" viewBox="0 0 24 24" enable-background="new 0 0 24 24"><path fill="currentColor" d="M12.745,13.454c0,0,0.356,0.032,0.548-0.206l0.374-0.469c0.18-0.233,0.616-0.382,1.043-0.145c0.564,0.318,1.294,0.818,1.794,1.284c0.275,0.232,0.34,0.573,0.152,0.934l-0.002,0.007c-0.194,0.34-0.452,0.659-0.778,0.957l-0.008,0.005c-0.367,0.306-0.79,0.483-1.241,0.337l-0.008-0.012c-0.811-0.229-2.758-1.22-3.999-2.207C8.59,12.341,7.147,9.704,6.748,8.291L6.736,8.283C6.589,7.83,6.768,7.408,7.073,7.043l0.006-0.007C7.377,6.71,7.696,6.452,8.037,6.259l0.008-0.002C8.405,6.07,8.748,6.133,8.981,6.409C9.287,6.725,9.862,7.485,10.266,8.2c0.237,0.425,0.088,0.861-0.144,1.04L9.651,9.613c-0.237,0.192-0.206,0.547-0.206,0.547S10.141,12.791,12.745,13.454z M16.841,11.274c-0.139,0-0.253-0.112-0.254-0.252c-0.012-1.525-0.471-2.74-1.364-3.61c-0.895-0.871-2.026-1.317-3.362-1.327c-0.14-0.001-0.253-0.115-0.251-0.255c0.001-0.139,0.114-0.251,0.253-0.251h0.002c1.471,0.01,2.72,0.505,3.712,1.47c0.993,0.968,1.504,2.304,1.517,3.969c0.001,0.139-0.111,0.253-0.251,0.255C16.843,11.274,16.841,11.274,16.841,11.274z M15.51,10.754h-0.006c-0.14-0.003-0.251-0.119-0.248-0.258c0.02-0.865-0.228-1.565-0.756-2.141c-0.526-0.574-1.248-0.887-2.208-0.957c-0.139-0.011-0.245-0.132-0.235-0.271c0.011-0.139,0.132-0.244,0.271-0.234c1.08,0.079,1.937,0.457,2.545,1.121c0.612,0.667,0.912,1.506,0.889,2.493C15.759,10.644,15.646,10.754,15.51,10.754z M14.209,10.319c-0.134,0-0.246-0.105-0.253-0.241C13.913,9.22,13.508,8.8,12.681,8.755c-0.14-0.007-0.247-0.127-0.24-0.266c0.008-0.14,0.126-0.247,0.266-0.239c1.092,0.058,1.698,0.682,1.754,1.803c0.008,0.139-0.1,0.258-0.24,0.265C14.221,10.318,14.209,10.319,14.209,10.319z M19.9,13.21c-0.505,4.064-3.483,4.321-4.032,4.497c-0.234,0.075-2.406,0.614-5.136,0.437c0,0-2.035,2.45-2.671,3.087c-0.099,0.099-0.215,0.139-0.294,0.121c-0.109-0.027-0.139-0.157-0.138-0.345l0.017-3.347v-0.001c-3.975-1.102-3.744-5.246-3.699-7.415s0.453-3.947,1.666-5.142c2.179-1.97,6.668-1.676,6.668-1.676c3.791,0.017,5.607,1.156,6.029,1.537C19.709,6.159,20.421,9.02,19.9,13.21z M19.355,3.949c-0.498-0.457-2.51-1.915-6.991-1.935c0,0-5.284-0.318-7.86,2.042c-1.434,1.432-1.938,3.526-1.992,6.123c-0.053,2.598-0.122,7.465,4.578,8.785l0.005,0.002l-0.003,2.013c0,0-0.029,0.816,0.508,0.982c0.65,0.201,1.032-0.418,1.654-1.087c0.341-0.367,0.811-0.905,1.166-1.317c3.215,0.268,5.687-0.347,5.968-0.438c0.649-0.211,4.322-0.68,4.919-5.547C21.923,8.554,21.008,5.381,19.355,3.949z"></path></svg>