<svg version="1.1" xmlns="http://www.w3.org/2000/svg" xmlns:xlink="http://www.w3.org/1999/xlink" x="0px" y="0px" viewBox="0 0 136 64" enable-background="new 0 0 136 64" xml:space="preserve"><path fill="#F03B4C" d="M21,12C10,12,1,21,1,32s9,20,20,20s20-9,20-20S32,12,21,12z"/><path fill="#191919" d="M25.958,43.875c-0.365,0-0.721-0.06-1.075-0.179c-1.555-0.531-2.237-1.758-1.922-3.455c0.251-1.326,0.778-2.574,1.287-3.782l0.018-0.042c0.353-0.833,0.703-1.684,1.041-2.506c0.242-0.589,0.484-1.178,0.729-1.765c0.044-0.107,0.074-0.221,0.105-0.343c0.011-0.042,0.021-0.083,0.033-0.125h0c-0.112,0.108-0.225,0.214-0.339,0.321c-0.222,0.208-0.452,0.424-0.667,0.649c-0.577,0.612-1.152,1.227-1.726,1.843c-0.944,1.012-1.92,2.059-2.898,3.072c-0.689,0.713-1.534,1.508-2.589,2.001c-0.629,0.306-1.198,0.386-1.738,0.246c-0.985-0.259-1.513-1.088-1.449-2.275c0.054-1.105,0.429-2.131,0.827-3.076c0.411-0.97,0.853-1.943,1.281-2.884c0.202-0.445,0.405-0.89,0.604-1.336c0.202-0.448,0.405-0.896,0.608-1.344c0.559-1.234,1.138-2.51,1.677-3.774c0.168-0.386,0.279-0.807,0.387-1.214c0.049-0.183,0.097-0.366,0.15-0.546c0.022-0.073,0.024-0.157,0.027-0.246c0-0.011,0.001-0.023,0.001-0.034c-0.038,0.037-0.076,0.074-0.115,0.111c-0.131,0.125-0.267,0.254-0.371,0.396c-0.775,1.089-1.543,2.179-2.311,3.269c-0.219,0.308-0.437,0.616-0.654,0.924c-0.595,0.844-1.209,1.716-1.852,2.546c-0.352,0.45-0.819,0.858-1.348,1.182c-0.455,0.284-0.962,0.341-1.428,0.16c-0.507-0.197-0.902-0.654-1.083-1.253c-0.276-0.916,0.015-1.729,0.336-2.403c0.307-0.639,0.643-1.277,0.968-1.895c0.267-0.508,0.544-1.032,0.803-1.556c0.28-0.565,0.55-1.174,0.506-1.869c-0.025-0.428-0.208-0.78-0.544-1.047c-0.204-0.157-0.438-0.154-0.779,0.01c-0.529,0.248-0.984,0.656-1.479,1.324c-0.242,0.327-0.573,0.429-0.864,0.264c-0.186-0.111-0.31-0.27-0.352-0.448c-0.04-0.17-0.004-0.351,0.104-0.521c0.629-0.992,1.37-1.643,2.264-1.99c1.044-0.409,1.994-0.038,2.672,1.043c0.47,0.754,0.573,1.571,0.306,2.43c-0.244,0.795-0.575,1.549-0.894,2.253c-0.216,0.47-0.453,0.938-0.683,1.392c-0.217,0.427-0.441,0.87-0.644,1.307c-0.141,0.315-0.185,0.682-0.227,1.036c-0.013,0.1,0.053,0.244,0.141,0.327c0.049-0.002,0.187-0.056,0.239-0.115c0.097-0.104,0.194-0.205,0.292-0.306c0.349-0.362,0.709-0.736,0.993-1.152c0.544-0.796,1.078-1.617,1.595-2.411c0.429-0.658,0.872-1.339,1.318-2.003c0.493-0.726,1.034-1.444,1.61-2.134c0.458-0.537,0.916-0.835,1.442-0.939c0.42-0.081,0.846,0.028,1.198,0.306c0.395,0.312,0.642,0.795,0.679,1.325c0.054,0.705-0.033,1.381-0.258,2.01c-0.487,1.341-0.991,2.727-1.563,4.07c-0.437,1.034-0.899,2.076-1.346,3.084c-0.445,1.004-0.906,2.043-1.341,3.072c-0.23,0.55-0.392,1.141-0.549,1.712c-0.056,0.205-0.112,0.409-0.171,0.611c-0.028,0.09-0.032,0.199-0.038,0.337c-0.001,0.017-0.001,0.034-0.002,0.052c0.053-0.031,0.103-0.059,0.153-0.087c0.174-0.098,0.324-0.183,0.458-0.286c1.024-0.775,1.906-1.753,2.685-2.617c1.232-1.367,2.667-2.953,4.119-4.487c0.534-0.568,1.091-0.967,1.703-1.217c0.597-0.243,1.199-0.229,1.694,0.041c0.492,0.268,0.837,0.767,0.973,1.404c0.134,0.608,0.04,1.2-0.069,1.699c-0.248,1.14-0.695,2.228-1.127,3.28c-0.121,0.296-0.243,0.591-0.36,0.889c-0.461,1.176-0.918,2.38-1.395,3.679c-0.073,0.207-0.11,0.438-0.146,0.661c-0.019,0.116-0.037,0.231-0.06,0.345c-0.012,0.063-0.004,0.115,0.023,0.148c0.028,0.034,0.071,0.038,0.101,0.037c0.284-0.009,0.566-0.018,0.804-0.111c0.814-0.334,1.465-0.937,2.094-1.521c0.332-0.315,0.657-0.645,0.972-0.964c0.132-0.134,0.263-0.267,0.396-0.4c0.412-0.413,0.764-0.416,1.178-0.01c0.275,0.273,0.587,0.583,0.884,0.896c0.17,0.154,0.264,0.337,0.268,0.526c0.004,0.179-0.074,0.354-0.226,0.505l-0.172,0.172c-1.118,1.121-2.273,2.279-3.703,3.059C27.359,43.664,26.643,43.875,25.958,43.875z"/><path fill="#191919" d="M59.098,20.418c0,0.797-0.199,1.513-0.598,2.149s-0.964,1.129-1.696,1.481s-1.57,0.527-2.514,0.527h-1.494v4.535h-2.092V16.507h3.894c1.447,0,2.559,0.337,3.336,1.011C58.709,18.192,59.098,19.159,59.098,20.418z M56.901,20.489c0-0.709-0.228-1.255-0.682-1.639s-1.114-0.576-1.981-0.576h-1.441v4.535h1.345c0.867,0,1.544-0.196,2.03-0.589S56.901,21.25,56.901,20.489z"/><path fill="#191919" d="M61.401,25.208c0.041,0.82,0.29,1.444,0.747,1.872s1.11,0.642,1.96,0.642c0.51,0,0.999-0.081,1.468-0.242s0.879-0.368,1.23-0.62v1.714c-0.34,0.223-0.797,0.404-1.371,0.545s-1.181,0.211-1.819,0.211c-1.365,0-2.423-0.409-3.173-1.226s-1.125-1.953-1.125-3.406c0-0.961,0.186-1.802,0.558-2.522s0.889-1.282,1.547-1.683c0.66-0.401,1.385-0.602,2.176-0.602c1.242,0,2.207,0.381,2.896,1.143c0.688,0.762,1.032,1.816,1.032,3.164v1.011H61.401z M65.505,23.679c0-0.715-0.167-1.26-0.501-1.635s-0.803-0.563-1.406-0.563c-0.551,0-1.028,0.204-1.433,0.611s-0.659,0.936-0.765,1.586H65.505z"/><path fill="#191919" d="M75.401,29.111v-7.365h-3.99v7.365h-2.03v-9h8.051v9H75.401z"/><path fill="#191919" d="M81.536,25.208c0.041,0.82,0.29,1.444,0.747,1.872s1.11,0.642,1.96,0.642c0.51,0,0.999-0.081,1.468-0.242s0.879-0.368,1.23-0.62v1.714c-0.34,0.223-0.797,0.404-1.371,0.545s-1.181,0.211-1.819,0.211c-1.365,0-2.423-0.409-3.173-1.226s-1.125-1.953-1.125-3.406c0-0.961,0.186-1.802,0.558-2.522s0.889-1.282,1.547-1.683c0.66-0.401,1.385-0.602,2.176-0.602c1.242,0,2.207,0.381,2.896,1.143c0.688,0.762,1.032,1.816,1.032,3.164v1.011H81.536z M85.641,23.679c0-0.715-0.167-1.26-0.501-1.635s-0.803-0.563-1.406-0.563c-0.551,0-1.028,0.204-1.433,0.611s-0.659,0.936-0.765,1.586H85.641z"/><path fill="#191919" d="M92.874,21.746v7.365h-2.03v-7.365h-2.479v-1.635h6.987v1.635H92.874z"/><path fill="#191919" d="M103.28,29.111V22.8l-4.658,6.311h-1.731v-9h1.925v6.135l4.518-6.135h1.854v9H103.28z"/><path fill="#191919" d="M111.234,21.746v7.365h-2.03v-7.365h-2.479v-1.635h6.987v1.635H111.234z"/><path fill="#191919" d="M123.407,24.523c0,1.459-0.422,2.625-1.266,3.498s-1.989,1.31-3.437,1.31c-1.389,0-2.495-0.415-3.317-1.244c-0.824-0.829-1.235-1.953-1.235-3.371c0-1.494,0.422-2.672,1.266-3.533s2.013-1.292,3.507-1.292c1.406,0,2.505,0.412,3.296,1.235S123.407,23.082,123.407,24.523z M121.298,24.593c0-0.996-0.222-1.752-0.664-2.268s-1.05-0.773-1.823-0.773c-0.797,0-1.421,0.27-1.872,0.809s-0.677,1.301-0.677,2.285c0,0.955,0.226,1.698,0.677,2.228s1.081,0.795,1.89,0.795c0.814,0,1.43-0.261,1.846-0.782S121.298,25.601,121.298,24.593z"/><path fill="#191919" d="M134.174,24.374c0,1.512-0.372,2.716-1.116,3.612s-1.752,1.345-3.023,1.345c-1.09,0-1.937-0.451-2.54-1.354h-0.035v5.273h-2.03V20.111h2.03v1.441h0.035c0.715-1.107,1.711-1.661,2.988-1.661c1.148,0,2.051,0.401,2.707,1.204S134.174,22.991,134.174,24.374z M132.064,24.338c0-0.867-0.197-1.548-0.594-2.043c-0.395-0.495-0.947-0.743-1.656-0.743s-1.282,0.249-1.719,0.747s-0.654,1.143-0.654,1.934v1.151c0,0.662,0.208,1.208,0.624,1.639s0.935,0.646,1.556,0.646c0.773,0,1.374-0.287,1.802-0.861S132.064,25.411,132.064,24.338z"/><path fill="#191919" d="M58.202,44.447c0,0.826-0.267,1.477-0.8,1.951s-1.269,0.712-2.206,0.712h-4.702v-9h4.43c0.967,0,1.7,0.184,2.202,0.55c0.5,0.366,0.751,0.909,0.751,1.63c0,0.527-0.166,0.978-0.497,1.35s-0.754,0.61-1.27,0.716c0.645,0.076,1.154,0.304,1.529,0.682S58.202,43.885,58.202,44.447z M55.767,40.58c0-0.352-0.111-0.612-0.334-0.782s-0.609-0.255-1.16-0.255h-1.749v2.259h1.644c0.51,0,0.903-0.101,1.183-0.303C55.627,41.297,55.767,40.99,55.767,40.58z M56.075,44.447c0-0.832-0.577-1.248-1.731-1.248h-1.819v2.443h1.951c0.533,0,0.933-0.094,1.199-0.281S56.075,44.869,56.075,44.447z"/><path fill="#191919" d="M69.205,36.309V47.11h-2.109V36.309h-3.612v-1.802h9.342v1.802H69.205z"/><path fill="#191919" d="M73.345,51.338c-0.504,0-0.92-0.047-1.248-0.141v-1.731c0.322,0.146,0.653,0.22,0.993,0.22c0.721,0,1.248-0.384,1.582-1.151l0.615-1.424l-3.604-9h2.285l2.312,6.952h0.035l2.391-6.952h2.065l-3.902,10.081c-0.41,1.09-0.908,1.887-1.494,2.391S74.112,51.338,73.345,51.338z"/><path fill="#191919" d="M82.134,47.11v-9h2.03v7.365h3.067V38.11h2.03v7.365h3.067V38.11h2.03v9H82.134z"/><path fill="#191919" d="M103.438,47.11V40.8L98.78,47.11h-1.731v-9h1.925v6.135l4.518-6.135h1.854v9H103.438z"/><path fill="#191919" d="M114.056,47.11v-3.876h-3.99v3.876h-2.03v-9h2.03V41.6h3.99V38.11h2.03v9H114.056z"/><path fill="#191919" d="M127.362,42.522c0,1.459-0.422,2.625-1.266,3.498s-1.989,1.31-3.437,1.31c-1.389,0-2.495-0.414-3.317-1.243c-0.824-0.829-1.235-1.953-1.235-3.371c0-1.494,0.422-2.672,1.266-3.533s2.013-1.292,3.507-1.292c1.406,0,2.505,0.412,3.296,1.235S127.362,41.081,127.362,42.522z M125.253,42.593c0-0.996-0.222-1.752-0.664-2.268s-1.05-0.773-1.823-0.773c-0.797,0-1.421,0.27-1.872,0.809s-0.677,1.301-0.677,2.285c0,0.955,0.226,1.698,0.677,2.229s1.081,0.795,1.89,0.795c0.814,0,1.43-0.261,1.846-0.782S125.253,43.601,125.253,42.593z"/></svg>